<svg width="105" height="104" viewBox="0 0 105 104" fill="none" xmlns="http://www.w3.org/2000/svg">
<rect x="5.48764" y="1.4946" width="97.0177" height="97.0108" fill="#FFFFFE" fill-opacity="0.8" stroke="#222222" stroke-width="2.9892"/>
<path d="M95.6269 50.1811C95.6269 73.0714 77.0693 91.6279 54.1771 91.6279C31.285 91.6279 12.7274 73.0714 12.7274 50.1811C12.7274 27.2908 31.285 8.73438 54.1771 8.73438C77.0693 8.73438 95.6269 27.2908 95.6269 50.1811Z" stroke="#222222" stroke-width="3"/>
<path d="M6.33899 82.4245C9.74264 81.8275 16.4783 80.3109 16.1917 79.0212C15.8334 77.409 13.3254 75.976 14.7586 73.4683C16.1917 70.9605 15.8334 67.736 18.5205 67.736C21.2076 67.736 26.4026 67.3778 27.1192 68.99C27.8357 70.6021 29.9854 75.2593 32.6725 73.4683C35.3596 71.6772 32.1351 64.6912 38.5841 65.2286C43.7433 65.6585 46.8214 67.2659 48.4368 67.736C49.4021 68.0169 51.0164 68.1664 49.8699 71.319C48.4368 75.2598 54.3484 79.738 57.0355 80.0962C59.7225 80.4545 65.8133 77.9467 62.2305 87.6196C59.3643 95.3578 59.4837 98.4866 59.9017 99.0837" stroke="#222222" stroke-width="3"/>
<path d="M6.33899 87.9775L12.0715 85.291C13.4449 85.291 16.6216 85.291 18.3413 85.291C20.0611 85.291 21.0881 81.3501 21.3867 79.3797V74.364C21.1479 73.2892 21.0284 71.2471 22.4615 71.677C24.2529 72.2144 24.6112 74.3647 26.4026 76.8722C27.8357 78.8782 32.4934 77.708 34.643 76.8722C35.8373 75.5586 38.5124 72.9672 39.6589 73.1105C41.092 73.2897 40.5546 70.2445 42.1669 70.4236C43.4567 70.5669 45.8735 72.219 45.5169 73.1105C44.6809 75.2003 43.0268 79.5947 45.0331 80.4545C47.5411 81.5292 51.303 84.9327 54.5275 84.037C57.1071 83.3205 57.6326 86.3655 57.5729 87.9775C56.5577 88.515 54.5275 90.2706 54.5275 92.9934C54.5275 95.7161 54.5275 97.9492 54.5275 98.7254" stroke="#222222" stroke-width="3"/>
<path d="M6.3407 92C8.54059 91.5112 11.6002 93.1589 16.0978 92.1813C20.5954 91.2037 23.6108 86.73 24.2626 87.1373C25.6478 86.4039 30.9105 87.8979 31.4971 91.8089C32.0837 95.7198 29.6827 98.7444 26.3421 98.5H16.0978H13.8412" stroke="#222222" stroke-width="3"/>
<path d="M38.4406 98.2068C37.9963 96.2281 37.0836 91.8829 36.9867 90.3318C36.8655 88.3929 34.405 86.3152 35.1692 83.5465C36.1233 80.0899 37.7642 80.7331 38.6931 81.5407C39.622 82.3486 41.7604 83.6678 43.8928 85.1218C46.5583 86.9392 47.2853 88.5143 46.8006 89.1201C46.316 89.7259 47.1641 94.6935 47.6488 95.5416C48.0365 96.2201 48.3757 97.6011 48.4969 98.2068" stroke="#222222" stroke-width="3"/>
<path d="M14.5927 1.81136C17.4382 4.10158 23.3374 9.63972 24.1702 13.4705C25.2113 18.2591 24.3784 17.0099 25.4195 22.6311C26.2523 27.1281 29.2366 27.2808 30.6247 26.795C31.5269 26.1704 32.7901 26.2537 30.6247 31.5835C27.918 38.2457 22.921 32.8327 21.4635 35.9556C20.0061 39.0785 15.2173 42.826 21.4635 47.1981C27.7098 51.5701 34.1642 52.4029 36.4545 51.9865C38.7448 51.5701 45.4075 43.2424 49.5717 42.6178C53.7359 41.9932 52.2784 32.4163 53.7359 30.3343C54.9018 28.6688 57.6918 22.5617 58.9411 19.7164C58.5941 17.2181 57.0672 12.4712 53.7359 13.4705C49.5717 10.1395 48.5306 9.72346 47.0732 5.76741C45.9072 2.60257 45.43 1.40131 45.3371 1.19629" stroke="#222222" stroke-width="3"/>
<path d="M103.16 70.1668C99.7161 68.9926 91.7477 66.8321 87.4269 67.5838C82.026 68.5234 86.018 62.8881 83.4349 61.4792C80.8518 60.0704 77.3294 58.6616 75.9205 61.4792C74.7933 63.7333 70.5978 63.9839 68.6409 63.8274C67.3885 63.5143 65.6352 62.1368 68.6409 59.1312C72.3981 55.3743 73.8071 53.2604 68.6409 52.7908C63.4748 52.3212 62.7703 48.5647 64.8837 45.9818C66.9972 43.3989 72.1633 37.5292 72.633 30.9545C73.1026 24.3799 84.1394 29.5448 87.4269 28.136C90.7145 26.7271 95.1762 25.3174 94.9414 28.136C94.7066 30.9545 94.4718 35.6504 90.9494 38.4681C87.4269 41.2858 89.0708 45.9818 90.9494 45.9818C92.828 45.9818 94.2369 45.9818 97.5245 45.9818C100.812 45.9818 100.342 38.4681 101.751 38.4681" stroke="#222222" stroke-width="3"/>
<path d="M55.5862 49.6151C54.2767 49.1236 51.3304 51.0886 47.5657 53.3797C46.5836 53.5981 44.3902 54.1003 43.4735 54.3622C42.3277 54.6895 44.1283 57.7993 44.6193 59.4361C45.1104 61.0728 47.5657 58.945 51.3304 57.7993C55.0951 56.6536 56.8957 58.945 57.0593 57.7993C57.223 56.6536 59.5146 53.3797 58.2051 53.3797C56.8957 53.3797 56.8957 50.1066 55.5862 49.6151Z" stroke="#222222" stroke-width="3"/>
<path d="M102.584 74.4142C99.7485 73.4381 93.6323 71.5695 91.8477 71.9044C89.6169 72.3231 87.386 73.8578 85.4341 72.8811C83.4821 71.9044 80.9724 73.5782 79.9964 70.511C79.0205 67.4439 80.833 66.0495 79.9964 65.7706C79.1599 65.4918 78.0444 64.6555 77.4867 65.7706C76.929 66.8858 74.4194 68.9769 71.7703 69.3952C69.1212 69.8134 66.6115 67.1645 65.9143 68.2798C65.2172 69.3952 60.6162 68.14 63.2653 71.9044C65.9143 75.6689 73.304 79.5726 70.9337 82.7792C68.5635 85.9858 67.5875 86.6829 67.7269 89.0529C67.8663 91.423 65.9143 92.9566 65.9143 94.769C65.9143 96.219 65.9143 97.9756 65.9143 98.6727" stroke="#222222" stroke-width="3"/>
<path d="M69.5104 97.7489C69.3419 96.805 69.3082 94.5326 70.5221 92.995C72.0395 91.0731 72.0395 88.1396 72.95 87.4315C73.8605 86.7234 73.1523 84.8013 74.5686 83.8909C75.9849 82.9805 76.4907 80.0474 76.1872 79.137C75.8837 78.2266 77.7047 76.3047 78.4128 76.507C79.121 76.7093 81.2454 77.0125 82.1559 77.7206C83.0663 78.4287 84.078 80.9576 85.5954 81.3622C87.1128 81.7668 87.9222 81.3622 89.5408 81.3622C90.8357 81.3622 92.5757 84.7341 93.2838 86.42C93.5198 87.6001 94.2145 90.1425 95.1047 90.8709C96.2175 91.7813 97.6338 92.7928 97.6338 94.209C97.6338 95.342 99.0501 97.041 99.7582 97.7489L100.568 99.1657" stroke="#222222" stroke-width="3"/>
<path d="M73.6582 99.1658C73.6582 97.9518 73.901 95.4023 74.8722 94.9168C76.0861 94.31 77.1989 91.5788 77.3001 90.7695C77.381 90.1221 77.3338 88.0721 77.3001 87.1281L78.9187 85.3074L81.3466 84.1943L83.6734 84.7003C83.9769 85.1724 84.7862 86.1165 85.5955 86.1165C86.4048 86.1165 87.6862 88.4768 88.2257 89.657L89.9455 91.2755L91.7664 94.3102L93.4862 96.3333L94.599 98.3564" stroke="#222222" stroke-width="3"/>
<path d="M102.405 87.2946L97.3634 82.0329L94.8426 80.0605L92.6505 78.3071L94.8426 76.4434L96.7058 76.9919L99.0075 78.3071L102.405 78.8552" stroke="#222222" stroke-width="3"/>
<path d="M77.2708 98.4236C77.5099 97.7956 78.2214 96.3063 79.1542 95.3738C80.087 94.4413 80.6192 92.6536 80.7687 91.8763C81.1573 91.428 81.9885 90.5135 82.2037 90.4417C82.4728 90.352 84.1769 92.9521 84.446 93.4005C84.6612 93.7593 84.5357 95.2247 84.446 95.9125L83.0109 98.4236" stroke="#222222" stroke-width="3"/>
<rect x="8.03516" y="48.6035" width="9.33275" height="3.1543" fill="#222222"/>
<rect x="91.2341" y="48.6035" width="9.33275" height="3.1543" fill="#222222"/>
<path d="M60.8064 1.14258C62.8371 4.34194 74.3726 8.80977 78.6556 9.40083C82.9385 9.9919 80.9393 14.7166 80.8778 15.7011C80.501 17.585 74.2423 18.3048 75.1284 19.1908C76.2361 20.2984 78.0822 22.3289 79.7437 22.5135C81.4051 22.6981 84.5435 21.9598 88.4203 21.2214C92.2971 20.483 94.1432 16.7911 96.9123 17.1603C99.1276 17.4556 101.74 14.4152 102.847 13" stroke="#222222" stroke-width="3"/>
<path d="M44.6235 16.4286C42.0558 14.4536 36.6217 16.9067 37.2166 18.8974L38.6783 22.9622C38.8878 24.5427 39.181 28.092 38.6783 29.6458C38.0499 31.588 36.3932 31.4166 35.2506 32.1021C34.3365 32.6505 34.1842 35.1107 34.2223 36.2722L35.879 38.7857C37.1168 39.2808 39.798 40.1681 40.6207 39.7568C41.649 39.2427 43.9913 36.8435 44.6235 33.8159C45.2557 30.7883 49.647 27.0752 49.8755 24.5046C50.104 21.934 50.0469 21.9911 49.3614 21.2485C48.6758 20.5058 47.8331 18.8974 44.6235 16.4286Z" stroke="#222222" stroke-width="3"/>
<rect y="4" width="3.9856" height="100" fill="#222222"/>
<rect x="99.9998" y="100" width="4" height="96.0066" transform="rotate(90 99.9998 100)" fill="#222222"/>
</svg>
