<svg width="238" height="48" viewBox="0 0 238 48" fill="none" xmlns="http://www.w3.org/2000/svg">
<path d="M17.5201 47.8318C14.9175 47.8318 12.5708 47.4265 10.4801 46.6158C8.38946 45.8052 6.59746 44.6532 5.10413 43.1598C3.6108 41.6238 2.4588 39.7892 1.64813 37.6558C0.837462 35.5225 0.432129 33.1332 0.432129 30.4878C0.432129 27.8425 0.837462 25.4532 1.64813 23.3198C2.4588 21.1438 3.6108 19.3092 5.10413 17.8158C6.59746 16.2798 8.38946 15.1065 10.4801 14.2958C12.5708 13.4425 14.9175 13.0158 17.5201 13.0158C20.1228 13.0158 22.4695 13.4425 24.5601 14.2958C26.6935 15.1065 28.5068 16.2798 30.0001 17.8158C31.4935 19.3092 32.6455 21.1438 33.4561 23.3198C34.2668 25.4532 34.6721 27.8425 34.6721 30.4878C34.6721 33.1332 34.2668 35.5225 33.4561 37.6558C32.6455 39.7892 31.4935 41.6238 30.0001 43.1598C28.5068 44.6532 26.6935 45.8052 24.5601 46.6158C22.4695 47.4265 20.1228 47.8318 17.5201 47.8318ZM17.5201 41.0478C19.0561 41.0478 20.3361 40.7492 21.3601 40.1518C22.4268 39.5545 23.2588 38.7652 23.8561 37.7838C24.4961 36.7598 24.9441 35.6292 25.2001 34.3918C25.4561 33.1118 25.5841 31.8105 25.5841 30.4878C25.5841 29.1652 25.4561 27.8638 25.2001 26.5838C24.9441 25.3038 24.4961 24.1732 23.8561 23.1918C23.2588 22.2105 22.4268 21.4212 21.3601 20.8238C20.3361 20.1838 19.0561 19.8638 17.5201 19.8638C15.9841 19.8638 14.7041 20.1838 13.6801 20.8238C12.6561 21.4212 11.8241 22.2105 11.1841 23.1918C10.5868 24.1732 10.1601 25.3038 9.90413 26.5838C9.64813 27.8638 9.52013 29.1652 9.52013 30.4878C9.52013 31.8105 9.64813 33.1118 9.90413 34.3918C10.1601 35.6292 10.5868 36.7598 11.1841 37.7838C11.8241 38.7652 12.6561 39.5545 13.6801 40.1518C14.7041 40.7492 15.9841 41.0478 17.5201 41.0478Z" fill="#222222"/>
<path d="M40.5811 13.9118H49.6051V40.1518H58.8211V13.9118H67.8451V40.1518H77.0611V13.9118H86.0851V46.9998H40.5811V13.9118Z" fill="#222222"/>
<path d="M93.0186 13.9118H101.723V36.3118L114.203 13.9118H124.507V46.9998H115.803V24.5998L103.323 46.9998H93.0186V13.9118Z" fill="#222222"/>
<path d="M147.138 47.8318C143.938 47.8318 141.292 47.2345 139.202 46.0398C137.111 44.8452 135.447 43.2878 134.21 41.3678C133.015 39.4478 132.183 37.2932 131.714 34.9038C131.244 32.5145 131.01 30.1038 131.01 27.6718C131.01 24.7705 131.138 21.9972 131.394 19.3518C131.65 16.6638 132.247 14.2318 133.186 12.0558C134.124 9.87982 135.468 8.00249 137.218 6.42382C139.01 4.80249 141.42 3.58648 144.45 2.77582C145.388 2.51982 146.476 2.34915 147.714 2.26382C148.994 2.17848 150.21 2.07182 151.362 1.94382C152.514 1.81582 153.474 1.64515 154.242 1.43182C155.052 1.17582 155.479 0.770485 155.522 0.21582H163.522C163.351 2.26382 162.903 3.88515 162.178 5.07982C161.495 6.27449 160.492 7.23449 159.17 7.95982C157.847 8.64249 156.226 9.15449 154.306 9.49582C152.386 9.79448 150.124 10.0718 147.522 10.3278C145.474 10.5412 143.746 11.0318 142.338 11.7998C140.93 12.5678 139.778 13.5492 138.882 14.7438C137.986 15.8958 137.303 17.2185 136.834 18.7118C136.407 20.1625 136.108 21.6985 135.938 23.3198H136.13C136.514 22.2105 137.047 21.1012 137.73 19.9918C138.455 18.8825 139.351 17.8798 140.418 16.9838C141.484 16.0878 142.743 15.3625 144.194 14.8078C145.644 14.2105 147.308 13.9118 149.186 13.9118C151.276 13.9118 153.239 14.3172 155.074 15.1278C156.951 15.9385 158.572 17.0905 159.938 18.5838C161.303 20.0772 162.37 21.8692 163.138 23.9598C163.948 26.0078 164.354 28.3118 164.354 30.8718C164.354 33.4745 163.948 35.8212 163.138 37.9118C162.37 40.0025 161.239 41.7945 159.746 43.2878C158.252 44.7385 156.439 45.8692 154.306 46.6798C152.172 47.4478 149.783 47.8318 147.138 47.8318ZM147.778 41.0478C150.082 41.0478 151.895 40.1732 153.218 38.4238C154.583 36.6745 155.266 34.1358 155.266 30.8078C155.266 27.5652 154.604 25.0478 153.282 23.2558C151.959 21.4212 150.082 20.5038 147.65 20.5038C145.346 20.5038 143.532 21.4212 142.21 23.2558C140.887 25.0905 140.226 27.6292 140.226 30.8718C140.226 34.1998 140.887 36.7385 142.21 38.4878C143.575 40.1945 145.431 41.0478 147.778 41.0478Z" fill="#222222"/>
<path d="M170.269 13.9118H179.357V27.4158L191.517 13.9118H202.205L188.381 28.5038L203.997 46.9998H192.989L181.277 33.2398L179.357 35.3518V46.9998H170.269V13.9118Z" fill="#222222"/>
<path d="M216.875 47.8318C215.296 47.8318 213.824 47.6398 212.459 47.2558C211.093 46.8718 209.899 46.2745 208.875 45.4638C207.851 44.6532 207.04 43.6292 206.443 42.3918C205.888 41.1545 205.611 39.6825 205.611 37.9758C205.611 36.0985 205.931 34.5625 206.571 33.3678C207.253 32.1305 208.107 31.1492 209.131 30.4238C210.197 29.6985 211.392 29.1652 212.715 28.8238C214.08 28.4398 215.445 28.1412 216.811 27.9278C218.176 27.7145 219.52 27.5438 220.843 27.4158C222.165 27.2878 223.339 27.0958 224.363 26.8398C225.387 26.5838 226.197 26.2212 226.795 25.7518C227.392 25.2398 227.669 24.5145 227.627 23.5758C227.627 22.6372 227.456 21.8692 227.115 21.2718C226.816 20.6745 226.389 20.2265 225.835 19.9278C225.323 19.5865 224.704 19.3732 223.979 19.2878C223.296 19.1598 222.549 19.0958 221.739 19.0958C219.947 19.0958 218.539 19.4798 217.515 20.2478C216.491 21.0158 215.893 22.2958 215.723 24.0878H206.635C206.763 21.9972 207.296 20.2478 208.235 18.8398C209.173 17.3892 210.368 16.2372 211.819 15.3838C213.269 14.5305 214.891 13.9332 216.683 13.5918C218.475 13.2078 220.309 13.0158 222.187 13.0158C223.851 13.0158 225.536 13.1438 227.243 13.3998C228.949 13.6132 230.507 14.0612 231.915 14.7438C233.323 15.4265 234.475 16.3865 235.371 17.6238C236.267 18.8612 236.715 20.4612 236.715 22.4238V39.6398C236.715 41.1332 236.8 42.5625 236.971 43.9278C237.141 45.2932 237.44 46.3172 237.867 46.9998H228.651C228.48 46.4878 228.331 45.9758 228.203 45.4638C228.117 44.9092 228.053 44.3545 228.011 43.7998C226.56 45.2932 224.853 46.3385 222.891 46.9358C220.928 47.5332 218.923 47.8318 216.875 47.8318ZM220.267 41.8158C222.059 41.8158 223.445 41.5172 224.427 40.9198C225.408 40.3225 226.133 39.6185 226.603 38.8078C227.072 37.9545 227.349 37.1012 227.435 36.2478C227.563 35.3945 227.627 34.7118 227.627 34.1998V30.8078C227.243 31.1492 226.773 31.4265 226.219 31.6398C225.664 31.8105 225.045 31.9598 224.363 32.0878C223.68 32.2158 222.976 32.3225 222.251 32.4078C221.525 32.4932 220.8 32.5998 220.075 32.7278C219.349 32.8558 218.667 33.0265 218.027 33.2398C217.387 33.4532 216.811 33.7518 216.299 34.1358C215.829 34.4772 215.445 34.9252 215.147 35.4798C214.848 36.0345 214.699 36.7385 214.699 37.5918C214.699 38.4452 214.848 39.1492 215.147 39.7038C215.445 40.2158 215.851 40.6425 216.363 40.9838C216.875 41.2825 217.472 41.4958 218.155 41.6238C218.837 41.7518 219.541 41.8158 220.267 41.8158Z" fill="#222222"/>
</svg>
