<svg width="257" height="78" viewBox="0 0 257 78" fill="none" xmlns="http://www.w3.org/2000/svg">
<path d="M9.58406 33.8641V24.4561H4.72006L0.112061 17.8001H41.7121L46.3201 24.4561H35.9521V61.0001L27.6321 56.3921L28.3361 47.4321L15.6001 61.0001L9.45606 56.5841L20.6561 46.6001C18.3094 46.1307 15.8774 44.4881 13.3601 41.6721C10.8427 38.8561 9.58406 36.2534 9.58406 33.8641ZM21.4241 40.8401C23.4294 40.8401 25.5201 39.6027 27.6961 37.1281V24.4561H17.8401V37.0641C17.8401 39.5814 19.0347 40.8401 21.4241 40.8401Z" fill="#222222"/>
<path d="M54.1336 24.4561V61.0001L45.8136 56.0721V24.4561H39.7976L36.4056 17.8001H46.2616C43.3176 12.3814 40.5016 9.67205 37.8136 9.67205C36.4909 9.67205 34.9549 10.3121 33.2056 11.5921L27.8936 4.29605C30.7096 2.63205 33.1629 1.80005 35.2536 1.80005C37.3016 1.80005 39.1576 2.26939 40.8216 3.20805C42.5282 4.10405 44.0642 5.40539 45.4296 7.11205C47.7336 10.0561 49.8456 13.6187 51.7656 17.8001H59.8936L63.2856 24.4561H54.1336Z" fill="#222222"/>
<path d="M88.1216 24.4561V61.0641L79.8016 56.0081V50.8881L70.0736 61.0001L64.0576 56.7761L79.8016 42.6961V24.4561H73.2736V40.6481C73.2736 42.5681 73.0602 43.8907 72.6336 44.6161C72.2496 45.2987 71.6096 45.6401 70.7136 45.6401C68.9216 45.6401 66.8309 44.4667 64.4416 42.1201C62.0949 39.7734 60.9216 37.7041 60.9216 35.9121C60.9216 34.1201 62.3722 33.2241 65.2736 33.2241V24.4561H57.6576L52.7936 17.8001H93.8816L98.8736 24.4561H88.1216Z" fill="#222222"/>
<path d="M105.425 24.4561V61.0001L97.1051 56.0721V24.4561H91.0891L87.6971 17.8001H111.185L114.577 24.4561H105.425Z" fill="#222222"/>
<path d="M116.467 36.1041H116.531V24.4561H108.595L104.307 17.8001H149.363L153.715 24.4561H143.603V61.0001L135.283 56.0721V43.7841H124.531V47.1121C124.531 48.6907 123.763 49.4801 122.227 49.4801C120.734 49.4801 118.622 48.2001 115.891 45.6401C113.203 43.0374 111.859 40.8614 111.859 39.1121C111.859 37.1067 113.395 36.1041 116.467 36.1041ZM124.531 24.4561V36.1041H135.283V24.4561H124.531Z" fill="#222222"/>
<path d="M196.319 24.4561V61.0641L187.999 56.0081V47.3041L177.055 56.7761L170.591 52.0401L188.191 39.7521C187.081 38.6427 185.716 37.7254 184.095 37.0001C182.516 36.2321 181.001 35.8481 179.551 35.8481C176.82 35.8481 173.897 37.2561 170.783 40.0721L165.599 33.4801C169.012 30.3654 172.681 28.8081 176.607 28.8081C180.532 28.8081 184.329 30.6001 187.999 34.1841V24.4561H162.847L157.983 17.8001H202.079L207.071 24.4561H196.319Z" fill="#222222"/>
<path d="M183.277 62.8561C183.277 61.2774 183.853 59.6987 185.005 58.1201C186.114 56.4987 188.013 55.6881 190.701 55.6881C193.346 55.6881 195.885 57.0747 198.317 59.8481C200.706 62.6214 201.901 65.2241 201.901 67.6561C201.901 70.1307 200.919 72.3281 198.957 74.2481C196.951 76.2107 194.199 77.1921 190.701 77.1921C187.202 77.1921 183.81 75.9974 180.525 73.6081C177.197 71.2614 174.359 68.4454 172.013 65.1601L175.661 62.6001C179.927 67.8481 183.938 70.4721 187.693 70.4721C189.869 70.4721 191.725 69.8747 193.261 68.6801C194.754 67.5281 195.501 66.1414 195.501 64.5201C195.501 62.8987 194.754 62.0881 193.261 62.0881C192.279 62.0881 191.469 62.6214 190.829 63.6881C190.146 64.7547 189.762 66.1201 189.677 67.7841L183.341 64.0081C183.298 63.6241 183.277 63.2401 183.277 62.8561Z" fill="#222222"/>
<path d="M220.141 8.13605C217.282 8.13605 214.999 8.58405 213.293 9.48005C211.586 10.3761 210.733 11.6134 210.733 13.1921C210.733 14.7281 211.351 16.2641 212.589 17.8001H219.309L223.277 24.4561H213.613V61.0001L205.293 56.0721V24.4561H199.533L195.565 17.8001H205.101C203.223 15.5387 202.285 12.9574 202.285 10.0561C202.285 7.11205 203.65 4.78672 206.381 3.08006C209.111 1.33072 212.226 0.456055 215.725 0.456055C219.223 0.456055 222.338 0.818722 225.069 1.54406C227.842 2.22672 230.487 3.31472 233.005 4.80806C235.565 6.30139 237.463 7.51739 238.701 8.45605C239.981 9.35206 241.751 10.7174 244.013 12.5521L240.877 15.3681C234.818 10.5467 227.906 8.13605 220.141 8.13605Z" fill="#222222"/>
<path d="M245.584 24.4561V37.8321H236.176C233.915 37.8321 232.123 38.4294 230.8 39.6241C229.52 40.7761 228.88 42.4401 228.88 44.6161C228.88 46.7921 229.499 48.4134 230.736 49.4801C231.973 50.5041 233.637 51.0161 235.728 51.0161C239.611 51.0161 242.939 49.4161 245.712 46.2161L250.96 53.2561C247.461 56.9254 243.557 58.7601 239.248 58.7601C234.981 58.7601 230.928 56.8401 227.088 53.0001C223.291 49.1601 221.392 45.1067 221.392 40.8401C221.392 37.4267 222.459 34.8027 224.592 32.9681C226.768 31.0907 229.413 30.1521 232.528 30.1521H237.264V24.4561H216.72L212.368 17.8001H252.56L256.912 24.4561H245.584Z" fill="#222222"/>
</svg>
