<svg width="171" height="90" viewBox="0 0 171 90" fill="none" xmlns="http://www.w3.org/2000/svg">
<path d="M21.424 7.368V12.648C21.424 22.824 15.088 33.192 0.208 37.416L6.352 47.4C23.728 42.504 31.792 28.488 31.792 12.648V7.368H21.424ZM24.016 7.368V12.648C24.016 27.432 32.08 40.776 48.976 45.48L54.928 35.496C40.528 31.56 34.384 21.96 34.384 12.648V7.368H24.016ZM3.664 4.58399V14.76H51.76V4.58399H3.664ZM59.056 0.647999V46.056H71.824V0.647999H59.056ZM66.64 18.024V28.392H83.536V18.024H66.64ZM13.072 49.608V59.208H59.248V64.392H13.264V84.648H25.936V73.416H71.824V49.608H13.072ZM13.264 79.08V88.68H74.416V79.08H13.264ZM100.041 4.10399V35.016H160.425V4.10399H100.041ZM147.849 14.088V25.032H112.521V14.088H147.849ZM90.1525 42.888V52.968H170.505V42.888H90.1525ZM123.945 32.712V46.152H136.617V32.712H123.945ZM123.849 57V58.632C123.849 67.944 115.113 76.968 95.4325 79.368L100.041 89.16C122.505 86.088 134.792 74.28 134.792 58.632V57H123.849ZM125.865 57V58.632C125.865 74.28 138.057 86.088 160.521 89.16L165.129 79.368C145.449 76.968 136.809 67.944 136.809 58.632V57H125.865Z" fill="#222222"/>
</svg>
