<svg width="101" height="101" viewBox="0 0 101 101" fill="none" xmlns="http://www.w3.org/2000/svg">
<rect x="1.5528" y="1.50195" width="97.3613" height="97.3613" fill="#FFFFFE" stroke="#344753" stroke-width="3"/>
<path d="M1.59883 86.7134C5.54761 67.1309 15.8403 31.3594 31.4098 45.2349C50.8717 62.5792 65.2566 68.7334 82.7441 40.1989C96.7341 17.3713 98.8407 10.3449 98.9347 8.94615" stroke="#344753" stroke-width="3"/>
<path d="M1.53963 88.8757C5.48841 69.2933 15.827 44.4147 31.3965 58.2902C50.8584 75.6346 65.2434 81.7888 82.7309 53.2543C96.7209 30.4267 98.7998 17.8157 98.8938 16.417" stroke="#344753" stroke-width="3"/>
<path d="M1.54777 90.6622C5.49655 71.0797 15.8381 57.4685 31.4077 71.3439C50.8696 88.6883 65.2543 94.8424 82.7418 66.3079C96.7318 43.4803 98.7001 28.5784 98.7941 27.1797" stroke="#344753" stroke-width="3"/>
<circle cx="58.0287" cy="37.8016" r="12.1717" stroke="#344753" stroke-width="3"/>
<circle cx="36" cy="20" r="5.5" stroke="#344753" stroke-width="3"/>
<path fill-rule="evenodd" clip-rule="evenodd" d="M20.3173 74.4253C20.3169 74.4254 20.3164 74.4254 20.316 74.4254C20.3144 74.4255 20.3129 74.4256 20.3113 74.4258C20.3068 74.4259 20.3022 74.4263 20.2977 74.4268C20.2581 74.4316 20.2213 74.4496 20.1933 74.4781C20.1652 74.5065 20.1477 74.5436 20.1435 74.5832C19.362 78.5955 17.1331 81.1287 12.9005 81.8292C12.8632 81.8325 12.828 81.8475 12.7998 81.8721C12.7717 81.8967 12.7521 81.9296 12.7439 81.9661C12.7437 81.9667 12.7436 81.9673 12.7435 81.9679C12.7424 81.9729 12.7416 81.9779 12.7409 81.983C12.7408 81.9844 12.7407 81.9857 12.7406 81.9871C12.7401 81.9911 12.7398 81.9952 12.7397 81.9992C12.7396 82.0019 12.7396 82.0046 12.7397 82.0073C12.7397 82.0102 12.7398 82.0131 12.7399 82.016C12.7402 82.02 12.7406 82.0241 12.7412 82.0281C12.7413 82.0295 12.7415 82.0308 12.7417 82.0322C12.7426 82.0376 12.7437 82.043 12.745 82.0484C12.754 82.0841 12.774 82.1161 12.8022 82.1399C12.8303 82.1636 12.8652 82.178 12.902 82.1809C17.1329 82.8816 19.3613 85.4139 20.1431 89.4244C20.1469 89.4652 20.1648 89.5034 20.1937 89.5324C20.2226 89.5615 20.2608 89.5795 20.3015 89.5834C20.302 89.5834 20.3025 89.5834 20.303 89.5834H20.3034C20.3067 89.5835 20.3101 89.5835 20.3135 89.5834C20.3163 89.5835 20.3192 89.5835 20.322 89.5834C20.3232 89.5834 20.3244 89.5834 20.3257 89.5834C20.368 89.5819 20.4084 89.5651 20.4395 89.5362C20.4705 89.5073 20.49 89.4681 20.4945 89.4259C21.2777 85.4138 23.5047 82.8806 27.737 82.18C27.7744 82.1768 27.8097 82.1619 27.838 82.1372C27.8662 82.1126 27.8859 82.0796 27.8941 82.043C27.8942 82.0425 27.8943 82.0419 27.8945 82.0413C27.8955 82.0363 27.8964 82.0312 27.897 82.0261C27.8972 82.0248 27.8973 82.0234 27.8974 82.0221C27.8979 82.018 27.8982 82.014 27.8983 82.0099C27.8984 82.0072 27.8984 82.0045 27.8983 82.0018C27.8983 81.9989 27.8982 81.9961 27.8981 81.9932C27.8978 81.9891 27.8974 81.9851 27.8968 81.981C27.8967 81.9797 27.8965 81.9783 27.8963 81.977C27.8954 81.9715 27.8943 81.9661 27.893 81.9608C27.884 81.9251 27.864 81.8932 27.836 81.8694C27.8079 81.8456 27.7731 81.8313 27.7364 81.8283C23.5053 81.1276 21.2785 78.5953 20.4949 74.5847C20.4911 74.5439 20.4732 74.5057 20.4443 74.4767C20.4154 74.4477 20.3772 74.4296 20.3364 74.4257C20.3359 74.4256 20.3354 74.4256 20.3349 74.4255H20.3345C20.3312 74.4253 20.3278 74.4252 20.3244 74.4252C20.322 74.425 20.3197 74.4249 20.3173 74.4248L20.3173 74.4253Z" fill="#344753"/>
<path fill-rule="evenodd" clip-rule="evenodd" d="M31.5041 84.1478C31.5039 84.1478 31.5036 84.1478 31.5034 84.1478C31.5025 84.1478 31.5016 84.1479 31.5007 84.148C31.4982 84.1481 31.4956 84.1483 31.4931 84.1486C31.4707 84.1513 31.4499 84.1615 31.4341 84.1775C31.4183 84.1936 31.4084 84.2145 31.406 84.2369C30.9648 86.5022 29.7064 87.9324 27.3166 88.3279C27.2956 88.3298 27.2757 88.3382 27.2598 88.3521C27.2439 88.366 27.2329 88.3846 27.2282 88.4052C27.2282 88.4055 27.2281 88.4059 27.228 88.4062C27.2274 88.409 27.2269 88.4119 27.2266 88.4148C27.2265 88.4155 27.2264 88.4163 27.2264 88.4171C27.2261 88.4193 27.2259 88.4216 27.2259 88.4239C27.2258 88.4254 27.2258 88.427 27.2259 88.4285C27.2259 88.4301 27.2259 88.4317 27.226 88.4334C27.2261 88.4357 27.2264 88.438 27.2267 88.4402C27.2268 88.441 27.2269 88.4418 27.227 88.4425C27.2275 88.4456 27.2281 88.4487 27.2289 88.4517C27.234 88.4718 27.2453 88.4899 27.2612 88.5033C27.277 88.5167 27.2967 88.5248 27.3175 88.5265C29.7062 88.9221 30.9644 90.3518 31.4057 92.6161C31.4079 92.6391 31.418 92.6607 31.4343 92.6771C31.4507 92.6935 31.4722 92.7037 31.4952 92.7059C31.4955 92.7059 31.4958 92.7059 31.4961 92.7059H31.4963C31.4982 92.706 31.5001 92.706 31.502 92.7059C31.5036 92.7059 31.5052 92.7059 31.5068 92.7059C31.5075 92.7059 31.5081 92.7059 31.5088 92.7059C31.5328 92.705 31.5556 92.6956 31.5731 92.6792C31.5906 92.6629 31.6016 92.6408 31.6042 92.617C32.0463 90.3517 33.3037 88.9216 35.6932 88.526C35.7143 88.5242 35.7343 88.5157 35.7502 88.5018C35.7662 88.4879 35.7773 88.4693 35.7819 88.4487C35.782 88.4483 35.7821 88.448 35.7821 88.4477C35.7827 88.4448 35.7832 88.442 35.7836 88.4391C35.7837 88.4383 35.7837 88.4376 35.7838 88.4368C35.7841 88.4345 35.7842 88.4322 35.7843 88.43C35.7843 88.4284 35.7843 88.4269 35.7843 88.4254C35.7843 88.4238 35.7843 88.4221 35.7842 88.4205C35.784 88.4182 35.7838 88.4159 35.7835 88.4136C35.7834 88.4129 35.7833 88.4121 35.7832 88.4113C35.7827 88.4083 35.7821 88.4052 35.7813 88.4022C35.7762 88.3821 35.765 88.364 35.7491 88.3506C35.7333 88.3372 35.7136 88.3291 35.6929 88.3274C33.304 87.9318 32.0468 86.5021 31.6044 84.2377C31.6023 84.2147 31.5921 84.1931 31.5758 84.1767C31.5595 84.1604 31.538 84.1502 31.5149 84.148C31.5146 84.1479 31.5144 84.1479 31.5141 84.1479H31.5139C31.5119 84.1477 31.51 84.1477 31.5081 84.1477C31.5068 84.1476 31.5055 84.1475 31.5041 84.1475L31.5041 84.1478Z" fill="#344753"/>
<path fill-rule="evenodd" clip-rule="evenodd" d="M16.2783 24.0003C16.278 24.0003 16.2778 24.0003 16.2776 24.0003C16.2767 24.0004 16.2758 24.0005 16.2749 24.0005C16.2723 24.0006 16.2698 24.0008 16.2673 24.0011C16.2449 24.0038 16.2241 24.014 16.2083 24.0301C16.1924 24.0461 16.1825 24.067 16.1802 24.0895C15.739 26.3547 14.4805 27.7849 12.0908 28.1805C12.0698 28.1823 12.0499 28.1908 12.034 28.2047C12.0181 28.2186 12.007 28.2372 12.0024 28.2577C12.0023 28.2581 12.0023 28.2584 12.0022 28.2587C12.0016 28.2616 12.0011 28.2644 12.0007 28.2673C12.0007 28.2681 12.0006 28.2688 12.0005 28.2696C12.0003 28.2719 12.0001 28.2742 12 28.2765C12 28.278 12 28.2795 12 28.281C12 28.2827 12.0001 28.2843 12.0002 28.2859C12.0003 28.2882 12.0006 28.2905 12.0009 28.2928C12.001 28.2935 12.0011 28.2943 12.0012 28.2951C12.0017 28.2981 12.0023 28.3012 12.003 28.3042C12.0081 28.3244 12.0194 28.3424 12.0353 28.3559C12.0512 28.3693 12.0709 28.3774 12.0917 28.379C14.4804 28.7747 15.7385 30.2044 16.1799 32.4687C16.1821 32.4917 16.1922 32.5133 16.2085 32.5296C16.2248 32.546 16.2464 32.5562 16.2694 32.5584C16.2697 32.5584 16.27 32.5584 16.2702 32.5584H16.2704C16.2723 32.5585 16.2743 32.5585 16.2762 32.5584C16.2778 32.5585 16.2793 32.5585 16.2809 32.5584C16.2816 32.5584 16.2823 32.5584 16.283 32.5584C16.3069 32.5576 16.3298 32.5481 16.3473 32.5318C16.3648 32.5154 16.3758 32.4933 16.3783 32.4695C16.8205 30.2043 18.0779 28.7741 20.4674 28.3785C20.4885 28.3767 20.5085 28.3683 20.5244 28.3544C20.5404 28.3405 20.5515 28.3218 20.5561 28.3012C20.5562 28.3009 20.5562 28.3005 20.5563 28.3002C20.5569 28.2974 20.5574 28.2945 20.5578 28.2916C20.5578 28.2909 20.5579 28.2901 20.558 28.2894C20.5582 28.2871 20.5584 28.2848 20.5585 28.2825C20.5585 28.281 20.5585 28.2794 20.5585 28.2779C20.5585 28.2763 20.5584 28.2747 20.5584 28.273C20.5582 28.2708 20.558 28.2685 20.5576 28.2662C20.5575 28.2654 20.5574 28.2647 20.5573 28.2639C20.5569 28.2608 20.5562 28.2578 20.5555 28.2547C20.5504 28.2346 20.5391 28.2166 20.5233 28.2032C20.5074 28.1897 20.4878 28.1816 20.4671 28.1799C18.0782 27.7843 16.821 26.3547 16.3786 24.0903C16.3764 24.0672 16.3663 24.0457 16.35 24.0293C16.3337 24.0129 16.3121 24.0027 16.2891 24.0005C16.2888 24.0005 16.2885 24.0004 16.2882 24.0004H16.288C16.2861 24.0003 16.2842 24.0002 16.2823 24.0002C16.281 24.0001 16.2796 24 16.2783 24L16.2783 24.0003Z" fill="#344753"/>
<path fill-rule="evenodd" clip-rule="evenodd" d="M72.7532 11.4399C72.7529 11.4399 72.7525 11.4399 72.7522 11.4399C72.7509 11.44 72.7497 11.4401 72.7485 11.4402C72.7449 11.4403 72.7414 11.4406 72.7378 11.441C72.7067 11.4448 72.6778 11.4589 72.6558 11.4813C72.6338 11.5036 72.62 11.5327 72.6168 11.5638C72.0033 14.7136 70.2535 16.7023 66.9306 17.2523C66.9013 17.2548 66.8737 17.2666 66.8516 17.286C66.8295 17.3053 66.8141 17.3311 66.8076 17.3598C66.8076 17.3602 66.8075 17.3607 66.8074 17.3611C66.8065 17.3651 66.8059 17.369 66.8054 17.373C66.8052 17.3741 66.8051 17.3752 66.805 17.3762C66.8047 17.3794 66.8045 17.3826 66.8044 17.3858C66.8043 17.3879 66.8043 17.39 66.8044 17.3921C66.8044 17.3944 66.8044 17.3967 66.8045 17.3989C66.8048 17.4021 66.8051 17.4053 66.8055 17.4085C66.8057 17.4095 66.8058 17.4106 66.806 17.4116C66.8066 17.4159 66.8075 17.4202 66.8086 17.4244C66.8156 17.4524 66.8313 17.4775 66.8534 17.4962C66.8755 17.5148 66.9029 17.5261 66.9318 17.5284C70.2533 18.0785 72.0027 20.0665 72.6164 23.2149C72.6194 23.247 72.6335 23.2769 72.6562 23.2997C72.6789 23.3225 72.7088 23.3367 72.7408 23.3398C72.7412 23.3398 72.7416 23.3398 72.742 23.3398H72.7422C72.7449 23.3398 72.7476 23.3398 72.7502 23.3398C72.7524 23.3398 72.7547 23.3398 72.7569 23.3398C72.7578 23.3398 72.7588 23.3398 72.7598 23.3398C72.793 23.3386 72.8247 23.3254 72.8491 23.3027C72.8734 23.28 72.8888 23.2492 72.8923 23.2161C73.5071 20.0664 75.2555 18.0777 78.5781 17.5277C78.6074 17.5252 78.6352 17.5135 78.6573 17.4941C78.6795 17.4748 78.6949 17.4489 78.7014 17.4202C78.7015 17.4197 78.7016 17.4192 78.7017 17.4188C78.7025 17.4149 78.7032 17.4109 78.7037 17.4069C78.7038 17.4058 78.7039 17.4048 78.704 17.4037C78.7043 17.4005 78.7046 17.3974 78.7047 17.3942C78.7047 17.392 78.7047 17.3899 78.7047 17.3878C78.7047 17.3855 78.7046 17.3833 78.7045 17.381C78.7043 17.3778 78.704 17.3746 78.7035 17.3715C78.7034 17.3704 78.7033 17.3694 78.7031 17.3683C78.7024 17.364 78.7016 17.3598 78.7005 17.3556C78.6934 17.3276 78.6778 17.3025 78.6557 17.2838C78.6337 17.2652 78.6064 17.2539 78.5776 17.2516C75.2559 16.7015 73.5077 14.7135 72.8926 11.5649C72.8896 11.5329 72.8756 11.503 72.8529 11.4802C72.8302 11.4574 72.8002 11.4432 72.7682 11.4401C72.7678 11.4401 72.7674 11.4401 72.767 11.44H72.7667C72.7641 11.4398 72.7614 11.4397 72.7588 11.4397C72.7569 11.4396 72.755 11.4395 72.7532 11.4395L72.7532 11.4399Z" fill="#344753"/>
</svg>
