<svg width="843" height="1100" viewBox="0 0 843 1100" fill="none" xmlns="http://www.w3.org/2000/svg">
<g opacity="0.3">
<path d="M481.069 82.5146L470.345 76.6979L458 82L468.709 87.4224L481.069 82.5146Z" stroke="black"/>
<path d="M425.265 50.3413L409.269 56.3397L393.5 49L409.269 42.5252L425.265 50.3413Z" stroke="black"/>
<path d="M453.621 95.0567L443.988 90.6942L433.263 95.0567L443 99L453.621 95.0567Z" stroke="black"/>
<path d="M408.906 10.3519V0.899841H427.629V10.3519H408.906Z" stroke="black"/>
<path d="M489.067 200.847L461.074 204.846V260.831L489.067 258.831" stroke="black"/>
<path d="M489.066 309.545H463.073V379.89L468.526 381.163V391.342" stroke="black"/>
<path d="M547.596 384.253L529.419 380.072V405L551 410L580.679 388.252H618.668L621.94 390.615V396.613H633.937V376.073H571.045L559.411 384.253H547.596Z" stroke="black"/>
<path d="M631.21 425.333L715.97 457.659L708.281 831.407L770.446 851.947L815.162 791.054L820.745 486.619L850.03 466.119" stroke="black"/>
<path d="M0.487305 656.002L287.749 929.498V865.024L416.696 794.815L843 1099.06" stroke="black"/>
<path d="M203.685 605.683H28.0952V572.419H203.685L310.202 556.787V588.96L203.685 605.683Z" stroke="black"/>
<path d="M231.224 138.456L110.144 114.24V62L231.224 87.1298L289.403 169.525L356.5 178.5V221L289.403 213.997L231.224 138.456Z" stroke="black"/>
<path d="M543.597 189.032H520.331V251.015L543.597 241.927H570.136H651.023V173.4H564.319L543.597 189.032Z" stroke="black"/>
<path d="M687 66V117.256L715 106.206V159.458L687 167.846V330" stroke="black"/>
<path d="M623.395 589.835L546.688 515.127V534.94L623.395 619.099V589.835Z" stroke="black"/>
<path d="M621.577 523.67L580.86 493.315V511.31L621.577 546.392V523.67Z" stroke="black"/>
<path d="M720.823 333.539V394.068L745.362 401.521V333.539H720.823Z" stroke="black"/>
<path d="M431.446 203.937L425.629 210.481V242.654L407.634 253.015V286.097H377.46V357.169H395.455V376.073L407.634 390.251V437.511" stroke="black"/>
</g>
</svg>
