<svg width="415" height="414" viewBox="0 0 415 414" fill="none" xmlns="http://www.w3.org/2000/svg">
<path d="M146.026 56.4115C146.593 57.8603 147.097 58.8996 147.538 59.5294C148.042 60.1593 148.703 60.6002 149.522 60.8522C150.341 61.0412 151.632 61.1356 153.396 61.1356V64.2535H125.051V61.1356H129.492C131.192 61.1356 132.043 60.4113 132.043 58.9626C132.043 58.3957 131.948 57.7973 131.759 57.1674L126.374 42.1448H106.91L101.525 57.4508C101.336 58.0807 101.242 58.6476 101.242 59.1515C101.242 59.8444 101.43 60.3483 101.808 60.6632C102.249 60.9782 102.974 61.1356 103.981 61.1356H107.95V64.2535H88.2975V61.1356C90.88 61.1356 92.7066 60.8207 93.7774 60.1908C94.8482 59.498 95.7931 58.0807 96.6119 55.9391L117.398 1.8955H126.374L146.026 56.4115ZM125.145 38.649L116.737 15.3119H116.453L108.139 38.649H125.145Z" fill="#E86258"/>
<path d="M158.118 61.1356C160.197 61.1356 161.708 61.0097 162.653 60.7577C163.598 60.4428 164.228 59.9389 164.543 59.246C164.858 58.4901 165.015 57.3564 165.015 55.8447V10.4934C165.015 8.79268 164.858 7.59591 164.543 6.90304C164.228 6.14719 163.598 5.64328 162.653 5.39133C161.771 5.13938 160.26 5.0134 158.118 5.0134V1.8955H187.502C202.808 1.8955 210.461 6.68259 210.461 16.2567C210.461 20.036 209.264 23.1224 206.871 25.516C204.54 27.9095 201.107 29.5787 196.572 30.5235V30.618C207.595 32.5076 213.107 38.1451 213.107 47.5303C213.107 58.6791 204.918 64.2535 188.541 64.2535H158.118V61.1356ZM184.101 29.2008C188.132 29.2008 191.187 28.1615 193.265 26.0829C195.407 24.0043 196.478 21.0123 196.478 17.1071C196.478 9.35957 192.384 5.48581 184.195 5.48581C182.117 5.48581 180.794 5.73777 180.227 6.24167C179.66 6.68258 179.377 7.69039 179.377 9.26509V29.2008H184.101ZM185.99 60.6632C194.053 60.6632 198.084 56.3171 198.084 47.6247C198.084 42.9636 196.887 39.3418 194.494 36.7593C192.1 34.1768 188.699 32.8856 184.29 32.8856H179.377V54.5219C179.377 56.8525 179.849 58.4587 180.794 59.3405C181.739 60.2223 183.471 60.6632 185.99 60.6632Z" fill="#E86258"/>
<path d="M250.936 65.2928C240.732 65.2928 232.985 62.4584 227.694 56.7895C222.403 51.1206 219.757 43.1841 219.757 32.98C219.757 22.776 222.403 14.871 227.694 9.26509C232.985 3.59618 240.732 0.761719 250.936 0.761719C261.14 0.761719 268.888 3.59618 274.179 9.26509C279.533 14.871 282.21 22.776 282.21 32.98C282.21 43.1841 279.533 51.1206 274.179 56.7895C268.888 62.4584 261.14 65.2928 250.936 65.2928ZM251.031 61.8915C256.574 61.8915 260.573 59.498 263.03 54.7109C265.549 49.9238 266.809 42.6802 266.809 32.98C266.809 13.7687 261.55 4.16307 251.031 4.16307C245.488 4.16307 241.457 6.55661 238.937 11.3437C236.48 16.0678 235.252 23.2799 235.252 32.98C235.252 42.6802 236.48 49.9238 238.937 54.7109C241.457 59.498 245.488 61.8915 251.031 61.8915Z" fill="#E86258"/>
<path d="M320.166 65.3873C310.969 65.3873 304.293 63.6237 300.135 60.0963C296.041 56.506 293.994 50.8371 293.994 43.0896V10.3989C293.994 8.6982 293.868 7.50143 293.616 6.80856C293.364 6.11569 292.766 5.64328 291.821 5.39133C290.939 5.13938 289.396 5.0134 287.191 5.0134V1.8955H315.253V5.0134C313.048 5.0134 311.473 5.13938 310.528 5.39133C309.647 5.64328 309.048 6.11569 308.733 6.80856C308.481 7.50143 308.355 8.6982 308.355 10.3989V43.562C308.355 49.6089 309.3 54.081 311.19 56.9784C313.079 59.8759 316.134 61.3246 320.355 61.3246C324.638 61.3246 327.724 59.8759 329.614 56.9784C331.566 54.081 332.543 49.6089 332.543 43.562V10.3989C332.543 8.6982 332.385 7.50143 332.07 6.80856C331.818 6.11569 331.22 5.64328 330.275 5.39133C329.393 5.13938 327.85 5.0134 325.646 5.0134V1.8955H353.518V5.0134C351.313 5.0134 349.738 5.13938 348.794 5.39133C347.912 5.64328 347.345 6.11569 347.093 6.80856C346.841 7.50143 346.715 8.6982 346.715 10.3989V43.0896C346.715 50.8371 344.605 56.506 340.385 60.0963C336.165 63.6237 329.425 65.3873 320.166 65.3873Z" fill="#E86258"/>
<path d="M371.247 61.1356C373.641 61.1356 375.31 61.0412 376.255 60.8522C377.262 60.6002 377.892 60.1593 378.144 59.5294C378.459 58.8366 378.617 57.6398 378.617 55.9391V5.20237H374.176C370.46 5.20237 367.594 6.24167 365.578 8.32027C363.563 10.3989 362.208 13.7687 361.515 18.4298H358.209L358.303 1.8955H413.292V18.4298H410.079C409.134 13.4538 407.654 10.0209 405.638 8.13131C403.686 6.17868 400.788 5.20237 396.946 5.20237H392.978V55.9391C392.978 57.5768 393.135 58.7421 393.45 59.435C393.765 60.1278 394.395 60.6002 395.34 60.8522C396.348 61.0412 398.017 61.1356 400.348 61.1356V64.2535H371.247V61.1356Z" fill="#E86258"/>
<path d="M358.557 146.346C357.108 146.913 356.069 147.417 355.439 147.858C354.809 148.362 354.368 149.023 354.117 149.842C353.928 150.661 353.833 151.952 353.833 153.716H350.715V125.371H353.833V129.812C353.833 131.513 354.557 132.363 356.006 132.363C356.573 132.363 357.171 132.269 357.801 132.08L372.824 126.694V107.231L357.518 101.845C356.888 101.657 356.321 101.562 355.817 101.562C355.124 101.562 354.62 101.751 354.306 102.129C353.991 102.57 353.833 103.294 353.833 104.302V108.27H350.715V88.618H353.833C353.833 91.2005 354.148 93.0272 354.778 94.098C355.471 95.1688 356.888 96.1136 359.03 96.9324L413.073 117.718V126.694L358.557 146.346ZM376.32 125.466L399.657 117.057V116.774L376.32 108.459V125.466Z" fill="#E86258"/>
<path d="M353.833 158.439C353.833 160.517 353.959 162.029 354.211 162.974C354.526 163.919 355.03 164.548 355.723 164.863C356.479 165.178 357.612 165.336 359.124 165.336L404.475 165.336C406.176 165.336 407.373 165.178 408.066 164.863C408.822 164.548 409.325 163.919 409.577 162.974C409.829 162.092 409.955 160.58 409.955 158.439H413.073V187.823C413.073 203.129 408.286 210.782 398.712 210.782C394.933 210.782 391.846 209.585 389.453 207.191C387.059 204.861 385.39 201.428 384.445 196.893H384.351C382.461 207.916 376.824 213.427 367.438 213.427C356.29 213.427 350.715 205.239 350.715 188.862V158.439H353.833ZM385.768 184.421C385.768 188.452 386.807 191.507 388.886 193.586C390.964 195.728 393.956 196.798 397.862 196.798C405.609 196.798 409.483 192.704 409.483 184.516C409.483 182.437 409.231 181.114 408.727 180.547C408.286 179.981 407.278 179.697 405.704 179.697H385.768V184.421ZM354.306 186.311C354.306 194.373 358.652 198.404 367.344 198.404C372.005 198.404 375.627 197.208 378.209 194.814C380.792 192.421 382.083 189.019 382.083 184.61V179.697H360.447C358.116 179.697 356.51 180.169 355.628 181.114C354.746 182.059 354.306 183.791 354.306 186.311Z" fill="#E86258"/>
<path d="M349.676 251.257C349.676 241.053 352.51 233.305 358.179 228.014C363.848 222.723 371.785 220.078 381.989 220.078C392.193 220.078 400.098 222.723 405.704 228.014C411.373 233.305 414.207 241.053 414.207 251.257C414.207 261.461 411.373 269.208 405.704 274.499C400.098 279.853 392.193 282.53 381.989 282.53C371.785 282.53 363.848 279.853 358.179 274.499C352.51 269.208 349.676 261.461 349.676 251.257ZM353.077 251.351C353.077 256.894 355.471 260.894 360.258 263.35C365.045 265.87 372.289 267.13 381.989 267.13C401.2 267.13 410.806 261.87 410.806 251.351C410.806 245.808 408.412 241.777 403.625 239.258C398.901 236.801 391.689 235.573 381.989 235.573C372.289 235.573 365.045 236.801 360.258 239.258C355.471 241.777 353.077 245.808 353.077 251.351Z" fill="#E86258"/>
<path d="M349.581 320.486C349.581 311.29 351.345 304.613 354.872 300.456C358.463 296.362 364.132 294.315 371.879 294.315H404.57C406.271 294.315 407.467 294.189 408.16 293.937C408.853 293.685 409.325 293.086 409.577 292.142C409.829 291.26 409.955 289.717 409.955 287.512H413.073V315.573H409.955C409.955 313.369 409.829 311.794 409.577 310.849C409.325 309.967 408.853 309.369 408.16 309.054C407.467 308.802 406.271 308.676 404.57 308.676H371.407C365.36 308.676 360.888 309.621 357.99 311.51C355.093 313.4 353.644 316.455 353.644 320.675C353.644 324.958 355.093 328.045 357.99 329.934C360.888 331.887 365.36 332.863 371.407 332.863H404.57C406.271 332.863 407.467 332.706 408.16 332.391C408.853 332.139 409.325 331.541 409.577 330.596C409.829 329.714 409.955 328.171 409.955 325.966H413.073V353.838H409.955C409.955 351.634 409.829 350.059 409.577 349.114C409.325 348.232 408.853 347.665 408.16 347.413C407.467 347.162 406.271 347.036 404.57 347.036H371.879C364.132 347.036 358.463 344.925 354.872 340.705C351.345 336.485 349.581 329.745 349.581 320.486Z" fill="#E86258"/>
<path d="M353.833 371.568C353.833 373.961 353.928 375.63 354.117 376.575C354.368 377.583 354.809 378.213 355.439 378.465C356.132 378.78 357.329 378.937 359.03 378.937H409.766V374.497C409.766 370.78 408.727 367.914 406.648 365.899C404.57 363.883 401.2 362.529 396.539 361.836V358.529L413.073 358.624V413.612H396.539V410.4C401.515 409.455 404.948 407.975 406.837 405.959C408.79 404.006 409.766 401.109 409.766 397.267V393.298H359.03C357.392 393.298 356.227 393.456 355.534 393.771C354.841 394.086 354.368 394.716 354.117 395.661C353.928 396.668 353.833 398.338 353.833 400.668H350.715V371.568H353.833Z" fill="#E86258"/>
<path d="M268.51 358.224C267.944 356.776 267.44 355.736 266.999 355.107C266.495 354.477 265.833 354.036 265.015 353.784C264.196 353.595 262.905 353.5 261.141 353.5V350.382H289.485V353.5H285.045C283.344 353.5 282.494 354.225 282.494 355.673C282.494 356.24 282.588 356.839 282.777 357.469L288.163 372.491H307.626L313.011 357.185C313.2 356.555 313.295 355.988 313.295 355.484C313.295 354.792 313.106 354.288 312.728 353.973C312.287 353.658 311.563 353.5 310.555 353.5H306.587V350.382H326.239V353.5C323.656 353.5 321.83 353.815 320.759 354.445C319.688 355.138 318.743 356.555 317.924 358.697L297.138 412.74H288.163L268.51 358.224ZM289.391 375.987L297.8 399.324H298.083L306.398 375.987H289.391Z" fill="#E86258"/>
<path d="M256.418 353.5C254.34 353.5 252.828 353.626 251.883 353.878C250.938 354.193 250.308 354.697 249.993 355.39C249.679 356.146 249.521 357.28 249.521 358.791L249.521 404.143C249.521 405.843 249.679 407.04 249.993 407.733C250.308 408.489 250.938 408.993 251.883 409.245C252.765 409.497 254.277 409.623 256.418 409.623V412.74H227.034C211.728 412.74 204.075 407.953 204.075 398.379C204.075 394.6 205.272 391.514 207.666 389.12C209.996 386.726 213.429 385.057 217.964 384.112V384.018C206.941 382.128 201.43 376.491 201.43 367.106C201.43 355.957 209.618 350.382 225.995 350.382H256.418V353.5ZM230.436 385.435C226.405 385.435 223.35 386.475 221.271 388.553C219.129 390.632 218.059 393.624 218.059 397.529C218.059 405.276 222.153 409.15 230.341 409.15C232.42 409.15 233.743 408.898 234.31 408.394C234.876 407.953 235.16 406.946 235.16 405.371V385.435H230.436ZM228.546 353.973C220.484 353.973 216.452 358.319 216.452 367.011C216.452 371.672 217.649 375.294 220.043 377.877C222.436 380.459 225.838 381.75 230.247 381.75H235.16V360.114C235.16 357.784 234.687 356.177 233.743 355.296C232.798 354.414 231.066 353.973 228.546 353.973Z" fill="#E86258"/>
<path d="M163.6 349.343C173.804 349.343 181.552 352.178 186.843 357.846C192.134 363.515 194.779 371.452 194.779 381.656C194.779 391.86 192.134 399.765 186.843 405.371C181.552 411.04 173.804 413.874 163.6 413.874C153.396 413.874 145.649 411.04 140.358 405.371C135.004 399.765 132.327 391.86 132.327 381.656C132.327 371.452 135.004 363.515 140.358 357.846C145.649 352.178 153.396 349.343 163.6 349.343ZM163.506 352.744C157.963 352.744 153.963 355.138 151.506 359.925C148.987 364.712 147.727 371.956 147.727 381.656C147.727 400.867 152.987 410.473 163.506 410.473C169.049 410.473 173.08 408.079 175.599 403.292C178.056 398.568 179.284 391.356 179.284 381.656C179.284 371.956 178.056 364.712 175.599 359.925C173.08 355.138 169.049 352.744 163.506 352.744Z" fill="#E86258"/>
<path d="M94.3708 349.249C103.567 349.249 110.244 351.012 114.401 354.54C118.495 358.13 120.542 363.799 120.542 371.546L120.542 404.237C120.542 405.938 120.668 407.135 120.92 407.827C121.172 408.52 121.771 408.993 122.715 409.245C123.597 409.497 125.14 409.623 127.345 409.623V412.74H99.2838V409.623C101.488 409.623 103.063 409.497 104.008 409.245C104.89 408.993 105.488 408.52 105.803 407.827C106.055 407.135 106.181 405.938 106.181 404.237L106.181 371.074C106.181 365.027 105.236 360.555 103.347 357.658C101.457 354.76 98.402 353.311 94.1818 353.311C89.8986 353.311 86.8122 354.76 84.9226 357.658C82.97 360.555 81.9937 365.027 81.9937 371.074V404.237C81.9937 405.938 82.1511 407.135 82.4661 407.827C82.718 408.52 83.3164 408.993 84.2612 409.245C85.1431 409.497 86.6863 409.623 88.8908 409.623V412.74H61.0187V409.623C63.2233 409.623 64.7979 409.497 65.7428 409.245C66.6246 408.993 67.1915 408.52 67.4434 407.827C67.6954 407.135 67.8214 405.938 67.8214 404.237V371.546C67.8214 363.799 69.9315 358.13 74.1517 354.54C78.3719 351.012 85.1116 349.249 94.3708 349.249Z" fill="#E86258"/>
<path d="M43.2893 353.5C40.8958 353.5 39.2266 353.595 38.2818 353.784C37.274 354.036 36.6441 354.477 36.3921 355.107C36.0772 355.799 35.9197 356.996 35.9197 358.697L35.9197 409.434H40.3604C44.0766 409.434 46.9426 408.394 48.9582 406.316C50.9738 404.237 52.3281 400.867 53.0209 396.206H56.3278L56.2333 412.74H1.24486L1.24486 396.206H4.45725C5.40207 401.182 6.88228 404.615 8.8979 406.505C10.8505 408.457 13.748 409.434 17.5902 409.434H21.5585L21.5585 358.697C21.5585 357.059 21.401 355.894 21.0861 355.201C20.7711 354.508 20.1412 354.036 19.1964 353.784C18.1886 353.595 16.5194 353.5 14.1889 353.5V350.382H43.2893V353.5Z" fill="#E86258"/>
<path d="M56.1855 269.379C57.6342 268.812 58.6735 268.309 59.3034 267.868C59.9333 267.364 60.3742 266.702 60.6261 265.884C60.8151 265.065 60.9096 263.773 60.9096 262.01H64.0275V290.354H60.9096V285.914C60.9096 284.213 60.1852 283.363 58.7365 283.363C58.1696 283.363 57.5712 283.457 56.9413 283.646L41.9187 289.032L41.9187 308.495L57.2248 313.88C57.8547 314.069 58.4215 314.164 58.9255 314.164C59.6183 314.164 60.1222 313.975 60.4372 313.597C60.7521 313.156 60.9096 312.432 60.9096 311.424V307.456H64.0275V327.108H60.9096C60.9096 324.525 60.5946 322.699 59.9648 321.628C59.2719 320.557 57.8547 319.612 55.7131 318.793L1.66944 298.007L1.66943 289.032L56.1855 269.379ZM38.4229 290.26L15.0859 298.669V298.952L38.4229 307.267V290.26Z" fill="#E86258"/>
<path d="M60.9096 257.287C60.9096 255.209 60.7836 253.697 60.5316 252.752C60.2167 251.807 59.7128 251.177 59.0199 250.862C58.2641 250.547 57.1303 250.39 55.6186 250.39H10.2673C8.56661 250.39 7.36984 250.547 6.67697 250.862C5.92112 251.177 5.41721 251.807 5.16526 252.752C4.91331 253.634 4.78733 255.146 4.78733 257.287H1.66943L1.66943 227.903C1.66943 212.597 6.45651 204.944 16.0307 204.944C19.81 204.944 22.8964 206.141 25.2899 208.535C27.6834 210.865 29.3526 214.298 30.2974 218.833H30.3919C32.2816 207.81 37.919 202.299 47.3042 202.299C58.453 202.299 64.0275 210.487 64.0275 226.864L64.0275 257.287H60.9096ZM28.9747 231.305C28.9747 227.273 27.9354 224.219 25.8568 222.14C23.7782 219.998 20.7863 218.928 16.881 218.928C9.1335 218.928 5.25974 223.022 5.25974 231.21C5.25974 233.289 5.51169 234.612 6.0156 235.178C6.45651 235.745 7.46432 236.029 9.03902 236.029H28.9747V231.305ZM60.4372 229.415C60.4372 221.353 56.091 217.321 47.3987 217.321C42.7376 217.321 39.1158 218.518 36.5332 220.912C33.9507 223.305 32.6595 226.707 32.6595 231.116V236.029H54.2958C56.6264 236.029 58.2326 235.556 59.1144 234.612C59.9962 233.667 60.4372 231.935 60.4372 229.415Z" fill="#E86258"/>
<path d="M65.0668 164.469C65.0668 174.673 62.2323 182.421 56.5634 187.712C50.8945 193.003 42.958 195.648 32.754 195.648C22.5499 195.648 14.6449 193.003 9.03902 187.712C3.3701 182.421 0.535645 174.673 0.535645 164.469C0.535644 154.265 3.3701 146.518 9.03901 141.227C14.6449 135.873 22.5499 133.196 32.754 133.196C42.958 133.196 50.8945 135.873 56.5634 141.227C62.2323 146.518 65.0668 154.265 65.0668 164.469ZM61.6654 164.375C61.6654 158.832 59.2719 154.832 54.4848 152.375C49.6977 149.856 42.4541 148.596 32.754 148.596C13.5426 148.596 3.93699 153.856 3.93699 164.375C3.93699 169.918 6.33054 173.949 11.1176 176.468C15.8417 178.925 23.0538 180.153 32.754 180.153C42.4541 180.153 49.6977 178.925 54.4848 176.468C59.2719 173.949 61.6654 169.918 61.6654 164.375Z" fill="#E86258"/>
<path d="M65.1612 95.2397C65.1612 104.436 63.3976 111.113 59.8703 115.27C56.28 119.364 50.611 121.411 42.8635 121.411L10.1728 121.411C8.47212 121.411 7.27535 121.537 6.58248 121.789C5.88962 122.041 5.41721 122.639 5.16526 123.584C4.9133 124.466 4.78733 126.009 4.78733 128.214H1.66943L1.66943 100.153H4.78733C4.78733 102.357 4.9133 103.932 5.16526 104.877C5.41721 105.759 5.88962 106.357 6.58248 106.672C7.27535 106.924 8.47212 107.05 10.1728 107.05L43.3359 107.05C49.3828 107.05 53.8549 106.105 56.7524 104.215C59.6498 102.326 61.0985 99.2709 61.0985 95.0507C61.0985 90.7675 59.6498 87.6811 56.7524 85.7915C53.8549 83.8389 49.3828 82.8626 43.3359 82.8626H10.1728C8.47212 82.8626 7.27535 83.02 6.58248 83.335C5.88962 83.5869 5.41721 84.1853 5.16526 85.1301C4.9133 86.012 4.78733 87.5552 4.78733 89.7597H1.66943L1.66942 61.8876H4.78733C4.78733 64.0922 4.9133 65.6669 5.16525 66.6117C5.41721 67.4935 5.88962 68.0604 6.58248 68.3123C7.27535 68.5643 8.47212 68.6903 10.1728 68.6903H42.8635C50.611 68.6903 56.28 70.8004 59.8703 75.0206C63.3976 79.2407 65.1612 85.9805 65.1612 95.2397Z" fill="#E86258"/>
<path d="M60.9096 44.1582C60.9096 41.7647 60.8151 40.0955 60.6261 39.1507C60.3742 38.1429 59.9332 37.513 59.3034 37.261C58.6105 36.9461 57.4137 36.7886 55.7131 36.7886L4.97629 36.7886L4.97629 41.2293C4.97629 44.9455 6.01559 47.8115 8.09419 49.8271C10.1728 51.8427 13.5426 53.197 18.2038 53.8898V57.1967L1.66942 57.1022L1.66942 2.11376L18.2038 2.11376V5.32615C13.2277 6.27097 9.79486 7.75118 7.90522 9.7668C5.9526 11.7194 4.97629 14.6169 4.97629 18.4591L4.97629 22.4274L55.7131 22.4274C57.3507 22.4274 58.516 22.2699 59.2089 21.955C59.9018 21.64 60.3742 21.0101 60.6261 20.0653C60.8151 19.0575 60.9096 17.3883 60.9096 15.0578H64.0275V44.1582H60.9096Z" fill="#E86258"/>
</svg>
