<svg width="101" height="126" viewBox="0 0 101 126" fill="none" xmlns="http://www.w3.org/2000/svg">
<path d="M50.604 0H49.617C48.5124 0 47.617 0.89543 47.617 2V74.047C47.617 75.1516 48.5124 76.047 49.617 76.047H50.604C51.7086 76.047 52.604 75.1516 52.604 74.047V2C52.604 0.89543 51.7086 0 50.604 0Z" fill="#222222"/>
<path d="M54.266 30.413L71.719 20.024V34.153L54.266 44.957V30.413Z" fill="#222222"/>
<path d="M54.266 13.086L71.719 2.155V9.635L54.266 20.44V13.086Z" fill="#222222"/>
<path d="M54.266 26.253L71.719 15.453V17.115L54.266 27.92V26.253Z" fill="#222222"/>
<path d="M54.266 51.187L71.719 40.387V42.049L54.266 52.854V51.187Z" fill="#222222"/>
<path d="M54.266 22.929L71.719 12.129V13.791L54.266 24.596V22.929Z" fill="#222222"/>
<path d="M54.266 47.862L71.719 37.062V38.724L54.266 49.529V47.862Z" fill="#222222"/>
<path d="M54.266 54.931L71.719 44.542V51.606L54.266 62.411V54.931Z" fill="#222222"/>
<path d="M45.953 30.409L28.5 19.609V33.738L45.953 44.538V30.409Z" fill="#222222"/>
<path d="M45.953 12.671L28.5 1.74V9.64L45.953 20.44V12.671Z" fill="#222222"/>
<path d="M45.953 25.838L28.5 15.038V16.7L45.953 27.5V25.838Z" fill="#222222"/>
<path d="M45.953 50.771L28.5 39.971V41.633L45.953 52.433V50.771Z" fill="#222222"/>
<path d="M45.953 22.513L28.5 11.713V13.375L45.953 24.175V22.513Z" fill="#222222"/>
<path d="M45.953 47.446L28.5 36.646V38.308L45.953 49.108V47.446Z" fill="#222222"/>
<path d="M45.953 54.927L28.5 44.127V51.191L45.953 61.991V54.927Z" fill="#222222"/>
<path d="M28.25 89L24.25 87L10.25 93.4413L50.451 113.5L90.25 93.4413L76.75 87L72.75 89L81.8078 93.4413L50.451 109.087L19.0942 93.4413L28.25 89Z" fill="#222222"/>
<path d="M33.875 107.038L30.875 105.5L20 110.07L50.1508 125.5L80 110.07L70 105.5L67 107.038L73.6683 110.07L50.1508 122.105L26.6332 110.07L33.875 107.038Z" fill="#222222"/>
<path d="M39.25 59.5L34.25 56.5L0.25 72.9444L50.5013 98.5L100.25 72.9444L66.5 56.5L61.5 59.5L89.6972 72.9444L50.5013 92.8778L11.3053 72.9444L39.25 59.5Z" fill="#222222"/>
<path d="M36 108.5C36 108.776 35.7761 109 35.5 109C35.2239 109 35 108.776 35 108.5C35 108.224 35.2239 108 35.5 108C35.7761 108 36 108.224 36 108.5Z" fill="#222222"/>
<path d="M36 110.5C36 110.776 35.7761 111 35.5 111C35.2239 111 35 110.776 35 110.5C35 110.224 35.2239 110 35.5 110C35.7761 110 36 110.224 36 110.5Z" fill="#222222"/>
<path d="M34 109.5C34 109.776 33.7761 110 33.5 110C33.2239 110 33 109.776 33 109.5C33 109.224 33.2239 109 33.5 109C33.7761 109 34 109.224 34 109.5Z" fill="#222222"/>
<path d="M36 112.5C36 112.776 35.7761 113 35.5 113C35.2239 113 35 112.776 35 112.5C35 112.224 35.2239 112 35.5 112C35.7761 112 36 112.224 36 112.5Z" fill="#222222"/>
<path d="M34 111.5C34 111.776 33.7761 112 33.5 112C33.2239 112 33 111.776 33 111.5C33 111.224 33.2239 111 33.5 111C33.7761 111 34 111.224 34 111.5Z" fill="#222222"/>
<path d="M32 110.5C32 110.776 31.7761 111 31.5 111C31.2239 111 31 110.776 31 110.5C31 110.224 31.2239 110 31.5 110C31.7761 110 32 110.224 32 110.5Z" fill="#222222"/>
<path d="M38 109.5C38 109.776 37.7761 110 37.5 110C37.2239 110 37 109.776 37 109.5C37 109.224 37.2239 109 37.5 109C37.7761 109 38 109.224 38 109.5Z" fill="#222222"/>
<path d="M38 111.5C38 111.776 37.7761 112 37.5 112C37.2239 112 37 111.776 37 111.5C37 111.224 37.2239 111 37.5 111C37.7761 111 38 111.224 38 111.5Z" fill="#222222"/>
<path d="M38 113.5C38 113.776 37.7761 114 37.5 114C37.2239 114 37 113.776 37 113.5C37 113.224 37.2239 113 37.5 113C37.7761 113 38 113.224 38 113.5Z" fill="#222222"/>
<path d="M40 110.5C40 110.776 39.7761 111 39.5 111C39.2239 111 39 110.776 39 110.5C39 110.224 39.2239 110 39.5 110C39.7761 110 40 110.224 40 110.5Z" fill="#222222"/>
<path d="M40 112.5C40 112.776 39.7761 113 39.5 113C39.2239 113 39 112.776 39 112.5C39 112.224 39.2239 112 39.5 112C39.7761 112 40 112.224 40 112.5Z" fill="#222222"/>
<path d="M40 114.5C40 114.776 39.7761 115 39.5 115C39.2239 115 39 114.776 39 114.5C39 114.224 39.2239 114 39.5 114C39.7761 114 40 114.224 40 114.5Z" fill="#222222"/>
<path d="M42 111.5C42 111.776 41.7761 112 41.5 112C41.2239 112 41 111.776 41 111.5C41 111.224 41.2239 111 41.5 111C41.7761 111 42 111.224 42 111.5Z" fill="#222222"/>
<path d="M42 113.5C42 113.776 41.7761 114 41.5 114C41.2239 114 41 113.776 41 113.5C41 113.224 41.2239 113 41.5 113C41.7761 113 42 113.224 42 113.5Z" fill="#222222"/>
<path d="M42 115.5C42 115.776 41.7761 116 41.5 116C41.2239 116 41 115.776 41 115.5C41 115.224 41.2239 115 41.5 115C41.7761 115 42 115.224 42 115.5Z" fill="#222222"/>
<path d="M44 112.5C44 112.776 43.7761 113 43.5 113C43.2239 113 43 112.776 43 112.5C43 112.224 43.2239 112 43.5 112C43.7761 112 44 112.224 44 112.5Z" fill="#222222"/>
<path d="M44 114.5C44 114.776 43.7761 115 43.5 115C43.2239 115 43 114.776 43 114.5C43 114.224 43.2239 114 43.5 114C43.7761 114 44 114.224 44 114.5Z" fill="#222222"/>
<path d="M44 116.5C44 116.776 43.7761 117 43.5 117C43.2239 117 43 116.776 43 116.5C43 116.224 43.2239 116 43.5 116C43.7761 116 44 116.224 44 116.5Z" fill="#222222"/>
<path d="M46 113.5C46 113.776 45.7761 114 45.5 114C45.2239 114 45 113.776 45 113.5C45 113.224 45.2239 113 45.5 113C45.7761 113 46 113.224 46 113.5Z" fill="#222222"/>
<path d="M46 115.5C46 115.776 45.7761 116 45.5 116C45.2239 116 45 115.776 45 115.5C45 115.224 45.2239 115 45.5 115C45.7761 115 46 115.224 46 115.5Z" fill="#222222"/>
<path d="M46 117.5C46 117.776 45.7761 118 45.5 118C45.2239 118 45 117.776 45 117.5C45 117.224 45.2239 117 45.5 117C45.7761 117 46 117.224 46 117.5Z" fill="#222222"/>
<path d="M48 114.5C48 114.776 47.7761 115 47.5 115C47.2239 115 47 114.776 47 114.5C47 114.224 47.2239 114 47.5 114C47.7761 114 48 114.224 48 114.5Z" fill="#222222"/>
<path d="M48 116.5C48 116.776 47.7761 117 47.5 117C47.2239 117 47 116.776 47 116.5C47 116.224 47.2239 116 47.5 116C47.7761 116 48 116.224 48 116.5Z" fill="#222222"/>
<path d="M48 118.5C48 118.776 47.7761 119 47.5 119C47.2239 119 47 118.776 47 118.5C47 118.224 47.2239 118 47.5 118C47.7761 118 48 118.224 48 118.5Z" fill="#222222"/>
<path d="M50 115.5C50 115.776 49.7761 116 49.5 116C49.2239 116 49 115.776 49 115.5C49 115.224 49.2239 115 49.5 115C49.7761 115 50 115.224 50 115.5Z" fill="#222222"/>
<path d="M50 117.5C50 117.776 49.7761 118 49.5 118C49.2239 118 49 117.776 49 117.5C49 117.224 49.2239 117 49.5 117C49.7761 117 50 117.224 50 117.5Z" fill="#222222"/>
<path d="M50 119.5C50 119.776 49.7761 120 49.5 120C49.2239 120 49 119.776 49 119.5C49 119.224 49.2239 119 49.5 119C49.7761 119 50 119.224 50 119.5Z" fill="#222222"/>
<path d="M52 115.5C52 115.776 51.7761 116 51.5 116C51.2239 116 51 115.776 51 115.5C51 115.224 51.2239 115 51.5 115C51.7761 115 52 115.224 52 115.5Z" fill="#222222"/>
<path d="M52 117.5C52 117.776 51.7761 118 51.5 118C51.2239 118 51 117.776 51 117.5C51 117.224 51.2239 117 51.5 117C51.7761 117 52 117.224 52 117.5Z" fill="#222222"/>
<path d="M52 119.5C52 119.776 51.7761 120 51.5 120C51.2239 120 51 119.776 51 119.5C51 119.224 51.2239 119 51.5 119C51.7761 119 52 119.224 52 119.5Z" fill="#222222"/>
<path d="M54 114.5C54 114.776 53.7761 115 53.5 115C53.2239 115 53 114.776 53 114.5C53 114.224 53.2239 114 53.5 114C53.7761 114 54 114.224 54 114.5Z" fill="#222222"/>
<path d="M54 116.5C54 116.776 53.7761 117 53.5 117C53.2239 117 53 116.776 53 116.5C53 116.224 53.2239 116 53.5 116C53.7761 116 54 116.224 54 116.5Z" fill="#222222"/>
<path d="M54 118.5C54 118.776 53.7761 119 53.5 119C53.2239 119 53 118.776 53 118.5C53 118.224 53.2239 118 53.5 118C53.7761 118 54 118.224 54 118.5Z" fill="#222222"/>
<path d="M56 113.5C56 113.776 55.7761 114 55.5 114C55.2239 114 55 113.776 55 113.5C55 113.224 55.2239 113 55.5 113C55.7761 113 56 113.224 56 113.5Z" fill="#222222"/>
<path d="M56 115.5C56 115.776 55.7761 116 55.5 116C55.2239 116 55 115.776 55 115.5C55 115.224 55.2239 115 55.5 115C55.7761 115 56 115.224 56 115.5Z" fill="#222222"/>
<path d="M56 117.5C56 117.776 55.7761 118 55.5 118C55.2239 118 55 117.776 55 117.5C55 117.224 55.2239 117 55.5 117C55.7761 117 56 117.224 56 117.5Z" fill="#222222"/>
<path d="M58 112.5C58 112.776 57.7761 113 57.5 113C57.2239 113 57 112.776 57 112.5C57 112.224 57.2239 112 57.5 112C57.7761 112 58 112.224 58 112.5Z" fill="#222222"/>
<path d="M58 114.5C58 114.776 57.7761 115 57.5 115C57.2239 115 57 114.776 57 114.5C57 114.224 57.2239 114 57.5 114C57.7761 114 58 114.224 58 114.5Z" fill="#222222"/>
<path d="M58 116.5C58 116.776 57.7761 117 57.5 117C57.2239 117 57 116.776 57 116.5C57 116.224 57.2239 116 57.5 116C57.7761 116 58 116.224 58 116.5Z" fill="#222222"/>
<path d="M60 111.5C60 111.776 59.7761 112 59.5 112C59.2239 112 59 111.776 59 111.5C59 111.224 59.2239 111 59.5 111C59.7761 111 60 111.224 60 111.5Z" fill="#222222"/>
<path d="M60 113.5C60 113.776 59.7761 114 59.5 114C59.2239 114 59 113.776 59 113.5C59 113.224 59.2239 113 59.5 113C59.7761 113 60 113.224 60 113.5Z" fill="#222222"/>
<path d="M60 115.5C60 115.776 59.7761 116 59.5 116C59.2239 116 59 115.776 59 115.5C59 115.224 59.2239 115 59.5 115C59.7761 115 60 115.224 60 115.5Z" fill="#222222"/>
<path d="M62 110.5C62 110.776 61.7761 111 61.5 111C61.2239 111 61 110.776 61 110.5C61 110.224 61.2239 110 61.5 110C61.7761 110 62 110.224 62 110.5Z" fill="#222222"/>
<path d="M62 112.5C62 112.776 61.7761 113 61.5 113C61.2239 113 61 112.776 61 112.5C61 112.224 61.2239 112 61.5 112C61.7761 112 62 112.224 62 112.5Z" fill="#222222"/>
<path d="M62 114.5C62 114.776 61.7761 115 61.5 115C61.2239 115 61 114.776 61 114.5C61 114.224 61.2239 114 61.5 114C61.7761 114 62 114.224 62 114.5Z" fill="#222222"/>
<path d="M64 109.5C64 109.776 63.7761 110 63.5 110C63.2239 110 63 109.776 63 109.5C63 109.224 63.2239 109 63.5 109C63.7761 109 64 109.224 64 109.5Z" fill="#222222"/>
<path d="M64 111.5C64 111.776 63.7761 112 63.5 112C63.2239 112 63 111.776 63 111.5C63 111.224 63.2239 111 63.5 111C63.7761 111 64 111.224 64 111.5Z" fill="#222222"/>
<path d="M64 113.5C64 113.776 63.7761 114 63.5 114C63.2239 114 63 113.776 63 113.5C63 113.224 63.2239 113 63.5 113C63.7761 113 64 113.224 64 113.5Z" fill="#222222"/>
<path d="M66 108.5C66 108.776 65.7761 109 65.5 109C65.2239 109 65 108.776 65 108.5C65 108.224 65.2239 108 65.5 108C65.7761 108 66 108.224 66 108.5Z" fill="#222222"/>
<path d="M66 110.5C66 110.776 65.7761 111 65.5 111C65.2239 111 65 110.776 65 110.5C65 110.224 65.2239 110 65.5 110C65.7761 110 66 110.224 66 110.5Z" fill="#222222"/>
<path d="M68 109.5C68 109.776 67.7761 110 67.5 110C67.2239 110 67 109.776 67 109.5C67 109.224 67.2239 109 67.5 109C67.7761 109 68 109.224 68 109.5Z" fill="#222222"/>
<path d="M66 112.5C66 112.776 65.7761 113 65.5 113C65.2239 113 65 112.776 65 112.5C65 112.224 65.2239 112 65.5 112C65.7761 112 66 112.224 66 112.5Z" fill="#222222"/>
<path d="M68 111.5C68 111.776 67.7761 112 67.5 112C67.2239 112 67 111.776 67 111.5C67 111.224 67.2239 111 67.5 111C67.7761 111 68 111.224 68 111.5Z" fill="#222222"/>
<path d="M70 110.5C70 110.776 69.7761 111 69.5 111C69.2239 111 69 110.776 69 110.5C69 110.224 69.2239 110 69.5 110C69.7761 110 70 110.224 70 110.5Z" fill="#222222"/>
<path d="M50 100.5C50 100.776 49.7761 101 49.5 101C49.2239 101 49 100.776 49 100.5C49 100.224 49.2239 100 49.5 100C49.7761 100 50 100.224 50 100.5Z" fill="#222222"/>
<path d="M50 102.5C50 102.776 49.7761 103 49.5 103C49.2239 103 49 102.776 49 102.5C49 102.224 49.2239 102 49.5 102C49.7761 102 50 102.224 50 102.5Z" fill="#222222"/>
<path d="M50 104.5C50 104.776 49.7761 105 49.5 105C49.2239 105 49 104.776 49 104.5C49 104.224 49.2239 104 49.5 104C49.7761 104 50 104.224 50 104.5Z" fill="#222222"/>
<path d="M50 106.5C50 106.776 49.7761 107 49.5 107C49.2239 107 49 106.776 49 106.5C49 106.224 49.2239 106 49.5 106C49.7761 106 50 106.224 50 106.5Z" fill="#222222"/>
<path d="M52 106.5C52 106.776 51.7761 107 51.5 107C51.2239 107 51 106.776 51 106.5C51 106.224 51.2239 106 51.5 106C51.7761 106 52 106.224 52 106.5Z" fill="#222222"/>
<path d="M52 104.5C52 104.776 51.7761 105 51.5 105C51.2239 105 51 104.776 51 104.5C51 104.224 51.2239 104 51.5 104C51.7761 104 52 104.224 52 104.5Z" fill="#222222"/>
<path d="M52 102.5C52 102.776 51.7761 103 51.5 103C51.2239 103 51 102.776 51 102.5C51 102.224 51.2239 102 51.5 102C51.7761 102 52 102.224 52 102.5Z" fill="#222222"/>
<path d="M51 100.5C51 100.776 51.2239 101 51.5 101C51.7761 101 52 100.776 52 100.5C52 100.224 51.7761 100 51.5 100C51.2239 100 51 100.224 51 100.5Z" fill="#222222"/>
<path d="M48 99.5C48 99.7761 47.7761 100 47.5 100C47.2239 100 47 99.7761 47 99.5C47 99.2239 47.2239 99 47.5 99C47.7761 99 48 99.2239 48 99.5Z" fill="#222222"/>
<path d="M48 103.5C48 103.776 47.7761 104 47.5 104C47.2239 104 47 103.776 47 103.5C47 103.224 47.2239 103 47.5 103C47.7761 103 48 103.224 48 103.5Z" fill="#222222"/>
<path d="M48 105.5C48 105.776 47.7761 106 47.5 106C47.2239 106 47 105.776 47 105.5C47 105.224 47.2239 105 47.5 105C47.7761 105 48 105.224 48 105.5Z" fill="#222222"/>
<path d="M48 101.5C48 101.776 47.7761 102 47.5 102C47.2239 102 47 101.776 47 101.5C47 101.224 47.2239 101 47.5 101C47.7761 101 48 101.224 48 101.5Z" fill="#222222"/>
<path d="M54 105.5C54 105.776 53.7761 106 53.5 106C53.2239 106 53 105.776 53 105.5C53 105.224 53.2239 105 53.5 105C53.7761 105 54 105.224 54 105.5Z" fill="#222222"/>
<path d="M54 103.5C54 103.776 53.7761 104 53.5 104C53.2239 104 53 103.776 53 103.5C53 103.224 53.2239 103 53.5 103C53.7761 103 54 103.224 54 103.5Z" fill="#222222"/>
<path d="M53 99.5C53 99.7761 53.2239 100 53.5 100C53.7761 100 54 99.7761 54 99.5C54 99.2239 53.7761 99 53.5 99C53.2239 99 53 99.2239 53 99.5Z" fill="#222222"/>
<path d="M53 101.5C53 101.776 53.2239 102 53.5 102C53.7761 102 54 101.776 54 101.5C54 101.224 53.7761 101 53.5 101C53.2239 101 53 101.224 53 101.5Z" fill="#222222"/>
<path d="M46 98.5C46 98.7761 45.7761 99 45.5 99C45.2239 99 45 98.7761 45 98.5C45 98.2239 45.2239 98 45.5 98C45.7761 98 46 98.2239 46 98.5Z" fill="#222222"/>
<path d="M46 104.5C46 104.776 45.7761 105 45.5 105C45.2239 105 45 104.776 45 104.5C45 104.224 45.2239 104 45.5 104C45.7761 104 46 104.224 46 104.5Z" fill="#222222"/>
<path d="M46 100.5C46 100.776 45.7761 101 45.5 101C45.2239 101 45 100.776 45 100.5C45 100.224 45.2239 100 45.5 100C45.7761 100 46 100.224 46 100.5Z" fill="#222222"/>
<path d="M46 102.5C46 102.776 45.7761 103 45.5 103C45.2239 103 45 102.776 45 102.5C45 102.224 45.2239 102 45.5 102C45.7761 102 46 102.224 46 102.5Z" fill="#222222"/>
<path d="M56 104.5C56 104.776 55.7761 105 55.5 105C55.2239 105 55 104.776 55 104.5C55 104.224 55.2239 104 55.5 104C55.7761 104 56 104.224 56 104.5Z" fill="#222222"/>
<path d="M55 98.5C55 98.7761 55.2239 99 55.5 99C55.7761 99 56 98.7761 56 98.5C56 98.2239 55.7761 98 55.5 98C55.2239 98 55 98.2239 55 98.5Z" fill="#222222"/>
<path d="M55 100.5C55 100.776 55.2239 101 55.5 101C55.7761 101 56 100.776 56 100.5C56 100.224 55.7761 100 55.5 100C55.2239 100 55 100.224 55 100.5Z" fill="#222222"/>
<path d="M55 102.5C55 102.776 55.2239 103 55.5 103C55.7761 103 56 102.776 56 102.5C56 102.224 55.7761 102 55.5 102C55.2239 102 55 102.224 55 102.5Z" fill="#222222"/>
<path d="M28 91.5C28 91.7761 27.7761 92 27.5 92C27.2239 92 27 91.7761 27 91.5C27 91.2239 27.2239 91 27.5 91C27.7761 91 28 91.2239 28 91.5Z" fill="#222222"/>
<path d="M26 92.5C26 92.7761 25.7761 93 25.5 93C25.2239 93 25 92.7761 25 92.5C25 92.2239 25.2239 92 25.5 92C25.7761 92 26 92.2239 26 92.5Z" fill="#222222"/>
<path d="M28 93.5C28 93.7761 27.7761 94 27.5 94C27.2239 94 27 93.7761 27 93.5C27 93.2239 27.2239 93 27.5 93C27.7761 93 28 93.2239 28 93.5Z" fill="#222222"/>
<path d="M24 93.5C24 93.7761 23.7761 94 23.5 94C23.2239 94 23 93.7761 23 93.5C23 93.2239 23.2239 93 23.5 93C23.7761 93 24 93.2239 24 93.5Z" fill="#222222"/>
<path d="M26 94.5C26 94.7761 25.7761 95 25.5 95C25.2239 95 25 94.7761 25 94.5C25 94.2239 25.2239 94 25.5 94C25.7761 94 26 94.2239 26 94.5Z" fill="#222222"/>
<path d="M28 95.5C28 95.7761 27.7761 96 27.5 96C27.2239 96 27 95.7761 27 95.5C27 95.2239 27.2239 95 27.5 95C27.7761 95 28 95.2239 28 95.5Z" fill="#222222"/>
<path d="M30 90.5C30 90.7761 29.7761 91 29.5 91C29.2239 91 29 90.7761 29 90.5C29 90.2239 29.2239 90 29.5 90C29.7761 90 30 90.2239 30 90.5Z" fill="#222222"/>
<path d="M30 92.5C30 92.7761 29.7761 93 29.5 93C29.2239 93 29 92.7761 29 92.5C29 92.2239 29.2239 92 29.5 92C29.7761 92 30 92.2239 30 92.5Z" fill="#222222"/>
<path d="M30 94.5C30 94.7761 29.7761 95 29.5 95C29.2239 95 29 94.7761 29 94.5C29 94.2239 29.2239 94 29.5 94C29.7761 94 30 94.2239 30 94.5Z" fill="#222222"/>
<path d="M30 96.5C30 96.7761 29.7761 97 29.5 97C29.2239 97 29 96.7761 29 96.5C29 96.2239 29.2239 96 29.5 96C29.7761 96 30 96.2239 30 96.5Z" fill="#222222"/>
<path d="M32 91.5C32 91.7761 31.7761 92 31.5 92C31.2239 92 31 91.7761 31 91.5C31 91.2239 31.2239 91 31.5 91C31.7761 91 32 91.2239 32 91.5Z" fill="#222222"/>
<path d="M32 93.5C32 93.7761 31.7761 94 31.5 94C31.2239 94 31 93.7761 31 93.5C31 93.2239 31.2239 93 31.5 93C31.7761 93 32 93.2239 32 93.5Z" fill="#222222"/>
<path d="M32 95.5C32 95.7761 31.7761 96 31.5 96C31.2239 96 31 95.7761 31 95.5C31 95.2239 31.2239 95 31.5 95C31.7761 95 32 95.2239 32 95.5Z" fill="#222222"/>
<path d="M32 97.5C32 97.7761 31.7761 98 31.5 98C31.2239 98 31 97.7761 31 97.5C31 97.2239 31.2239 97 31.5 97C31.7761 97 32 97.2239 32 97.5Z" fill="#222222"/>
<path d="M34 92.5C34 92.7761 33.7761 93 33.5 93C33.2239 93 33 92.7761 33 92.5C33 92.2239 33.2239 92 33.5 92C33.7761 92 34 92.2239 34 92.5Z" fill="#222222"/>
<path d="M34 94.5C34 94.7761 33.7761 95 33.5 95C33.2239 95 33 94.7761 33 94.5C33 94.2239 33.2239 94 33.5 94C33.7761 94 34 94.2239 34 94.5Z" fill="#222222"/>
<path d="M34 96.5C34 96.7761 33.7761 97 33.5 97C33.2239 97 33 96.7761 33 96.5C33 96.2239 33.2239 96 33.5 96C33.7761 96 34 96.2239 34 96.5Z" fill="#222222"/>
<path d="M34 98.5C34 98.7761 33.7761 99 33.5 99C33.2239 99 33 98.7761 33 98.5C33 98.2239 33.2239 98 33.5 98C33.7761 98 34 98.2239 34 98.5Z" fill="#222222"/>
<path d="M36 93.5C36 93.7761 35.7761 94 35.5 94C35.2239 94 35 93.7761 35 93.5C35 93.2239 35.2239 93 35.5 93C35.7761 93 36 93.2239 36 93.5Z" fill="#222222"/>
<path d="M36 95.5C36 95.7761 35.7761 96 35.5 96C35.2239 96 35 95.7761 35 95.5C35 95.2239 35.2239 95 35.5 95C35.7761 95 36 95.2239 36 95.5Z" fill="#222222"/>
<path d="M36 97.5C36 97.7761 35.7761 98 35.5 98C35.2239 98 35 97.7761 35 97.5C35 97.2239 35.2239 97 35.5 97C35.7761 97 36 97.2239 36 97.5Z" fill="#222222"/>
<path d="M36 99.5C36 99.7761 35.7761 100 35.5 100C35.2239 100 35 99.7761 35 99.5C35 99.2239 35.2239 99 35.5 99C35.7761 99 36 99.2239 36 99.5Z" fill="#222222"/>
<path d="M38 94.5C38 94.7761 37.7761 95 37.5 95C37.2239 95 37 94.7761 37 94.5C37 94.2239 37.2239 94 37.5 94C37.7761 94 38 94.2239 38 94.5Z" fill="#222222"/>
<path d="M38 96.5C38 96.7761 37.7761 97 37.5 97C37.2239 97 37 96.7761 37 96.5C37 96.2239 37.2239 96 37.5 96C37.7761 96 38 96.2239 38 96.5Z" fill="#222222"/>
<path d="M38 98.5C38 98.7761 37.7761 99 37.5 99C37.2239 99 37 98.7761 37 98.5C37 98.2239 37.2239 98 37.5 98C37.7761 98 38 98.2239 38 98.5Z" fill="#222222"/>
<path d="M38 100.5C38 100.776 37.7761 101 37.5 101C37.2239 101 37 100.776 37 100.5C37 100.224 37.2239 100 37.5 100C37.7761 100 38 100.224 38 100.5Z" fill="#222222"/>
<path d="M40 95.5C40 95.7761 39.7761 96 39.5 96C39.2239 96 39 95.7761 39 95.5C39 95.2239 39.2239 95 39.5 95C39.7761 95 40 95.2239 40 95.5Z" fill="#222222"/>
<path d="M40 97.5C40 97.7761 39.7761 98 39.5 98C39.2239 98 39 97.7761 39 97.5C39 97.2239 39.2239 97 39.5 97C39.7761 97 40 97.2239 40 97.5Z" fill="#222222"/>
<path d="M40 99.5C40 99.7761 39.7761 100 39.5 100C39.2239 100 39 99.7761 39 99.5C39 99.2239 39.2239 99 39.5 99C39.7761 99 40 99.2239 40 99.5Z" fill="#222222"/>
<path d="M40 101.5C40 101.776 39.7761 102 39.5 102C39.2239 102 39 101.776 39 101.5C39 101.224 39.2239 101 39.5 101C39.7761 101 40 101.224 40 101.5Z" fill="#222222"/>
<path d="M42 96.5C42 96.7761 41.7761 97 41.5 97C41.2239 97 41 96.7761 41 96.5C41 96.2239 41.2239 96 41.5 96C41.7761 96 42 96.2239 42 96.5Z" fill="#222222"/>
<path d="M42 98.5C42 98.7761 41.7761 99 41.5 99C41.2239 99 41 98.7761 41 98.5C41 98.2239 41.2239 98 41.5 98C41.7761 98 42 98.2239 42 98.5Z" fill="#222222"/>
<path d="M42 100.5C42 100.776 41.7761 101 41.5 101C41.2239 101 41 100.776 41 100.5C41 100.224 41.2239 100 41.5 100C41.7761 100 42 100.224 42 100.5Z" fill="#222222"/>
<path d="M42 102.5C42 102.776 41.7761 103 41.5 103C41.2239 103 41 102.776 41 102.5C41 102.224 41.2239 102 41.5 102C41.7761 102 42 102.224 42 102.5Z" fill="#222222"/>
<path d="M44 97.5C44 97.7761 43.7761 98 43.5 98C43.2239 98 43 97.7761 43 97.5C43 97.2239 43.2239 97 43.5 97C43.7761 97 44 97.2239 44 97.5Z" fill="#222222"/>
<path d="M44 99.5C44 99.7761 43.7761 100 43.5 100C43.2239 100 43 99.7761 43 99.5C43 99.2239 43.2239 99 43.5 99C43.7761 99 44 99.2239 44 99.5Z" fill="#222222"/>
<path d="M44 101.5C44 101.776 43.7761 102 43.5 102C43.2239 102 43 101.776 43 101.5C43 101.224 43.2239 101 43.5 101C43.7761 101 44 101.224 44 101.5Z" fill="#222222"/>
<path d="M44 103.5C44 103.776 43.7761 104 43.5 104C43.2239 104 43 103.776 43 103.5C43 103.224 43.2239 103 43.5 103C43.7761 103 44 103.224 44 103.5Z" fill="#222222"/>
<path d="M57 97.5C57 97.7761 57.2239 98 57.5 98C57.7761 98 58 97.7761 58 97.5C58 97.2239 57.7761 97 57.5 97C57.2239 97 57 97.2239 57 97.5Z" fill="#222222"/>
<path d="M57 99.5C57 99.7761 57.2239 100 57.5 100C57.7761 100 58 99.7761 58 99.5C58 99.2239 57.7761 99 57.5 99C57.2239 99 57 99.2239 57 99.5Z" fill="#222222"/>
<path d="M57 101.5C57 101.776 57.2239 102 57.5 102C57.7761 102 58 101.776 58 101.5C58 101.224 57.7761 101 57.5 101C57.2239 101 57 101.224 57 101.5Z" fill="#222222"/>
<path d="M57 103.5C57 103.776 57.2239 104 57.5 104C57.7761 104 58 103.776 58 103.5C58 103.224 57.7761 103 57.5 103C57.2239 103 57 103.224 57 103.5Z" fill="#222222"/>
<path d="M59 96.5C59 96.7761 59.2239 97 59.5 97C59.7761 97 60 96.7761 60 96.5C60 96.2239 59.7761 96 59.5 96C59.2239 96 59 96.2239 59 96.5Z" fill="#222222"/>
<path d="M59 98.5C59 98.7761 59.2239 99 59.5 99C59.7761 99 60 98.7761 60 98.5C60 98.2239 59.7761 98 59.5 98C59.2239 98 59 98.2239 59 98.5Z" fill="#222222"/>
<path d="M59 100.5C59 100.776 59.2239 101 59.5 101C59.7761 101 60 100.776 60 100.5C60 100.224 59.7761 100 59.5 100C59.2239 100 59 100.224 59 100.5Z" fill="#222222"/>
<path d="M59 102.5C59 102.776 59.2239 103 59.5 103C59.7761 103 60 102.776 60 102.5C60 102.224 59.7761 102 59.5 102C59.2239 102 59 102.224 59 102.5Z" fill="#222222"/>
<path d="M61 95.5C61 95.7761 61.2239 96 61.5 96C61.7761 96 62 95.7761 62 95.5C62 95.2239 61.7761 95 61.5 95C61.2239 95 61 95.2239 61 95.5Z" fill="#222222"/>
<path d="M61 97.5C61 97.7761 61.2239 98 61.5 98C61.7761 98 62 97.7761 62 97.5C62 97.2239 61.7761 97 61.5 97C61.2239 97 61 97.2239 61 97.5Z" fill="#222222"/>
<path d="M61 99.5C61 99.7761 61.2239 100 61.5 100C61.7761 100 62 99.7761 62 99.5C62 99.2239 61.7761 99 61.5 99C61.2239 99 61 99.2239 61 99.5Z" fill="#222222"/>
<path d="M61 101.5C61 101.776 61.2239 102 61.5 102C61.7761 102 62 101.776 62 101.5C62 101.224 61.7761 101 61.5 101C61.2239 101 61 101.224 61 101.5Z" fill="#222222"/>
<path d="M63 94.5C63 94.7761 63.2239 95 63.5 95C63.7761 95 64 94.7761 64 94.5C64 94.2239 63.7761 94 63.5 94C63.2239 94 63 94.2239 63 94.5Z" fill="#222222"/>
<path d="M63 96.5C63 96.7761 63.2239 97 63.5 97C63.7761 97 64 96.7761 64 96.5C64 96.2239 63.7761 96 63.5 96C63.2239 96 63 96.2239 63 96.5Z" fill="#222222"/>
<path d="M63 98.5C63 98.7761 63.2239 99 63.5 99C63.7761 99 64 98.7761 64 98.5C64 98.2239 63.7761 98 63.5 98C63.2239 98 63 98.2239 63 98.5Z" fill="#222222"/>
<path d="M63 100.5C63 100.776 63.2239 101 63.5 101C63.7761 101 64 100.776 64 100.5C64 100.224 63.7761 100 63.5 100C63.2239 100 63 100.224 63 100.5Z" fill="#222222"/>
<path d="M65 93.5C65 93.7761 65.2239 94 65.5 94C65.7761 94 66 93.7761 66 93.5C66 93.2239 65.7761 93 65.5 93C65.2239 93 65 93.2239 65 93.5Z" fill="#222222"/>
<path d="M65 95.5C65 95.7761 65.2239 96 65.5 96C65.7761 96 66 95.7761 66 95.5C66 95.2239 65.7761 95 65.5 95C65.2239 95 65 95.2239 65 95.5Z" fill="#222222"/>
<path d="M65 97.5C65 97.7761 65.2239 98 65.5 98C65.7761 98 66 97.7761 66 97.5C66 97.2239 65.7761 97 65.5 97C65.2239 97 65 97.2239 65 97.5Z" fill="#222222"/>
<path d="M65 99.5C65 99.7761 65.2239 100 65.5 100C65.7761 100 66 99.7761 66 99.5C66 99.2239 65.7761 99 65.5 99C65.2239 99 65 99.2239 65 99.5Z" fill="#222222"/>
<path d="M67 92.5C67 92.7761 67.2239 93 67.5 93C67.7761 93 68 92.7761 68 92.5C68 92.2239 67.7761 92 67.5 92C67.2239 92 67 92.2239 67 92.5Z" fill="#222222"/>
<path d="M67 94.5C67 94.7761 67.2239 95 67.5 95C67.7761 95 68 94.7761 68 94.5C68 94.2239 67.7761 94 67.5 94C67.2239 94 67 94.2239 67 94.5Z" fill="#222222"/>
<path d="M67 96.5C67 96.7761 67.2239 97 67.5 97C67.7761 97 68 96.7761 68 96.5C68 96.2239 67.7761 96 67.5 96C67.2239 96 67 96.2239 67 96.5Z" fill="#222222"/>
<path d="M67 98.5C67 98.7761 67.2239 99 67.5 99C67.7761 99 68 98.7761 68 98.5C68 98.2239 67.7761 98 67.5 98C67.2239 98 67 98.2239 67 98.5Z" fill="#222222"/>
<path d="M69 91.5C69 91.7761 69.2239 92 69.5 92C69.7761 92 70 91.7761 70 91.5C70 91.2239 69.7761 91 69.5 91C69.2239 91 69 91.2239 69 91.5Z" fill="#222222"/>
<path d="M69 93.5C69 93.7761 69.2239 94 69.5 94C69.7761 94 70 93.7761 70 93.5C70 93.2239 69.7761 93 69.5 93C69.2239 93 69 93.2239 69 93.5Z" fill="#222222"/>
<path d="M69 95.5C69 95.7761 69.2239 96 69.5 96C69.7761 96 70 95.7761 70 95.5C70 95.2239 69.7761 95 69.5 95C69.2239 95 69 95.2239 69 95.5Z" fill="#222222"/>
<path d="M69 97.5C69 97.7761 69.2239 98 69.5 98C69.7761 98 70 97.7761 70 97.5C70 97.2239 69.7761 97 69.5 97C69.2239 97 69 97.2239 69 97.5Z" fill="#222222"/>
<path d="M71 90.5C71 90.7761 71.2239 91 71.5 91C71.7761 91 72 90.7761 72 90.5C72 90.2239 71.7761 90 71.5 90C71.2239 90 71 90.2239 71 90.5Z" fill="#222222"/>
<path d="M71 92.5C71 92.7761 71.2239 93 71.5 93C71.7761 93 72 92.7761 72 92.5C72 92.2239 71.7761 92 71.5 92C71.2239 92 71 92.2239 71 92.5Z" fill="#222222"/>
<path d="M73 91.5C73 91.7761 73.2239 92 73.5 92C73.7761 92 74 91.7761 74 91.5C74 91.2239 73.7761 91 73.5 91C73.2239 91 73 91.2239 73 91.5Z" fill="#222222"/>
<path d="M71 94.5C71 94.7761 71.2239 95 71.5 95C71.7761 95 72 94.7761 72 94.5C72 94.2239 71.7761 94 71.5 94C71.2239 94 71 94.2239 71 94.5Z" fill="#222222"/>
<path d="M73 93.5C73 93.7761 73.2239 94 73.5 94C73.7761 94 74 93.7761 74 93.5C74 93.2239 73.7761 93 73.5 93C73.2239 93 73 93.2239 73 93.5Z" fill="#222222"/>
<path d="M75 92.5C75 92.7761 75.2239 93 75.5 93C75.7761 93 76 92.7761 76 92.5C76 92.2239 75.7761 92 75.5 92C75.2239 92 75 92.2239 75 92.5Z" fill="#222222"/>
<path d="M71 96.5C71 96.7761 71.2239 97 71.5 97C71.7761 97 72 96.7761 72 96.5C72 96.2239 71.7761 96 71.5 96C71.2239 96 71 96.2239 71 96.5Z" fill="#222222"/>
<path d="M73 95.5C73 95.7761 73.2239 96 73.5 96C73.7761 96 74 95.7761 74 95.5C74 95.2239 73.7761 95 73.5 95C73.2239 95 73 95.2239 73 95.5Z" fill="#222222"/>
<path d="M75 94.5C75 94.7761 75.2239 95 75.5 95C75.7761 95 76 94.7761 76 94.5C76 94.2239 75.7761 94 75.5 94C75.2239 94 75 94.2239 75 94.5Z" fill="#222222"/>
<path d="M77 93.5C77 93.7761 77.2239 94 77.5 94C77.7761 94 78 93.7761 78 93.5C78 93.2239 77.7761 93 77.5 93C77.2239 93 77 93.2239 77 93.5Z" fill="#222222"/>
</svg>
