<svg width="1246" height="1245" viewBox="0 0 1246 1245" fill="none" xmlns="http://www.w3.org/2000/svg">
<circle cx="622.849" cy="622.254" r="431" stroke="#222222" stroke-width="2"/>
<mask id="path-2-inside-1_248_1954" fill="white">
<path d="M661.238 301.133C701.996 305.829 741.495 318.212 777.64 337.626L748.104 392.615C718.912 376.936 687.012 366.935 654.093 363.142L661.238 301.133Z"/>
</mask>
<path d="M661.238 301.133C701.996 305.829 741.495 318.212 777.64 337.626L748.104 392.615C718.912 376.936 687.012 366.935 654.093 363.142L661.238 301.133Z" stroke="#222222" stroke-width="4" mask="url(#path-2-inside-1_248_1954)"/>
<mask id="path-3-inside-2_248_1954" fill="white">
<path d="M661.238 301.133C701.996 305.829 741.495 318.212 777.64 337.626L768.407 354.816C734.435 336.569 697.312 324.931 659.004 320.517L661.238 301.133Z"/>
</mask>
<path d="M661.238 301.133C701.996 305.829 741.495 318.212 777.64 337.626L768.407 354.816C734.435 336.569 697.312 324.931 659.004 320.517L661.238 301.133Z" stroke="#222222" stroke-width="4" mask="url(#path-3-inside-2_248_1954)"/>
<mask id="path-4-inside-3_248_1954" fill="white">
<path d="M787.369 343.068C800.523 350.727 813.122 359.302 825.073 368.729L786.414 417.736C776.762 410.122 766.586 403.197 755.962 397.011L787.369 343.068Z"/>
</mask>
<path d="M787.369 343.068C800.523 350.727 813.122 359.302 825.073 368.729L786.414 417.736C776.762 410.122 766.586 403.197 755.962 397.011L787.369 343.068Z" stroke="#222222" stroke-width="4" mask="url(#path-4-inside-3_248_1954)"/>
<mask id="path-5-inside-4_248_1954" fill="white">
<path d="M787.369 343.068C800.523 350.727 813.122 359.302 825.073 368.729L802.33 397.559C791.732 389.199 780.558 381.594 768.893 374.802L787.369 343.068Z"/>
</mask>
<path d="M787.369 343.068C800.523 350.727 813.122 359.302 825.073 368.729L802.33 397.559C791.732 389.199 780.558 381.594 768.893 374.802L787.369 343.068Z" stroke="#222222" stroke-width="4" mask="url(#path-5-inside-4_248_1954)"/>
<path d="M903.708 779.033C879.485 822.395 845.56 859.566 804.585 887.638" stroke="#222222" stroke-width="2"/>
<path d="M866.866 806.9C863.348 811.43 859.705 815.861 855.94 820.188" stroke="#222222" stroke-width="2"/>
<path d="M843.386 833.768C840.635 836.57 837.831 839.319 834.975 842.014" stroke="#222222" stroke-width="2"/>
<path d="M821.006 853.416C817.992 855.933 814.93 858.392 811.822 860.792" stroke="#222222" stroke-width="2"/>
<mask id="path-10-inside-5_248_1954" fill="white">
<path d="M904.968 778.827C897.259 792.707 888.537 805.999 878.873 818.597L853.927 799.46C862.65 788.089 870.523 776.09 877.481 763.561L904.968 778.827Z"/>
</mask>
<path d="M904.968 778.827C897.259 792.707 888.537 805.999 878.873 818.597L853.927 799.46C862.65 788.089 870.523 776.09 877.481 763.561L904.968 778.827Z" stroke="#222222" stroke-width="4" mask="url(#path-10-inside-5_248_1954)"/>
<mask id="path-11-inside-6_248_1954" fill="white">
<path d="M870.082 829.555C865.026 835.583 859.752 841.425 854.271 847.067L831.719 825.159C836.667 820.066 841.428 814.793 845.991 809.352L870.082 829.555Z"/>
</mask>
<path d="M870.082 829.555C865.026 835.583 859.752 841.425 854.271 847.067L831.719 825.159C836.667 820.066 841.428 814.793 845.991 809.352L870.082 829.555Z" stroke="#222222" stroke-width="4" mask="url(#path-11-inside-6_248_1954)"/>
<mask id="path-12-inside-7_248_1954" fill="white">
<path d="M870.082 829.555C865.026 835.583 859.752 841.425 854.271 847.067L846.938 839.944C852.246 834.48 857.353 828.823 862.249 822.986L870.082 829.555Z"/>
</mask>
<path d="M870.082 829.555C865.026 835.583 859.752 841.425 854.271 847.067L846.938 839.944C852.246 834.48 857.353 828.823 862.249 822.986L870.082 829.555Z" fill="#222222" stroke="#222222" stroke-width="4" mask="url(#path-12-inside-7_248_1954)"/>
<mask id="path-13-inside-8_248_1954" fill="white">
<path d="M848.371 852.985C842.745 858.484 836.92 863.776 830.907 868.85L824.314 861.037C830.136 856.124 835.777 850.999 841.225 845.674L848.371 852.985Z"/>
</mask>
<path d="M848.371 852.985C842.745 858.484 836.92 863.776 830.907 868.85L824.314 861.037C830.136 856.124 835.777 850.999 841.225 845.674L848.371 852.985Z" fill="#222222" stroke="#222222" stroke-width="4" mask="url(#path-13-inside-8_248_1954)"/>
<mask id="path-14-inside-9_248_1954" fill="white">
<path d="M824.099 874.439C817.95 879.346 811.624 884.028 805.134 888.474L799.356 880.04C805.641 875.735 811.767 871.201 817.721 866.449L824.099 874.439Z"/>
</mask>
<path d="M824.099 874.439C817.95 879.346 811.624 884.028 805.134 888.474L799.356 880.04C805.641 875.735 811.767 871.201 817.721 866.449L824.099 874.439Z" fill="#222222" stroke="#222222" stroke-width="4" mask="url(#path-14-inside-9_248_1954)"/>
<mask id="path-15-inside-10_248_1954" fill="white">
<path d="M848.341 853.015C842.714 858.513 836.888 863.804 830.875 868.877L810.601 844.846C816.029 840.267 821.287 835.491 826.366 830.527L848.341 853.015Z"/>
</mask>
<path d="M848.341 853.015C842.714 858.513 836.888 863.804 830.875 868.877L810.601 844.846C816.029 840.267 821.287 835.491 826.366 830.527L848.341 853.015Z" stroke="#222222" stroke-width="4" mask="url(#path-15-inside-10_248_1954)"/>
<mask id="path-16-inside-11_248_1954" fill="white">
<path d="M824.115 874.425C817.967 879.334 811.642 884.016 805.151 888.462L787.381 862.524C793.24 858.511 798.949 854.284 804.499 849.854L824.115 874.425Z"/>
</mask>
<path d="M824.115 874.425C817.967 879.334 811.642 884.016 805.151 888.462L787.381 862.524C793.24 858.511 798.949 854.284 804.499 849.854L824.115 874.425Z" stroke="#222222" stroke-width="4" mask="url(#path-16-inside-11_248_1954)"/>
<path d="M733.849 622.254C733.849 639.175 729.98 655.871 722.539 671.068C715.098 686.264 704.281 699.559 690.915 709.935C677.549 720.311 661.988 727.494 645.421 730.935C628.854 734.375 611.72 733.983 595.327 729.788C578.935 725.593 563.719 717.705 550.842 706.729C537.964 695.752 527.767 681.977 521.029 666.456C514.291 650.935 511.191 634.079 511.965 617.176C512.739 600.273 517.367 583.771 525.496 568.93" stroke="#222222" stroke-width="2"/>
<path d="M587.38 735.67C564.449 728.566 544.203 714.693 529.301 695.873C514.399 677.053 505.537 654.166 503.879 630.218" stroke="#222222" stroke-width="2"/>
<path d="M570.216 736.597C560.201 732.019 550.829 726.149 542.341 719.135" stroke="#222222" stroke-width="2"/>
<path d="M522.734 712.222C520.514 709.684 518.39 707.063 516.368 704.364" stroke="#222222" stroke-width="2"/>
<path d="M513.68 700.646C512.931 699.573 512.199 698.489 511.482 697.394" stroke="#222222" stroke-width="2"/>
<path d="M510.05 695.159C509.355 694.051 508.677 692.932 508.015 691.803" stroke="#222222" stroke-width="2"/>
<path d="M479.449 549.059C489.061 530.227 502.288 513.473 518.375 499.754C534.462 486.034 553.094 475.617 573.207 469.098C593.319 462.579 614.519 460.085 635.595 461.759C656.672 463.433 677.212 469.242 696.044 478.854" stroke="#222222" stroke-width="2"/>
<path d="M581.687 458.343C601.975 453.249 623.032 451.964 643.788 454.556" stroke="#222222" stroke-width="2"/>
<mask id="path-25-inside-12_248_1954" fill="white">
<path d="M841.606 629.491C842.745 607.341 840.496 585.146 834.939 563.674L794.813 574.06C799.314 591.449 801.135 609.424 800.213 627.363L841.606 629.491Z"/>
</mask>
<path d="M841.606 629.491C842.745 607.341 840.496 585.146 834.939 563.674L794.813 574.06C799.314 591.449 801.135 609.424 800.213 627.363L841.606 629.491Z" fill="#222222" stroke="#222222" stroke-width="4" mask="url(#path-25-inside-12_248_1954)"/>
<mask id="path-26-inside-13_248_1954" fill="white">
<path d="M841.606 629.491C842.745 607.341 840.496 585.146 834.939 563.674L821.416 567.174C826.618 587.27 828.722 608.043 827.656 628.774L841.606 629.491Z"/>
</mask>
<path d="M841.606 629.491C842.745 607.341 840.496 585.146 834.939 563.674L821.416 567.174C826.618 587.27 828.722 608.043 827.656 628.774L841.606 629.491Z" fill="white" stroke="#222222" stroke-width="4" mask="url(#path-26-inside-13_248_1954)"/>
<mask id="path-27-inside-14_248_1954" fill="white">
<path d="M670.093 705.824C659.119 712.028 647.029 716.01 634.516 717.542C622.003 719.074 609.31 718.127 597.163 714.754C585.015 711.381 573.651 705.648 563.72 697.883C553.788 690.118 545.483 680.473 539.279 669.498L555.993 660.049C560.956 668.829 567.6 676.545 575.545 682.757C583.491 688.969 592.582 693.555 602.3 696.254C612.018 698.952 622.172 699.71 632.183 698.485C642.193 697.259 651.865 694.073 660.644 689.11L670.093 705.824Z"/>
</mask>
<path d="M670.093 705.824C659.119 712.028 647.029 716.01 634.516 717.542C622.003 719.074 609.31 718.127 597.163 714.754C585.015 711.381 573.651 705.648 563.72 697.883C553.788 690.118 545.483 680.473 539.279 669.498L555.993 660.049C560.956 668.829 567.6 676.545 575.545 682.757C583.491 688.969 592.582 693.555 602.3 696.254C612.018 698.952 622.172 699.71 632.183 698.485C642.193 697.259 651.865 694.073 660.644 689.11L670.093 705.824Z" stroke="#222222" stroke-width="4" mask="url(#path-27-inside-14_248_1954)"/>
<mask id="path-28-inside-15_248_1954" fill="white">
<path d="M535.044 661.066C530.834 651.541 528.202 641.395 527.25 631.026L546.37 629.271C547.131 637.567 549.237 645.684 552.605 653.303L535.044 661.066Z"/>
</mask>
<path d="M535.044 661.066C530.834 651.541 528.202 641.395 527.25 631.026L546.37 629.271C547.131 637.567 549.237 645.684 552.605 653.303L535.044 661.066Z" stroke="#222222" stroke-width="4" mask="url(#path-28-inside-15_248_1954)"/>
<mask id="path-29-inside-16_248_1954" fill="white">
<path d="M526.87 620.218C527.091 609.807 529.004 599.502 532.535 589.705L550.597 596.215C547.773 604.052 546.243 612.297 546.066 620.625L526.87 620.218Z"/>
</mask>
<path d="M526.87 620.218C527.091 609.807 529.004 599.502 532.535 589.705L550.597 596.215C547.773 604.052 546.243 612.297 546.066 620.625L526.87 620.218Z" stroke="#222222" stroke-width="4" mask="url(#path-29-inside-16_248_1954)"/>
<mask id="path-30-inside-17_248_1954" fill="white">
<path d="M607.284 527.523C610.182 527.047 613.101 526.704 616.03 526.495L617.394 545.647C615.05 545.814 612.716 546.088 610.397 546.469L607.284 527.523Z"/>
</mask>
<path d="M607.284 527.523C610.182 527.047 613.101 526.704 616.03 526.495L617.394 545.647C615.05 545.814 612.716 546.088 610.397 546.469L607.284 527.523Z" stroke="#222222" stroke-width="4" mask="url(#path-30-inside-17_248_1954)"/>
<mask id="path-31-inside-18_248_1954" fill="white">
<path d="M659.925 533.702C662.634 534.836 665.29 536.094 667.884 537.472L658.877 554.428C656.802 553.326 654.677 552.319 652.51 551.412L659.925 533.702Z"/>
</mask>
<path d="M659.925 533.702C662.634 534.836 665.29 536.094 667.884 537.472L658.877 554.428C656.802 553.326 654.677 552.319 652.51 551.412L659.925 533.702Z" stroke="#222222" stroke-width="4" mask="url(#path-31-inside-18_248_1954)"/>
<mask id="path-32-inside-19_248_1954" fill="white">
<path d="M633.836 526.884C636.754 527.22 639.654 527.69 642.529 528.292L638.593 547.084C636.293 546.602 633.973 546.226 631.639 545.957L633.836 526.884Z"/>
</mask>
<path d="M633.836 526.884C636.754 527.22 639.654 527.69 642.529 528.292L638.593 547.084C636.293 546.602 633.973 546.226 631.639 545.957L633.836 526.884Z" fill="#222222" stroke="#222222" stroke-width="4" mask="url(#path-32-inside-19_248_1954)"/>
<mask id="path-33-inside-20_248_1954" fill="white">
<path d="M682.769 547.249C685.064 549.082 687.273 551.02 689.391 553.055L676.082 566.895C674.389 565.266 672.621 563.716 670.785 562.25L682.769 547.249Z"/>
</mask>
<path d="M682.769 547.249C685.064 549.082 687.273 551.02 689.391 553.055L676.082 566.895C674.389 565.266 672.621 563.716 670.785 562.25L682.769 547.249Z" stroke="#222222" stroke-width="4" mask="url(#path-33-inside-20_248_1954)"/>
<mask id="path-34-inside-21_248_1954" fill="white">
<path d="M717.104 640.474C716.546 643.357 715.857 646.214 715.038 649.034L696.6 643.678C697.255 641.422 697.807 639.137 698.253 636.83L717.104 640.474Z"/>
</mask>
<path d="M717.104 640.474C716.546 643.357 715.857 646.214 715.038 649.034L696.6 643.678C697.255 641.422 697.807 639.137 698.253 636.83L717.104 640.474Z" fill="#222222" stroke="#222222" stroke-width="4" mask="url(#path-34-inside-21_248_1954)"/>
<mask id="path-35-inside-22_248_1954" fill="white">
<path d="M620.414 526.284C623.35 526.21 626.288 526.27 629.218 526.465L627.944 545.623C625.6 545.467 623.25 545.418 620.901 545.478L620.414 526.284Z"/>
</mask>
<path d="M620.414 526.284C623.35 526.21 626.288 526.27 629.218 526.465L627.944 545.623C625.6 545.467 623.25 545.418 620.901 545.478L620.414 526.284Z" stroke="#222222" stroke-width="4" mask="url(#path-35-inside-22_248_1954)"/>
<mask id="path-36-inside-23_248_1954" fill="white">
<path d="M671.711 539.619C674.239 541.114 676.697 542.724 679.078 544.444L667.832 560.006C665.927 558.63 663.961 557.342 661.938 556.146L671.711 539.619Z"/>
</mask>
<path d="M671.711 539.619C674.239 541.114 676.697 542.724 679.078 544.444L667.832 560.006C665.927 558.63 663.961 557.342 661.938 556.146L671.711 539.619Z" stroke="#222222" stroke-width="4" mask="url(#path-36-inside-23_248_1954)"/>
<mask id="path-37-inside-24_248_1954" fill="white">
<path d="M646.802 529.29C649.647 530.023 652.456 530.886 655.221 531.876L648.746 549.952C646.534 549.159 644.287 548.469 642.012 547.883L646.802 529.29Z"/>
</mask>
<path d="M646.802 529.29C649.647 530.023 652.456 530.886 655.221 531.876L648.746 549.952C646.534 549.159 644.287 548.469 642.012 547.883L646.802 529.29Z" fill="#222222" stroke="#222222" stroke-width="4" mask="url(#path-37-inside-24_248_1954)"/>
<mask id="path-38-inside-25_248_1954" fill="white">
<path d="M692.483 556.169C694.505 558.3 696.428 560.522 698.246 562.828L683.166 574.713C681.712 572.868 680.173 571.09 678.556 569.386L692.483 556.169Z"/>
</mask>
<path d="M692.483 556.169C694.505 558.3 696.428 560.522 698.246 562.828L683.166 574.713C681.712 572.868 680.173 571.09 678.556 569.386L692.483 556.169Z" fill="#222222" stroke="#222222" stroke-width="4" mask="url(#path-38-inside-25_248_1954)"/>
<mask id="path-39-inside-26_248_1954" fill="white">
<path d="M713.717 653.219C712.769 655.999 711.695 658.734 710.497 661.415L692.967 653.583C693.925 651.438 694.785 649.249 695.543 647.025L713.717 653.219Z"/>
</mask>
<path d="M713.717 653.219C712.769 655.999 711.695 658.734 710.497 661.415L692.967 653.583C693.925 651.438 694.785 649.249 695.543 647.025L713.717 653.219Z" fill="#222222" stroke="#222222" stroke-width="4" mask="url(#path-39-inside-26_248_1954)"/>
<path d="M316.966 937.146C246.352 868.552 200.843 778.214 187.749 680.644C174.655 583.073 194.737 483.933 244.768 399.149" stroke="#222222" stroke-width="2"/>
<path d="M829.623 235C867.588 255.272 902.366 281.016 932.84 311.406" stroke="#222222" stroke-width="2"/>
<path d="M995.547 390.269C1004.25 404.244 1012.15 418.698 1019.23 433.56" stroke="#222222" stroke-width="2"/>
<path d="M1023.93 443.785C1027.21 451.146 1030.28 458.595 1033.15 466.126" stroke="#222222" stroke-width="2"/>
<path d="M200.582 597.359C205.939 506.497 240.461 419.786 299.021 350.105" stroke="#222222" stroke-width="2"/>
<path d="M1040.85 687.06C1026.91 777.006 984.324 860.055 919.423 923.871" stroke="#222222" stroke-width="2"/>
<path d="M889.584 950.555C877.775 960.149 865.456 969.1 852.682 977.368" stroke="#222222" stroke-width="2"/>
<path d="M844.129 982.759C831.161 990.719 817.773 997.973 804.023 1004.49" stroke="#222222" stroke-width="2"/>
<path d="M795.775 1008.29C723.334 1040.74 643.224 1052.15 564.604 1041.22" stroke="#222222" stroke-width="2"/>
<path d="M285.862 877.927C271.725 859.295 259.159 839.522 248.291 818.813" stroke="#222222" stroke-width="2"/>
<path d="M239.881 801.878C235.717 792.999 231.862 783.978 228.325 774.831" stroke="#222222" stroke-width="2"/>
<path d="M1037.85 622.254C1037.85 696.107 1018.14 768.623 980.757 832.317" stroke="#222222" stroke-width="2"/>
<path d="M975.738 403.863C994.972 434.943 1010.02 468.427 1020.48 503.448" stroke="#222222" stroke-width="2"/>
<path d="M892.966 307.195C920.714 330.985 945.197 358.336 965.781 388.539" stroke="#222222" stroke-width="2"/>
<path d="M788.377 241.694C821.894 256.272 853.337 275.215 881.893 298.029" stroke="#222222" stroke-width="2"/>
<path d="M399.112 272.729C429.896 253.024 463.147 237.472 498.004 226.477" stroke="#222222" stroke-width="2"/>
<path d="M515.558 221.363C527.648 218.127 539.879 215.44 552.212 213.31" stroke="#222222" stroke-width="2"/>
<path d="M561.384 211.829C573.761 209.976 586.216 208.683 598.711 207.955" stroke="#222222" stroke-width="2"/>
<path d="M609.142 207.479C636.313 206.581 663.507 208.355 690.332 212.776" stroke="#222222" stroke-width="2"/>
<path d="M211.233 675.144C203.048 611.449 209.758 546.723 230.833 486.06C251.909 425.397 286.775 370.454 332.688 325.553" stroke="#222222" stroke-width="2"/>
<path d="M215.849 622.254C215.849 560.11 230.079 498.79 257.45 442.998C284.82 387.206 324.603 338.422 373.749 300.387C422.894 262.352 480.097 236.077 540.971 223.575C601.844 211.073 664.773 212.677 724.931 228.264" stroke="#222222" stroke-width="2"/>
<path d="M850.201 284.674C906.629 322.677 952.632 374.22 984.001 434.589C1015.37 494.958 1031.11 562.228 1029.77 630.248C1028.43 698.267 1010.07 764.867 976.352 823.958C942.636 883.048 894.645 932.744 836.767 968.502" stroke="#222222" stroke-width="2"/>
<path d="M803.145 987.141C775.313 1000.89 745.999 1011.42 715.775 1018.5" stroke="#222222" stroke-width="2"/>
<path d="M700.675 1021.74C628.067 1035.89 552.977 1029.98 483.476 1004.65" stroke="#222222" stroke-width="2"/>
<path d="M281.12 828.221C226.494 737.589 210.109 628.969 235.569 526.256C261.029 423.543 326.249 335.151 416.881 280.525C507.513 225.899 616.133 209.514 718.846 234.974C821.559 260.434 909.951 325.654 964.577 416.286" stroke="#222222" stroke-width="2"/>
<path d="M301.823 821.962C298.889 817.094 296.064 812.161 293.349 807.167" stroke="#222222" stroke-width="2"/>
<path d="M982.883 772.766C980.679 778.006 978.358 783.195 975.923 788.331" stroke="#222222" stroke-width="2"/>
<path d="M999.455 724.655C996.416 735.84 992.872 746.882 988.832 757.746" stroke="#222222" stroke-width="2"/>
<path d="M976.994 462.453C981.891 472.959 986.308 483.682 990.232 494.588" stroke="#222222" stroke-width="2"/>
<path d="M959.469 429.216C962.312 434.021 965.049 438.888 967.68 443.812" stroke="#222222" stroke-width="2"/>
<path d="M945.137 406.809C948.307 411.405 951.375 416.07 954.341 420.8" stroke="#222222" stroke-width="2"/>
<path d="M286.681 794.327C284.157 789.234 281.746 784.086 279.451 778.885" stroke="#222222" stroke-width="2"/>
<path d="M291.564 444.664C294.229 439.644 297.006 434.683 299.892 429.786" stroke="#222222" stroke-width="2"/>
<path d="M368.145 344.611C372.295 340.727 376.531 336.936 380.85 333.241" stroke="#222222" stroke-width="2"/>
<circle cx="696.849" cy="480.254" r="4" fill="#222222"/>
<circle cx="478.849" cy="551.254" r="4" fill="#222222"/>
<circle cx="579.849" cy="459.254" r="4" fill="#222222"/>
<circle cx="662.64" cy="356.662" r="3" transform="rotate(3.89187 662.64 356.662)" fill="#222222"/>
<circle cx="672.549" cy="358.338" r="3" transform="rotate(3.89187 672.549 358.338)" fill="#222222"/>
<path d="M583.259 451.414C581.918 450.798 580.441 450.537 578.971 450.657C577.5 450.778 576.085 451.275 574.862 452.101C573.64 452.927 572.651 454.054 571.991 455.374C571.33 456.694 571.021 458.161 571.093 459.635L574.907 459.449C574.867 458.63 575.039 457.815 575.406 457.082C575.772 456.35 576.321 455.724 577 455.265C577.679 454.806 578.465 454.53 579.282 454.463C580.098 454.396 580.919 454.541 581.663 454.884L583.259 451.414Z" fill="#222222"/>
<path d="M696.913 488.428C697.986 488.42 699.047 488.201 700.035 487.783C701.023 487.365 701.919 486.757 702.672 485.993C703.425 485.229 704.02 484.324 704.423 483.33C704.827 482.336 705.03 481.272 705.022 480.199C705.015 479.127 704.796 478.066 704.378 477.078C703.96 476.09 703.352 475.194 702.588 474.441C701.824 473.687 700.919 473.092 699.925 472.689C698.931 472.286 697.867 472.082 696.794 472.09L696.819 475.474C697.447 475.469 698.07 475.588 698.653 475.825C699.235 476.061 699.765 476.409 700.213 476.851C700.66 477.292 701.016 477.817 701.261 478.395C701.506 478.974 701.634 479.596 701.639 480.224C701.643 480.852 701.524 481.475 701.288 482.058C701.052 482.64 700.703 483.17 700.262 483.618C699.821 484.065 699.296 484.422 698.717 484.666C698.138 484.911 697.517 485.039 696.888 485.044L696.913 488.428Z" fill="#222222"/>
<path d="M471.749 547.226C471.22 548.159 470.879 549.187 470.747 550.252C470.615 551.316 470.693 552.396 470.978 553.431C471.264 554.465 471.75 555.433 472.409 556.279C473.068 557.125 473.888 557.833 474.821 558.363C475.754 558.893 476.782 559.233 477.846 559.365C478.911 559.498 479.991 559.419 481.025 559.134C482.059 558.849 483.027 558.363 483.874 557.703C484.72 557.044 485.428 556.225 485.958 555.292L483.015 553.621C482.705 554.168 482.29 554.648 481.794 555.034C481.298 555.42 480.731 555.705 480.126 555.872C479.52 556.039 478.887 556.085 478.263 556.007C477.64 555.93 477.038 555.73 476.491 555.42C475.945 555.11 475.465 554.695 475.078 554.199C474.692 553.704 474.408 553.137 474.24 552.531C474.073 551.925 474.027 551.292 474.105 550.669C474.182 550.045 474.382 549.443 474.692 548.896L471.749 547.226Z" fill="#222222"/>
<path d="M643.07 455.09L649.627 464.417" stroke="#222222" stroke-width="2"/>
<mask id="path-83-inside-27_248_1954" fill="white">
<path fill-rule="evenodd" clip-rule="evenodd" d="M526.601 449.252C499.353 464.882 476.188 486.967 459.239 513.724L476.701 524.784C488.807 505.671 504.464 489.226 522.698 476.263L522.687 476.271L526.601 449.252ZM528.57 448.138L524.816 474.781C535.108 467.693 546.193 461.7 557.899 456.945L550.121 437.795C542.702 440.808 535.507 444.265 528.57 448.138ZM553.849 454.251C553.849 455.908 552.506 457.251 550.849 457.251C549.192 457.251 547.849 455.908 547.849 454.251C547.849 452.595 549.192 451.251 550.849 451.251C552.506 451.251 553.849 452.595 553.849 454.251Z"/>
</mask>
<path fill-rule="evenodd" clip-rule="evenodd" d="M526.601 449.252C499.353 464.882 476.188 486.967 459.239 513.724L476.701 524.784C488.807 505.671 504.464 489.226 522.698 476.263L522.687 476.271L526.601 449.252ZM528.57 448.138L524.816 474.781C535.108 467.693 546.193 461.7 557.899 456.945L550.121 437.795C542.702 440.808 535.507 444.265 528.57 448.138ZM553.849 454.251C553.849 455.908 552.506 457.251 550.849 457.251C549.192 457.251 547.849 455.908 547.849 454.251C547.849 452.595 549.192 451.251 550.849 451.251C552.506 451.251 553.849 452.595 553.849 454.251Z" fill="#222222"/>
<path d="M459.239 513.724L457.55 512.654L456.479 514.343L458.169 515.414L459.239 513.724ZM526.601 449.252L528.581 449.539L529.17 445.473L525.606 447.517L526.601 449.252ZM476.701 524.784L475.63 526.474L477.32 527.544L478.39 525.854L476.701 524.784ZM522.697 476.264L523.856 477.894L521.556 474.621L522.697 476.264ZM522.687 476.271L520.708 475.984L520.048 480.538L523.828 477.913L522.687 476.271ZM528.57 448.138L527.595 446.392L526.728 446.876L526.589 447.859L528.57 448.138ZM524.816 474.781L522.835 474.502L522.2 479.011L525.95 476.428L524.816 474.781ZM557.899 456.945L558.652 458.798L560.505 458.045L559.752 456.192L557.899 456.945ZM550.121 437.795L551.974 437.042L551.221 435.189L549.368 435.942L550.121 437.795ZM460.929 514.794C477.702 488.313 500.629 466.455 527.597 450.987L525.606 447.517C498.077 463.308 474.673 485.621 457.55 512.654L460.929 514.794ZM477.771 523.095L460.309 512.034L458.169 515.414L475.63 526.474L477.771 523.095ZM521.538 474.634C503.095 487.746 487.257 504.38 475.011 523.714L478.39 525.854C490.357 506.962 505.833 490.707 523.856 477.894L521.538 474.634ZM521.556 474.621L521.547 474.628L523.828 477.913L523.838 477.907L521.556 474.621ZM524.667 476.557L528.581 449.539L524.622 448.965L520.708 475.984L524.667 476.557ZM526.589 447.859L522.835 474.502L526.796 475.06L530.55 448.417L526.589 447.859ZM557.147 455.092C545.305 459.902 534.093 465.964 523.681 473.134L525.95 476.428C536.124 469.422 547.08 463.498 558.652 458.798L557.147 455.092ZM548.268 438.548L556.046 457.698L559.752 456.192L551.974 437.042L548.268 438.548ZM529.545 449.884C536.411 446.052 543.531 442.63 550.873 439.648L549.368 435.942C541.873 438.986 534.604 442.479 527.595 446.392L529.545 449.884ZM550.849 459.251C553.61 459.251 555.849 457.013 555.849 454.251H551.849C551.849 454.804 551.401 455.251 550.849 455.251V459.251ZM545.849 454.251C545.849 457.013 548.087 459.251 550.849 459.251V455.251C550.296 455.251 549.849 454.804 549.849 454.251H545.849ZM550.849 449.251C548.087 449.251 545.849 451.49 545.849 454.251H549.849C549.849 453.699 550.296 453.251 550.849 453.251V449.251ZM555.849 454.251C555.849 451.49 553.61 449.251 550.849 449.251V453.251C551.401 453.251 551.849 453.699 551.849 454.251H555.849Z" fill="#222222" mask="url(#path-83-inside-27_248_1954)"/>
<mask id="path-85-inside-28_248_1954" fill="white">
<path fill-rule="evenodd" clip-rule="evenodd" d="M800.571 746.006C798.246 749.222 795.829 752.381 793.322 755.478L761.109 729.396C784.268 700.793 797.909 665.668 800.125 628.932L809.117 629.474C808.786 647.656 800.437 691.015 775.79 724.407L775.227 725.17L775.959 725.773C777.171 726.771 778.35 727.741 779.492 728.682C791.132 738.268 799.017 744.762 800.571 746.006ZM801.733 744.382C825.219 711.257 839.041 672.144 841.498 631.428L811.052 629.591C810.717 647.941 802.475 691.126 777.96 724.829C781.236 727.527 784.248 730.008 786.95 732.234C795.147 738.985 800.499 743.394 801.733 744.382ZM834.595 640C836.252 640 837.595 638.657 837.595 637C837.595 635.343 836.252 634 834.595 634C832.938 634 831.595 635.343 831.595 637C831.595 638.657 832.938 640 834.595 640ZM835.595 648C835.595 649.657 834.252 651 832.595 651C830.938 651 829.595 649.657 829.595 648C829.595 646.343 830.938 645 832.595 645C834.252 645 835.595 646.343 835.595 648Z"/>
</mask>
<path fill-rule="evenodd" clip-rule="evenodd" d="M800.571 746.006C798.246 749.222 795.829 752.381 793.322 755.478L761.109 729.396C784.268 700.793 797.909 665.668 800.125 628.932L809.117 629.474C808.786 647.656 800.437 691.015 775.79 724.407L775.227 725.17L775.959 725.773C777.171 726.771 778.35 727.741 779.492 728.682C791.132 738.268 799.017 744.762 800.571 746.006ZM801.733 744.382C825.219 711.257 839.041 672.144 841.498 631.428L811.052 629.591C810.717 647.941 802.475 691.126 777.96 724.829C781.236 727.527 784.248 730.008 786.95 732.234C795.147 738.985 800.499 743.394 801.733 744.382ZM834.595 640C836.252 640 837.595 638.657 837.595 637C837.595 635.343 836.252 634 834.595 634C832.938 634 831.595 635.343 831.595 637C831.595 638.657 832.938 640 834.595 640ZM835.595 648C835.595 649.657 834.252 651 832.595 651C830.938 651 829.595 649.657 829.595 648C829.595 646.343 830.938 645 832.595 645C834.252 645 835.595 646.343 835.595 648Z" fill="#222222"/>
<path d="M793.322 755.478L792.063 757.032L793.618 758.291L794.876 756.736L793.322 755.478ZM800.571 746.006L802.192 747.178L803.307 745.635L801.821 744.445L800.571 746.006ZM761.109 729.396L759.554 728.138L758.296 729.692L759.85 730.951L761.109 729.396ZM800.125 628.932L800.246 626.935L798.249 626.815L798.129 628.811L800.125 628.932ZM809.117 629.474L811.117 629.511L811.152 627.593L809.238 627.478L809.117 629.474ZM775.79 724.407L777.399 725.595L777.399 725.595L775.79 724.407ZM775.227 725.17L773.618 723.982L772.492 725.508L773.956 726.714L775.227 725.17ZM775.959 725.773L777.231 724.229L777.231 724.229L775.959 725.773ZM779.492 728.682L780.763 727.138L780.763 727.138L779.492 728.682ZM801.733 744.382L800.484 745.944L802.139 747.268L803.365 745.539L801.733 744.382ZM841.498 631.428L843.494 631.548L843.614 629.552L841.618 629.431L841.498 631.428ZM811.052 629.591L811.172 627.594L809.09 627.469L809.052 629.554L811.052 629.591ZM777.96 724.829L776.343 723.653L775.235 725.176L776.689 726.373L777.96 724.829ZM786.95 732.234L785.679 733.778L785.679 733.778L786.95 732.234ZM794.876 756.736C797.406 753.611 799.845 750.424 802.192 747.178L798.95 744.834C796.646 748.021 794.252 751.151 791.767 754.219L794.876 756.736ZM759.85 730.951L792.063 757.032L794.58 753.923L762.367 727.842L759.85 730.951ZM798.129 628.811C795.938 665.131 782.451 699.859 759.554 728.138L762.663 730.655C786.084 701.728 799.88 666.205 802.122 629.052L798.129 628.811ZM809.238 627.478L800.246 626.935L800.005 630.928L808.997 631.471L809.238 627.478ZM777.399 725.595C802.347 691.795 810.78 648.006 811.117 629.511L807.118 629.438C806.792 647.306 798.527 690.234 774.181 723.219L777.399 725.595ZM776.836 726.357L777.399 725.595L774.181 723.219L773.618 723.982L776.836 726.357ZM777.231 724.229L776.499 723.626L773.956 726.714L774.688 727.316L777.231 724.229ZM780.763 727.138C779.621 726.197 778.443 725.227 777.231 724.229L774.688 727.316C775.9 728.315 777.078 729.285 778.22 730.226L780.763 727.138ZM801.821 744.445C800.281 743.212 792.414 736.733 780.763 727.138L778.22 730.226C789.849 739.803 797.752 746.312 799.321 747.567L801.821 744.445ZM803.365 745.539C827.066 712.11 841.015 672.638 843.494 631.548L839.501 631.307C837.067 671.65 823.372 710.404 800.102 743.225L803.365 745.539ZM841.618 629.431L811.172 627.594L810.931 631.587L841.377 633.424L841.618 629.431ZM809.052 629.554C808.723 647.593 800.565 690.353 776.343 723.653L779.577 726.006C804.386 691.9 812.711 648.29 813.051 629.627L809.052 629.554ZM776.689 726.373C779.964 729.07 782.976 731.551 785.679 733.778L788.222 730.69C785.519 728.464 782.507 725.983 779.231 723.285L776.689 726.373ZM785.679 733.778C793.864 740.52 799.235 744.944 800.484 745.944L802.983 742.82C801.764 741.845 796.429 737.451 788.222 730.69L785.679 733.778ZM835.595 637C835.595 637.552 835.147 638 834.595 638V642C837.356 642 839.595 639.762 839.595 637H835.595ZM834.595 636C835.147 636 835.595 636.448 835.595 637H839.595C839.595 634.239 837.356 632 834.595 632V636ZM833.595 637C833.595 636.448 834.043 636 834.595 636V632C831.833 632 829.595 634.239 829.595 637H833.595ZM834.595 638C834.043 638 833.595 637.552 833.595 637H829.595C829.595 639.762 831.833 642 834.595 642V638ZM832.595 653C835.356 653 837.595 650.762 837.595 648H833.595C833.595 648.552 833.147 649 832.595 649V653ZM827.595 648C827.595 650.762 829.833 653 832.595 653V649C832.043 649 831.595 648.552 831.595 648H827.595ZM832.595 643C829.833 643 827.595 645.239 827.595 648H831.595C831.595 647.448 832.043 647 832.595 647V643ZM837.595 648C837.595 645.239 835.356 643 832.595 643V647C833.147 647 833.595 647.448 833.595 648H837.595Z" fill="#222222" mask="url(#path-85-inside-28_248_1954)"/>
<mask id="path-87-inside-29_248_1954" fill="white">
<path d="M345.134 579.073C340.936 606.191 340.718 633.777 344.487 660.958L397.595 653.593C394.542 631.58 394.718 609.239 398.119 587.276L345.134 579.073Z"/>
</mask>
<path d="M345.134 579.073C340.936 606.191 340.718 633.777 344.487 660.958L397.595 653.593C394.542 631.58 394.718 609.239 398.119 587.276L345.134 579.073Z" fill="#222222" stroke="#222222" stroke-width="4" mask="url(#path-87-inside-29_248_1954)"/>
<mask id="path-88-inside-30_248_1954" fill="white">
<path d="M345.134 579.073C340.936 606.191 340.718 633.777 344.487 660.958L353.386 659.724C349.737 633.409 349.948 606.702 354.013 580.448L345.134 579.073Z"/>
</mask>
<path d="M345.134 579.073C340.936 606.191 340.718 633.777 344.487 660.958L353.386 659.724C349.737 633.409 349.948 606.702 354.013 580.448L345.134 579.073Z" fill="white" stroke="#222222" stroke-width="4" mask="url(#path-88-inside-30_248_1954)"/>
<circle cx="358.595" cy="590" r="3" fill="white"/>
<circle cx="357.595" cy="602" r="3" fill="white"/>
<mask id="path-91-inside-31_248_1954" fill="white">
<path fill-rule="evenodd" clip-rule="evenodd" d="M404.692 799.727C407.346 803.004 410.078 806.225 412.885 809.389C422.607 820.345 433.125 830.48 444.33 839.726C445.536 836.937 447.446 832.534 450.376 825.795C432.033 810.751 421.67 798.973 418.234 794.225L404.692 799.727ZM403.383 798.1L418.218 792.073L418.967 791.769L419.422 792.437C422.181 796.495 432.668 808.759 452.227 824.725L452.814 825.204L452.512 825.898C449.215 833.481 447.164 838.209 445.939 841.043C476.227 865.663 511.431 883.835 549.4 894.223L563.548 842.508C520.81 830.816 482.397 806.944 452.988 773.803C440.77 760.033 430.325 744.911 421.821 728.793C416.563 728.902 409.172 729 399.095 729H398.44L398.178 728.4C386.449 701.521 378.525 670.826 376.731 659.012L344.89 663.753C352.222 712.992 372.443 759.323 403.383 798.1ZM397.92 655.856C401.624 680.729 409.389 704.686 420.789 726.813C415.74 726.912 408.869 726.996 399.75 727C388.224 700.401 380.458 670.238 378.709 658.717L397.92 655.856ZM557.595 848C557.595 849.657 556.252 851 554.595 851C552.938 851 551.595 849.657 551.595 848C551.595 846.343 552.938 845 554.595 845C556.252 845 557.595 846.343 557.595 848ZM545.595 848C547.252 848 548.595 846.657 548.595 845C548.595 843.343 547.252 842 545.595 842C543.938 842 542.595 843.343 542.595 845C542.595 846.657 543.938 848 545.595 848Z"/>
</mask>
<path fill-rule="evenodd" clip-rule="evenodd" d="M404.692 799.727C407.346 803.004 410.078 806.225 412.885 809.389C422.607 820.345 433.125 830.48 444.33 839.726C445.536 836.937 447.446 832.534 450.376 825.795C432.033 810.751 421.67 798.973 418.234 794.225L404.692 799.727ZM403.383 798.1L418.218 792.073L418.967 791.769L419.422 792.437C422.181 796.495 432.668 808.759 452.227 824.725L452.814 825.204L452.512 825.898C449.215 833.481 447.164 838.209 445.939 841.043C476.227 865.663 511.431 883.835 549.4 894.223L563.548 842.508C520.81 830.816 482.397 806.944 452.988 773.803C440.77 760.033 430.325 744.911 421.821 728.793C416.563 728.902 409.172 729 399.095 729H398.44L398.178 728.4C386.449 701.521 378.525 670.826 376.731 659.012L344.89 663.753C352.222 712.992 372.443 759.323 403.383 798.1ZM397.92 655.856C401.624 680.729 409.389 704.686 420.789 726.813C415.74 726.912 408.869 726.996 399.75 727C388.224 700.401 380.458 670.238 378.709 658.717L397.92 655.856ZM557.595 848C557.595 849.657 556.252 851 554.595 851C552.938 851 551.595 849.657 551.595 848C551.595 846.343 552.938 845 554.595 845C556.252 845 557.595 846.343 557.595 848ZM545.595 848C547.252 848 548.595 846.657 548.595 845C548.595 843.343 547.252 842 545.595 842C543.938 842 542.595 843.343 542.595 845C542.595 846.657 543.938 848 545.595 848Z" fill="#222222"/>
<path d="M412.885 809.389L411.389 810.716L411.389 810.716L412.885 809.389ZM404.692 799.727L403.939 797.874L401.439 798.89L403.138 800.986L404.692 799.727ZM444.33 839.726L443.057 841.268L445.109 842.962L446.165 840.52L444.33 839.726ZM450.376 825.795L452.21 826.592L452.813 825.206L451.644 824.248L450.376 825.795ZM418.234 794.225L419.855 793.053L418.935 791.782L417.482 792.373L418.234 794.225ZM403.383 798.1L401.82 799.347L402.752 800.515L404.136 799.953L403.383 798.1ZM418.218 792.073L417.466 790.22L417.466 790.22L418.218 792.073ZM418.967 791.769L420.621 790.644L419.712 789.308L418.214 789.916L418.967 791.769ZM419.422 792.437L421.076 791.313L421.076 791.313L419.422 792.437ZM452.227 824.725L453.492 823.176L453.492 823.176L452.227 824.725ZM452.814 825.204L454.648 826.001L455.252 824.612L454.079 823.655L452.814 825.204ZM452.512 825.898L450.678 825.101L450.678 825.101L452.512 825.898ZM445.939 841.043L444.103 840.25L443.502 841.64L444.677 842.595L445.939 841.043ZM549.4 894.223L548.872 896.152L550.801 896.68L551.329 894.751L549.4 894.223ZM563.548 842.508L565.477 843.035L566.005 841.106L564.076 840.578L563.548 842.508ZM452.988 773.803L451.492 775.13L451.492 775.13L452.988 773.803ZM421.821 728.793L423.59 727.86L423.014 726.768L421.779 726.793L421.821 728.793ZM398.44 729L396.607 729.8L397.131 731H398.44V729ZM398.178 728.4L396.345 729.2L396.345 729.2L398.178 728.4ZM376.731 659.012L378.708 658.712L378.409 656.74L376.436 657.034L376.731 659.012ZM344.89 663.753L344.595 661.775L342.617 662.07L342.911 664.048L344.89 663.753ZM420.789 726.813L420.828 728.813L424.037 728.751L422.567 725.897L420.789 726.813ZM397.92 655.856L399.899 655.562L399.604 653.584L397.626 653.878L397.92 655.856ZM399.75 727L397.915 727.795L398.438 729L399.751 729L399.75 727ZM378.709 658.717L378.414 656.739L376.43 657.035L376.731 659.018L378.709 658.717ZM414.381 808.062C411.593 804.92 408.881 801.722 406.246 798.468L403.138 800.986C405.811 804.286 408.562 807.53 411.389 810.716L414.381 808.062ZM445.603 838.183C434.478 829.003 424.034 818.939 414.381 808.062L411.389 810.716C421.18 821.75 431.773 831.957 443.057 841.268L445.603 838.183ZM446.165 840.52C447.371 837.733 449.28 833.331 452.21 826.592L448.542 824.997C445.612 831.737 443.701 836.142 442.494 838.931L446.165 840.52ZM451.644 824.248C433.389 809.276 423.16 797.621 419.855 793.053L416.614 795.398C420.18 800.326 430.678 812.227 449.108 827.341L451.644 824.248ZM417.482 792.373L403.939 797.874L405.445 801.58L418.987 796.078L417.482 792.373ZM404.136 799.953L418.971 793.926L417.466 790.22L402.631 796.247L404.136 799.953ZM418.971 793.926L419.72 793.622L418.214 789.916L417.466 790.22L418.971 793.926ZM417.313 792.894L417.768 793.562L421.076 791.313L420.621 790.644L417.313 792.894ZM417.768 793.562C420.675 797.838 431.321 810.241 450.962 826.274L453.492 823.176C434.015 807.276 423.686 795.152 421.076 791.313L417.768 793.562ZM450.962 826.274L451.549 826.753L454.079 823.655L453.492 823.176L450.962 826.274ZM450.98 824.407L450.678 825.101L454.346 826.696L454.648 826.001L450.98 824.407ZM450.678 825.101C447.381 832.684 445.329 837.414 444.103 840.25L447.775 841.837C448.999 839.005 451.05 834.278 454.346 826.696L450.678 825.101ZM549.928 892.294C512.228 881.98 477.273 863.936 447.2 839.491L444.677 842.595C475.18 867.39 510.634 885.691 548.872 896.152L549.928 892.294ZM561.619 841.98L547.471 893.695L551.329 894.751L565.477 843.035L561.619 841.98ZM451.492 775.13C481.158 808.562 519.908 832.642 563.02 844.437L564.076 840.578C521.712 828.989 483.635 805.327 454.484 772.475L451.492 775.13ZM420.052 729.726C428.63 745.985 439.167 761.24 451.492 775.13L454.484 772.475C442.372 758.826 432.019 743.836 423.59 727.86L420.052 729.726ZM399.095 731C409.185 731 416.59 730.902 421.862 730.793L421.779 726.793C416.536 726.902 409.159 727 399.095 727V731ZM398.44 731H399.095V727H398.44V731ZM396.345 729.2L396.607 729.8L400.273 728.2L400.011 727.6L396.345 729.2ZM374.753 659.312C376.575 671.31 384.552 702.173 396.345 729.2L400.011 727.6C388.347 700.87 380.474 670.342 378.708 658.712L374.753 659.312ZM345.184 665.732L377.025 660.99L376.436 657.034L344.595 661.775L345.184 665.732ZM404.947 796.853C374.226 758.351 354.148 712.349 346.868 663.459L342.911 664.048C350.296 713.636 370.66 760.296 401.82 799.347L404.947 796.853ZM422.567 725.897C411.267 703.964 403.57 680.217 399.899 655.562L395.942 656.151C399.679 681.242 407.511 705.408 419.011 727.729L422.567 725.897ZM399.751 729C408.881 728.996 415.765 728.911 420.828 728.813L420.75 724.814C415.714 724.912 408.856 724.996 399.75 725L399.751 729ZM376.731 659.018C378.509 670.721 386.326 701.05 397.915 727.795L401.585 726.204C390.122 699.751 382.408 669.755 380.686 658.417L376.731 659.018ZM397.626 653.878L378.414 656.739L379.003 660.695L398.215 657.835L397.626 653.878ZM554.595 853C557.356 853 559.595 850.761 559.595 848H555.595C555.595 848.552 555.147 849 554.595 849V853ZM549.595 848C549.595 850.761 551.833 853 554.595 853V849C554.043 849 553.595 848.552 553.595 848H549.595ZM554.595 843C551.833 843 549.595 845.238 549.595 848H553.595C553.595 847.447 554.043 847 554.595 847V843ZM559.595 848C559.595 845.238 557.356 843 554.595 843V847C555.147 847 555.595 847.447 555.595 848H559.595ZM546.595 845C546.595 845.552 546.147 846 545.595 846V850C548.356 850 550.595 847.761 550.595 845H546.595ZM545.595 844C546.147 844 546.595 844.447 546.595 845H550.595C550.595 842.238 548.356 840 545.595 840V844ZM544.595 845C544.595 844.447 545.043 844 545.595 844V840C542.833 840 540.595 842.238 540.595 845H544.595ZM545.595 846C545.043 846 544.595 845.552 544.595 845H540.595C540.595 847.761 542.833 850 545.595 850V846Z" fill="#222222" mask="url(#path-91-inside-31_248_1954)"/>
<mask id="path-93-inside-32_248_1954" fill="white">
<path fill-rule="evenodd" clip-rule="evenodd" d="M448.208 764.5L448.161 764.538C478.035 801.176 518.645 827.524 564.276 839.873L571.79 812.111C539.956 803.496 510.923 787.074 487.237 764.5H448.208Z"/>
</mask>
<path fill-rule="evenodd" clip-rule="evenodd" d="M448.208 764.5L448.161 764.538C478.035 801.176 518.645 827.524 564.276 839.873L571.79 812.111C539.956 803.496 510.923 787.074 487.237 764.5H448.208Z" fill="#222222"/>
<path d="M448.208 764.5V762.5H447.496L446.944 762.95L448.208 764.5ZM448.161 764.538L446.897 762.988L445.347 764.252L446.611 765.802L448.161 764.538ZM564.276 839.873L563.754 841.804L565.684 842.326L566.207 840.396L564.276 839.873ZM571.79 812.111L573.72 812.634L574.243 810.703L572.312 810.181L571.79 812.111ZM487.237 764.5L488.617 763.052L488.037 762.5H487.237V764.5ZM446.944 762.95L446.897 762.988L449.425 766.088L449.472 766.05L446.944 762.95ZM446.611 765.802C476.749 802.764 517.718 829.345 563.754 841.804L564.799 837.943C519.571 825.702 479.32 799.588 449.711 763.274L446.611 765.802ZM566.207 840.396L573.72 812.634L569.859 811.589L562.346 839.351L566.207 840.396ZM572.312 810.181C540.801 801.653 512.062 785.398 488.617 763.052L485.857 765.948C509.783 788.751 539.111 805.339 571.267 814.042L572.312 810.181ZM487.237 762.5H448.208V766.5H487.237V762.5Z" fill="#222222" mask="url(#path-93-inside-32_248_1954)"/>
</svg>
