<svg width="502" height="502" viewBox="0 0 502 502" fill="none" xmlns="http://www.w3.org/2000/svg">
<path d="M48.9042 45.9102V48.9042M48.9042 48.9042V78.8443M48.9042 48.9042H168.665M48.9042 48.9042H45.9102M48.9042 78.8443L48.9042 108.784M48.9042 78.8443H138.725M48.9042 78.8443H45.9102M48.9042 108.784V138.725M48.9042 108.784H108.784M48.9042 108.784H45.9102M48.9042 138.725L48.9042 168.665M48.9042 138.725H108.784M48.9042 138.725H45.9102M48.9042 168.665L48.9042 258.485M48.9042 168.665H138.725M48.9042 168.665H45.9102M48.9042 258.485H45.9102M48.9042 258.485H78.8443M48.9042 258.485V288.425M48.9042 288.425H45.9102M48.9042 288.425H108.784M48.9042 288.425L48.9042 468.066M48.9042 468.066V498.006M48.9042 468.066H45.9102M48.9042 468.066H108.784M48.9042 498.006V501M48.9042 498.006H108.784M48.9042 498.006H45.9102M501 48.9042H498.006M498.006 48.9042H408.186M498.006 48.9042V45.9102M498.006 48.9042V78.8443M408.186 48.9042H378.246M408.186 48.9042V108.784M408.186 48.9042V45.9102M378.246 48.9042H288.425M378.246 48.9042V138.725M378.246 48.9042V45.9102M288.425 48.9042H258.485M288.425 48.9042V45.9102M288.425 48.9042V108.784M258.485 48.9042H168.665M258.485 48.9042V78.8443M258.485 48.9042V45.9102M168.665 48.9042V198.605M168.665 48.9042V45.9102M498.006 78.8443V108.784M498.006 78.8443H501M498.006 78.8443H435.132M498.006 108.784L498.006 318.365M498.006 108.784H408.186M498.006 108.784H501M498.006 318.365V498.006M498.006 318.365H501M498.006 318.365H438.126M498.006 498.006V501M498.006 498.006H501M498.006 498.006H468.066M468.066 498.006H438.126M468.066 498.006V345.311M468.066 498.006V501M438.126 498.006H408.186M438.126 498.006V438.126M438.126 498.006V501M408.186 498.006V501M408.186 498.006V468.066M408.186 498.006H378.246M378.246 498.006H348.305M378.246 498.006V501M378.246 498.006V468.066M348.305 498.006V501M348.305 498.006H318.365M348.305 498.006V438.126M318.365 498.006H228.545M318.365 498.006V501M318.365 498.006V408.186M228.545 498.006H198.605M228.545 498.006V468.066M228.545 498.006V501M198.605 498.006H168.665M198.605 498.006V438.126M198.605 498.006V501M168.665 498.006H138.725M168.665 498.006V408.186M168.665 498.006V501M138.725 498.006H108.784M138.725 498.006V501M138.725 498.006V378.246M108.784 498.006V468.066M108.784 498.006V501M138.725 378.246V375.252M138.725 378.246H198.605M138.725 378.246H135.731M318.365 288.425H321.359M318.365 288.425H228.545M318.365 288.425V408.186M318.365 288.425V198.605M318.365 198.605V195.611M318.365 198.605H378.246M318.365 198.605H315.371M108.784 288.425H111.778M108.784 288.425V228.545M225.551 108.784H228.545M228.545 108.784H288.425M228.545 108.784V288.425M288.425 108.784H291.419M81.8383 438.126H108.784M108.784 438.126H111.778M108.784 438.126V348.305M255.491 258.485H258.485M258.485 258.485H288.425M258.485 258.485V261.479M258.485 258.485V138.725M288.425 258.485H291.419M288.425 258.485V168.665M108.784 468.066H111.778M108.784 468.066V465.072M78.8443 258.485H81.8383M78.8443 258.485V198.605M78.8443 258.485V261.479M78.8443 195.611V198.605M78.8443 198.605H168.665M78.8443 198.605H75.8503M171.659 198.605H168.665M168.665 198.605V201.599M141.719 78.8443H138.725M138.725 78.8443V168.665M138.725 78.8443V75.8503M261.479 78.8443H258.485M258.485 78.8443H198.605M258.485 78.8443V81.8383M198.605 78.8443H195.611M198.605 78.8443V75.8503M198.605 78.8443L198.605 228.545M348.305 435.132V438.126M348.305 438.126H438.126M348.305 438.126H346.309M441.12 408.186H438.126M438.126 408.186H318.365M438.126 408.186V318.365M438.126 408.186V411.18M318.365 408.186H315.371M438.126 315.371V318.365M438.126 318.365H435.132M138.725 171.659V168.665M408.186 111.778V108.784M408.186 108.784H405.192M111.778 138.725H108.784M108.784 138.725V141.719M108.784 138.725V108.784M438.126 435.132V438.126M438.126 438.126H441.12M111.778 108.784H108.784M108.784 108.784V105.79M411.18 468.066H408.186M408.186 468.066H378.246M408.186 468.066V465.072M378.246 468.066H375.252M378.246 468.066V465.072M228.545 291.419V288.425M228.545 288.425H225.551M78.8443 441.12V318.365M108.784 225.551V228.545M108.784 228.545H198.605M108.784 228.545H105.79M198.605 435.132V438.126M198.605 438.126H258.485M198.605 438.126H195.611M378.246 255.491V258.485M378.246 258.485V348.305M378.246 258.485H438.126M378.246 258.485H375.252M378.246 348.305V351.299M378.246 348.305H381.24M378.246 348.305H348.305M108.784 345.311V348.305M108.784 348.305H168.665M108.784 348.305H105.79M288.425 165.671V168.665M288.425 168.665H348.305M288.425 168.665H285.431M228.545 465.072V468.066M228.545 468.066H288.425M228.545 468.066H225.551M408.186 285.431V288.425M408.186 288.425V378.246M408.186 288.425H468.066M408.186 288.425H405.192M408.186 378.246V381.24M408.186 378.246H411.18M408.186 378.246H319.363M261.479 438.126H258.485M258.485 438.126V441.12M258.485 438.126V348.305M441.12 258.485H438.126M438.126 258.485V261.479M438.126 258.485V168.665M171.659 348.305H168.665M168.665 348.305V351.299M168.665 348.305V258.485M351.299 168.665H348.305M348.305 168.665V171.659M348.305 168.665V78.8443M291.419 468.066H288.425M288.425 468.066V471.06M288.425 468.066V318.365M471.06 288.425H468.066M468.066 288.425V291.419M468.066 288.425V138.725M201.599 378.246H198.605M198.605 378.246V381.24M198.605 378.246V318.365M381.24 198.605H378.246M378.246 198.605V201.599M378.246 198.605V138.725M168.665 405.192V408.186M168.665 408.186H228.545M168.665 408.186H165.671M348.305 225.551V228.545M348.305 228.545V348.305M348.305 228.545H408.186M348.305 228.545H345.311M348.305 348.305V351.299M348.305 348.305H345.311M231.539 408.186H228.545M228.545 408.186V411.18M228.545 408.186V348.305M411.18 228.545H408.186M408.186 228.545V231.539M408.186 228.545V168.665M141.719 318.365H138.725M138.725 318.365H78.8443M138.725 318.365V321.359M138.725 318.365V258.485M78.8443 318.365H75.8503M78.8443 318.365V315.371M321.359 138.725H318.365M318.365 138.725H258.485M318.365 138.725V141.719M318.365 138.725V78.8443M258.485 138.725H255.491M258.485 138.725V135.731M228.545 348.305V345.311M228.545 348.305H258.485M228.545 348.305H226.549M408.186 168.665V165.671M408.186 168.665H438.126M408.186 168.665H406.19M138.725 258.485V255.491M138.725 258.485H168.665M138.725 258.485H136.729M318.365 78.8443V75.8503M318.365 78.8443H348.305M318.365 78.8443H316.369M291.419 318.365H288.425M288.425 318.365H198.605M288.425 318.365V315.371M198.605 318.365L198.605 228.545M471.06 138.725H468.066M468.066 138.725H378.246M468.066 138.725V135.731M201.599 228.545H198.605M258.485 348.305V345.311M258.485 348.305H261.479M438.126 168.665V165.671M438.126 168.665H441.12M168.665 258.485V255.491M168.665 258.485H171.659M348.305 78.8443V75.8503M348.305 78.8443H351.299M3.99401 1L3.99401 3.99401M3.99401 3.99401L3.99401 33.9341M3.99401 3.99401H123.754M3.99401 3.99401H1M3.99401 33.9341L3.99402 63.8743M3.99401 33.9341H93.8144M3.99401 33.9341H1M3.99402 63.8743L3.99402 93.8144M3.99402 63.8743H63.8743M3.99402 63.8743H1M3.99402 93.8144L3.99402 123.754M3.99402 93.8144H63.8743M3.99402 93.8144H1M3.99402 123.754L3.99402 213.575M3.99402 123.754H93.8144M3.99402 123.754H1M3.99402 213.575H1M3.99402 213.575H33.9341M3.99402 213.575L3.99402 243.515M3.99402 243.515H1M3.99402 243.515H63.8743M3.99402 243.515L3.99403 423.156M3.99403 423.156L3.99403 453.096M3.99403 423.156H1M3.99403 423.156H63.8743M3.99403 453.096L3.99403 456.09M3.99403 453.096H63.8743M3.99403 453.096H1M456.09 3.99401H453.096M453.096 3.99401H363.275M453.096 3.99401V1M453.096 3.99401V33.9341M363.275 3.99401H333.335M363.275 3.99401V63.8743M363.275 3.99401V1M333.335 3.99401H243.515M333.335 3.99401V93.8144M333.335 3.99401V1M243.515 3.99401H213.575M243.515 3.99401V1M243.515 3.99401V63.8743M213.575 3.99401H123.754M213.575 3.99401V33.9341M213.575 3.99401V1M123.754 3.99401V153.695M123.754 3.99401V1M453.096 33.9341V63.8743M453.096 33.9341H456.09M453.096 33.9341H390.222M453.096 63.8743L453.096 273.455M453.096 63.8743H363.275M453.096 63.8743H456.09M453.096 273.455V453.096M453.096 273.455H456.09M453.096 273.455H393.216M453.096 453.096V456.09M453.096 453.096H456.09M453.096 453.096H423.156M423.156 453.096H393.216M423.156 453.096V300.401M423.156 453.096V456.09M393.216 453.096H363.275M393.216 453.096V393.216M393.216 453.096V456.09M363.275 453.096V456.09M363.275 453.096V423.156M363.275 453.096H333.335M333.335 453.096H303.395M333.335 453.096V456.09M333.335 453.096V423.156M303.395 453.096V456.09M303.395 453.096H273.455M303.395 453.096V393.216M273.455 453.096H183.635M273.455 453.096V456.09M273.455 453.096V363.275M183.635 453.096H153.695M183.635 453.096V423.156M183.635 453.096V456.09M153.695 453.096H123.755M153.695 453.096V393.216M153.695 453.096V456.09M123.755 453.096H93.8144M123.755 453.096L123.754 363.275M123.755 453.096V456.09M93.8144 453.096H63.8743M93.8144 453.096V456.09M93.8144 453.096L93.8144 333.335M63.8743 453.096V423.156M63.8743 453.096V456.09M93.8144 333.335V330.341M93.8144 333.335H153.695M93.8144 333.335H90.8204M273.455 243.515H276.449M273.455 243.515H183.635M273.455 243.515V363.275M273.455 243.515V153.695M273.455 153.695V150.701M273.455 153.695H333.335M273.455 153.695H270.461M63.8743 243.515H66.8683M63.8743 243.515L63.8743 183.635M180.641 63.8743H183.635M183.635 63.8743H243.515M183.635 63.8743V243.515M243.515 63.8743L246.509 63.8742M36.9281 393.216H63.8743M63.8743 393.216H66.8683M63.8743 393.216L63.8743 303.395M210.581 213.575H213.575M213.575 213.575H243.515M213.575 213.575V216.569M213.575 213.575V93.8144M243.515 213.575H246.509M243.515 213.575V123.754M63.8743 423.156H66.8683M63.8743 423.156V420.162M33.9341 213.575H36.9281M33.9341 213.575L33.9341 153.695M33.9341 213.575V216.569M33.9341 150.701V153.695M33.9341 153.695H123.754M33.9341 153.695H30.9401M126.749 153.695H123.754M123.754 153.695V156.689M96.8084 33.9341H93.8144M93.8144 33.9341L93.8144 123.754M93.8144 33.9341V30.9401M216.569 33.9341H213.575M213.575 33.9341H153.695M213.575 33.9341V36.9281M153.695 33.9341H150.701M153.695 33.9341V30.9401M153.695 33.9341L153.695 183.635M303.395 390.222V393.216M303.395 393.216H393.216M303.395 393.216H301.399M396.21 363.275H393.216M393.216 363.275H273.455M393.216 363.275V273.455M393.216 363.275V366.269M273.455 363.275H270.461M393.216 270.461V273.455M393.216 273.455H390.222M93.8144 126.749V123.754M363.275 66.8683V63.8743M363.275 63.8743H360.281M66.8683 93.8144H63.8743M63.8743 93.8144V96.8084M63.8743 93.8144V63.8743M393.216 390.222V393.216M393.216 393.216H396.21M66.8683 63.8743H63.8743M63.8743 63.8743V60.8802M366.269 423.156H363.275M363.275 423.156H333.335M363.275 423.156V420.162M333.335 423.156H330.341M333.335 423.156V420.162M183.635 246.509V243.515M183.635 243.515H180.641M33.9341 396.21L33.9341 273.455M63.8743 180.641V183.635M63.8743 183.635H153.695M63.8743 183.635H60.8802M153.695 390.222V393.216M153.695 393.216H213.575M153.695 393.216H150.701M333.335 210.581V213.575M333.335 213.575V303.395M333.335 213.575H393.216M333.335 213.575H330.341M333.335 303.395V306.389M333.335 303.395H336.329M333.335 303.395H303.395M63.8743 300.401V303.395M63.8743 303.395H123.754M63.8743 303.395H60.8802M243.515 120.76V123.754M243.515 123.754H303.395M243.515 123.754H240.521M183.635 420.162V423.156M183.635 423.156H243.515M183.635 423.156H180.641M363.275 240.521V243.515M363.275 243.515V333.335M363.275 243.515H423.156M363.275 243.515H360.281M363.275 333.335V336.329M363.275 333.335H366.269M363.275 333.335H274.453M216.569 393.216H213.575M213.575 393.216V396.21M213.575 393.216V303.395M396.21 213.575H393.216M393.216 213.575V216.569M393.216 213.575V123.754M126.749 303.395H123.754M123.754 303.395V306.389M123.754 303.395L123.755 213.575M306.389 123.754H303.395M303.395 123.754V126.749M303.395 123.754V33.9341M246.509 423.156H243.515M243.515 423.156V426.15M243.515 423.156V273.455M426.15 243.515H423.156M423.156 243.515V246.509M423.156 243.515V93.8144M156.689 333.335H153.695M153.695 333.335V336.329M153.695 333.335V273.455M336.329 153.695H333.335M333.335 153.695V156.689M333.335 153.695V93.8144M123.754 360.281V363.275M123.754 363.275H183.635M123.754 363.275H120.76M303.395 180.641V183.635M303.395 183.635V303.395M303.395 183.635H363.275M303.395 183.635H300.401M303.395 303.395V306.389M303.395 303.395H300.401M186.629 363.275H183.635M183.635 363.275V366.269M183.635 363.275V303.395M366.269 183.635H363.275M363.275 183.635V186.629M363.275 183.635V123.754M96.8084 273.455H93.8144M93.8144 273.455H33.9341M93.8144 273.455V276.449M93.8144 273.455V213.575M33.9341 273.455H30.9401M33.9341 273.455V270.461M276.449 93.8144H273.455M273.455 93.8144L213.575 93.8144M273.455 93.8144V96.8084M273.455 93.8144V33.9341M213.575 93.8144H210.581M213.575 93.8144V90.8204M183.635 303.395V300.401M183.635 303.395H213.575M183.635 303.395H181.639M363.275 123.754V120.76M363.275 123.754H393.216M363.275 123.754H361.279M93.8144 213.575V210.581M93.8144 213.575H123.755M93.8144 213.575H91.8184M273.455 33.9341V30.9401M273.455 33.9341H303.395M273.455 33.9341H271.459M246.509 273.455H243.515M243.515 273.455H153.695M243.515 273.455V270.461M153.695 273.455L153.695 183.635M426.15 93.8144H423.156M423.156 93.8144H333.335M423.156 93.8144V90.8204M156.689 183.635H153.695M213.575 303.395V300.401M213.575 303.395H216.569M393.216 123.754V120.76M393.216 123.754H396.21M123.755 213.575V210.581M123.755 213.575H126.749M303.395 33.9341V30.9401M303.395 33.9341H306.389" stroke="#FFFFFE" stroke-width="6"/>
</svg>
