<svg width="98" height="416" viewBox="0 0 98 416" fill="none" xmlns="http://www.w3.org/2000/svg">
<rect x="53.1172" y="33.7734" width="111.12" height="51.4212" transform="rotate(90 53.1172 33.7734)" stroke="#FFFFFE" stroke-width="3"/>
<rect x="96.3672" y="1.5" width="90.6164" height="8.25891" transform="rotate(90 96.3672 1.5)" stroke="#FFFFFE" stroke-width="3"/>
<rect x="79.7305" y="324.262" width="83.8485" height="8.25891" transform="rotate(90 79.7305 324.262)" stroke="#FFFFFE" stroke-width="3"/>
<rect x="96.3672" y="103.879" width="33.8456" height="8.25891" transform="rotate(90 96.3672 103.879)" stroke="#FFFFFE" stroke-width="3"/>
<rect x="96.3672" y="275.363" width="33.8456" height="8.25891" transform="rotate(90 96.3672 275.363)" stroke="#FFFFFE" stroke-width="3"/>
<rect x="9.76172" y="227.273" width="33.8456" height="8.25891" transform="rotate(90 9.76172 227.273)" stroke="#FFFFFE" stroke-width="3"/>
<rect x="96.1445" y="371.07" width="43.4286" height="8.25891" transform="rotate(90 96.1445 371.07)" stroke="#FFFFFE" stroke-width="3"/>
<rect x="79.7305" y="85.9609" width="61.0791" height="8.25891" transform="rotate(90 79.7305 85.9609)" stroke="#FFFFFE" stroke-width="3"/>
<rect x="1.5" y="341.246" width="61.0791" height="8.25891" transform="rotate(-90 1.5 341.246)" stroke="#FFFFFE" stroke-width="3"/>
<rect x="96.3672" y="206.258" width="14.6813" height="8.25891" transform="rotate(90 96.3672 206.258)" stroke="#FFFFFE" stroke-width="3"/>
<rect x="34.9102" y="317.727" width="14.6813" height="8.25891" transform="rotate(90 34.9102 317.727)" stroke="#FFFFFE" stroke-width="3"/>
<rect x="46.7148" y="189.664" width="22.5947" height="22.5947" transform="rotate(90 46.7148 189.664)" stroke="#FFFFFE" stroke-width="3"/>
<rect x="53.0742" y="1.5" width="24.1585" height="51.4212" transform="rotate(90 53.0742 1.5)" stroke="#FFFFFE" stroke-width="3"/>
<rect x="79.7305" y="155.398" width="14.6813" height="8.25891" transform="rotate(90 79.7305 155.398)" stroke="#FFFFFE" stroke-width="3"/>
<rect x="79.7305" y="39.8906" width="14.6813" height="8.25891" transform="rotate(90 79.7305 39.8906)" stroke="#FFFFFE" stroke-width="3"/>
<rect x="1.5" y="387.32" width="14.6813" height="8.25891" transform="rotate(-90 1.5 387.32)" stroke="#FFFFFE" stroke-width="3"/>
<rect x="96.3672" y="229.293" width="14.6813" height="8.25891" transform="rotate(90 96.3672 229.293)" stroke="#FFFFFE" stroke-width="3"/>
<rect x="34.9102" y="340.758" width="14.6813" height="8.25891" transform="rotate(90 34.9102 340.758)" stroke="#FFFFFE" stroke-width="3"/>
<rect x="46.7148" y="224.055" width="22.5947" height="22.5947" transform="rotate(90 46.7148 224.055)" stroke="#FFFFFE" stroke-width="3"/>
<rect x="79.7305" y="62.9258" width="14.6813" height="8.25891" transform="rotate(90 79.7305 62.9258)" stroke="#FFFFFE" stroke-width="3"/>
<rect x="1.5" y="364.285" width="14.6813" height="8.25891" transform="rotate(-90 1.5 364.285)" stroke="#FFFFFE" stroke-width="3"/>
<rect x="96.3672" y="252.328" width="14.6813" height="8.25891" transform="rotate(90 96.3672 252.328)" stroke="#FFFFFE" stroke-width="3"/>
<rect x="34.9102" y="363.793" width="14.6813" height="8.25891" transform="rotate(90 34.9102 363.793)" stroke="#FFFFFE" stroke-width="3"/>
<rect x="9.76172" y="204.238" width="14.6813" height="8.25891" transform="rotate(90 9.76172 204.238)" stroke="#FFFFFE" stroke-width="3"/>
<rect x="46.7148" y="258.437" width="22.5947" height="22.5947" transform="rotate(90 46.7148 258.437)" stroke="#FFFFFE" stroke-width="3"/>
</svg>
