<svg width="1212" height="1245" viewBox="0 0 1212 1245" fill="none" xmlns="http://www.w3.org/2000/svg">
<circle cx="589.254" cy="622.254" r="431" stroke="#222222" stroke-width="2"/>
<mask id="path-2-inside-1_162_7052" fill="white">
<path d="M627.643 301.133C668.402 305.829 707.9 318.212 744.045 337.626L714.51 392.615C685.318 376.936 653.417 366.935 620.498 363.142L627.643 301.133Z"/>
</mask>
<path d="M627.643 301.133C668.402 305.829 707.9 318.212 744.045 337.626L714.51 392.615C685.318 376.936 653.417 366.935 620.498 363.142L627.643 301.133Z" stroke="#222222" stroke-width="4" mask="url(#path-2-inside-1_162_7052)"/>
<mask id="path-3-inside-2_162_7052" fill="white">
<path d="M627.643 301.133C668.402 305.829 707.9 318.212 744.045 337.626L734.812 354.816C700.841 336.569 663.717 324.931 625.409 320.517L627.643 301.133Z"/>
</mask>
<path d="M627.643 301.133C668.402 305.829 707.9 318.212 744.045 337.626L734.812 354.816C700.841 336.569 663.717 324.931 625.409 320.517L627.643 301.133Z" stroke="#222222" stroke-width="4" mask="url(#path-3-inside-2_162_7052)"/>
<mask id="path-4-inside-3_162_7052" fill="white">
<path d="M753.774 343.068C766.928 350.727 779.527 359.302 791.478 368.729L752.819 417.736C743.167 410.122 732.991 403.197 722.367 397.011L753.774 343.068Z"/>
</mask>
<path d="M753.774 343.068C766.928 350.727 779.527 359.302 791.478 368.729L752.819 417.736C743.167 410.122 732.991 403.197 722.367 397.011L753.774 343.068Z" stroke="#222222" stroke-width="4" mask="url(#path-4-inside-3_162_7052)"/>
<mask id="path-5-inside-4_162_7052" fill="white">
<path d="M753.774 343.068C766.928 350.727 779.527 359.302 791.478 368.729L768.735 397.559C758.137 389.199 746.963 381.594 735.298 374.802L753.774 343.068Z"/>
</mask>
<path d="M753.774 343.068C766.928 350.727 779.527 359.302 791.478 368.729L768.735 397.559C758.137 389.199 746.963 381.594 735.298 374.802L753.774 343.068Z" stroke="#222222" stroke-width="4" mask="url(#path-5-inside-4_162_7052)"/>
<path d="M870.113 779.033C845.891 822.395 811.965 859.566 770.991 887.638" stroke="#222222" stroke-width="2"/>
<path d="M833.271 806.9C829.753 811.43 826.11 815.861 822.345 820.188" stroke="#222222" stroke-width="2"/>
<path d="M809.791 833.768C807.041 836.57 804.236 839.319 801.381 842.014" stroke="#222222" stroke-width="2"/>
<path d="M787.411 854.416C784.397 856.933 781.336 859.392 778.227 861.792" stroke="#222222" stroke-width="2"/>
<mask id="path-10-inside-5_162_7052" fill="white">
<path d="M871.373 778.827C863.664 792.707 854.942 805.999 845.279 818.597L820.332 799.46C829.055 788.089 836.928 776.09 843.886 763.561L871.373 778.827Z"/>
</mask>
<path d="M871.373 778.827C863.664 792.707 854.942 805.999 845.279 818.597L820.332 799.46C829.055 788.089 836.928 776.09 843.886 763.561L871.373 778.827Z" stroke="#222222" stroke-width="4" mask="url(#path-10-inside-5_162_7052)"/>
<mask id="path-11-inside-6_162_7052" fill="white">
<path d="M836.487 829.555C831.432 835.583 826.158 841.425 820.676 847.067L798.124 825.159C803.072 820.066 807.833 814.793 812.396 809.352L836.487 829.555Z"/>
</mask>
<path d="M836.487 829.555C831.432 835.583 826.158 841.425 820.676 847.067L798.124 825.159C803.072 820.066 807.833 814.793 812.396 809.352L836.487 829.555Z" stroke="#222222" stroke-width="4" mask="url(#path-11-inside-6_162_7052)"/>
<mask id="path-12-inside-7_162_7052" fill="white">
<path d="M836.487 829.555C831.432 835.583 826.158 841.425 820.676 847.067L813.343 839.944C818.652 834.48 823.758 828.823 828.654 822.986L836.487 829.555Z"/>
</mask>
<path d="M836.487 829.555C831.432 835.583 826.158 841.425 820.676 847.067L813.343 839.944C818.652 834.48 823.758 828.823 828.654 822.986L836.487 829.555Z" fill="#222222" stroke="#222222" stroke-width="4" mask="url(#path-12-inside-7_162_7052)"/>
<mask id="path-13-inside-8_162_7052" fill="white">
<path d="M814.776 852.985C809.15 858.484 803.325 863.776 797.313 868.85L790.719 861.037C796.542 856.124 802.182 850.999 807.63 845.674L814.776 852.985Z"/>
</mask>
<path d="M814.776 852.985C809.15 858.484 803.325 863.776 797.313 868.85L790.719 861.037C796.542 856.124 802.182 850.999 807.63 845.674L814.776 852.985Z" fill="#222222" stroke="#222222" stroke-width="4" mask="url(#path-13-inside-8_162_7052)"/>
<mask id="path-14-inside-9_162_7052" fill="white">
<path d="M790.504 874.439C784.355 879.346 778.029 884.028 771.539 888.474L765.762 880.04C772.047 875.735 778.172 871.201 784.126 866.449L790.504 874.439Z"/>
</mask>
<path d="M790.504 874.439C784.355 879.346 778.029 884.028 771.539 888.474L765.762 880.04C772.047 875.735 778.172 871.201 784.126 866.449L790.504 874.439Z" fill="#222222" stroke="#222222" stroke-width="4" mask="url(#path-14-inside-9_162_7052)"/>
<mask id="path-15-inside-10_162_7052" fill="white">
<path d="M814.746 853.015C809.119 858.513 803.293 863.804 797.28 868.877L777.006 844.846C782.434 840.267 787.693 835.491 792.772 830.527L814.746 853.015Z"/>
</mask>
<path d="M814.746 853.015C809.119 858.513 803.293 863.804 797.28 868.877L777.006 844.846C782.434 840.267 787.693 835.491 792.772 830.527L814.746 853.015Z" stroke="#222222" stroke-width="4" mask="url(#path-15-inside-10_162_7052)"/>
<mask id="path-16-inside-11_162_7052" fill="white">
<path d="M790.521 874.425C784.372 879.334 778.047 884.016 771.557 888.462L753.786 862.524C759.645 858.511 765.355 854.284 770.904 849.854L790.521 874.425Z"/>
</mask>
<path d="M790.521 874.425C784.372 879.334 778.047 884.016 771.557 888.462L753.786 862.524C759.645 858.511 765.355 854.284 770.904 849.854L790.521 874.425Z" stroke="#222222" stroke-width="4" mask="url(#path-16-inside-11_162_7052)"/>
<path d="M700.254 622.254C700.254 639.175 696.385 655.871 688.944 671.068C681.503 686.264 670.686 699.559 657.32 709.935C643.955 720.311 628.393 727.494 611.826 730.935C595.259 734.375 578.125 733.983 561.733 729.788C545.34 725.593 530.124 717.705 517.247 706.729C504.37 695.752 494.172 681.977 487.434 666.456C480.696 650.935 477.596 634.079 478.37 617.176C479.144 600.273 483.772 583.771 491.901 568.93" stroke="#222222" stroke-width="2"/>
<path d="M553.785 735.67C530.854 728.566 510.608 714.693 495.706 695.873C480.804 677.053 471.942 654.166 470.284 630.218" stroke="#222222" stroke-width="2"/>
<path d="M536.621 736.597C526.606 732.019 517.235 726.149 508.746 719.135" stroke="#222222" stroke-width="2"/>
<path d="M489.139 712.222C486.919 709.684 484.796 707.063 482.773 704.364" stroke="#222222" stroke-width="2"/>
<path d="M480.085 700.646C479.337 699.573 478.604 698.489 477.887 697.394" stroke="#222222" stroke-width="2"/>
<path d="M476.455 695.159C475.761 694.051 475.082 692.932 474.42 691.803" stroke="#222222" stroke-width="2"/>
<path d="M445.854 549.059C455.466 530.227 468.693 513.473 484.78 499.754C500.867 486.034 519.499 475.617 539.612 469.098C559.724 462.579 580.924 460.085 602.001 461.759C623.077 463.433 643.617 469.242 662.449 478.854" stroke="#222222" stroke-width="2"/>
<path d="M548.093 458.343C568.38 453.249 589.437 451.964 610.193 454.556" stroke="#222222" stroke-width="2"/>
<mask id="path-25-inside-12_162_7052" fill="white">
<path d="M516.526 437.795C479.059 453.014 447.284 479.561 425.644 513.725L443.106 524.785C462.44 494.261 490.829 470.543 524.304 456.945L516.526 437.795Z"/>
</mask>
<path d="M516.526 437.795C479.059 453.014 447.284 479.561 425.644 513.725L443.106 524.785C462.44 494.261 490.829 470.543 524.304 456.945L516.526 437.795Z" fill="#222222" stroke="#222222" stroke-width="4" mask="url(#path-25-inside-12_162_7052)"/>
<mask id="path-26-inside-13_162_7052" fill="white">
<path d="M759.727 755.478C788.322 720.16 805.166 676.788 807.903 631.428L766.531 628.931C764.314 665.668 750.673 700.793 727.514 729.396L759.727 755.478Z"/>
</mask>
<path d="M759.727 755.478C788.322 720.16 805.166 676.788 807.903 631.428L766.531 628.931C764.314 665.668 750.673 700.793 727.514 729.396L759.727 755.478Z" fill="#222222" stroke="#222222" stroke-width="4" mask="url(#path-26-inside-13_162_7052)"/>
<mask id="path-27-inside-14_162_7052" fill="white">
<path d="M311.295 663.755C319.353 717.868 342.978 768.469 379.29 809.39C415.603 850.312 463.034 879.787 515.805 894.224L529.953 842.509C487.216 830.817 448.802 806.945 419.393 773.804C389.985 740.663 370.852 699.683 364.326 655.858L311.295 663.755Z"/>
</mask>
<path d="M311.295 663.755C319.353 717.868 342.978 768.469 379.29 809.39C415.603 850.312 463.034 879.787 515.805 894.224L529.953 842.509C487.216 830.817 448.802 806.945 419.393 773.804C389.985 740.663 370.852 699.683 364.326 655.858L311.295 663.755Z" fill="#222222" stroke="#222222" stroke-width="4" mask="url(#path-27-inside-14_162_7052)"/>
<mask id="path-28-inside-15_162_7052" fill="white">
<path d="M414.566 764.538C444.44 801.176 485.05 827.524 530.681 839.873L538.195 812.112C498.37 801.334 462.928 778.339 436.857 746.364L414.566 764.538Z"/>
</mask>
<path d="M414.566 764.538C444.44 801.176 485.05 827.524 530.681 839.873L538.195 812.112C498.37 801.334 462.928 778.339 436.857 746.364L414.566 764.538Z" fill="#222222" stroke="#222222" stroke-width="4" mask="url(#path-28-inside-15_162_7052)"/>
<mask id="path-29-inside-16_162_7052" fill="white">
<path d="M311.539 579.073C307.341 606.191 307.123 633.777 310.893 660.958L364 653.593C360.947 631.58 361.123 609.239 364.524 587.276L311.539 579.073Z"/>
</mask>
<path d="M311.539 579.073C307.341 606.191 307.123 633.777 310.893 660.958L364 653.593C360.947 631.58 361.123 609.239 364.524 587.276L311.539 579.073Z" fill="#222222" stroke="#222222" stroke-width="4" mask="url(#path-29-inside-16_162_7052)"/>
<mask id="path-30-inside-17_162_7052" fill="white">
<path d="M311.539 579.073C307.341 606.191 307.123 633.777 310.893 660.958L319.792 659.724C316.142 633.409 316.353 606.702 320.418 580.448L311.539 579.073Z"/>
</mask>
<path d="M311.539 579.073C307.341 606.191 307.123 633.777 310.893 660.958L319.792 659.724C316.142 633.409 316.353 606.702 320.418 580.448L311.539 579.073Z" fill="white" stroke="#222222" stroke-width="4" mask="url(#path-30-inside-17_162_7052)"/>
<mask id="path-31-inside-18_162_7052" fill="white">
<path d="M808.011 629.491C809.15 607.341 806.901 585.146 801.344 563.674L761.219 574.06C765.72 591.449 767.54 609.424 766.618 627.363L808.011 629.491Z"/>
</mask>
<path d="M808.011 629.491C809.15 607.341 806.901 585.146 801.344 563.674L761.219 574.06C765.72 591.449 767.54 609.424 766.618 627.363L808.011 629.491Z" fill="#222222" stroke="#222222" stroke-width="4" mask="url(#path-31-inside-18_162_7052)"/>
<mask id="path-32-inside-19_162_7052" fill="white">
<path d="M808.011 629.491C809.15 607.341 806.901 585.146 801.344 563.674L787.822 567.174C793.023 587.27 795.127 608.043 794.062 628.774L808.011 629.491Z"/>
</mask>
<path d="M808.011 629.491C809.15 607.341 806.901 585.146 801.344 563.674L787.822 567.174C793.023 587.27 795.127 608.043 794.062 628.774L808.011 629.491Z" fill="white" stroke="#222222" stroke-width="4" mask="url(#path-32-inside-19_162_7052)"/>
<mask id="path-33-inside-20_162_7052" fill="white">
<path d="M636.498 705.824C625.524 712.028 613.435 716.01 600.921 717.542C588.408 719.074 575.715 718.127 563.568 714.754C551.421 711.381 540.057 705.648 530.125 697.883C520.193 690.118 511.888 680.473 505.684 669.498L522.398 660.049C527.361 668.829 534.005 676.545 541.951 682.757C549.896 688.969 558.987 693.555 568.705 696.254C578.423 698.952 588.577 699.71 598.588 698.485C608.598 697.259 618.27 694.073 627.049 689.11L636.498 705.824Z"/>
</mask>
<path d="M636.498 705.824C625.524 712.028 613.435 716.01 600.921 717.542C588.408 719.074 575.715 718.127 563.568 714.754C551.421 711.381 540.057 705.648 530.125 697.883C520.193 690.118 511.888 680.473 505.684 669.498L522.398 660.049C527.361 668.829 534.005 676.545 541.951 682.757C549.896 688.969 558.987 693.555 568.705 696.254C578.423 698.952 588.577 699.71 598.588 698.485C608.598 697.259 618.27 694.073 627.049 689.11L636.498 705.824Z" stroke="#222222" stroke-width="4" mask="url(#path-33-inside-20_162_7052)"/>
<mask id="path-34-inside-21_162_7052" fill="white">
<path d="M501.449 661.066C497.239 651.541 494.607 641.395 493.656 631.026L512.775 629.271C513.536 637.567 515.642 645.684 519.01 653.303L501.449 661.066Z"/>
</mask>
<path d="M501.449 661.066C497.239 651.541 494.607 641.395 493.656 631.026L512.775 629.271C513.536 637.567 515.642 645.684 519.01 653.303L501.449 661.066Z" stroke="#222222" stroke-width="4" mask="url(#path-34-inside-21_162_7052)"/>
<mask id="path-35-inside-22_162_7052" fill="white">
<path d="M493.275 620.218C493.496 609.807 495.409 599.502 498.94 589.705L517.003 596.215C514.178 604.052 512.648 612.297 512.471 620.625L493.275 620.218Z"/>
</mask>
<path d="M493.275 620.218C493.496 609.807 495.409 599.502 498.94 589.705L517.003 596.215C514.178 604.052 512.648 612.297 512.471 620.625L493.275 620.218Z" stroke="#222222" stroke-width="4" mask="url(#path-35-inside-22_162_7052)"/>
<mask id="path-36-inside-23_162_7052" fill="white">
<path d="M573.689 527.523C576.587 527.047 579.506 526.704 582.436 526.495L583.799 545.647C581.456 545.814 579.121 546.088 576.802 546.469L573.689 527.523Z"/>
</mask>
<path d="M573.689 527.523C576.587 527.047 579.506 526.704 582.436 526.495L583.799 545.647C581.456 545.814 579.121 546.088 576.802 546.469L573.689 527.523Z" stroke="#222222" stroke-width="4" mask="url(#path-36-inside-23_162_7052)"/>
<mask id="path-37-inside-24_162_7052" fill="white">
<path d="M626.33 533.702C629.039 534.836 631.695 536.094 634.289 537.472L625.282 554.428C623.207 553.326 621.082 552.319 618.915 551.412L626.33 533.702Z"/>
</mask>
<path d="M626.33 533.702C629.039 534.836 631.695 536.094 634.289 537.472L625.282 554.428C623.207 553.326 621.082 552.319 618.915 551.412L626.33 533.702Z" stroke="#222222" stroke-width="4" mask="url(#path-37-inside-24_162_7052)"/>
<mask id="path-38-inside-25_162_7052" fill="white">
<path d="M600.241 526.884C603.159 527.22 606.06 527.69 608.934 528.292L604.998 547.084C602.699 546.602 600.378 546.226 598.044 545.957L600.241 526.884Z"/>
</mask>
<path d="M600.241 526.884C603.159 527.22 606.06 527.69 608.934 528.292L604.998 547.084C602.699 546.602 600.378 546.226 598.044 545.957L600.241 526.884Z" fill="#222222" stroke="#222222" stroke-width="4" mask="url(#path-38-inside-25_162_7052)"/>
<mask id="path-39-inside-26_162_7052" fill="white">
<path d="M649.175 547.249C651.469 549.082 653.679 551.02 655.796 553.055L642.487 566.895C640.794 565.266 639.026 563.716 637.191 562.25L649.175 547.249Z"/>
</mask>
<path d="M649.175 547.249C651.469 549.082 653.679 551.02 655.796 553.055L642.487 566.895C640.794 565.266 639.026 563.716 637.191 562.25L649.175 547.249Z" stroke="#222222" stroke-width="4" mask="url(#path-39-inside-26_162_7052)"/>
<mask id="path-40-inside-27_162_7052" fill="white">
<path d="M683.509 640.474C682.952 643.357 682.262 646.214 681.443 649.034L663.005 643.678C663.661 641.422 664.212 639.137 664.658 636.83L683.509 640.474Z"/>
</mask>
<path d="M683.509 640.474C682.952 643.357 682.262 646.214 681.443 649.034L663.005 643.678C663.661 641.422 664.212 639.137 664.658 636.83L683.509 640.474Z" fill="#222222" stroke="#222222" stroke-width="4" mask="url(#path-40-inside-27_162_7052)"/>
<mask id="path-41-inside-28_162_7052" fill="white">
<path d="M586.819 526.284C589.755 526.21 592.693 526.27 595.624 526.465L594.35 545.623C592.005 545.467 589.655 545.418 587.306 545.478L586.819 526.284Z"/>
</mask>
<path d="M586.819 526.284C589.755 526.21 592.693 526.27 595.624 526.465L594.35 545.623C592.005 545.467 589.655 545.418 587.306 545.478L586.819 526.284Z" stroke="#222222" stroke-width="4" mask="url(#path-41-inside-28_162_7052)"/>
<mask id="path-42-inside-29_162_7052" fill="white">
<path d="M638.116 539.619C640.644 541.114 643.102 542.724 645.483 544.444L634.237 560.006C632.333 558.63 630.366 557.342 628.344 556.146L638.116 539.619Z"/>
</mask>
<path d="M638.116 539.619C640.644 541.114 643.102 542.724 645.483 544.444L634.237 560.006C632.333 558.63 630.366 557.342 628.344 556.146L638.116 539.619Z" stroke="#222222" stroke-width="4" mask="url(#path-42-inside-29_162_7052)"/>
<mask id="path-43-inside-30_162_7052" fill="white">
<path d="M613.208 529.29C616.052 530.023 618.861 530.886 621.626 531.876L615.151 549.952C612.939 549.159 610.692 548.469 608.417 547.883L613.208 529.29Z"/>
</mask>
<path d="M613.208 529.29C616.052 530.023 618.861 530.886 621.626 531.876L615.151 549.952C612.939 549.159 610.692 548.469 608.417 547.883L613.208 529.29Z" fill="#222222" stroke="#222222" stroke-width="4" mask="url(#path-43-inside-30_162_7052)"/>
<mask id="path-44-inside-31_162_7052" fill="white">
<path d="M658.888 556.169C660.91 558.3 662.833 560.522 664.651 562.828L649.571 574.713C648.117 572.868 646.579 571.09 644.961 569.386L658.888 556.169Z"/>
</mask>
<path d="M658.888 556.169C660.91 558.3 662.833 560.522 664.651 562.828L649.571 574.713C648.117 572.868 646.579 571.09 644.961 569.386L658.888 556.169Z" fill="#222222" stroke="#222222" stroke-width="4" mask="url(#path-44-inside-31_162_7052)"/>
<mask id="path-45-inside-32_162_7052" fill="white">
<path d="M680.122 653.219C679.175 655.999 678.1 658.734 676.902 661.415L659.372 653.583C660.331 651.438 661.19 649.249 661.948 647.025L680.122 653.219Z"/>
</mask>
<path d="M680.122 653.219C679.175 655.999 678.1 658.734 676.902 661.415L659.372 653.583C660.331 651.438 661.19 649.249 661.948 647.025L680.122 653.219Z" fill="#222222" stroke="#222222" stroke-width="4" mask="url(#path-45-inside-32_162_7052)"/>
<path d="M283.372 937.146C212.757 868.552 167.248 778.214 154.154 680.644C141.06 583.073 161.142 483.933 211.173 399.149" stroke="#222222" stroke-width="2"/>
<path d="M796.028 235C833.993 255.272 868.771 281.016 899.246 311.406" stroke="#222222" stroke-width="2"/>
<path d="M961.953 390.269C970.651 404.244 978.557 418.698 985.632 433.56" stroke="#222222" stroke-width="2"/>
<path d="M990.34 443.785C993.615 451.146 996.687 458.595 999.553 466.126" stroke="#222222" stroke-width="2"/>
<path d="M166.987 597.359C172.344 506.497 206.866 419.786 265.427 350.105" stroke="#222222" stroke-width="2"/>
<path d="M1007.26 687.06C993.315 777.006 950.729 860.055 885.828 923.871" stroke="#222222" stroke-width="2"/>
<path d="M855.99 950.555C844.18 960.149 831.862 969.1 819.088 977.368" stroke="#222222" stroke-width="2"/>
<path d="M810.534 982.759C797.566 990.719 784.178 997.973 770.429 1004.49" stroke="#222222" stroke-width="2"/>
<path d="M762.18 1008.29C689.739 1040.74 609.63 1052.15 531.009 1041.22" stroke="#222222" stroke-width="2"/>
<path d="M252.267 877.927C238.131 859.295 225.564 839.522 214.696 818.813" stroke="#222222" stroke-width="2"/>
<path d="M206.286 801.878C202.122 792.999 198.267 783.978 194.73 774.831" stroke="#222222" stroke-width="2"/>
<path d="M1004.25 622.254C1004.25 696.107 984.545 768.623 947.163 832.317" stroke="#222222" stroke-width="2"/>
<path d="M942.143 403.863C961.377 434.943 976.421 468.427 986.884 503.448" stroke="#222222" stroke-width="2"/>
<path d="M859.371 307.195C887.119 330.985 911.603 358.336 932.186 388.539" stroke="#222222" stroke-width="2"/>
<path d="M754.782 241.694C788.299 256.272 819.743 275.215 848.298 298.029" stroke="#222222" stroke-width="2"/>
<path d="M365.518 272.729C396.301 253.024 429.553 237.472 464.41 226.477" stroke="#222222" stroke-width="2"/>
<path d="M481.964 221.362C494.054 218.126 506.284 215.439 518.617 213.309" stroke="#222222" stroke-width="2"/>
<path d="M527.789 211.83C540.167 209.977 552.622 208.684 565.116 207.956" stroke="#222222" stroke-width="2"/>
<path d="M575.547 207.48C602.719 206.582 629.913 208.356 656.737 212.777" stroke="#222222" stroke-width="2"/>
<path d="M177.638 675.143C169.454 611.448 176.163 546.722 197.238 486.059C218.314 425.396 253.18 370.453 299.093 325.552" stroke="#222222" stroke-width="2"/>
<path d="M182.254 622.254C182.254 560.11 196.485 498.79 223.855 442.998C251.225 387.206 291.008 338.422 340.154 300.387C389.299 262.352 446.502 236.077 507.376 223.575C568.25 211.073 631.178 212.677 691.336 228.264" stroke="#222222" stroke-width="2"/>
<path d="M816.606 284.674C873.035 322.677 919.037 374.22 950.406 434.589C981.776 494.958 997.512 562.228 996.175 630.248C994.839 698.267 976.473 764.867 942.757 823.958C909.041 883.048 861.05 932.744 803.172 968.502" stroke="#222222" stroke-width="2"/>
<path d="M769.55 987.14C741.718 1000.89 712.404 1011.42 682.18 1018.5" stroke="#222222" stroke-width="2"/>
<path d="M667.08 1021.74C594.472 1035.89 519.382 1029.98 449.881 1004.65" stroke="#222222" stroke-width="2"/>
<path d="M247.525 828.221C192.899 737.589 176.514 628.969 201.974 526.256C227.434 423.543 292.654 335.151 383.286 280.525C473.918 225.899 582.538 209.514 685.251 234.974C787.964 260.434 876.356 325.654 930.982 416.286" stroke="#222222" stroke-width="2"/>
<path d="M268.229 821.962C265.295 817.094 262.469 812.161 259.755 807.167" stroke="#222222" stroke-width="2"/>
<path d="M949.288 772.766C947.084 778.006 944.764 783.195 942.329 788.331" stroke="#222222" stroke-width="2"/>
<path d="M965.86 724.655C962.822 735.84 959.277 746.882 955.237 757.746" stroke="#222222" stroke-width="2"/>
<path d="M943.399 462.454C948.296 472.96 952.713 483.683 956.637 494.589" stroke="#222222" stroke-width="2"/>
<path d="M925.874 429.216C928.717 434.021 931.455 438.888 934.085 443.812" stroke="#222222" stroke-width="2"/>
<path d="M911.542 406.809C914.712 411.405 917.781 416.07 920.746 420.8" stroke="#222222" stroke-width="2"/>
<path d="M253.086 794.327C250.562 789.234 248.152 784.086 245.857 778.885" stroke="#222222" stroke-width="2"/>
<path d="M257.969 444.664C260.634 439.644 263.411 434.683 266.297 429.786" stroke="#222222" stroke-width="2"/>
<path d="M334.55 344.611C338.7 340.727 342.936 336.936 347.255 333.241" stroke="#222222" stroke-width="2"/>
<circle cx="663.254" cy="480.254" r="4" fill="#222222"/>
<circle cx="445.254" cy="551.254" r="4" fill="#222222"/>
<circle cx="546.254" cy="459.254" r="4" fill="#222222"/>
<circle cx="517.254" cy="454.254" r="3" fill="white"/>
<circle cx="629.045" cy="356.662" r="3" transform="rotate(3.89187 629.045 356.662)" fill="#222222"/>
<circle cx="638.955" cy="358.338" r="3" transform="rotate(3.89187 638.955 358.338)" fill="#222222"/>
<circle cx="801" cy="637" r="3" fill="white"/>
<circle cx="799" cy="648" r="3" fill="white"/>
<path d="M549.664 451.414C548.323 450.798 546.846 450.537 545.376 450.657C543.905 450.778 542.49 451.275 541.268 452.101C540.045 452.927 539.056 454.054 538.396 455.374C537.736 456.694 537.427 458.161 537.499 459.635L541.312 459.449C541.273 458.63 541.444 457.815 541.811 457.082C542.177 456.35 542.727 455.724 543.406 455.265C544.085 454.806 544.87 454.53 545.687 454.463C546.504 454.396 547.324 454.541 548.068 454.884L549.664 451.414Z" fill="#222222"/>
<path d="M663.318 488.428C664.391 488.42 665.452 488.201 666.44 487.783C667.428 487.365 668.324 486.757 669.077 485.993C669.83 485.229 670.425 484.324 670.829 483.33C671.232 482.336 671.435 481.272 671.428 480.199C671.42 479.127 671.201 478.066 670.783 477.078C670.365 476.09 669.757 475.194 668.993 474.441C668.229 473.687 667.324 473.092 666.33 472.689C665.336 472.286 664.272 472.082 663.199 472.09L663.224 475.474C663.852 475.469 664.475 475.588 665.058 475.825C665.64 476.061 666.17 476.409 666.618 476.851C667.065 477.292 667.422 477.817 667.666 478.395C667.911 478.974 668.039 479.596 668.044 480.224C668.048 480.852 667.929 481.475 667.693 482.058C667.457 482.64 667.108 483.17 666.667 483.618C666.226 484.065 665.701 484.422 665.122 484.666C664.543 484.911 663.922 485.039 663.294 485.044L663.318 488.428Z" fill="#222222"/>
<path d="M438.155 547.226C437.625 548.159 437.284 549.187 437.152 550.252C437.02 551.316 437.098 552.396 437.384 553.431C437.669 554.465 438.155 555.433 438.814 556.279C439.473 557.125 440.293 557.833 441.226 558.363C442.159 558.893 443.187 559.233 444.251 559.365C445.316 559.498 446.396 559.419 447.43 559.134C448.465 558.849 449.432 558.363 450.279 557.703C451.125 557.044 451.833 556.225 452.363 555.292L449.42 553.621C449.11 554.168 448.695 554.648 448.199 555.034C447.704 555.42 447.137 555.705 446.531 555.872C445.925 556.039 445.292 556.085 444.669 556.007C444.045 555.93 443.443 555.73 442.896 555.42C442.35 555.11 441.87 554.695 441.484 554.199C441.098 553.704 440.813 553.137 440.646 552.531C440.479 551.925 440.433 551.292 440.51 550.669C440.588 550.045 440.787 549.443 441.097 548.896L438.155 547.226Z" fill="#222222"/>
<path d="M609.475 455.09L616.032 464.417" stroke="#222222" stroke-width="2"/>
<path d="M494.254 443.254L490.254 478.254" stroke="white" stroke-width="2"/>
<path d="M776.5 629C776.167 647.333 767.8 691.4 743 725C756.6 736.2 766.333 744.167 768 745.5" stroke="white" stroke-width="2"/>
<circle cx="325" cy="590" r="3" fill="white"/>
<circle cx="521" cy="848" r="3" fill="white"/>
<circle cx="512" cy="845" r="3" fill="white"/>
<circle cx="503" cy="842" r="3" fill="white"/>
<circle cx="324" cy="602" r="3" fill="white"/>
<path d="M344 658C345.5 669 353.5 700.5 365.5 728C388.3 728 397.333 727.5 399 727.5" stroke="white" stroke-width="2"/>
<path d="M369 799.5L385 793C387.833 797.167 398.4 809.5 418 825.5C410 843.9 409.333 845.5 410 844" stroke="white" stroke-width="2"/>
<path d="M453.5 764.5H415L437 746.5L453.5 764.5Z" fill="white" stroke="white" stroke-width="2"/>
</svg>
