<svg width="333" height="1660" viewBox="0 0 333 1660" fill="none" xmlns="http://www.w3.org/2000/svg">
<path d="M32.7126 30.7305V32.7126M32.7126 32.7126V52.5329M32.7126 32.7126H111.994M32.7126 32.7126H30.7305M32.7126 52.5329L32.7126 72.3533M32.7126 52.5329H92.1737M32.7126 52.5329H30.7305M32.7126 72.3533V92.1737M32.7126 72.3533H72.3533M32.7126 72.3533H30.7305M32.7126 92.1737L32.7126 111.994M32.7126 92.1737H72.3533M32.7126 92.1737H30.7305M32.7126 111.994L32.7126 171.455M32.7126 111.994H92.1737M32.7126 111.994H30.7305M32.7126 171.455H30.7305M32.7126 171.455H52.5329M32.7126 171.455V191.275M32.7126 191.275H30.7305M32.7126 191.275H72.3533M32.7126 191.275L32.7126 310.198M32.7126 310.198V330.018M32.7126 310.198H30.7305M32.7126 310.198H72.3533M32.7126 330.018V332M32.7126 330.018H72.3533M32.7126 330.018H30.7305M332 32.7126H330.018M330.018 32.7126H270.557M330.018 32.7126V30.7305M330.018 32.7126V52.5329M270.557 32.7126H250.737M270.557 32.7126V72.3533M270.557 32.7126V30.7305M250.737 32.7126H191.275M250.737 32.7126V92.1737M250.737 32.7126V30.7305M191.275 32.7126H171.455M191.275 32.7126V30.7305M191.275 32.7126V72.3533M171.455 32.7126H111.994M171.455 32.7126V52.5329M171.455 32.7126V30.7305M111.994 32.7126V131.814M111.994 32.7126V30.7305M330.018 52.5329V72.3533M330.018 52.5329H332M330.018 52.5329H288.395M330.018 72.3533L330.018 211.096M330.018 72.3533H270.557M330.018 72.3533H332M330.018 211.096V330.018M330.018 211.096H332M330.018 211.096H290.377M330.018 330.018V332M330.018 330.018H332M330.018 330.018H310.198M310.198 330.018H290.377M310.198 330.018V228.934M310.198 330.018V332M290.377 330.018H270.557M290.377 330.018V290.377M290.377 330.018V332M270.557 330.018V332M270.557 330.018V310.198M270.557 330.018H250.737M250.737 330.018H230.916M250.737 330.018V332M250.737 330.018V310.198M230.916 330.018V332M230.916 330.018H211.096M230.916 330.018V290.377M211.096 330.018H151.635M211.096 330.018V332M211.096 330.018V270.557M151.635 330.018H131.814M151.635 330.018V310.198M151.635 330.018V332M131.814 330.018H111.994M131.814 330.018V290.377M131.814 330.018V332M111.994 330.018H92.1737M111.994 330.018V270.557M111.994 330.018V332M92.1737 330.018H72.3533M92.1737 330.018V332M92.1737 330.018V250.737M72.3533 330.018V310.198M72.3533 330.018V332M92.1737 250.737V248.754M92.1737 250.737H131.814M92.1737 250.737H90.1916M211.096 191.275H213.078M211.096 191.275H151.635M211.096 191.275V270.557M211.096 191.275V131.814M211.096 131.814V129.832M211.096 131.814H250.737M211.096 131.814H209.114M72.3533 191.275H74.3353M72.3533 191.275V151.635M149.653 72.3533H151.635M151.635 72.3533H191.275M151.635 72.3533V191.275M191.275 72.3533H193.257M54.515 290.377H72.3533M72.3533 290.377H74.3353M72.3533 290.377V230.916M169.473 171.455H171.455M171.455 171.455H191.275M171.455 171.455V173.437M171.455 171.455V92.1737M191.275 171.455H193.257M191.275 171.455V111.994M72.3533 310.198H74.3353M72.3533 310.198V308.216M52.5329 171.455H54.515M52.5329 171.455V131.814M52.5329 171.455V173.437M52.5329 129.832V131.814M52.5329 131.814H111.994M52.5329 131.814H50.5509M113.976 131.814H111.994M111.994 131.814V133.796M94.1557 52.5329H92.1737M92.1737 52.5329V111.994M92.1737 52.5329V50.5509M173.437 52.5329H171.455M171.455 52.5329H131.814M171.455 52.5329V54.515M131.814 52.5329H129.832M131.814 52.5329V50.5509M131.814 52.5329L131.814 151.635M230.916 288.395V290.377M230.916 290.377H290.377M230.916 290.377H229.595M292.359 270.557H290.377M290.377 270.557H211.096M290.377 270.557V211.096M290.377 270.557V272.539M211.096 270.557H209.114M290.377 209.114V211.096M290.377 211.096H288.395M92.1737 113.976V111.994M270.557 74.3353V72.3533M270.557 72.3533H268.575M74.3353 92.1737H72.3533M72.3533 92.1737V94.1557M72.3533 92.1737V72.3533M290.377 288.395V290.377M290.377 290.377H292.359M74.3353 72.3533H72.3533M72.3533 72.3533V70.3713M272.539 310.198H270.557M270.557 310.198H250.737M270.557 310.198V308.216M250.737 310.198H248.754M250.737 310.198V308.216M151.635 193.257V191.275M151.635 191.275H149.653M52.5329 292.359V211.096M72.3533 149.653V151.635M72.3533 151.635H131.814M72.3533 151.635H70.3713M131.814 288.395V290.377M131.814 290.377H171.455M131.814 290.377H129.832M250.737 169.473V171.455M250.737 171.455V230.916M250.737 171.455H290.377M250.737 171.455H248.754M250.737 230.916V232.898M250.737 230.916H252.719M250.737 230.916H230.916M72.3533 228.934V230.916M72.3533 230.916H111.994M72.3533 230.916H70.3713M191.275 110.012V111.994M191.275 111.994H230.916M191.275 111.994H189.293M151.635 308.216V310.198M151.635 310.198H191.275M151.635 310.198H149.653M270.557 189.293V191.275M270.557 191.275V250.737M270.557 191.275H310.198M270.557 191.275H268.575M270.557 250.737V252.719M270.557 250.737H272.539M270.557 250.737H211.756M173.437 290.377H171.455M171.455 290.377V292.359M171.455 290.377V230.916M292.359 171.455H290.377M290.377 171.455V173.437M290.377 171.455V111.994M113.976 230.916H111.994M111.994 230.916V232.898M111.994 230.916V171.455M232.898 111.994H230.916M230.916 111.994V113.976M230.916 111.994V52.5329M193.257 310.198H191.275M191.275 310.198V312.18M191.275 310.198V211.096M312.18 191.275H310.198M310.198 191.275V193.257M310.198 191.275V92.1737M133.796 250.737H131.814M131.814 250.737V252.719M131.814 250.737V211.096M252.719 131.814H250.737M250.737 131.814V133.796M250.737 131.814V92.1737M111.994 268.575V270.557M111.994 270.557H151.635M111.994 270.557H110.012M230.916 149.653V151.635M230.916 151.635V230.916M230.916 151.635H270.557M230.916 151.635H228.934M230.916 230.916V232.898M230.916 230.916H228.934M153.617 270.557H151.635M151.635 270.557V272.539M151.635 270.557V230.916M272.539 151.635H270.557M270.557 151.635V153.617M270.557 151.635V111.994M94.1557 211.096H92.1737M92.1737 211.096H52.5329M92.1737 211.096V213.078M92.1737 211.096V171.455M52.5329 211.096H50.5509M52.5329 211.096V209.114M213.078 92.1737H211.096M211.096 92.1737H171.455M211.096 92.1737V94.1557M211.096 92.1737V52.5329M171.455 92.1737H169.473M171.455 92.1737V90.1916M151.635 230.916V228.934M151.635 230.916H171.455M151.635 230.916H150.313M270.557 111.994V110.012M270.557 111.994H290.377M270.557 111.994H269.236M92.1737 171.455V169.473M92.1737 171.455H111.994M92.1737 171.455H90.8523M211.096 52.5329V50.5509M211.096 52.5329H230.916M211.096 52.5329H209.774M193.257 211.096H191.275M191.275 211.096H131.814M191.275 211.096V209.114M131.814 211.096L131.814 151.635M312.18 92.1737H310.198M310.198 92.1737H250.737M310.198 92.1737V90.1916M133.796 151.635H131.814M171.455 230.916V228.934M171.455 230.916H173.437M290.377 111.994V110.012M290.377 111.994H292.359M111.994 171.455V169.473M111.994 171.455H113.976M230.916 52.5329V50.5509M230.916 52.5329H232.898M2.98204 1L2.98204 2.98204M2.98204 2.98204L2.98204 22.8024M2.98204 2.98204H82.2635M2.98204 2.98204H1M2.98204 22.8024L2.98204 42.6228M2.98204 22.8024H62.4431M2.98204 22.8024H1M2.98204 42.6228L2.98204 62.4431M2.98204 42.6228H42.6228M2.98204 42.6228H1M2.98204 62.4431L2.98204 82.2635M2.98204 62.4431H42.6228M2.98204 62.4431H1M2.98204 82.2635L2.98204 141.725M2.98204 82.2635H62.4431M2.98204 82.2635H1M2.98204 141.725H1M2.98204 141.725H22.8024M2.98204 141.725L2.98204 161.545M2.98204 161.545H1M2.98204 161.545H42.6228M2.98204 161.545L2.98205 280.467M2.98205 280.467L2.98205 300.287M2.98205 280.467H1M2.98205 280.467H42.6228M2.98205 300.287L2.98205 302.269M2.98205 300.287H42.6228M2.98205 300.287H1M302.269 2.98204H300.287M300.287 2.98204H240.826M300.287 2.98204V1M300.287 2.98204V22.8024M240.826 2.98204H221.006M240.826 2.98204V42.6228M240.826 2.98204V1M221.006 2.98204H161.545M221.006 2.98204V62.4431M221.006 2.98204V1M161.545 2.98204H141.725M161.545 2.98204V1M161.545 2.98204V42.6228M141.725 2.98204H82.2635M141.725 2.98204V22.8024M141.725 2.98204V1M82.2635 2.98204V102.084M82.2635 2.98204V1M300.287 22.8024V42.6228M300.287 22.8024H302.269M300.287 22.8024H258.665M300.287 42.6228L300.287 181.365M300.287 42.6228H240.826M300.287 42.6228H302.269M300.287 181.365V300.287M300.287 181.365H302.269M300.287 181.365H260.647M300.287 300.287V302.269M300.287 300.287H302.269M300.287 300.287H280.467M280.467 300.287H260.647M280.467 300.287V199.204M280.467 300.287V302.269M260.647 300.287H240.826M260.647 300.287V260.647M260.647 300.287V302.269M240.826 300.287V302.269M240.826 300.287V280.467M240.826 300.287H221.006M221.006 300.287H201.186M221.006 300.287V302.269M221.006 300.287V280.467M201.186 300.287V302.269M201.186 300.287H181.365M201.186 300.287V260.647M181.365 300.287H121.904M181.365 300.287V302.269M181.365 300.287V240.826M121.904 300.287H102.084M121.904 300.287V280.467M121.904 300.287V302.269M102.084 300.287H82.2635M102.084 300.287V260.647M102.084 300.287V302.269M82.2635 300.287H62.4431M82.2635 300.287L82.2635 240.826M82.2635 300.287V302.269M62.4431 300.287H42.6228M62.4431 300.287V302.269M62.4431 300.287L62.4431 221.006M42.6228 300.287V280.467M42.6228 300.287V302.269M62.4431 221.006V219.024M62.4431 221.006H102.084M62.4431 221.006H60.4611M181.365 161.545H183.347M181.365 161.545H121.904M181.365 161.545V240.826M181.365 161.545V102.084M181.365 102.084V100.102M181.365 102.084H221.006M181.365 102.084H179.383M42.6228 161.545H44.6048M42.6228 161.545L42.6228 121.904M119.922 42.6228H121.904M121.904 42.6228H161.545M121.904 42.6228V161.545M161.545 42.6228L163.527 42.6228M24.7844 260.647H42.6228M42.6228 260.647H44.6048M42.6228 260.647L42.6228 201.186M139.743 141.725H141.725M141.725 141.725H161.545M141.725 141.725V143.707M141.725 141.725V62.4431M161.545 141.725H163.527M161.545 141.725V82.2635M42.6228 280.467H44.6048M42.6228 280.467V278.485M22.8024 141.725H24.7844M22.8024 141.725L22.8024 102.084M22.8024 141.725V143.707M22.8024 100.102V102.084M22.8024 102.084H82.2635M22.8024 102.084H20.8204M84.2455 102.084H82.2635M82.2635 102.084V104.066M64.4251 22.8024H62.4431M62.4431 22.8024L62.4431 82.2635M62.4431 22.8024V20.8204M143.707 22.8024H141.725M141.725 22.8024H102.084M141.725 22.8024V24.7844M102.084 22.8024H100.102M102.084 22.8024V20.8204M102.084 22.8024L102.084 121.904M201.186 258.665V260.647M201.186 260.647H260.647M201.186 260.647H199.864M262.629 240.826H260.647M260.647 240.826H181.365M260.647 240.826V181.365M260.647 240.826V242.808M181.365 240.826H179.383M260.647 179.383V181.365M260.647 181.365H258.665M62.4431 84.2455V82.2635M240.826 44.6048V42.6228M240.826 42.6228H238.844M44.6048 62.4431H42.6228M42.6228 62.4431V64.4251M42.6228 62.4431V42.6228M260.647 258.665V260.647M260.647 260.647H262.629M44.6048 42.6228H42.6228M42.6228 42.6228V40.6407M242.808 280.467H240.826M240.826 280.467H221.006M240.826 280.467V278.485M221.006 280.467H219.024M221.006 280.467V278.485M121.904 163.527V161.545M121.904 161.545H119.922M22.8024 262.629L22.8024 181.365M42.6228 119.922V121.904M42.6228 121.904H102.084M42.6228 121.904H40.6407M102.084 258.665V260.647M102.084 260.647H141.725M102.084 260.647H100.102M221.006 139.743V141.725M221.006 141.725V201.186M221.006 141.725H260.647M221.006 141.725H219.024M221.006 201.186V203.168M221.006 201.186H222.988M221.006 201.186H201.186M42.6228 199.204V201.186M42.6228 201.186H82.2635M42.6228 201.186H40.6407M161.545 80.2814V82.2635M161.545 82.2635H201.186M161.545 82.2635H159.563M121.904 278.485V280.467M121.904 280.467H161.545M121.904 280.467H119.922M240.826 159.563V161.545M240.826 161.545V221.006M240.826 161.545H280.467M240.826 161.545H238.844M240.826 221.006V222.988M240.826 221.006H242.808M240.826 221.006H182.026M143.707 260.647H141.725M141.725 260.647V262.629M141.725 260.647V201.186M262.629 141.725H260.647M260.647 141.725V143.707M260.647 141.725V82.2635M84.2455 201.186H82.2635M82.2635 201.186V203.168M82.2635 201.186L82.2635 141.725M203.168 82.2635H201.186M201.186 82.2635V84.2455M201.186 82.2635V22.8024M163.527 280.467H161.545M161.545 280.467V282.449M161.545 280.467V181.365M282.449 161.545H280.467M280.467 161.545V163.527M280.467 161.545V62.4431M104.066 221.006H102.084M102.084 221.006V222.988M102.084 221.006V181.365M222.988 102.084H221.006M221.006 102.084V104.066M221.006 102.084V62.4431M82.2635 238.844V240.826M82.2635 240.826H121.904M82.2635 240.826H80.2814M201.186 119.922V121.904M201.186 121.904V201.186M201.186 121.904H240.826M201.186 121.904H199.204M201.186 201.186V203.168M201.186 201.186H199.204M123.886 240.826H121.904M121.904 240.826V242.808M121.904 240.826V201.186M242.808 121.904H240.826M240.826 121.904V123.886M240.826 121.904V82.2635M64.4251 181.365H62.4431M62.4431 181.365H22.8024M62.4431 181.365V183.347M62.4431 181.365V141.725M22.8024 181.365H20.8204M22.8024 181.365V179.383M183.347 62.4431H181.365M181.365 62.4431L141.725 62.4431M181.365 62.4431V64.4251M181.365 62.4431V22.8024M141.725 62.4431H139.743M141.725 62.4431V60.4611M121.904 201.186V199.204M121.904 201.186H141.725M121.904 201.186H120.583M240.826 82.2635V80.2814M240.826 82.2635H260.647M240.826 82.2635H239.505M62.4431 141.725V139.743M62.4431 141.725H82.2635M62.4431 141.725H61.1218M181.365 22.8024V20.8204M181.365 22.8024H201.186M181.365 22.8024H180.044M163.527 181.365H161.545M161.545 181.365H102.084M161.545 181.365V179.383M102.084 181.365L102.084 121.904M282.449 62.4431H280.467M280.467 62.4431H221.006M280.467 62.4431V60.4611M104.066 121.904H102.084M141.725 201.186V199.204M141.725 201.186H143.707M260.647 82.2635V80.2814M260.647 82.2635H262.629M82.2635 141.725V139.743M82.2635 141.725H84.2455M201.186 22.8024V20.8204M201.186 22.8024H203.168" stroke="#FFFFFE" stroke-width="3.972"/>
<path d="M177.521 398.189C177.301 398.015 177.041 397.897 176.764 397.848L171.108 396.84L193.245 364.671C193.484 364.323 193.586 363.9 193.53 363.483C193.475 363.065 193.267 362.683 192.947 362.409C192.626 362.135 192.215 361.99 191.794 362.001C191.372 362.011 190.969 362.177 190.663 362.467L159.726 391.74L148.691 379.619C148.691 379.608 148.669 379.607 148.661 379.596C148.516 379.448 148.346 379.328 148.158 379.24C148.08 379.206 147.999 379.179 147.916 379.16C147.759 379.102 147.594 379.069 147.427 379.061C147.412 379.061 147.4 379.061 147.386 379.061C147.373 379.061 147.361 379.061 147.347 379.061C147.278 379.075 147.21 379.093 147.144 379.115C146.988 379.135 146.837 379.177 146.693 379.24C146.619 379.282 146.549 379.329 146.483 379.381C146.356 379.462 146.242 379.559 146.141 379.67C146.117 379.697 146.08 379.711 146.058 379.74L139.867 387.977L132.412 386.522L121.48 371.245C121.466 371.224 121.442 371.212 121.427 371.192C121.388 371.132 121.345 371.075 121.299 371.021L116.174 365.904C115.854 365.584 115.42 365.405 114.967 365.405C114.514 365.405 114.079 365.584 113.759 365.904L103.511 376.139C103.268 376.377 103.102 376.683 103.034 377.016C102.966 377.349 103 377.695 103.13 378.009C103.261 378.323 103.483 378.591 103.767 378.778C104.051 378.966 104.385 379.064 104.725 379.061C104.884 379.06 105.042 379.038 105.195 378.996L115.744 375.99L119.439 383.985L111.885 382.51C111.559 382.446 111.22 382.479 110.912 382.605C110.604 382.73 110.34 382.943 110.151 383.217C109.962 383.491 109.858 383.814 109.85 384.146C109.843 384.478 109.933 384.805 110.109 385.087L118.649 398.734C118.869 399.085 119.21 399.345 119.608 399.464L127.714 401.893L135.628 419.014C135.64 419.041 135.662 419.06 135.676 419.087C135.718 419.166 135.767 419.241 135.823 419.312C135.908 419.44 136.018 419.551 136.145 419.638C136.199 419.684 136.256 419.726 136.316 419.764C136.335 419.776 136.35 419.793 136.369 419.803C136.426 419.832 136.487 419.844 136.54 419.868C136.682 419.936 136.836 419.973 136.993 419.979C137.054 419.99 137.116 419.996 137.179 420H137.232C137.266 420 137.298 419.991 137.333 419.988C137.404 419.985 137.474 419.977 137.544 419.965C137.57 419.965 137.59 419.943 137.614 419.936C137.746 419.9 137.873 419.849 137.992 419.783C138.028 419.762 138.069 419.752 138.103 419.73L138.127 419.718L147.21 413.671L153.052 419.505L153.068 419.515C153.216 419.659 153.39 419.774 153.58 419.856H153.6C153.806 419.942 154.025 419.988 154.248 419.991H154.26C154.454 419.987 154.647 419.949 154.829 419.88C154.868 419.866 154.907 419.853 154.945 419.836C155.126 419.758 155.291 419.648 155.433 419.512C155.444 419.503 155.455 419.501 155.466 419.491C155.476 419.481 155.488 419.45 155.505 419.433C155.563 419.376 155.617 419.315 155.666 419.251L161.605 410.631L199.972 419.952C200.351 420.044 200.75 420.003 201.103 419.837C201.456 419.671 201.741 419.39 201.912 419.04C202.082 418.689 202.127 418.291 202.04 417.912C201.952 417.532 201.737 417.194 201.431 416.953L177.521 398.189ZM116.83 371.963L116.055 372.349L110.589 373.908L114.974 369.532L117.215 371.77L116.83 371.963ZM121.205 396.374L115.091 386.607L121.205 387.801L125.805 397.753L121.205 396.374ZM135.471 410.522L132.085 403.198L135.471 404.211V410.522ZM135.471 400.647L130.176 399.061L118.926 374.73L119.556 374.416L135.471 396.664V400.647ZM136.59 392.361L135.3 390.563L137.601 391.013L136.59 392.361ZM181.263 376.065L167.412 396.187L162.508 395.313H162.498L161.184 395.081L181.263 376.065ZM149.136 385.178L157.778 394.665L157.676 395.095L149.136 397.626V385.178ZM138.887 396.119V394.984L141.943 390.936C141.987 390.877 142.027 390.814 142.062 390.749L145.719 385.884V398.636L138.887 400.656V396.119ZM145.719 410.558L138.887 415.107V405.111L145.719 406.771V410.558ZM153.269 414.892L149.136 410.764V407.602L154.601 408.929L153.269 414.892ZM157.847 410.072L157.922 409.731L158.055 409.763L157.847 410.072ZM161.243 407.036L161.195 407.024L143.738 402.771L159.225 398.188L167.897 399.735L175.744 401.127L193.131 414.773L161.243 407.036Z" fill="#FFFFFE"/>
<mask id="path-3-outside-1_488_1144" maskUnits="userSpaceOnUse" x="98.8828" y="464.912" width="104" height="439" fill="black">
<rect fill="white" x="98.8828" y="464.912" width="104" height="439"/>
<path d="M120.144 529.058V486.964H143.884V482.775H107.576V473.598H143.884V467.912H157.35V473.598H193.759V482.775H157.35V486.964H181.09V529.058H120.144ZM115.157 560.678C114.691 559.215 113.893 557.486 112.763 555.491C111.699 553.496 110.668 551.9 109.671 550.703C111.333 550.304 113.494 549.672 116.154 548.808C118.814 547.877 121.607 546.846 124.533 545.716C127.526 544.519 130.252 543.322 132.713 542.125H105.781V532.748H195.654V542.125H168.622C171.082 543.322 173.776 544.519 176.702 545.716C179.694 546.846 182.52 547.877 185.18 548.808C187.907 549.672 190.068 550.304 191.664 550.703C190.666 551.9 189.602 553.496 188.472 555.491C187.408 557.486 186.643 559.215 186.178 560.678C183.252 559.814 180.027 558.65 176.502 557.187C173.044 555.79 169.619 554.194 166.228 552.399C162.837 550.67 159.744 548.908 156.951 547.112L160.742 542.125H140.593L144.383 547.112C141.59 548.908 138.465 550.67 135.007 552.399C131.615 554.194 128.191 555.79 124.733 557.187C121.275 558.65 118.083 559.814 115.157 560.678ZM132.912 499.034H168.422V494.944H132.912V499.034ZM132.912 521.078H168.422V517.287H132.912V521.078ZM132.912 510.006H168.422V506.215H132.912V510.006Z"/>
<path d="M109.97 672.88C109.704 671.883 109.272 670.652 108.673 669.189C108.075 667.793 107.41 666.396 106.678 665C106.013 663.67 105.415 662.672 104.883 662.007C112.796 661.01 119.579 659.248 125.231 656.721C130.884 654.194 135.306 650.736 138.498 646.347H106.279V636.572H143.086C143.352 635.707 143.552 634.843 143.685 633.978C143.884 633.047 144.017 632.083 144.084 631.085H118.947V621.609H144.483V616.223H118.05V613.33H107.676V590.288H143.984V581.311H156.951V590.288H193.459V612.832H183.285V616.223H156.453V621.609H182.287V631.085H156.153C156.087 632.016 155.987 632.947 155.854 633.878C155.721 634.743 155.555 635.641 155.355 636.572H195.155V646.347H161.839C165.297 650.337 170.052 653.662 176.103 656.322C182.154 658.982 188.971 660.744 196.551 661.608C195.886 662.406 195.122 663.504 194.257 664.9C193.459 666.297 192.695 667.726 191.963 669.189C191.298 670.652 190.799 671.883 190.467 672.88C181.223 671.151 173.177 668.258 166.328 664.202C159.545 660.145 154.291 655.025 150.568 648.841C143.319 661.143 129.787 669.156 109.97 672.88ZM156.453 606.647H182.088V599.765H156.453V606.647ZM119.247 606.647H144.483V599.765H119.247V606.647Z"/>
<path d="M155.555 781.192C155.023 780.194 154.325 779.031 153.46 777.701C152.596 776.304 151.665 774.941 150.667 773.611C149.736 772.281 148.772 771.184 147.775 770.319C155.821 768.923 162.338 766.728 167.325 763.736C172.379 760.743 176.07 757.219 178.397 753.163C180.725 749.106 181.888 744.784 181.888 740.195C181.888 735.407 180.891 731.052 178.896 727.128C176.968 723.138 174.141 719.847 170.417 717.253C166.76 714.66 162.271 712.997 156.951 712.266C156.153 720.711 154.857 728.658 153.061 736.106C151.266 743.487 149.105 750.004 146.578 755.656C144.051 761.309 141.291 765.764 138.298 769.023C135.306 772.214 132.181 773.81 128.922 773.81C126.262 773.81 123.602 773.046 120.942 771.516C118.349 769.987 115.988 767.826 113.86 765.033C111.799 762.173 110.136 758.815 108.873 754.958C107.609 751.101 106.978 746.878 106.978 742.29C106.978 736.97 107.975 731.85 109.97 726.929C111.965 722.008 114.891 717.619 118.748 713.762C122.605 709.905 127.326 706.879 132.912 704.685C138.498 702.424 144.882 701.293 152.064 701.293C158.847 701.293 164.865 702.391 170.118 704.585C175.372 706.713 179.794 709.606 183.385 713.263C186.976 716.921 189.702 721.077 191.564 725.732C193.426 730.387 194.357 735.208 194.357 740.195C194.357 750.37 191.065 758.981 184.482 766.03C177.899 773.012 168.256 778.066 155.555 781.192ZM128.224 760.245C129.354 760.245 130.684 759.081 132.214 756.754C133.81 754.426 135.439 751.134 137.102 746.878C138.764 742.556 140.293 737.469 141.69 731.617C143.153 725.765 144.283 719.315 145.081 712.266C139.429 713.064 134.608 714.959 130.618 717.951C126.694 720.877 123.702 724.468 121.641 728.724C119.646 732.914 118.648 737.336 118.648 741.991C118.648 745.582 119.114 748.774 120.045 751.567C120.976 754.293 122.173 756.421 123.635 757.951C125.098 759.48 126.628 760.245 128.224 760.245Z"/>
<path d="M111.466 899.279C110.934 897.617 110.036 895.688 108.773 893.494C107.51 891.299 106.279 889.57 105.082 888.307C112.131 886.445 117.717 883.984 121.84 880.925C126.029 877.866 129.055 874.009 130.917 869.355C132.846 864.7 133.876 859.114 134.009 852.597H106.18V841.425H143.984V807.71H157.35V841.425H195.155V852.597H166.328V882.721C166.328 883.718 166.56 884.45 167.026 884.915C167.558 885.314 168.555 885.514 170.018 885.514H179.096C181.755 885.514 183.584 884.649 184.582 882.92C185.579 881.191 186.277 878.066 186.676 873.544C187.541 874.009 188.671 874.508 190.068 875.04C191.464 875.572 192.894 876.071 194.357 876.536C195.886 877.002 197.183 877.368 198.247 877.634C197.516 882.821 196.551 886.81 195.354 889.603C194.224 892.396 192.628 894.325 190.567 895.389C188.572 896.453 185.912 896.985 182.587 896.985H165.231C161.174 896.985 158.281 896.353 156.552 895.09C154.89 893.826 154.059 891.731 154.059 888.805V852.597H146.378C146.112 864.301 143.253 874.076 137.8 881.923C132.347 889.77 123.569 895.555 111.466 899.279ZM174.208 839.131C172.745 838.2 170.916 837.202 168.722 836.138C166.594 835.074 164.665 834.243 162.936 833.645C164.2 831.916 165.563 829.754 167.026 827.161C168.555 824.501 170.018 821.741 171.415 818.882C172.811 816.022 173.909 813.462 174.707 811.201L186.976 815.989C185.978 818.383 184.715 821.043 183.185 823.969C181.656 826.895 180.093 829.721 178.497 832.448C176.901 835.174 175.471 837.402 174.208 839.131ZM125.93 839.43C125.198 837.502 124.101 835.174 122.638 832.448C121.242 829.721 119.745 826.995 118.149 824.268C116.553 821.542 115.057 819.281 113.661 817.485L125.132 812.299C126.395 813.894 127.825 815.989 129.421 818.583C131.083 821.176 132.646 823.836 134.109 826.563C135.639 829.289 136.869 831.716 137.8 833.844C136.071 834.509 134.043 835.407 131.715 836.537C129.388 837.601 127.459 838.566 125.93 839.43Z"/>
</mask>
<path d="M120.144 529.058V486.964H143.884V482.775H107.576V473.598H143.884V467.912H157.35V473.598H193.759V482.775H157.35V486.964H181.09V529.058H120.144ZM115.157 560.678C114.691 559.215 113.893 557.486 112.763 555.491C111.699 553.496 110.668 551.9 109.671 550.703C111.333 550.304 113.494 549.672 116.154 548.808C118.814 547.877 121.607 546.846 124.533 545.716C127.526 544.519 130.252 543.322 132.713 542.125H105.781V532.748H195.654V542.125H168.622C171.082 543.322 173.776 544.519 176.702 545.716C179.694 546.846 182.52 547.877 185.18 548.808C187.907 549.672 190.068 550.304 191.664 550.703C190.666 551.9 189.602 553.496 188.472 555.491C187.408 557.486 186.643 559.215 186.178 560.678C183.252 559.814 180.027 558.65 176.502 557.187C173.044 555.79 169.619 554.194 166.228 552.399C162.837 550.67 159.744 548.908 156.951 547.112L160.742 542.125H140.593L144.383 547.112C141.59 548.908 138.465 550.67 135.007 552.399C131.615 554.194 128.191 555.79 124.733 557.187C121.275 558.65 118.083 559.814 115.157 560.678ZM132.912 499.034H168.422V494.944H132.912V499.034ZM132.912 521.078H168.422V517.287H132.912V521.078ZM132.912 510.006H168.422V506.215H132.912V510.006Z" stroke="#FFFFFE" stroke-width="6" mask="url(#path-3-outside-1_488_1144)"/>
<path d="M109.97 672.88C109.704 671.883 109.272 670.652 108.673 669.189C108.075 667.793 107.41 666.396 106.678 665C106.013 663.67 105.415 662.672 104.883 662.007C112.796 661.01 119.579 659.248 125.231 656.721C130.884 654.194 135.306 650.736 138.498 646.347H106.279V636.572H143.086C143.352 635.707 143.552 634.843 143.685 633.978C143.884 633.047 144.017 632.083 144.084 631.085H118.947V621.609H144.483V616.223H118.05V613.33H107.676V590.288H143.984V581.311H156.951V590.288H193.459V612.832H183.285V616.223H156.453V621.609H182.287V631.085H156.153C156.087 632.016 155.987 632.947 155.854 633.878C155.721 634.743 155.555 635.641 155.355 636.572H195.155V646.347H161.839C165.297 650.337 170.052 653.662 176.103 656.322C182.154 658.982 188.971 660.744 196.551 661.608C195.886 662.406 195.122 663.504 194.257 664.9C193.459 666.297 192.695 667.726 191.963 669.189C191.298 670.652 190.799 671.883 190.467 672.88C181.223 671.151 173.177 668.258 166.328 664.202C159.545 660.145 154.291 655.025 150.568 648.841C143.319 661.143 129.787 669.156 109.97 672.88ZM156.453 606.647H182.088V599.765H156.453V606.647ZM119.247 606.647H144.483V599.765H119.247V606.647Z" stroke="#FFFFFE" stroke-width="6" mask="url(#path-3-outside-1_488_1144)"/>
<path d="M155.555 781.192C155.023 780.194 154.325 779.031 153.46 777.701C152.596 776.304 151.665 774.941 150.667 773.611C149.736 772.281 148.772 771.184 147.775 770.319C155.821 768.923 162.338 766.728 167.325 763.736C172.379 760.743 176.07 757.219 178.397 753.163C180.725 749.106 181.888 744.784 181.888 740.195C181.888 735.407 180.891 731.052 178.896 727.128C176.968 723.138 174.141 719.847 170.417 717.253C166.76 714.66 162.271 712.997 156.951 712.266C156.153 720.711 154.857 728.658 153.061 736.106C151.266 743.487 149.105 750.004 146.578 755.656C144.051 761.309 141.291 765.764 138.298 769.023C135.306 772.214 132.181 773.81 128.922 773.81C126.262 773.81 123.602 773.046 120.942 771.516C118.349 769.987 115.988 767.826 113.86 765.033C111.799 762.173 110.136 758.815 108.873 754.958C107.609 751.101 106.978 746.878 106.978 742.29C106.978 736.97 107.975 731.85 109.97 726.929C111.965 722.008 114.891 717.619 118.748 713.762C122.605 709.905 127.326 706.879 132.912 704.685C138.498 702.424 144.882 701.293 152.064 701.293C158.847 701.293 164.865 702.391 170.118 704.585C175.372 706.713 179.794 709.606 183.385 713.263C186.976 716.921 189.702 721.077 191.564 725.732C193.426 730.387 194.357 735.208 194.357 740.195C194.357 750.37 191.065 758.981 184.482 766.03C177.899 773.012 168.256 778.066 155.555 781.192ZM128.224 760.245C129.354 760.245 130.684 759.081 132.214 756.754C133.81 754.426 135.439 751.134 137.102 746.878C138.764 742.556 140.293 737.469 141.69 731.617C143.153 725.765 144.283 719.315 145.081 712.266C139.429 713.064 134.608 714.959 130.618 717.951C126.694 720.877 123.702 724.468 121.641 728.724C119.646 732.914 118.648 737.336 118.648 741.991C118.648 745.582 119.114 748.774 120.045 751.567C120.976 754.293 122.173 756.421 123.635 757.951C125.098 759.48 126.628 760.245 128.224 760.245Z" stroke="#FFFFFE" stroke-width="6" mask="url(#path-3-outside-1_488_1144)"/>
<path d="M111.466 899.279C110.934 897.617 110.036 895.688 108.773 893.494C107.51 891.299 106.279 889.57 105.082 888.307C112.131 886.445 117.717 883.984 121.84 880.925C126.029 877.866 129.055 874.009 130.917 869.355C132.846 864.7 133.876 859.114 134.009 852.597H106.18V841.425H143.984V807.71H157.35V841.425H195.155V852.597H166.328V882.721C166.328 883.718 166.56 884.45 167.026 884.915C167.558 885.314 168.555 885.514 170.018 885.514H179.096C181.755 885.514 183.584 884.649 184.582 882.92C185.579 881.191 186.277 878.066 186.676 873.544C187.541 874.009 188.671 874.508 190.068 875.04C191.464 875.572 192.894 876.071 194.357 876.536C195.886 877.002 197.183 877.368 198.247 877.634C197.516 882.821 196.551 886.81 195.354 889.603C194.224 892.396 192.628 894.325 190.567 895.389C188.572 896.453 185.912 896.985 182.587 896.985H165.231C161.174 896.985 158.281 896.353 156.552 895.09C154.89 893.826 154.059 891.731 154.059 888.805V852.597H146.378C146.112 864.301 143.253 874.076 137.8 881.923C132.347 889.77 123.569 895.555 111.466 899.279ZM174.208 839.131C172.745 838.2 170.916 837.202 168.722 836.138C166.594 835.074 164.665 834.243 162.936 833.645C164.2 831.916 165.563 829.754 167.026 827.161C168.555 824.501 170.018 821.741 171.415 818.882C172.811 816.022 173.909 813.462 174.707 811.201L186.976 815.989C185.978 818.383 184.715 821.043 183.185 823.969C181.656 826.895 180.093 829.721 178.497 832.448C176.901 835.174 175.471 837.402 174.208 839.131ZM125.93 839.43C125.198 837.502 124.101 835.174 122.638 832.448C121.242 829.721 119.745 826.995 118.149 824.268C116.553 821.542 115.057 819.281 113.661 817.485L125.132 812.299C126.395 813.894 127.825 815.989 129.421 818.583C131.083 821.176 132.646 823.836 134.109 826.563C135.639 829.289 136.869 831.716 137.8 833.844C136.071 834.509 134.043 835.407 131.715 836.537C129.388 837.601 127.459 838.566 125.93 839.43Z" stroke="#FFFFFE" stroke-width="6" mask="url(#path-3-outside-1_488_1144)"/>
<path d="M310.062 755V750.917M310.062 836.667L310.062 791.75M310.062 918.333L310.062 873.417M310.062 938.75V934.667M310.062 979.583V975.5M310.062 1000V995.917M310.062 734.583L310.062 710.083M310.062 693.75L310.062 669.25M310.062 652.917V648.833M310.062 632.5V628.417M310.062 612.083V608M310.062 571.25V567.167M310.062 530.417V526.333M310.062 510V485.5M310.062 448.75V403.833M310.062 387.5V383.417M269.354 771.333V795.833M269.354 755V750.917M269.354 816.25V812.167M269.354 857.083V832.583M269.354 877.5V873.417M269.354 938.75V914.25M269.354 959.167V955.083M249 836.667V832.583M249 857.083V853M249 959.167V873.417M249 979.583V975.5M269.354 734.583V730.5M269.354 714.167V710.083M269.354 693.75V669.25M269.354 652.917V628.417M269.354 591.667V587.583M269.354 571.25L269.354 505.917M269.354 489.583V485.5M269.354 469.167V465.083M269.354 407.917V363M330.415 755V750.917M330.415 836.667V771.333M330.415 857.083V853M330.415 938.75V873.417M330.415 1000V995.917M330.415 734.583V689.667M330.415 673.333V669.25M330.415 632.5V628.417M330.415 591.667V546.75M330.415 530.417L330.415 505.917M330.415 489.583V403.833M330.415 387.5V383.417M289.708 795.833V791.75M289.708 775.417V771.333M289.708 836.667V812.167M289.708 857.083V853M289.708 897.917V893.833M289.708 918.333V914.25M289.708 959.167V934.667M289.708 979.583V975.5M289.708 1000V995.917M289.708 734.583V730.5M289.708 693.75V689.667M289.708 632.5V628.417M289.708 612.083V608M289.708 591.667V587.583M289.708 571.25V567.167M289.708 550.833V485.5M289.708 469.167V465.083M289.708 428.333V363M249 771.333V816.25M249 734.583V730.5M249 714.167V710.083M249 693.75V689.667M249 673.333V628.417M249 612.083V608M249 591.667V526.333M249 510V505.917M249 469.167V444.667M249 428.333V424.25M249 407.917V383.417M269.354 428.333V424.25M310.062 1415V1410.92M310.062 1496.67L310.062 1451.75M310.062 1578.33L310.062 1533.42M310.062 1598.75V1594.67M310.062 1639.58V1635.5M310.062 1660V1655.92M310.062 1394.58L310.062 1370.08M310.062 1353.75L310.062 1329.25M310.062 1312.92V1308.83M310.062 1292.5V1288.42M310.062 1272.08V1268M310.062 1231.25V1227.17M310.062 1190.42V1186.33M310.062 1170V1145.5M310.062 1108.75V1063.83M310.062 1047.5V1043.42M269.354 1431.33V1455.83M269.354 1415V1410.92M269.354 1476.25V1472.17M269.354 1517.08V1492.58M269.354 1537.5V1533.42M269.354 1598.75V1574.25M269.354 1619.17V1615.08M249 1496.67V1492.58M249 1517.08V1513M249 1619.17V1533.42M249 1639.58V1635.5M269.354 1394.58V1390.5M269.354 1374.17V1370.08M269.354 1353.75V1329.25M269.354 1312.92V1288.42M269.354 1251.67V1247.58M269.354 1231.25L269.354 1165.92M269.354 1149.58V1145.5M269.354 1129.17V1125.08M269.354 1067.92V1023M330.415 1415V1410.92M330.415 1496.67V1431.33M330.415 1517.08V1513M330.415 1598.75V1533.42M330.415 1660V1655.92M330.415 1394.58V1349.67M330.415 1333.33V1329.25M330.415 1292.5V1288.42M330.415 1251.67V1206.75M330.415 1190.42L330.415 1165.92M330.415 1149.58V1063.83M330.415 1047.5V1043.42M289.708 1455.83V1451.75M289.708 1435.42V1431.33M289.708 1496.67V1472.17M289.708 1517.08V1513M289.708 1557.92V1553.83M289.708 1578.33V1574.25M289.708 1619.17V1594.67M289.708 1639.58V1635.5M289.708 1660V1655.92M289.708 1394.58V1390.5M289.708 1353.75V1349.67M289.708 1292.5V1288.42M289.708 1272.08V1268M289.708 1251.67V1247.58M289.708 1231.25V1227.17M289.708 1210.83V1145.5M289.708 1129.17V1125.08M289.708 1088.33V1023M249 1431.33V1476.25M249 1394.58V1390.5M249 1374.17V1370.08M249 1353.75V1349.67M249 1333.33V1288.42M249 1272.08V1268M249 1251.67V1186.33M249 1170V1165.92M249 1129.17V1104.67M249 1088.33V1084.25M249 1067.92V1043.42M269.354 1088.33V1084.25" stroke="#FFFFFE" stroke-width="4.52308"/>
</svg>
