<svg width="1245" height="1246" viewBox="0 0 1245 1246" fill="none" xmlns="http://www.w3.org/2000/svg">
<circle cx="622.254" cy="623.219" r="431" stroke="#222222" stroke-width="2"/>
<mask id="path-2-inside-1_162_7052" fill="white">
<path d="M660.643 302.098C701.402 306.794 740.9 319.177 777.045 338.59L747.51 393.58C718.318 377.901 686.417 367.9 653.498 364.107L660.643 302.098Z"/>
</mask>
<path d="M660.643 302.098C701.402 306.794 740.9 319.177 777.045 338.59L747.51 393.58C718.318 377.901 686.417 367.9 653.498 364.107L660.643 302.098Z" stroke="#222222" stroke-width="4" mask="url(#path-2-inside-1_162_7052)"/>
<mask id="path-3-inside-2_162_7052" fill="white">
<path d="M660.643 302.098C701.402 306.794 740.9 319.177 777.045 338.59L767.812 355.78C733.841 337.534 696.717 325.896 658.409 321.482L660.643 302.098Z"/>
</mask>
<path d="M660.643 302.098C701.402 306.794 740.9 319.177 777.045 338.59L767.812 355.78C733.841 337.534 696.717 325.896 658.409 321.482L660.643 302.098Z" stroke="#222222" stroke-width="4" mask="url(#path-3-inside-2_162_7052)"/>
<mask id="path-4-inside-3_162_7052" fill="white">
<path d="M786.774 344.033C799.928 351.692 812.527 360.267 824.478 369.694L785.819 418.701C776.167 411.087 765.991 404.161 755.367 397.976L786.774 344.033Z"/>
</mask>
<path d="M786.774 344.033C799.928 351.692 812.527 360.267 824.478 369.694L785.819 418.701C776.167 411.087 765.991 404.161 755.367 397.976L786.774 344.033Z" stroke="#222222" stroke-width="4" mask="url(#path-4-inside-3_162_7052)"/>
<mask id="path-5-inside-4_162_7052" fill="white">
<path d="M786.774 344.033C799.928 351.692 812.527 360.267 824.478 369.694L801.735 398.524C791.137 390.164 779.963 382.559 768.298 375.767L786.774 344.033Z"/>
</mask>
<path d="M786.774 344.033C799.928 351.692 812.527 360.267 824.478 369.694L801.735 398.524C791.137 390.164 779.963 382.559 768.298 375.767L786.774 344.033Z" stroke="#222222" stroke-width="4" mask="url(#path-5-inside-4_162_7052)"/>
<path d="M903.113 779.998C878.891 823.36 844.965 860.53 803.991 888.603" stroke="#222222" stroke-width="2"/>
<path d="M866.271 807.865C862.753 812.395 859.11 816.826 855.345 821.152" stroke="#222222" stroke-width="2"/>
<path d="M842.791 834.733C840.041 837.535 837.236 840.284 834.381 842.979" stroke="#222222" stroke-width="2"/>
<path d="M820.411 854.381C817.397 856.898 814.336 859.357 811.227 861.757" stroke="#222222" stroke-width="2"/>
<mask id="path-10-inside-5_162_7052" fill="white">
<path d="M904.373 779.792C896.664 793.672 887.942 806.964 878.279 819.561L853.332 800.425C862.055 789.053 869.928 777.055 876.886 764.526L904.373 779.792Z"/>
</mask>
<path d="M904.373 779.792C896.664 793.672 887.942 806.964 878.279 819.561L853.332 800.425C862.055 789.053 869.928 777.055 876.886 764.526L904.373 779.792Z" stroke="#222222" stroke-width="4" mask="url(#path-10-inside-5_162_7052)"/>
<mask id="path-11-inside-6_162_7052" fill="white">
<path d="M869.487 830.52C864.432 836.548 859.158 842.389 853.676 848.032L831.124 826.124C836.072 821.03 840.833 815.758 845.396 810.317L869.487 830.52Z"/>
</mask>
<path d="M869.487 830.52C864.432 836.548 859.158 842.389 853.676 848.032L831.124 826.124C836.072 821.03 840.833 815.758 845.396 810.317L869.487 830.52Z" stroke="#222222" stroke-width="4" mask="url(#path-11-inside-6_162_7052)"/>
<mask id="path-12-inside-7_162_7052" fill="white">
<path d="M869.487 830.52C864.432 836.548 859.158 842.389 853.676 848.032L846.343 840.909C851.652 835.445 856.758 829.788 861.654 823.951L869.487 830.52Z"/>
</mask>
<path d="M869.487 830.52C864.432 836.548 859.158 842.389 853.676 848.032L846.343 840.909C851.652 835.445 856.758 829.788 861.654 823.951L869.487 830.52Z" fill="#222222" stroke="#222222" stroke-width="4" mask="url(#path-12-inside-7_162_7052)"/>
<mask id="path-13-inside-8_162_7052" fill="white">
<path d="M847.776 853.95C842.15 859.449 836.325 864.741 830.313 869.815L823.719 862.002C829.542 857.089 835.182 851.964 840.63 846.639L847.776 853.95Z"/>
</mask>
<path d="M847.776 853.95C842.15 859.449 836.325 864.741 830.313 869.815L823.719 862.002C829.542 857.089 835.182 851.964 840.63 846.639L847.776 853.95Z" fill="#222222" stroke="#222222" stroke-width="4" mask="url(#path-13-inside-8_162_7052)"/>
<mask id="path-14-inside-9_162_7052" fill="white">
<path d="M823.504 875.403C817.355 880.311 811.029 884.993 804.539 889.439L798.762 881.005C805.047 876.7 811.172 872.166 817.126 867.414L823.504 875.403Z"/>
</mask>
<path d="M823.504 875.403C817.355 880.311 811.029 884.993 804.539 889.439L798.762 881.005C805.047 876.7 811.172 872.166 817.126 867.414L823.504 875.403Z" fill="#222222" stroke="#222222" stroke-width="4" mask="url(#path-14-inside-9_162_7052)"/>
<mask id="path-15-inside-10_162_7052" fill="white">
<path d="M847.746 853.98C842.119 859.478 836.293 864.769 830.28 869.842L810.006 845.811C815.434 841.231 820.693 836.455 825.772 831.492L847.746 853.98Z"/>
</mask>
<path d="M847.746 853.98C842.119 859.478 836.293 864.769 830.28 869.842L810.006 845.811C815.434 841.231 820.693 836.455 825.772 831.492L847.746 853.98Z" stroke="#222222" stroke-width="4" mask="url(#path-15-inside-10_162_7052)"/>
<mask id="path-16-inside-11_162_7052" fill="white">
<path d="M823.521 875.39C817.372 880.298 811.047 884.98 804.557 889.427L786.786 863.489C792.645 859.476 798.355 855.249 803.904 850.819L823.521 875.39Z"/>
</mask>
<path d="M823.521 875.39C817.372 880.298 811.047 884.98 804.557 889.427L786.786 863.489C792.645 859.476 798.355 855.249 803.904 850.819L823.521 875.39Z" stroke="#222222" stroke-width="4" mask="url(#path-16-inside-11_162_7052)"/>
<path d="M733.254 623.219C733.254 640.139 729.385 656.836 721.944 672.033C714.503 687.229 703.686 700.524 690.32 710.9C676.955 721.276 661.393 728.458 644.826 731.899C628.259 735.34 611.125 734.948 594.733 730.753C578.34 726.558 563.124 718.67 550.247 707.694C537.37 696.717 527.172 682.942 520.434 667.421C513.696 651.9 510.596 635.043 511.37 618.141C512.144 601.238 516.772 584.735 524.901 569.895" stroke="#222222" stroke-width="2"/>
<path d="M586.785 736.635C563.854 729.531 543.608 715.658 528.706 696.838C513.804 678.018 504.942 655.131 503.284 631.183" stroke="#222222" stroke-width="2"/>
<path d="M569.621 737.562C559.606 732.984 550.235 727.114 541.746 720.1" stroke="#222222" stroke-width="2"/>
<path d="M522.139 713.187C519.919 710.648 517.796 708.027 515.773 705.329" stroke="#222222" stroke-width="2"/>
<path d="M513.085 701.611C512.337 700.538 511.604 699.454 510.887 698.359" stroke="#222222" stroke-width="2"/>
<path d="M509.455 696.124C508.761 695.015 508.082 693.897 507.42 692.768" stroke="#222222" stroke-width="2"/>
<path d="M478.854 550.024C488.466 531.192 501.693 514.438 517.78 500.719C533.867 486.999 552.499 476.582 572.612 470.063C592.724 463.544 613.924 461.05 635.001 462.724C656.077 464.398 676.617 470.207 695.449 479.819" stroke="#222222" stroke-width="2"/>
<path d="M581.093 459.308C601.38 454.213 622.437 452.929 643.193 455.521" stroke="#222222" stroke-width="2"/>
<mask id="path-25-inside-12_162_7052" fill="white">
<path d="M841.011 630.456C842.15 608.305 839.901 586.111 834.344 564.639L794.219 575.025C798.72 592.414 800.54 610.389 799.618 628.328L841.011 630.456Z"/>
</mask>
<path d="M841.011 630.456C842.15 608.305 839.901 586.111 834.344 564.639L794.219 575.025C798.72 592.414 800.54 610.389 799.618 628.328L841.011 630.456Z" fill="#222222" stroke="#222222" stroke-width="4" mask="url(#path-25-inside-12_162_7052)"/>
<mask id="path-26-inside-13_162_7052" fill="white">
<path d="M841.011 630.456C842.15 608.305 839.901 586.111 834.344 564.639L820.822 568.139C826.023 588.235 828.127 609.008 827.062 629.739L841.011 630.456Z"/>
</mask>
<path d="M841.011 630.456C842.15 608.305 839.901 586.111 834.344 564.639L820.822 568.139C826.023 588.235 828.127 609.008 827.062 629.739L841.011 630.456Z" fill="white" stroke="#222222" stroke-width="4" mask="url(#path-26-inside-13_162_7052)"/>
<mask id="path-27-inside-14_162_7052" fill="white">
<path d="M669.498 706.789C658.524 712.993 646.435 716.975 633.921 718.507C621.408 720.039 608.715 719.092 596.568 715.719C584.421 712.345 573.057 706.613 563.125 698.848C553.193 691.083 544.888 681.438 538.684 670.463L555.398 661.014C560.361 669.794 567.005 677.51 574.951 683.722C582.896 689.934 591.987 694.52 601.705 697.219C611.423 699.917 621.577 700.675 631.588 699.449C641.598 698.224 651.27 695.038 660.049 690.075L669.498 706.789Z"/>
</mask>
<path d="M669.498 706.789C658.524 712.993 646.435 716.975 633.921 718.507C621.408 720.039 608.715 719.092 596.568 715.719C584.421 712.345 573.057 706.613 563.125 698.848C553.193 691.083 544.888 681.438 538.684 670.463L555.398 661.014C560.361 669.794 567.005 677.51 574.951 683.722C582.896 689.934 591.987 694.52 601.705 697.219C611.423 699.917 621.577 700.675 631.588 699.449C641.598 698.224 651.27 695.038 660.049 690.075L669.498 706.789Z" stroke="#222222" stroke-width="4" mask="url(#path-27-inside-14_162_7052)"/>
<mask id="path-28-inside-15_162_7052" fill="white">
<path d="M534.449 662.03C530.239 652.506 527.607 642.36 526.656 631.991L545.775 630.236C546.536 638.532 548.642 646.649 552.01 654.268L534.449 662.03Z"/>
</mask>
<path d="M534.449 662.03C530.239 652.506 527.607 642.36 526.656 631.991L545.775 630.236C546.536 638.532 548.642 646.649 552.01 654.268L534.449 662.03Z" stroke="#222222" stroke-width="4" mask="url(#path-28-inside-15_162_7052)"/>
<mask id="path-29-inside-16_162_7052" fill="white">
<path d="M526.275 621.183C526.496 610.772 528.409 600.467 531.94 590.67L550.003 597.18C547.178 605.017 545.648 613.261 545.471 621.59L526.275 621.183Z"/>
</mask>
<path d="M526.275 621.183C526.496 610.772 528.409 600.467 531.94 590.67L550.003 597.18C547.178 605.017 545.648 613.261 545.471 621.59L526.275 621.183Z" stroke="#222222" stroke-width="4" mask="url(#path-29-inside-16_162_7052)"/>
<mask id="path-30-inside-17_162_7052" fill="white">
<path d="M606.689 528.488C609.587 528.012 612.506 527.669 615.436 527.46L616.799 546.612C614.456 546.779 612.121 547.053 609.802 547.434L606.689 528.488Z"/>
</mask>
<path d="M606.689 528.488C609.587 528.012 612.506 527.669 615.436 527.46L616.799 546.612C614.456 546.779 612.121 547.053 609.802 547.434L606.689 528.488Z" stroke="#222222" stroke-width="4" mask="url(#path-30-inside-17_162_7052)"/>
<mask id="path-31-inside-18_162_7052" fill="white">
<path d="M659.33 534.666C662.039 535.801 664.695 537.059 667.289 538.437L658.282 555.393C656.207 554.291 654.082 553.284 651.915 552.377L659.33 534.666Z"/>
</mask>
<path d="M659.33 534.666C662.039 535.801 664.695 537.059 667.289 538.437L658.282 555.393C656.207 554.291 654.082 553.284 651.915 552.377L659.33 534.666Z" stroke="#222222" stroke-width="4" mask="url(#path-31-inside-18_162_7052)"/>
<mask id="path-32-inside-19_162_7052" fill="white">
<path d="M633.241 527.848C636.159 528.185 639.06 528.654 641.934 529.257L637.998 548.049C635.699 547.567 633.378 547.191 631.044 546.922L633.241 527.848Z"/>
</mask>
<path d="M633.241 527.848C636.159 528.185 639.06 528.654 641.934 529.257L637.998 548.049C635.699 547.567 633.378 547.191 631.044 546.922L633.241 527.848Z" fill="#222222" stroke="#222222" stroke-width="4" mask="url(#path-32-inside-19_162_7052)"/>
<mask id="path-33-inside-20_162_7052" fill="white">
<path d="M682.175 548.214C684.469 550.047 686.679 551.985 688.796 554.02L675.487 567.86C673.794 566.231 672.026 564.681 670.191 563.214L682.175 548.214Z"/>
</mask>
<path d="M682.175 548.214C684.469 550.047 686.679 551.985 688.796 554.02L675.487 567.86C673.794 566.231 672.026 564.681 670.191 563.214L682.175 548.214Z" stroke="#222222" stroke-width="4" mask="url(#path-33-inside-20_162_7052)"/>
<mask id="path-34-inside-21_162_7052" fill="white">
<path d="M716.509 641.439C715.952 644.322 715.262 647.179 714.443 649.999L696.005 644.643C696.661 642.387 697.212 640.101 697.658 637.794L716.509 641.439Z"/>
</mask>
<path d="M716.509 641.439C715.952 644.322 715.262 647.179 714.443 649.999L696.005 644.643C696.661 642.387 697.212 640.101 697.658 637.794L716.509 641.439Z" fill="#222222" stroke="#222222" stroke-width="4" mask="url(#path-34-inside-21_162_7052)"/>
<mask id="path-35-inside-22_162_7052" fill="white">
<path d="M619.819 527.249C622.755 527.175 625.693 527.235 628.624 527.43L627.35 546.587C625.005 546.432 622.655 546.383 620.306 546.443L619.819 527.249Z"/>
</mask>
<path d="M619.819 527.249C622.755 527.175 625.693 527.235 628.624 527.43L627.35 546.587C625.005 546.432 622.655 546.383 620.306 546.443L619.819 527.249Z" stroke="#222222" stroke-width="4" mask="url(#path-35-inside-22_162_7052)"/>
<mask id="path-36-inside-23_162_7052" fill="white">
<path d="M671.116 540.584C673.644 542.079 676.102 543.689 678.483 545.409L667.237 560.971C665.333 559.595 663.366 558.306 661.344 557.111L671.116 540.584Z"/>
</mask>
<path d="M671.116 540.584C673.644 542.079 676.102 543.689 678.483 545.409L667.237 560.971C665.333 559.595 663.366 558.306 661.344 557.111L671.116 540.584Z" stroke="#222222" stroke-width="4" mask="url(#path-36-inside-23_162_7052)"/>
<mask id="path-37-inside-24_162_7052" fill="white">
<path d="M646.208 530.255C649.052 530.988 651.861 531.851 654.626 532.841L648.151 550.916C645.939 550.124 643.692 549.434 641.417 548.847L646.208 530.255Z"/>
</mask>
<path d="M646.208 530.255C649.052 530.988 651.861 531.851 654.626 532.841L648.151 550.916C645.939 550.124 643.692 549.434 641.417 548.847L646.208 530.255Z" fill="#222222" stroke="#222222" stroke-width="4" mask="url(#path-37-inside-24_162_7052)"/>
<mask id="path-38-inside-25_162_7052" fill="white">
<path d="M691.888 557.134C693.91 559.265 695.833 561.487 697.651 563.793L682.571 575.678C681.117 573.833 679.579 572.055 677.961 570.351L691.888 557.134Z"/>
</mask>
<path d="M691.888 557.134C693.91 559.265 695.833 561.487 697.651 563.793L682.571 575.678C681.117 573.833 679.579 572.055 677.961 570.351L691.888 557.134Z" fill="#222222" stroke="#222222" stroke-width="4" mask="url(#path-38-inside-25_162_7052)"/>
<mask id="path-39-inside-26_162_7052" fill="white">
<path d="M713.122 654.184C712.175 656.964 711.1 659.699 709.902 662.38L692.372 654.548C693.331 652.402 694.19 650.214 694.948 647.99L713.122 654.184Z"/>
</mask>
<path d="M713.122 654.184C712.175 656.964 711.1 659.699 709.902 662.38L692.372 654.548C693.331 652.402 694.19 650.214 694.948 647.99L713.122 654.184Z" fill="#222222" stroke="#222222" stroke-width="4" mask="url(#path-39-inside-26_162_7052)"/>
<path d="M316.372 938.111C245.757 869.517 200.248 779.179 187.154 681.609C174.06 584.038 194.142 484.898 244.173 400.114" stroke="#222222" stroke-width="2"/>
<path d="M829.028 235.965C866.993 256.237 901.771 281.981 932.246 312.371" stroke="#222222" stroke-width="2"/>
<path d="M994.953 391.234C1003.65 405.209 1011.56 419.662 1018.63 434.525" stroke="#222222" stroke-width="2"/>
<path d="M1023.34 444.75C1026.62 452.111 1029.69 459.56 1032.55 467.09" stroke="#222222" stroke-width="2"/>
<path d="M199.987 598.324C205.344 507.462 239.866 420.751 298.427 351.07" stroke="#222222" stroke-width="2"/>
<path d="M1040.26 688.025C1026.32 777.971 983.729 861.019 918.828 924.836" stroke="#222222" stroke-width="2"/>
<path d="M888.99 951.519C877.18 961.114 864.862 970.065 852.088 978.332" stroke="#222222" stroke-width="2"/>
<path d="M843.534 983.724C830.566 991.684 817.178 998.938 803.429 1005.46" stroke="#222222" stroke-width="2"/>
<path d="M795.18 1009.26C722.739 1041.71 642.63 1053.12 564.009 1042.19" stroke="#222222" stroke-width="2"/>
<path d="M285.267 878.892C271.131 860.259 258.564 840.487 247.696 819.778" stroke="#222222" stroke-width="2"/>
<path d="M239.286 802.843C235.122 793.964 231.267 784.943 227.73 775.796" stroke="#222222" stroke-width="2"/>
<path d="M1037.25 623.219C1037.25 697.072 1017.55 769.588 980.163 833.282" stroke="#222222" stroke-width="2"/>
<path d="M975.143 404.828C994.377 435.908 1009.42 469.392 1019.88 504.412" stroke="#222222" stroke-width="2"/>
<path d="M892.371 308.16C920.119 331.95 944.603 359.301 965.186 389.504" stroke="#222222" stroke-width="2"/>
<path d="M787.782 242.659C821.299 257.237 852.743 276.18 881.298 298.994" stroke="#222222" stroke-width="2"/>
<path d="M398.518 273.694C429.301 253.989 462.553 238.437 497.41 227.441" stroke="#222222" stroke-width="2"/>
<path d="M514.964 222.327C527.054 219.091 539.284 216.404 551.617 214.274" stroke="#222222" stroke-width="2"/>
<path d="M560.789 212.795C573.167 210.941 585.622 209.649 598.116 208.921" stroke="#222222" stroke-width="2"/>
<path d="M608.547 208.445C635.719 207.547 662.913 209.321 689.737 213.742" stroke="#222222" stroke-width="2"/>
<path d="M210.638 676.108C202.454 612.413 209.163 547.686 230.238 487.024C251.314 426.361 286.18 371.417 332.093 326.516" stroke="#222222" stroke-width="2"/>
<path d="M215.254 623.219C215.254 561.074 229.485 499.755 256.855 443.963C284.225 388.171 324.008 339.387 373.154 301.352C422.299 263.317 479.502 237.042 540.376 224.54C601.25 212.038 664.178 213.642 724.336 229.229" stroke="#222222" stroke-width="2"/>
<path d="M849.606 285.639C906.035 323.642 952.037 375.185 983.406 435.554C1014.78 495.923 1030.51 563.193 1029.18 631.212C1027.84 699.232 1009.47 765.832 975.757 824.922C942.041 884.013 894.05 933.709 836.172 969.467" stroke="#222222" stroke-width="2"/>
<path d="M802.55 988.105C774.718 1001.86 745.404 1012.38 715.18 1019.47" stroke="#222222" stroke-width="2"/>
<path d="M700.08 1022.71C627.472 1036.85 552.382 1030.94 482.881 1005.61" stroke="#222222" stroke-width="2"/>
<path d="M280.525 829.186C225.899 738.554 209.514 629.934 234.974 527.221C260.434 424.508 325.654 336.116 416.286 281.49C506.918 226.864 615.538 210.479 718.251 235.939C820.964 261.399 909.356 326.619 963.982 417.251" stroke="#222222" stroke-width="2"/>
<path d="M301.229 822.927C298.295 818.059 295.469 813.126 292.755 808.132" stroke="#222222" stroke-width="2"/>
<path d="M982.288 773.731C980.084 778.97 977.764 784.16 975.329 789.296" stroke="#222222" stroke-width="2"/>
<path d="M998.86 725.62C995.822 736.805 992.277 747.847 988.237 758.711" stroke="#222222" stroke-width="2"/>
<path d="M976.399 463.419C981.296 473.925 985.713 484.647 989.637 495.554" stroke="#222222" stroke-width="2"/>
<path d="M958.874 430.181C961.717 434.986 964.455 439.852 967.085 444.777" stroke="#222222" stroke-width="2"/>
<path d="M944.542 407.774C947.712 412.37 950.781 417.035 953.746 421.765" stroke="#222222" stroke-width="2"/>
<path d="M286.086 795.292C283.562 790.199 281.152 785.05 278.857 779.85" stroke="#222222" stroke-width="2"/>
<path d="M290.969 445.629C293.634 440.608 296.411 435.648 299.297 430.751" stroke="#222222" stroke-width="2"/>
<path d="M367.55 345.576C371.7 341.692 375.936 337.901 380.255 334.206" stroke="#222222" stroke-width="2"/>
<circle cx="696.254" cy="481.219" r="4" fill="#222222"/>
<circle cx="478.254" cy="552.219" r="4" fill="#222222"/>
<circle cx="579.254" cy="460.219" r="4" fill="#222222"/>
<circle cx="662.045" cy="357.626" r="3" transform="rotate(3.89187 662.045 357.626)" fill="#222222"/>
<circle cx="671.955" cy="359.303" r="3" transform="rotate(3.89187 671.955 359.303)" fill="#222222"/>
<path d="M582.664 452.379C581.323 451.763 579.846 451.502 578.376 451.622C576.905 451.743 575.49 452.24 574.268 453.066C573.045 453.892 572.056 455.019 571.396 456.339C570.736 457.658 570.427 459.126 570.499 460.6L574.312 460.414C574.273 459.595 574.444 458.78 574.811 458.047C575.177 457.315 575.727 456.689 576.406 456.23C577.085 455.771 577.87 455.495 578.687 455.428C579.504 455.361 580.324 455.506 581.068 455.848L582.664 452.379Z" fill="#222222"/>
<path d="M696.318 489.392C697.391 489.385 698.452 489.166 699.44 488.748C700.428 488.33 701.324 487.722 702.077 486.958C702.83 486.194 703.425 485.289 703.829 484.295C704.232 483.301 704.435 482.237 704.428 481.164C704.42 480.091 704.201 479.031 703.783 478.043C703.365 477.055 702.757 476.158 701.993 475.405C701.229 474.652 700.324 474.057 699.33 473.654C698.336 473.251 697.272 473.047 696.199 473.055L696.224 476.439C696.852 476.434 697.475 476.553 698.058 476.789C698.64 477.026 699.17 477.374 699.618 477.815C700.065 478.257 700.422 478.781 700.666 479.36C700.911 479.939 701.039 480.56 701.044 481.189C701.048 481.817 700.929 482.44 700.693 483.023C700.457 483.605 700.108 484.135 699.667 484.583C699.226 485.03 698.701 485.386 698.122 485.631C697.543 485.876 696.922 486.004 696.294 486.009L696.318 489.392Z" fill="#222222"/>
<path d="M471.155 548.191C470.625 549.124 470.284 550.152 470.152 551.216C470.02 552.281 470.098 553.361 470.384 554.395C470.669 555.43 471.155 556.397 471.814 557.244C472.473 558.09 473.293 558.798 474.226 559.328C475.159 559.857 476.187 560.198 477.251 560.33C478.316 560.463 479.396 560.384 480.43 560.099C481.465 559.813 482.432 559.327 483.279 558.668C484.125 558.009 484.833 557.189 485.363 556.256L482.42 554.586C482.11 555.132 481.695 555.612 481.199 555.999C480.704 556.385 480.137 556.67 479.531 556.837C478.925 557.004 478.292 557.05 477.669 556.972C477.045 556.895 476.443 556.695 475.896 556.385C475.35 556.075 474.87 555.66 474.484 555.164C474.098 554.669 473.813 554.102 473.646 553.496C473.479 552.89 473.433 552.257 473.51 551.634C473.588 551.01 473.787 550.408 474.097 549.861L471.155 548.191Z" fill="#222222"/>
<path d="M642.475 456.055L649.032 465.382" stroke="#222222" stroke-width="2"/>
<mask id="path-83-inside-27_162_7052" fill="white">
<path fill-rule="evenodd" clip-rule="evenodd" d="M526.007 450.218C498.759 465.847 475.593 487.933 458.644 514.69L476.106 525.75C488.21 506.64 503.864 490.198 522.093 477.236L526.007 450.218ZM527.975 449.104L524.221 475.747C534.514 468.658 545.598 462.666 557.304 457.911L549.526 438.761C542.108 441.774 534.913 445.231 527.975 449.104ZM553.254 455.219C553.254 456.876 551.911 458.219 550.254 458.219C548.597 458.219 547.254 456.876 547.254 455.219C547.254 453.562 548.597 452.219 550.254 452.219C551.911 452.219 553.254 453.562 553.254 455.219Z"/>
</mask>
<path fill-rule="evenodd" clip-rule="evenodd" d="M526.007 450.218C498.759 465.847 475.593 487.933 458.644 514.69L476.106 525.75C488.21 506.64 503.864 490.198 522.093 477.236L526.007 450.218ZM527.975 449.104L524.221 475.747C534.514 468.658 545.598 462.666 557.304 457.911L549.526 438.761C542.108 441.774 534.913 445.231 527.975 449.104ZM553.254 455.219C553.254 456.876 551.911 458.219 550.254 458.219C548.597 458.219 547.254 456.876 547.254 455.219C547.254 453.562 548.597 452.219 550.254 452.219C551.911 452.219 553.254 453.562 553.254 455.219Z" fill="#222222"/>
<path d="M458.644 514.69L456.955 513.62L455.885 515.309L457.574 516.379L458.644 514.69ZM526.007 450.218L527.986 450.504L528.575 446.439L525.012 448.483L526.007 450.218ZM476.106 525.75L475.036 527.44L476.725 528.51L477.795 526.82L476.106 525.75ZM522.093 477.236L523.252 478.866L523.949 478.37L524.072 477.523L522.093 477.236ZM527.975 449.104L527 447.357L526.133 447.841L525.995 448.825L527.975 449.104ZM524.221 475.747L522.241 475.468L521.605 479.977L525.356 477.394L524.221 475.747ZM557.304 457.911L558.057 459.764L559.91 459.011L559.157 457.158L557.304 457.911ZM549.526 438.761L551.379 438.008L550.626 436.155L548.773 436.908L549.526 438.761ZM460.334 515.76C477.108 489.279 500.035 467.421 527.002 451.952L525.012 448.483C497.482 464.274 474.078 486.586 456.955 513.62L460.334 515.76ZM477.176 524.06L459.715 513L457.574 516.379L475.036 527.44L477.176 524.06ZM520.934 475.606C502.494 488.717 486.66 505.35 474.416 524.68L477.795 526.82C489.76 507.931 505.233 491.678 523.252 478.866L520.934 475.606ZM524.072 477.523L527.986 450.504L524.028 449.931L520.113 476.95L524.072 477.523ZM525.995 448.825L522.241 475.468L526.202 476.026L529.956 449.383L525.995 448.825ZM556.552 456.058C544.71 460.868 533.498 466.929 523.087 474.1L525.356 477.394C535.529 470.387 546.486 464.464 558.057 459.764L556.552 456.058ZM547.673 439.513L555.451 458.663L559.157 457.158L551.379 438.008L547.673 439.513ZM528.95 450.85C535.816 447.017 542.937 443.596 550.279 440.614L548.773 436.908C541.279 439.952 534.009 443.445 527 447.357L528.95 450.85ZM550.254 460.219C553.015 460.219 555.254 457.981 555.254 455.219H551.254C551.254 455.772 550.806 456.219 550.254 456.219V460.219ZM545.254 455.219C545.254 457.981 547.492 460.219 550.254 460.219V456.219C549.702 456.219 549.254 455.772 549.254 455.219H545.254ZM550.254 450.219C547.492 450.219 545.254 452.458 545.254 455.219H549.254C549.254 454.667 549.702 454.219 550.254 454.219V450.219ZM555.254 455.219C555.254 452.458 553.015 450.219 550.254 450.219V454.219C550.806 454.219 551.254 454.667 551.254 455.219H555.254Z" fill="#222222" mask="url(#path-83-inside-27_162_7052)"/>
<mask id="path-85-inside-28_162_7052" fill="white">
<path fill-rule="evenodd" clip-rule="evenodd" d="M799.976 746.971C797.651 750.187 795.234 753.346 792.727 756.443L760.514 730.361C783.673 701.758 797.314 666.633 799.531 629.896L808.522 630.439C808.191 648.621 799.842 691.979 775.196 725.372L774.632 726.135L775.364 726.737C776.576 727.736 777.755 728.706 778.897 729.647C790.537 739.233 798.422 745.727 799.976 746.971ZM801.139 745.347C824.624 712.222 838.446 673.109 840.903 632.393L810.457 630.556C810.122 648.906 801.881 692.091 777.365 725.794C780.641 728.491 783.653 730.972 786.356 733.199C794.552 739.95 799.905 744.359 801.139 745.347ZM834 640.965C835.657 640.965 837 639.622 837 637.965C837 636.308 835.657 634.965 834 634.965C832.343 634.965 831 636.308 831 637.965C831 639.622 832.343 640.965 834 640.965ZM835 648.965C835 650.622 833.657 651.965 832 651.965C830.343 651.965 829 650.622 829 648.965C829 647.308 830.343 645.965 832 645.965C833.657 645.965 835 647.308 835 648.965Z"/>
</mask>
<path fill-rule="evenodd" clip-rule="evenodd" d="M799.976 746.971C797.651 750.187 795.234 753.346 792.727 756.443L760.514 730.361C783.673 701.758 797.314 666.633 799.531 629.896L808.522 630.439C808.191 648.621 799.842 691.979 775.196 725.372L774.632 726.135L775.364 726.737C776.576 727.736 777.755 728.706 778.897 729.647C790.537 739.233 798.422 745.727 799.976 746.971ZM801.139 745.347C824.624 712.222 838.446 673.109 840.903 632.393L810.457 630.556C810.122 648.906 801.881 692.091 777.365 725.794C780.641 728.491 783.653 730.972 786.356 733.199C794.552 739.95 799.905 744.359 801.139 745.347ZM834 640.965C835.657 640.965 837 639.622 837 637.965C837 636.308 835.657 634.965 834 634.965C832.343 634.965 831 636.308 831 637.965C831 639.622 832.343 640.965 834 640.965ZM835 648.965C835 650.622 833.657 651.965 832 651.965C830.343 651.965 829 650.622 829 648.965C829 647.308 830.343 645.965 832 645.965C833.657 645.965 835 647.308 835 648.965Z" fill="#222222"/>
<path d="M792.727 756.443L791.468 757.997L793.023 759.256L794.281 757.701L792.727 756.443ZM799.976 746.971L801.597 748.143L802.712 746.6L801.226 745.41L799.976 746.971ZM760.514 730.361L758.96 729.103L757.701 730.657L759.256 731.916L760.514 730.361ZM799.531 629.896L799.651 627.9L797.655 627.78L797.534 629.776L799.531 629.896ZM808.522 630.439L810.522 630.475L810.557 628.558L808.643 628.443L808.522 630.439ZM775.196 725.372L776.805 726.559L776.805 726.559L775.196 725.372ZM774.632 726.135L773.023 724.947L771.897 726.473L773.361 727.678L774.632 726.135ZM775.364 726.737L776.636 725.194L776.636 725.194L775.364 726.737ZM778.897 729.647L780.169 728.103L780.168 728.103L778.897 729.647ZM801.139 745.347L799.889 746.908L801.544 748.233L802.77 746.504L801.139 745.347ZM840.903 632.393L842.899 632.513L843.02 630.517L841.023 630.396L840.903 632.393ZM810.457 630.556L810.577 628.559L808.495 628.434L808.457 630.519L810.457 630.556ZM777.365 725.794L775.748 724.618L774.64 726.141L776.094 727.338L777.365 725.794ZM786.356 733.199L785.084 734.743L785.084 734.743L786.356 733.199ZM794.281 757.701C796.812 754.576 799.251 751.388 801.597 748.143L798.355 745.799C796.052 748.986 793.657 752.116 791.173 755.184L794.281 757.701ZM759.256 731.916L791.468 757.997L793.985 754.888L761.773 728.807L759.256 731.916ZM797.534 629.776C795.343 666.096 781.856 700.824 758.96 729.103L762.069 731.62C785.49 702.693 799.285 667.169 801.527 630.017L797.534 629.776ZM808.643 628.443L799.651 627.9L799.41 631.893L808.402 632.435L808.643 628.443ZM776.805 726.559C801.752 692.76 810.185 648.971 810.522 630.475L806.523 630.403C806.197 648.271 797.933 691.199 773.586 724.184L776.805 726.559ZM776.242 727.322L776.805 726.559L773.586 724.184L773.023 724.947L776.242 727.322ZM776.636 725.194L775.904 724.591L773.361 727.678L774.093 728.281L776.636 725.194ZM780.168 728.103C779.026 727.162 777.848 726.192 776.636 725.194L774.093 728.281C775.305 729.279 776.483 730.25 777.626 731.191L780.168 728.103ZM801.226 745.41C799.686 744.177 791.82 737.698 780.169 728.103L777.626 731.191C789.254 740.767 797.158 747.276 798.726 748.532L801.226 745.41ZM802.77 746.504C826.471 713.075 840.42 673.603 842.899 632.513L838.907 632.272C836.473 672.615 822.777 711.369 799.507 744.19L802.77 746.504ZM841.023 630.396L810.577 628.559L810.337 632.552L840.782 634.389L841.023 630.396ZM808.457 630.519C808.128 648.558 799.97 691.318 775.748 724.618L778.983 726.971C803.791 692.865 812.116 649.254 812.457 630.592L808.457 630.519ZM776.094 727.338C779.369 730.035 782.381 732.516 785.084 734.743L787.627 731.655C784.925 729.429 781.912 726.948 778.637 724.25L776.094 727.338ZM785.084 734.743C793.269 741.485 798.64 745.909 799.889 746.908L802.388 743.785C801.169 742.809 795.835 738.416 787.627 731.655L785.084 734.743ZM835 637.965C835 638.517 834.552 638.965 834 638.965V642.965C836.761 642.965 839 640.726 839 637.965H835ZM834 636.965C834.552 636.965 835 637.413 835 637.965H839C839 635.204 836.761 632.965 834 632.965V636.965ZM833 637.965C833 637.413 833.448 636.965 834 636.965V632.965C831.239 632.965 829 635.204 829 637.965H833ZM834 638.965C833.448 638.965 833 638.517 833 637.965H829C829 640.726 831.239 642.965 834 642.965V638.965ZM832 653.965C834.761 653.965 837 651.726 837 648.965H833C833 649.517 832.552 649.965 832 649.965V653.965ZM827 648.965C827 651.726 829.239 653.965 832 653.965V649.965C831.448 649.965 831 649.517 831 648.965H827ZM832 643.965C829.239 643.965 827 646.204 827 648.965H831C831 648.413 831.448 647.965 832 647.965V643.965ZM837 648.965C837 646.204 834.761 643.965 832 643.965V647.965C832.552 647.965 833 648.413 833 648.965H837Z" fill="#222222" mask="url(#path-85-inside-28_162_7052)"/>
<mask id="path-87-inside-29_162_7052" fill="white">
<path d="M344.539 580.038C340.341 607.156 340.123 634.742 343.893 661.923L397 654.558C393.947 632.544 394.123 610.203 397.524 588.241L344.539 580.038Z"/>
</mask>
<path d="M344.539 580.038C340.341 607.156 340.123 634.742 343.893 661.923L397 654.558C393.947 632.544 394.123 610.203 397.524 588.241L344.539 580.038Z" fill="#222222" stroke="#222222" stroke-width="4" mask="url(#path-87-inside-29_162_7052)"/>
<mask id="path-88-inside-30_162_7052" fill="white">
<path d="M344.539 580.038C340.341 607.156 340.123 634.742 343.893 661.923L352.792 660.689C349.142 634.374 349.353 607.667 353.418 581.413L344.539 580.038Z"/>
</mask>
<path d="M344.539 580.038C340.341 607.156 340.123 634.742 343.893 661.923L352.792 660.689C349.142 634.374 349.353 607.667 353.418 581.413L344.539 580.038Z" fill="white" stroke="#222222" stroke-width="4" mask="url(#path-88-inside-30_162_7052)"/>
<circle cx="358" cy="590.965" r="3" fill="white"/>
<circle cx="357" cy="602.965" r="3" fill="white"/>
<mask id="path-91-inside-31_162_7052" fill="white">
<path fill-rule="evenodd" clip-rule="evenodd" d="M404.096 800.692C406.751 803.969 409.483 807.191 412.29 810.355C422.012 821.31 432.53 831.445 443.735 840.691C444.941 837.903 446.851 833.5 449.781 826.76C431.439 811.716 421.075 799.938 417.64 795.19L404.096 800.692ZM402.788 799.065L417.624 793.038L418.372 792.734L418.827 793.402C421.586 797.46 432.073 809.723 451.632 825.69L452.219 826.169L451.917 826.863C448.62 834.446 446.569 839.175 445.344 842.009C475.632 866.629 510.836 884.801 548.805 895.189L562.953 843.473C520.216 831.781 481.802 807.91 452.393 774.769C440.175 760.999 429.73 745.876 421.226 729.758C415.968 729.867 408.577 729.965 398.5 729.965H397.845L397.583 729.365C385.855 702.487 377.93 671.792 376.136 659.978L344.295 664.719C351.627 713.958 371.848 760.288 402.788 799.065ZM397.326 656.822C401.029 681.695 408.794 705.651 420.193 727.778C415.144 727.876 408.273 727.961 399.156 727.964C387.63 701.366 379.864 671.204 378.114 659.683L397.326 656.822ZM557 848.965C557 850.621 555.657 851.965 554 851.965C552.343 851.965 551 850.621 551 848.965C551 847.308 552.343 845.965 554 845.965C555.657 845.965 557 847.308 557 848.965ZM545 848.965C546.657 848.965 548 847.621 548 845.965C548 844.308 546.657 842.965 545 842.965C543.343 842.965 542 844.308 542 845.965C542 847.621 543.343 848.965 545 848.965Z"/>
</mask>
<path fill-rule="evenodd" clip-rule="evenodd" d="M404.096 800.692C406.751 803.969 409.483 807.191 412.29 810.355C422.012 821.31 432.53 831.445 443.735 840.691C444.941 837.903 446.851 833.5 449.781 826.76C431.439 811.716 421.075 799.938 417.64 795.19L404.096 800.692ZM402.788 799.065L417.624 793.038L418.372 792.734L418.827 793.402C421.586 797.46 432.073 809.723 451.632 825.69L452.219 826.169L451.917 826.863C448.62 834.446 446.569 839.175 445.344 842.009C475.632 866.629 510.836 884.801 548.805 895.189L562.953 843.473C520.216 831.781 481.802 807.91 452.393 774.769C440.175 760.999 429.73 745.876 421.226 729.758C415.968 729.867 408.577 729.965 398.5 729.965H397.845L397.583 729.365C385.855 702.487 377.93 671.792 376.136 659.978L344.295 664.719C351.627 713.958 371.848 760.288 402.788 799.065ZM397.326 656.822C401.029 681.695 408.794 705.651 420.193 727.778C415.144 727.876 408.273 727.961 399.156 727.964C387.63 701.366 379.864 671.204 378.114 659.683L397.326 656.822ZM557 848.965C557 850.621 555.657 851.965 554 851.965C552.343 851.965 551 850.621 551 848.965C551 847.308 552.343 845.965 554 845.965C555.657 845.965 557 847.308 557 848.965ZM545 848.965C546.657 848.965 548 847.621 548 845.965C548 844.308 546.657 842.965 545 842.965C543.343 842.965 542 844.308 542 845.965C542 847.621 543.343 848.965 545 848.965Z" fill="#222222"/>
<path d="M412.29 810.355L410.794 811.682L412.29 810.355ZM404.096 800.692L403.344 798.839L400.844 799.855L402.542 801.951L404.096 800.692ZM443.735 840.691L442.462 842.234L444.514 843.927L445.57 841.485L443.735 840.691ZM449.781 826.76L451.616 827.557L452.218 826.171L451.05 825.213L449.781 826.76ZM417.64 795.19L419.26 794.018L418.34 792.747L416.887 793.337L417.64 795.19ZM402.788 799.065L401.225 800.312L402.157 801.48L403.541 800.918L402.788 799.065ZM417.624 793.038L416.871 791.185L416.871 791.185L417.624 793.038ZM418.372 792.734L420.026 791.609L419.117 790.273L417.62 790.881L418.372 792.734ZM418.827 793.402L420.481 792.278L420.481 792.278L418.827 793.402ZM451.632 825.69L452.897 824.141L452.897 824.141L451.632 825.69ZM452.219 826.169L454.053 826.966L454.657 825.577L453.484 824.62L452.219 826.169ZM451.917 826.863L450.083 826.066L450.083 826.066L451.917 826.863ZM445.344 842.009L443.508 841.215L442.907 842.606L444.082 843.561L445.344 842.009ZM548.805 895.189L548.277 897.118L550.206 897.645L550.734 895.716L548.805 895.189ZM562.953 843.473L564.882 844.001L565.41 842.072L563.481 841.544L562.953 843.473ZM452.393 774.769L450.897 776.096L450.897 776.096L452.393 774.769ZM421.226 729.758L422.994 728.825L422.418 727.733L421.184 727.758L421.226 729.758ZM397.845 729.965L396.012 730.764L396.536 731.965H397.845V729.965ZM397.583 729.365L395.75 730.164L395.75 730.164L397.583 729.365ZM376.136 659.978L378.113 659.677L377.814 657.706L375.841 658L376.136 659.978ZM344.295 664.719L344 662.741L342.022 663.036L342.317 665.014L344.295 664.719ZM420.193 727.778L420.232 729.778L423.441 729.716L421.971 726.862L420.193 727.778ZM397.326 656.822L399.304 656.528L399.009 654.55L397.031 654.844L397.326 656.822ZM399.156 727.964L397.32 728.76L397.843 729.965L399.156 729.964L399.156 727.964ZM378.114 659.683L377.82 657.705L375.836 658L376.137 659.983L378.114 659.683ZM413.786 809.027C410.998 805.886 408.286 802.687 405.65 799.433L402.542 801.951C405.216 805.251 407.967 808.496 410.794 811.682L413.786 809.027ZM445.008 839.149C433.883 829.968 423.439 819.905 413.786 809.027L410.794 811.682C420.585 822.715 431.178 832.922 442.462 842.234L445.008 839.149ZM445.57 841.485C446.776 838.699 448.685 834.297 451.616 827.557L447.947 825.962C445.017 832.703 443.106 837.107 441.899 839.897L445.57 841.485ZM451.05 825.213C432.794 810.241 422.565 798.586 419.26 794.018L416.019 796.363C419.586 801.291 430.083 813.191 448.513 828.306L451.05 825.213ZM416.887 793.337L403.344 798.839L404.849 802.545L418.392 797.043L416.887 793.337ZM403.541 800.918L418.376 794.891L416.871 791.185L402.035 797.212L403.541 800.918ZM418.376 794.891L419.125 794.587L417.62 790.881L416.871 791.185L418.376 794.891ZM416.719 793.859L417.173 794.527L420.481 792.278L420.026 791.609L416.719 793.859ZM417.173 794.527C420.081 798.803 430.727 811.206 450.368 827.239L452.897 824.141C433.42 808.241 423.091 796.117 420.481 792.278L417.173 794.527ZM450.368 827.239L450.954 827.718L453.484 824.62L452.897 824.141L450.368 827.239ZM450.385 825.371L450.083 826.066L453.751 827.661L454.053 826.966L450.385 825.371ZM450.083 826.066C446.786 833.649 444.734 838.379 443.508 841.215L447.179 842.803C448.404 839.971 450.455 835.243 453.751 827.661L450.083 826.066ZM549.333 893.259C511.633 882.946 476.678 864.902 446.605 840.457L444.082 843.561C474.585 868.355 510.039 886.657 548.277 897.118L549.333 893.259ZM561.024 842.946L546.876 894.661L550.734 895.716L564.882 844.001L561.024 842.946ZM450.897 776.096C480.563 809.528 519.314 833.608 562.425 845.402L563.481 841.544C521.118 829.955 483.04 806.292 453.889 773.441L450.897 776.096ZM419.457 730.691C428.035 746.95 438.572 762.206 450.897 776.096L453.889 773.441C441.777 759.792 431.424 744.802 422.994 728.825L419.457 730.691ZM398.5 731.965C408.59 731.965 415.995 731.867 421.267 731.758L421.184 727.758C415.941 727.867 408.563 727.965 398.5 727.965V731.965ZM397.845 731.965H398.5V727.965H397.845V731.965ZM395.75 730.164L396.012 730.764L399.678 729.165L399.417 728.565L395.75 730.164ZM374.159 660.278C375.981 672.276 383.957 703.138 395.75 730.164L399.417 728.565C387.753 701.836 379.88 671.309 378.113 659.677L374.159 660.278ZM344.589 666.697L376.431 661.956L375.841 658L344 662.741L344.589 666.697ZM404.351 797.818C373.631 759.316 353.553 713.314 346.273 664.425L342.317 665.014C349.701 714.602 370.065 761.261 401.225 800.312L404.351 797.818ZM421.971 726.862C410.672 704.929 402.975 681.182 399.304 656.528L395.347 657.117C399.084 682.207 406.916 706.373 418.415 728.694L421.971 726.862ZM399.156 729.964C408.286 729.961 415.17 729.876 420.232 729.778L420.155 725.779C415.119 725.877 408.261 725.961 399.155 725.964L399.156 729.964ZM376.137 659.983C377.914 671.688 385.731 702.016 397.32 728.76L400.991 727.169C389.528 700.717 381.813 670.721 380.091 659.383L376.137 659.983ZM397.031 654.844L377.82 657.705L378.409 661.661L397.62 658.8L397.031 654.844ZM554 853.965C556.761 853.965 559 851.726 559 848.965H555C555 849.517 554.552 849.965 554 849.965V853.965ZM549 848.965C549 851.726 551.239 853.965 554 853.965V849.965C553.448 849.965 553 849.517 553 848.965H549ZM554 843.965C551.239 843.965 549 846.203 549 848.965H553C553 848.412 553.448 847.965 554 847.965V843.965ZM559 848.965C559 846.203 556.761 843.965 554 843.965V847.965C554.552 847.965 555 848.412 555 848.965H559ZM546 845.965C546 846.517 545.552 846.965 545 846.965V850.965C547.761 850.965 550 848.726 550 845.965H546ZM545 844.965C545.552 844.965 546 845.412 546 845.965H550C550 843.203 547.761 840.965 545 840.965V844.965ZM544 845.965C544 845.412 544.448 844.965 545 844.965V840.965C542.239 840.965 540 843.203 540 845.965H544ZM545 846.965C544.448 846.965 544 846.517 544 845.965H540C540 848.726 542.239 850.965 545 850.965V846.965Z" fill="#222222" mask="url(#path-91-inside-31_162_7052)"/>
<mask id="path-93-inside-32_162_7052" fill="white">
<path fill-rule="evenodd" clip-rule="evenodd" d="M447.613 765.465L447.566 765.503C477.44 802.141 518.05 828.489 563.681 840.838L571.195 813.076C539.361 804.461 510.327 788.039 486.642 765.465H447.613Z"/>
</mask>
<path fill-rule="evenodd" clip-rule="evenodd" d="M447.613 765.465L447.566 765.503C477.44 802.141 518.05 828.489 563.681 840.838L571.195 813.076C539.361 804.461 510.327 788.039 486.642 765.465H447.613Z" fill="#222222"/>
<path d="M447.613 765.465V763.465H446.901L446.35 763.915L447.613 765.465ZM447.566 765.503L446.303 763.953L444.752 765.217L446.016 766.767L447.566 765.503ZM563.681 840.838L563.159 842.769L565.089 843.291L565.612 841.361L563.681 840.838ZM571.195 813.076L573.125 813.599L573.648 811.668L571.717 811.146L571.195 813.076ZM486.642 765.465L488.022 764.017L487.442 763.465H486.642V765.465ZM446.35 763.915L446.303 763.953L448.83 767.053L448.877 767.015L446.35 763.915ZM446.016 766.767C476.154 803.729 517.124 830.31 563.159 842.769L564.204 838.908C518.976 826.667 478.725 800.553 449.116 764.239L446.016 766.767ZM565.612 841.361L573.125 813.599L569.264 812.554L561.751 840.316L565.612 841.361ZM571.717 811.146C540.206 802.618 511.467 786.363 488.022 764.017L485.262 766.913C509.188 789.716 538.516 806.304 570.672 815.007L571.717 811.146ZM486.642 763.465H447.613V767.465H486.642V763.465Z" fill="#222222" mask="url(#path-93-inside-32_162_7052)"/>
</svg>
