<svg width="416" height="99" viewBox="0 0 416 99" fill="none" xmlns="http://www.w3.org/2000/svg">
<rect x="33.7734" y="45.1484" width="111.12" height="51.4212" stroke="#FFFFFE" stroke-width="3"/>
<rect x="1.5" y="1.89844" width="90.6164" height="8.25891" stroke="#FFFFFE" stroke-width="3"/>
<rect x="324.262" y="18.5352" width="83.8485" height="8.25891" stroke="#FFFFFE" stroke-width="3"/>
<rect x="103.879" y="1.89844" width="33.8456" height="8.25891" stroke="#FFFFFE" stroke-width="3"/>
<rect x="275.363" y="1.89844" width="33.8456" height="8.25891" stroke="#FFFFFE" stroke-width="3"/>
<rect x="227.273" y="88.502" width="33.8456" height="8.25891" stroke="#FFFFFE" stroke-width="3"/>
<rect x="371.07" y="2.12109" width="43.4286" height="8.25891" stroke="#FFFFFE" stroke-width="3"/>
<rect x="85.9609" y="18.5352" width="61.0791" height="8.25891" stroke="#FFFFFE" stroke-width="3"/>
<rect x="341.246" y="96.7637" width="61.0791" height="8.25891" transform="rotate(-180 341.246 96.7637)" stroke="#FFFFFE" stroke-width="3"/>
<rect x="206.258" y="1.89844" width="14.6813" height="8.25891" stroke="#FFFFFE" stroke-width="3"/>
<rect x="317.727" y="63.3555" width="14.6813" height="8.25891" stroke="#FFFFFE" stroke-width="3"/>
<rect x="189.664" y="51.5488" width="22.5947" height="22.5947" stroke="#FFFFFE" stroke-width="3"/>
<rect x="1.5" y="45.1914" width="24.1585" height="51.4212" stroke="#FFFFFE" stroke-width="3"/>
<rect x="155.398" y="18.5352" width="14.6813" height="8.25891" stroke="#FFFFFE" stroke-width="3"/>
<rect x="39.8906" y="18.5352" width="14.6813" height="8.25891" stroke="#FFFFFE" stroke-width="3"/>
<rect x="387.32" y="96.7637" width="14.6813" height="8.25891" transform="rotate(-180 387.32 96.7637)" stroke="#FFFFFE" stroke-width="3"/>
<rect x="229.293" y="1.89844" width="14.6813" height="8.25891" stroke="#FFFFFE" stroke-width="3"/>
<rect x="340.758" y="63.3555" width="14.6813" height="8.25891" stroke="#FFFFFE" stroke-width="3"/>
<rect x="224.055" y="51.5488" width="22.5947" height="22.5947" stroke="#FFFFFE" stroke-width="3"/>
<rect x="62.9258" y="18.5352" width="14.6813" height="8.25891" stroke="#FFFFFE" stroke-width="3"/>
<rect x="364.285" y="96.7637" width="14.6813" height="8.25891" transform="rotate(-180 364.285 96.7637)" stroke="#FFFFFE" stroke-width="3"/>
<rect x="252.328" y="1.89844" width="14.6813" height="8.25891" stroke="#FFFFFE" stroke-width="3"/>
<rect x="363.793" y="63.3555" width="14.6813" height="8.25891" stroke="#FFFFFE" stroke-width="3"/>
<rect x="204.238" y="88.502" width="14.6813" height="8.25891" stroke="#FFFFFE" stroke-width="3"/>
<rect x="258.438" y="51.5488" width="22.5947" height="22.5947" stroke="#FFFFFE" stroke-width="3"/>
</svg>
