<svg width="859" height="859" viewBox="0 0 859 859" fill="none" xmlns="http://www.w3.org/2000/svg">
<path d="M130.774 736.228C61.9333 669.358 17.5674 581.289 4.80245 486.169C-7.96247 391.05 11.6146 294.4 60.3889 211.746" stroke="#FFFFFE" stroke-width="2"/>
<path d="M838.513 304.833C850.71 344.978 856.937 386.699 856.995 428.656" stroke="#FFFFFE" stroke-width="2"/>
<path d="M553.445 838.733C538.091 843.398 522.486 847.196 506.705 850.108" stroke="#FFFFFE" stroke-width="2"/>
<path d="M304.613 19.754C312.128 17.4708 319.704 15.3948 327.334 13.5285" stroke="#FFFFFE" stroke-width="2"/>
<path d="M17.3134 404.977C22.5356 316.397 56.1907 231.864 113.28 163.935" stroke="#FFFFFE" stroke-width="2"/>
<path d="M840.637 453.503C835.415 542.082 801.76 626.615 744.67 694.545" stroke="#FFFFFE" stroke-width="2"/>
<path d="M453.249 17.5741C468.057 18.4471 482.807 20.1185 497.434 22.5809" stroke="#FFFFFE" stroke-width="2"/>
<path d="M647.04 779.23C634.45 787.074 621.446 794.234 608.085 800.676" stroke="#FFFFFE" stroke-width="2"/>
<path d="M599.195 804.833C528.713 836.776 450.665 848.243 373.974 837.922" stroke="#FFFFFE" stroke-width="2"/>
<path d="M101.388 679.721C87.5388 661.609 75.2158 642.379 64.5454 622.23" stroke="#FFFFFE" stroke-width="2"/>
<path d="M54.5753 602.105C50.5677 593.425 46.8632 584.608 43.4684 575.67" stroke="#FFFFFE" stroke-width="2"/>
<path d="M775.133 219.839C793.577 250.326 807.911 283.116 817.766 317.358" stroke="#FFFFFE" stroke-width="2"/>
<path d="M697.656 126.773C708.081 136.034 718.019 145.826 727.433 156.113" stroke="#FFFFFE" stroke-width="2"/>
<path d="M600.282 62.7281C632.562 77.8158 662.707 97.1017 689.935 120.085" stroke="#FFFFFE" stroke-width="2"/>
<path d="M200.448 95.38C229.851 75.2532 261.784 59.099 295.418 47.3365" stroke="#FFFFFE" stroke-width="2"/>
<path d="M321.348 39.2353C333.11 35.9896 345.012 33.2776 357.019 31.1076" stroke="#FFFFFE" stroke-width="2"/>
<path d="M366.614 29.4923C372.879 28.5149 379.167 27.685 385.471 27.0032" stroke="#FFFFFE" stroke-width="2"/>
<path d="M415.399 24.898C441.887 24.0087 468.399 25.7245 494.552 30.0205" stroke="#FFFFFE" stroke-width="2"/>
<path d="M27.0414 474.94C19.9702 412.735 27.432 349.737 48.8395 290.905C70.2469 232.073 105.016 179.012 150.41 135.897" stroke="#FFFFFE" stroke-width="2"/>
<path d="M566.363 801.46C537.971 811.94 508.474 819.137 478.446 822.91" stroke="#FFFFFE" stroke-width="2"/>
<path d="M428.972 826.004C386.176 826.004 343.661 819.08 303.076 805.501" stroke="#FFFFFE" stroke-width="2"/>
<path d="M116.015 623.937C113.155 619.191 110.4 614.382 107.754 609.513" stroke="#FFFFFE" stroke-width="2"/>
<path d="M98.0105 590.286C95.6495 585.273 93.4003 580.208 91.2648 575.095" stroke="#FFFFFE" stroke-width="2"/>
<path d="M144.265 197.92C147.727 193.594 151.284 189.345 154.936 185.177" stroke="#FFFFFE" stroke-width="2"/>
<path d="M628.543 750.965C623.797 753.826 618.988 756.58 614.12 759.226" stroke="#FFFFFE" stroke-width="2"/>
<path d="M222.053 125.043C231.318 118.574 240.872 112.529 250.685 106.927" stroke="#FFFFFE" stroke-width="2"/>
<path d="M778.667 283.374C783.14 293.751 787.141 304.325 790.655 315.064" stroke="#FFFFFE" stroke-width="2"/>
<path d="M758.391 243.193C761.131 247.896 763.768 252.657 766.3 257.475" stroke="#FFFFFE" stroke-width="2"/>
<path d="M741.938 217.445C745.053 221.908 748.071 226.438 750.989 231.032" stroke="#FFFFFE" stroke-width="2"/>
</svg>
