<svg width="1214" height="1214" viewBox="0 0 1214 1214" fill="none" xmlns="http://www.w3.org/2000/svg">
<path d="M308.802 913.797C239.958 846.922 195.589 758.849 182.824 663.724C170.058 568.598 189.636 471.943 238.413 389.284" stroke="#FFFFFE" stroke-width="1.94987"/>
<path d="M808.663 229.248C845.677 249.012 879.583 274.11 909.293 303.739" stroke="#FFFFFE" stroke-width="1.94987"/>
<path d="M970.429 380.625C978.91 394.25 986.617 408.341 993.515 422.831" stroke="#FFFFFE" stroke-width="1.94987"/>
<path d="M998.105 432.798C1001.3 439.974 1004.29 447.237 1007.09 454.579" stroke="#FFFFFE" stroke-width="1.94987"/>
<path d="M195.335 582.526C200.557 493.941 234.214 409.403 291.307 341.469" stroke="#FFFFFE" stroke-width="1.94987"/>
<path d="M1014.55 669.979C1000.96 757.671 959.437 838.638 896.162 900.855" stroke="#FFFFFE" stroke-width="1.94987"/>
<path d="M867.072 926.868C855.559 936.222 843.549 944.948 831.095 953.009" stroke="#FFFFFE" stroke-width="1.94987"/>
<path d="M822.75 958.266C810.108 966.026 797.055 973.098 783.65 979.452" stroke="#FFFFFE" stroke-width="1.94987"/>
<path d="M775.606 983.159C704.981 1014.8 626.879 1025.92 550.229 1015.27" stroke="#FFFFFE" stroke-width="1.94987"/>
<path d="M278.477 856.058C264.695 837.893 252.444 818.616 241.848 798.425" stroke="#FFFFFE" stroke-width="1.94987"/>
<path d="M233.649 781.922C229.589 773.265 225.831 764.47 222.382 755.553" stroke="#FFFFFE" stroke-width="1.94987"/>
<path d="M1011.62 606.799C1011.62 678.802 992.402 749.5 955.956 811.597" stroke="#FFFFFE" stroke-width="1.94987"/>
<path d="M951.062 393.883C969.814 424.183 984.481 456.828 994.683 490.971" stroke="#FFFFFE" stroke-width="1.94987"/>
<path d="M870.364 299.632C897.417 322.826 921.287 349.491 941.354 378.937" stroke="#FFFFFE" stroke-width="1.94987"/>
<path d="M768.397 235.772C801.074 249.985 831.73 268.453 859.569 290.696" stroke="#FFFFFE" stroke-width="1.94987"/>
<path d="M388.886 266.03C418.898 246.819 451.316 231.657 485.3 220.937" stroke="#FFFFFE" stroke-width="1.94987"/>
<path d="M502.414 215.952C514.201 212.797 526.125 210.177 538.149 208.1" stroke="#FFFFFE" stroke-width="1.94987"/>
<path d="M547.092 206.658C559.159 204.851 571.302 203.591 583.483 202.881" stroke="#FFFFFE" stroke-width="1.94987"/>
<path d="M593.655 202.417C620.146 201.542 646.658 203.271 672.81 207.581" stroke="#FFFFFE" stroke-width="1.94987"/>
<path d="M205.772 658.361C197.792 596.261 204.333 533.158 224.881 474.015C245.428 414.873 279.42 361.306 324.183 317.531" stroke="#FFFFFE" stroke-width="1.94987"/>
<path d="M782.793 962.537C755.658 975.945 727.079 986.204 697.612 993.114" stroke="#FFFFFE" stroke-width="1.94987"/>
<path d="M682.891 996.271C612.103 1010.06 538.895 1004.3 471.136 979.602" stroke="#FFFFFE" stroke-width="1.94987"/>
<path d="M294.039 801.5C291.179 796.754 288.424 791.945 285.778 787.076" stroke="#FFFFFE" stroke-width="1.94987"/>
<path d="M958.032 753.536C955.883 758.644 953.621 763.704 951.247 768.711" stroke="#FFFFFE" stroke-width="1.94987"/>
<path d="M974.188 706.63C971.225 717.535 967.769 728.3 963.831 738.891" stroke="#FFFFFE" stroke-width="1.94987"/>
<path d="M952.289 451C957.063 461.242 961.37 471.696 965.195 482.329" stroke="#FFFFFE" stroke-width="1.94987"/>
<path d="M935.203 418.593C937.975 423.278 940.644 428.022 943.208 432.823" stroke="#FFFFFE" stroke-width="1.94987"/>
<path d="M921.232 396.749C924.322 401.23 927.314 405.778 930.205 410.389" stroke="#FFFFFE" stroke-width="1.94987"/>
<path d="M279.272 774.558C276.811 769.593 274.461 764.574 272.224 759.504" stroke="#FFFFFE" stroke-width="1.94987"/>
<path d="M284.04 433.661C286.638 428.766 289.345 423.93 292.159 419.156" stroke="#FFFFFE" stroke-width="1.94987"/>
<path d="M358.7 336.114C362.746 332.327 366.876 328.631 371.086 325.029" stroke="#FFFFFE" stroke-width="1.94987"/>
</svg>
