<svg width="101" height="102" viewBox="0 0 101 102" fill="none" xmlns="http://www.w3.org/2000/svg">
<rect x="2.10315" y="2.22559" width="97.3613" height="97.3613" stroke="#222222" stroke-width="3"/>
<path d="M2.1492 87.4371C6.09798 67.8546 16.3907 32.083 31.9602 45.9585C51.4221 63.3028 65.807 69.457 83.2945 40.9225C97.2845 18.095 99.391 11.0685 99.4851 9.66978" stroke="#222222" stroke-width="3.03465"/>
<path d="M2.09 89.5994C6.03878 70.0169 16.3774 45.1384 31.9469 59.0138C51.4088 76.3582 65.7937 82.5124 83.2812 53.9779C97.2712 31.1504 99.3502 18.5394 99.4442 17.1406" stroke="#222222" stroke-width="3.03465"/>
<path d="M2.09812 91.3858C6.04691 71.8033 16.3885 58.1921 31.958 72.0676C51.4199 89.4119 65.8047 95.566 83.2922 67.0315C97.2822 44.204 99.2504 29.3021 99.3444 27.9033" stroke="#222222" stroke-width="3.03465"/>
<circle cx="58.5791" cy="38.5252" r="12.1717" stroke="#222222" stroke-width="3"/>
<circle cx="14.4083" cy="14.178" r="6.38605" stroke="#222222" stroke-width="3"/>
<circle cx="33.3348" cy="14.178" r="6.38605" stroke="#222222" stroke-width="3"/>
<path fill-rule="evenodd" clip-rule="evenodd" d="M20.8676 75.149C20.8672 75.149 20.8668 75.149 20.8664 75.149C20.8648 75.1491 20.8632 75.1492 20.8616 75.1494C20.8571 75.1496 20.8526 75.1499 20.8481 75.1504C20.8085 75.1552 20.7716 75.1733 20.7436 75.2017C20.7156 75.2301 20.698 75.2672 20.6939 75.3069C19.9124 79.3191 17.6835 81.8523 13.4508 82.5528C13.4136 82.5561 13.3783 82.5711 13.3502 82.5957C13.322 82.6203 13.3024 82.6532 13.2942 82.6897C13.2941 82.6903 13.294 82.6909 13.2939 82.6915C13.2928 82.6965 13.2919 82.7016 13.2913 82.7066C13.2911 82.708 13.291 82.7093 13.2909 82.7107C13.2905 82.7147 13.2902 82.7188 13.29 82.7229C13.29 82.7256 13.29 82.7283 13.29 82.731C13.29 82.7338 13.2901 82.7367 13.2903 82.7396C13.2905 82.7437 13.291 82.7477 13.2915 82.7518C13.2917 82.7531 13.2919 82.7545 13.2921 82.7558C13.2929 82.7613 13.294 82.7667 13.2954 82.772C13.3044 82.8077 13.3244 82.8397 13.3525 82.8635C13.3807 82.8873 13.4156 82.9016 13.4523 82.9045C17.6832 83.6053 19.9117 86.1376 20.6934 90.148C20.6972 90.1888 20.7151 90.227 20.744 90.2561C20.773 90.2851 20.8111 90.3031 20.8519 90.3071C20.8524 90.3071 20.8529 90.3071 20.8534 90.3071H20.8537C20.8571 90.3072 20.8605 90.3072 20.8639 90.3071C20.8667 90.3071 20.8695 90.3071 20.8723 90.3071C20.8735 90.3071 20.8748 90.3071 20.876 90.3071C20.9184 90.3055 20.9588 90.2888 20.9898 90.2598C21.0208 90.2309 21.0404 90.1917 21.0448 90.1496C21.828 86.1374 24.055 83.6043 28.2874 82.9036C28.3247 82.9005 28.3601 82.8855 28.3883 82.8609C28.4166 82.8362 28.4363 82.8032 28.4445 82.7667C28.4446 82.7661 28.4447 82.7655 28.4448 82.7649C28.4459 82.7599 28.4468 82.7548 28.4474 82.7498C28.4475 82.7484 28.4477 82.7471 28.4478 82.7457C28.4482 82.7417 28.4485 82.7376 28.4487 82.7336C28.4487 82.7308 28.4487 82.7281 28.4487 82.7254C28.4487 82.7226 28.4486 82.7197 28.4485 82.7168C28.4482 82.7128 28.4477 82.7087 28.4472 82.7047C28.447 82.7033 28.4468 82.7019 28.4466 82.7006C28.4458 82.6951 28.4447 82.6897 28.4433 82.6844C28.4343 82.6487 28.4144 82.6168 28.3863 82.593C28.3582 82.5693 28.3234 82.5549 28.2868 82.5519C24.0556 81.8512 21.8288 79.319 21.0453 75.3083C21.0415 75.2675 21.0236 75.2293 20.9946 75.2003C20.9657 75.1713 20.9276 75.1533 20.8868 75.1493C20.8863 75.1493 20.8858 75.1492 20.8853 75.1491H20.8849C20.8815 75.1489 20.8781 75.1488 20.8747 75.1488C20.8724 75.1486 20.87 75.1485 20.8676 75.1484L20.8676 75.149Z" fill="#222222"/>
<path fill-rule="evenodd" clip-rule="evenodd" d="M32.0544 84.8714C32.0542 84.8714 32.0539 84.8714 32.0537 84.8714C32.0528 84.8715 32.0519 84.8715 32.051 84.8716C32.0485 84.8717 32.0459 84.8719 32.0434 84.8722C32.021 84.8749 32.0002 84.8851 31.9844 84.9012C31.9686 84.9172 31.9587 84.9381 31.9563 84.9605C31.5151 87.2258 30.2567 88.656 27.8669 89.0516C27.8459 89.0534 27.826 89.0619 27.8101 89.0758C27.7942 89.0897 27.7831 89.1082 27.7785 89.1288C27.7785 89.1292 27.7784 89.1295 27.7783 89.1298C27.7777 89.1327 27.7772 89.1355 27.7769 89.1384C27.7768 89.1392 27.7767 89.1399 27.7766 89.1407C27.7764 89.143 27.7762 89.1453 27.7761 89.1476C27.7761 89.1491 27.7761 89.1506 27.7761 89.1521C27.7762 89.1538 27.7762 89.1554 27.7763 89.157C27.7764 89.1593 27.7767 89.1616 27.777 89.1639C27.7771 89.1646 27.7772 89.1654 27.7773 89.1662C27.7778 89.1692 27.7784 89.1723 27.7792 89.1753C27.7843 89.1955 27.7956 89.2135 27.8114 89.227C27.8273 89.2404 27.847 89.2485 27.8678 89.2501C30.2565 89.6458 31.5147 91.0755 31.956 93.3397C31.9582 93.3628 31.9683 93.3843 31.9846 93.4007C32.001 93.4171 32.0225 93.4273 32.0455 93.4295C32.0458 93.4295 32.0461 93.4295 32.0464 93.4295H32.0465C32.0485 93.4296 32.0504 93.4296 32.0523 93.4295C32.0539 93.4296 32.0555 93.4296 32.0571 93.4295C32.0577 93.4295 32.0584 93.4295 32.0591 93.4295C32.0831 93.4287 32.1059 93.4192 32.1234 93.4029C32.1409 93.3865 32.1519 93.3644 32.1545 93.3406C32.5966 91.0754 33.854 89.6452 36.2435 89.2496C36.2646 89.2478 36.2846 89.2394 36.3005 89.2255C36.3165 89.2116 36.3276 89.1929 36.3322 89.1723C36.3323 89.172 36.3324 89.1716 36.3324 89.1713C36.333 89.1685 36.3335 89.1656 36.3339 89.1627C36.334 89.162 36.334 89.1612 36.3341 89.1605C36.3343 89.1582 36.3345 89.1559 36.3346 89.1536C36.3346 89.1521 36.3346 89.1505 36.3346 89.149C36.3346 89.1474 36.3346 89.1458 36.3345 89.1441C36.3343 89.1418 36.3341 89.1396 36.3338 89.1373C36.3337 89.1365 36.3336 89.1357 36.3335 89.135C36.333 89.1319 36.3324 89.1289 36.3316 89.1258C36.3265 89.1057 36.3152 89.0877 36.2994 89.0742C36.2835 89.0608 36.2639 89.0527 36.2432 89.051C33.8543 88.6554 32.5971 87.2257 32.1547 84.9613C32.1525 84.9383 32.1424 84.9168 32.1261 84.9004C32.1098 84.884 32.0883 84.8738 32.0652 84.8716C32.0649 84.8716 32.0647 84.8715 32.0644 84.8715H32.0641C32.0622 84.8714 32.0603 84.8713 32.0584 84.8713C32.0571 84.8712 32.0557 84.8711 32.0544 84.8711L32.0544 84.8714Z" fill="#222222"/>
<path fill-rule="evenodd" clip-rule="evenodd" d="M73.3035 12.1635C73.3032 12.1635 73.3029 12.1635 73.3025 12.1636C73.3013 12.1636 73.3001 12.1637 73.2988 12.1638C73.2953 12.164 73.2917 12.1642 73.2882 12.1647C73.2571 12.1684 73.2282 12.1826 73.2062 12.2049C73.1842 12.2272 73.1704 12.2563 73.1671 12.2875C72.5536 15.4373 70.8038 17.426 67.4809 17.9759C67.4517 17.9785 67.424 17.9903 67.4019 18.0096C67.3798 18.0289 67.3644 18.0548 67.358 18.0834C67.3579 18.0839 67.3578 18.0843 67.3577 18.0848C67.3569 18.0887 67.3562 18.0927 67.3557 18.0967C67.3556 18.0977 67.3555 18.0988 67.3554 18.0999C67.3551 18.103 67.3548 18.1062 67.3547 18.1094C67.3547 18.1115 67.3547 18.1136 67.3547 18.1158C67.3547 18.118 67.3548 18.1203 67.3549 18.1225C67.3551 18.1257 67.3554 18.1289 67.3559 18.1321C67.356 18.1332 67.3562 18.1342 67.3563 18.1353C67.357 18.1395 67.3578 18.1438 67.3589 18.148C67.366 18.176 67.3817 18.2012 67.4038 18.2198C67.4259 18.2385 67.4533 18.2497 67.4821 18.252C70.8036 18.8021 72.553 20.7901 73.1668 23.9386C73.1697 23.9706 73.1838 24.0006 73.2065 24.0234C73.2292 24.0461 73.2592 24.0603 73.2912 24.0634C73.2916 24.0634 73.2919 24.0634 73.2923 24.0634H73.2926C73.2953 24.0635 73.2979 24.0635 73.3006 24.0634C73.3028 24.0635 73.305 24.0635 73.3072 24.0634C73.3082 24.0634 73.3091 24.0634 73.3101 24.0634C73.3434 24.0622 73.3751 24.049 73.3994 24.0263C73.4238 24.0036 73.4391 23.9729 73.4427 23.9398C74.0575 20.79 75.8058 18.8014 79.1284 18.2513C79.1577 18.2488 79.1855 18.2371 79.2077 18.2177C79.2299 18.1984 79.2453 18.1725 79.2518 18.1438C79.2518 18.1433 79.2519 18.1429 79.252 18.1424C79.2529 18.1385 79.2535 18.1345 79.254 18.1305C79.2542 18.1295 79.2543 18.1284 79.2544 18.1273C79.2547 18.1242 79.2549 18.121 79.255 18.1178C79.2551 18.1157 79.2551 18.1136 79.255 18.1114C79.255 18.1092 79.255 18.1069 79.2549 18.1047C79.2547 18.1015 79.2543 18.0983 79.2539 18.0951C79.2538 18.094 79.2536 18.093 79.2535 18.0919C79.2528 18.0876 79.2519 18.0834 79.2509 18.0792C79.2438 18.0512 79.2281 18.0261 79.2061 18.0075C79.1841 17.9888 79.1567 17.9775 79.128 17.9752C75.8063 17.4251 74.0581 15.4372 73.443 12.2886C73.44 12.2566 73.4259 12.2266 73.4032 12.2038C73.3805 12.181 73.3506 12.1669 73.3186 12.1638C73.3182 12.1637 73.3178 12.1637 73.3174 12.1636H73.3171C73.3144 12.1635 73.3118 12.1634 73.3091 12.1634C73.3073 12.1632 73.3054 12.1631 73.3035 12.1631L73.3035 12.1635Z" fill="#222222"/>
</svg>
