<svg width="105" height="104" viewBox="0 0 105 104" fill="none" xmlns="http://www.w3.org/2000/svg">
<rect x="0.00720215" y="4" width="3.9856" height="100" fill="#172630"/>
<rect x="100" y="100" width="4" height="96" transform="rotate(90 100 100)" fill="#172630"/>
<rect x="5.4946" y="1.4946" width="97.0108" height="97.0108" fill="#FFFFFE" stroke="#344753" stroke-width="2.9892"/>
<path d="M5.54041 86.3993C9.47497 66.8873 19.7306 31.2445 35.2441 45.07C54.6359 62.3519 68.969 68.4839 86.3935 40.0522C100.333 17.3068 102.432 10.3057 102.526 8.91197" stroke="#344753" stroke-width="2.9892"/>
<path d="M5.48145 88.5534C9.41601 69.0414 19.7174 44.2524 35.2309 58.0779C54.6227 75.3598 68.9559 81.4919 86.3804 53.0602C100.32 30.3148 102.391 17.7492 102.485 16.3555" stroke="#344753" stroke-width="2.9892"/>
<path d="M5.48963 90.334C9.4242 70.8221 19.7286 57.2598 35.242 71.0853C54.6339 88.3672 68.9668 94.4992 86.3914 66.0674C100.331 43.322 102.292 28.4738 102.386 27.0801" stroke="#344753" stroke-width="2.9892"/>
<circle cx="61.7671" cy="37.6635" r="12.1279" stroke="#344753" stroke-width="2.9892"/>
<circle cx="17.7555" cy="13.4036" r="6.36306" stroke="#344753" stroke-width="2.9892"/>
<circle cx="36.6138" cy="13.4036" r="6.36306" stroke="#344753" stroke-width="2.9892"/>
<path fill-rule="evenodd" clip-rule="evenodd" d="M24.1915 74.1558C24.1911 74.1558 24.1907 74.1558 24.1902 74.1559C24.1887 74.156 24.1871 74.1561 24.1855 74.1562C24.181 74.1564 24.1765 74.1567 24.172 74.1573C24.1325 74.162 24.0958 74.18 24.0679 74.2083C24.04 74.2366 24.0225 74.2736 24.0183 74.3131C23.2397 78.3109 21.0188 80.835 16.8014 81.533C16.7643 81.5363 16.7291 81.5512 16.7011 81.5757C16.673 81.6003 16.6535 81.6331 16.6453 81.6694C16.6452 81.67 16.6451 81.6706 16.645 81.6712C16.6439 81.6762 16.6431 81.6812 16.6424 81.6863C16.6423 81.6876 16.6422 81.689 16.642 81.6903C16.6416 81.6943 16.6413 81.6984 16.6412 81.7024C16.6411 81.7051 16.6411 81.7078 16.6412 81.7105C16.6412 81.7134 16.6412 81.7162 16.6414 81.7191C16.6417 81.7232 16.6421 81.7272 16.6427 81.7312C16.6428 81.7326 16.643 81.7339 16.6432 81.7353C16.644 81.7407 16.6451 81.7461 16.6465 81.7514C16.6555 81.787 16.6754 81.8189 16.7035 81.8426C16.7315 81.8662 16.7663 81.8805 16.8029 81.8834C21.0186 82.5817 23.239 85.1048 24.0179 89.1009C24.0217 89.1415 24.0395 89.1796 24.0683 89.2085C24.0972 89.2374 24.1352 89.2554 24.1758 89.2593C24.1763 89.2593 24.1768 89.2593 24.1773 89.2593H24.1776C24.181 89.2594 24.1844 89.2594 24.1878 89.2593C24.1906 89.2594 24.1934 89.2594 24.1962 89.2593C24.1974 89.2593 24.1986 89.2593 24.1998 89.2593C24.2421 89.2578 24.2823 89.2411 24.3132 89.2123C24.3441 89.1834 24.3636 89.1444 24.3681 89.1024C25.1484 85.1047 27.3674 82.5807 31.5845 81.8825C31.6217 81.8794 31.657 81.8645 31.6851 81.8399C31.7133 81.8154 31.7329 81.7825 31.7411 81.7461C31.7412 81.7455 31.7413 81.7449 31.7414 81.7443C31.7425 81.7393 31.7433 81.7343 31.744 81.7292C31.7441 81.7279 31.7442 81.7265 31.7444 81.7252C31.7448 81.7212 31.7451 81.7171 31.7452 81.7131C31.7453 81.7104 31.7453 81.7077 31.7452 81.705C31.7452 81.7021 31.7452 81.6993 31.745 81.6964C31.7447 81.6924 31.7443 81.6883 31.7438 81.6843C31.7436 81.6829 31.7434 81.6816 31.7432 81.6802C31.7424 81.6748 31.7413 81.6694 31.7399 81.6641C31.7309 81.6286 31.7111 81.5967 31.6831 81.5731C31.6551 81.5494 31.6205 81.5351 31.5839 81.5321C27.368 80.8339 25.1492 78.3108 24.3685 74.3146C24.3647 74.2739 24.3468 74.2359 24.318 74.207C24.2892 74.178 24.2512 74.1601 24.2106 74.1562C24.2101 74.1561 24.2096 74.156 24.2091 74.156H24.2087C24.2053 74.1558 24.2019 74.1556 24.1986 74.1556C24.1962 74.1555 24.1939 74.1553 24.1915 74.1553L24.1915 74.1558Z" fill="#344753"/>
<path fill-rule="evenodd" clip-rule="evenodd" d="M35.3382 83.8431C35.338 83.8431 35.3377 83.8431 35.3375 83.8431C35.3366 83.8432 35.3357 83.8432 35.3348 83.8433C35.3323 83.8434 35.3297 83.8436 35.3272 83.8439C35.3049 83.8466 35.2842 83.8567 35.2684 83.8727C35.2527 83.8887 35.2428 83.9096 35.2404 83.9319C34.8008 86.189 33.5469 87.6141 31.1658 88.0082C31.1448 88.01 31.125 88.0185 31.1092 88.0323C31.0933 88.0462 31.0823 88.0647 31.0777 88.0852C31.0776 88.0855 31.0776 88.0859 31.0775 88.0862C31.0769 88.089 31.0764 88.0919 31.0761 88.0947C31.076 88.0955 31.0759 88.0962 31.0758 88.097C31.0756 88.0993 31.0754 88.1016 31.0753 88.1038C31.0753 88.1054 31.0753 88.1069 31.0753 88.1084C31.0753 88.11 31.0754 88.1116 31.0755 88.1133C31.0756 88.1155 31.0759 88.1178 31.0762 88.1201C31.0763 88.1209 31.0764 88.1216 31.0765 88.1224C31.077 88.1254 31.0776 88.1285 31.0784 88.1315C31.0834 88.1516 31.0947 88.1696 31.1105 88.183C31.1264 88.1963 31.146 88.2044 31.1666 88.206C33.5468 88.6002 34.8004 90.0248 35.2402 92.2809C35.2423 92.3039 35.2524 92.3254 35.2687 92.3417C35.2849 92.358 35.3064 92.3682 35.3293 92.3704C35.3296 92.3704 35.3299 92.3704 35.3302 92.3704H35.3304C35.3323 92.3705 35.3342 92.3705 35.3361 92.3704C35.3377 92.3704 35.3393 92.3704 35.3408 92.3704C35.3415 92.3704 35.3422 92.3704 35.3429 92.3704C35.3668 92.3695 35.3895 92.3601 35.4069 92.3438C35.4244 92.3276 35.4354 92.3055 35.4379 92.2818C35.8785 90.0247 37.1313 88.5997 39.5122 88.2055C39.5333 88.2038 39.5532 88.1953 39.569 88.1815C39.5849 88.1676 39.596 88.1491 39.6006 88.1285C39.6007 88.1282 39.6008 88.1278 39.6008 88.1275C39.6014 88.1247 39.6019 88.1218 39.6023 88.119C39.6023 88.1182 39.6024 88.1175 39.6025 88.1167C39.6027 88.1144 39.6029 88.1121 39.603 88.1099C39.603 88.1083 39.603 88.1068 39.603 88.1053C39.603 88.1037 39.6029 88.1021 39.6029 88.1004C39.6027 88.0981 39.6025 88.0959 39.6021 88.0936C39.6021 88.0928 39.602 88.0921 39.6018 88.0913C39.6014 88.0882 39.6007 88.0852 39.6 88.0822C39.5949 88.0621 39.5837 88.0442 39.5679 88.0308C39.5521 88.0174 39.5325 88.0093 39.5119 88.0077C37.1316 87.6135 35.8789 86.1889 35.4381 83.9327C35.436 83.9098 35.4259 83.8883 35.4096 83.872C35.3934 83.8556 35.3719 83.8455 35.349 83.8433C35.3487 83.8432 35.3484 83.8432 35.3481 83.8432H35.3479C35.346 83.8431 35.3441 83.843 35.3422 83.843C35.3409 83.8429 35.3395 83.8428 35.3382 83.8428L35.3382 83.8431Z" fill="#344753"/>
<path fill-rule="evenodd" clip-rule="evenodd" d="M76.4386 11.3969C76.4382 11.3969 76.4379 11.3969 76.4376 11.3969C76.4363 11.397 76.4351 11.3971 76.4339 11.3972C76.4303 11.3974 76.4268 11.3976 76.4233 11.398C76.3923 11.4018 76.3635 11.4159 76.3415 11.4381C76.3196 11.4604 76.3059 11.4894 76.3026 11.5204C75.6913 14.6589 73.9478 16.6404 70.6369 17.1884C70.6078 17.1909 70.5802 17.2027 70.5582 17.2219C70.5362 17.2412 70.5208 17.2669 70.5144 17.2955C70.5143 17.2959 70.5142 17.2964 70.5142 17.2969C70.5133 17.3008 70.5126 17.3047 70.5121 17.3087C70.512 17.3098 70.5119 17.3108 70.5118 17.3119C70.5115 17.315 70.5113 17.3182 70.5111 17.3214C70.5111 17.3235 70.5111 17.3256 70.5111 17.3277C70.5111 17.33 70.5112 17.3322 70.5113 17.3345C70.5115 17.3377 70.5119 17.3408 70.5123 17.344C70.5124 17.3451 70.5126 17.3461 70.5127 17.3472C70.5134 17.3514 70.5143 17.3557 70.5153 17.3599C70.5224 17.3878 70.538 17.4128 70.56 17.4314C70.5821 17.45 70.6094 17.4612 70.6381 17.4635C73.9476 18.0116 75.6908 19.9925 76.3023 23.1296C76.3052 23.1615 76.3193 23.1914 76.3419 23.2141C76.3645 23.2368 76.3943 23.2509 76.4262 23.254C76.4266 23.254 76.427 23.254 76.4274 23.254H76.4277C76.4303 23.254 76.433 23.254 76.4356 23.254C76.4378 23.254 76.44 23.254 76.4422 23.254C76.4432 23.254 76.4441 23.254 76.4451 23.254C76.4783 23.2528 76.5099 23.2396 76.5341 23.217C76.5584 23.1944 76.5737 23.1638 76.5772 23.1308C77.1898 19.9923 78.9318 18.0109 82.2425 17.4628C82.2717 17.4603 82.2993 17.4486 82.3214 17.4294C82.3435 17.4101 82.3589 17.3843 82.3654 17.3557C82.3654 17.3552 82.3655 17.3548 82.3656 17.3543C82.3665 17.3504 82.3671 17.3464 82.3676 17.3424C82.3678 17.3414 82.3679 17.3403 82.3679 17.3393C82.3683 17.3361 82.3685 17.3329 82.3686 17.3298C82.3687 17.3276 82.3687 17.3255 82.3686 17.3234C82.3686 17.3212 82.3686 17.3189 82.3685 17.3167C82.3682 17.3135 82.3679 17.3103 82.3675 17.3072C82.3673 17.3061 82.3672 17.305 82.367 17.304C82.3664 17.2997 82.3655 17.2955 82.3645 17.2913C82.3574 17.2634 82.3418 17.2384 82.3199 17.2198C82.2979 17.2013 82.2707 17.19 82.242 17.1877C78.9323 16.6396 77.1904 14.6588 76.5775 11.5215C76.5745 11.4896 76.5605 11.4598 76.5379 11.4371C76.5153 11.4144 76.4854 11.4003 76.4535 11.3972C76.4531 11.3971 76.4527 11.3971 76.4523 11.397H76.452C76.4494 11.3969 76.4468 11.3968 76.4441 11.3968C76.4423 11.3966 76.4404 11.3965 76.4386 11.3965L76.4386 11.3969Z" fill="#344753"/>
</svg>
