<svg xmlns="http://www.w3.org/2000/svg" data-name="Слой 1" viewBox="0 0 100 100" x="0px" y="0px"><title>МАНДАЛЫ 02 - 75 штук - на артбордах иконки</title><path d="M83.99578,29.46885c-1.72947-4.99862-5.47932-8.95063-9.67781-12.19595a40.02175,40.02175,0,0,0-2.10315-7.56339,40.01873,40.01873,0,0,0-7.51851,2.25833c-4.99115-1.82045-10.3322-2.87924-15.47892-1.67463-5.19367-1.00154-10.49113.26992-15.40091,2.28326a40.02168,40.02168,0,0,0-7.60166-1.96032,40.01971,40.01971,0,0,0-1.80348,7.64039c-4.07213,3.41224-7.6596,7.50833-9.18973,12.56782-3.4642,3.99708-5.01181,9.22055-5.7231,14.47921A40.0217,40.0217,0,0,0,4,50.90665a40.01941,40.01941,0,0,0,5.715,5.382c.919,5.23269,2.67261,10.38757,6.28919,14.24245,1.72947,4.99862,5.47932,8.95063,9.67781,12.19595a40.02175,40.02175,0,0,0,2.10315,7.56339,40.01873,40.01873,0,0,0,7.51851-2.25833c4.99115,1.82045,10.3322,2.87924,15.47892,1.67463,5.19367,1.00154,10.49113-.26992,15.40091-2.28326a40.02168,40.02168,0,0,0,7.60166,1.96032,40.01971,40.01971,0,0,0,1.80348-7.64039c4.07213-3.41224,7.6596-7.50833,9.18973-12.56782,3.4642-3.99708,5.01181-9.22055,5.7231-14.47921A40.0217,40.0217,0,0,0,96,49.09335a40.01941,40.01941,0,0,0-5.715-5.382C89.366,38.47861,87.61236,33.32373,83.99578,29.46885ZM52.41,45.629c.75576.40575.64173.19976-.20042.36349C51.89841,45.19247,51.66342,45.20639,52.41,45.629Zm2.58039,4.27265c.02649.85738.14787.65564-.415.00818C55.11265,49.2403,54.9831,49.04376,54.99042,49.90164Zm-2.41,4.371c-.72927.45163-.49386.45588-.21458-.35531C53.21424,54.04783,53.31968,53.83737,52.58039,54.27265ZM47.59,54.371c-.75576-.40575-.64173-.19976.20042-.36349C48.10159,54.80753,48.33658,54.79361,47.59,54.371Zm-2.58039-4.27265c-.02649-.85738-.14787-.65564.415-.00818C44.88735,50.7597,45.0169,50.95624,45.00958,50.09836Zm2.41-4.371c.72927-.45163.49386-.45588.21458.35531C46.78576,45.95217,46.68032,46.16263,47.41961,45.72735ZM51.674,46.964a15.30275,15.30275,0,0,1,2.25392-.27288c.34784-.05428-.03917-.2727.762.17008a11.92489,11.92489,0,0,0-3.15741,1.19012c-.31127-.437-.14371-.356-.70246-.38732-.26742-3.52712-1.25824-3.63049-.14827-3.01467C50.57163,45.05069,51.23237,45.61812,51.674,46.964Zm1.7923,2.96772a15.30059,15.30059,0,0,1,1.36328,1.81552c.22093.27409.21659-.17028.2337.74494a11.92513,11.92513,0,0,0-2.60937-2.13935c.2228-.48805.23647-.30247-.01581-.802,2.92087-1.99515,2.515-2.90491,2.53665-1.63574C54.57205,48.02039,54.411,48.87632,53.46627,49.93168Zm-1.674,3.036a15.301,15.301,0,0,1-.89064,2.08839c-.12691.32838.25576.10243-.52829.57487a11.925,11.925,0,0,0,.548-3.32946c.53407-.05108.38019.05355.68665-.4147,3.18829,1.532,3.77322.72559,2.68492,1.37894C54.00041,52.9697,53.17863,53.2582,51.7923,52.96772ZM48.326,53.036a15.30275,15.30275,0,0,1-2.25392.27288c-.34784.05428.03917.2727-.762-.17008a11.92489,11.92489,0,0,0,3.15741-1.19012c.31127.437.14371.356.70246.38732.26742,3.52712,1.25824,3.63049.14827,3.01467C49.42837,54.94931,48.76763,54.38188,48.326,53.036Zm-1.7923-2.96772a15.30059,15.30059,0,0,1-1.36328-1.81552c-.22093-.27409-.21659.17028-.2337-.74494a11.92513,11.92513,0,0,0,2.60937,2.13935c-.2228.48805-.23647.30247.01581.802-2.92087,1.99515-2.515,2.90491-2.53665,1.63574C45.428,51.97961,45.589,51.12368,46.53373,50.06832Zm1.674-3.036a15.301,15.301,0,0,1,.89064-2.08839c.12691-.32838-.25576-.10243.52829-.57487a11.925,11.925,0,0,0-.548,3.32946c-.53407.05108-.38019-.05355-.68665.4147-3.18829-1.532-3.77322-.72559-2.68492-1.37894C45.99959,47.0303,46.82137,46.7418,48.2077,47.03228Zm3.83064,1.7367c.1008-.08944.96179-.61794.02113.04Zm.04693,2.38077c.11938.03975,1.02627.52874-.02407.03828Zm-2.03835,1.231c.02527.12327.05524,1.15315-.04518-.0017ZM47.96166,51.231c-.1008.08944-.96179.61794-.02113-.04Zm-.04693-2.38077c-.11938-.03975-1.02627-.52874.02407-.03828Zm2.03835-1.231c-.02527-.12327-.05524-1.15315.04518.0017Zm6.11114-8.61776c1.11757,1.4597,1.29086,4.67038.89116,6.64718-.885-.49583-5.617-3.1112-6.9962-3.84644C51.45974,40.37,54.26118,38.838,56.06422,39.00147Zm6.4929,10.751c-.70535,1.6977-3.39924,3.45311-5.311,4.09536-.01309-1.01434-.11412-6.42-.167-7.9821C59.06968,46.44918,61.79715,48.1093,62.55712,49.7525ZM56.4929,60.751c-1.82292.238-4.6901-1.21728-6.20221-2.55183.8719-.51851,5.50286-3.30885,6.82922-4.13566C57.60994,56.07917,57.536,59.27128,56.4929,60.751Zm-12.55712.24749c-1.11757-1.4597-1.29086-4.67038-.89116-6.64718.885.49583,5.617,3.1112,6.9962,3.84644C48.54026,59.63,45.73882,61.162,43.93578,60.99853Zm-6.4929-10.751c.70535-1.6977,3.39924-3.45311,5.311-4.09536.01309,1.01434.11412,6.42.167,7.9821C40.93032,53.55082,38.20285,51.8907,37.44288,50.2475ZM43.5071,39.249c1.82292-.238,4.6901,1.21728,6.20221,2.55183-.8719.51851-5.50286,3.30885-6.82922,4.13566C42.39006,43.92083,42.464,40.72872,43.5071,39.249ZM62.62527,27.34751a6.58825,6.58825,0,0,1-3.1941,10.34774c-1.39278.30853-.42644.38675-1.90175-1.35119-2.257-.32-1.67739.44932-2.15766-.887A6.58826,6.58826,0,0,1,62.41752,27.233C62.33291,27.68309,62.29087,27.65831,62.62527,27.34751Zm13.305,22.26005a6.58825,6.58825,0,0,1-10.55845,2.4077c-.96359-1.05192-.54816-.17594.21928-2.32256-.85141-2.11465-1.22782-1.228-.31063-2.31211a6.58825,6.58825,0,0,1,10.64512,1.98978C75.49347,49.52215,75.4939,49.47336,75.93027,49.60756ZM63.305,72.26005a6.58825,6.58825,0,0,1-7.36435-7.94c.42919-1.36045-.12171-.56269,2.121-.97137,1.40564-1.79467.44957-1.67733,1.847-1.42507a6.58825,6.58825,0,0,1,3.59936,10.21384C63.16056,71.83907,63.203,71.81505,63.305,72.26005Zm-25.93026.39244a6.58825,6.58825,0,0,1,3.1941-10.34774c1.39278-.30853.42644-.38675,1.90175,1.35119,2.257.32,1.67739-.44932,2.15766.887A6.58826,6.58826,0,0,1,37.58248,72.767C37.66709,72.31691,37.70913,72.34169,37.37473,72.65249Zm-13.305-22.26a6.58825,6.58825,0,0,1,10.55845-2.4077c.96359,1.05192.54816.17594-.21928,2.32256.85141,2.11465,1.22782,1.228.31063,2.31211a6.58825,6.58825,0,0,1-10.64512-1.98978C24.50653,50.47785,24.5061,50.52664,24.06973,50.39244ZM36.695,27.74a6.58825,6.58825,0,0,1,7.36435,7.94c-.42919,1.36045.12171.56269-2.121.97137-1.40564,1.79467-.44957,1.67733-1.847,1.42507a6.58825,6.58825,0,0,1-3.59936-10.21384C36.83944,28.16093,36.797,28.185,36.695,27.74ZM59.79944,44.0818a10.02736,10.02736,0,0,0-.812-5.3341c2.69791-.54347,6.55836-1.67657,8.57656.64485,1.11514,2.86681-1.68471,5.75608-3.42154,7.89089A10.03338,10.03338,0,0,0,59.79944,44.0818ZM60.025,55.52746a10.02736,10.02736,0,0,0,4.21346-3.37028c1.8196,2.06472,4.73112,4.84142,3.72982,7.74994-1.92517,2.39914-5.82727,1.419-8.54449.98231A10.0334,10.0334,0,0,0,60.025,55.52746Zm-9.79944,5.9182a10.02736,10.02736,0,0,0,5.02548,1.96382c-.87829,2.60818-1.82723,6.518-4.84673,7.10509-3.0403-.46767-4.14256-4.337-5.12295-6.90859A10.03327,10.03327,0,0,0,50.22559,61.44566Zm-10.025-5.52746a10.02736,10.02736,0,0,0,.812,5.3341c-2.69791.54347-6.55836,1.67657-8.57656-.64485-1.11514-2.86681,1.68471-5.75608,3.42154-7.89089A10.03338,10.03338,0,0,0,40.20056,55.9182ZM39.975,44.47254a10.02736,10.02736,0,0,0-4.21346,3.37028c-1.8196-2.06472-4.73112-4.84142-3.72982-7.74994,1.92517-2.39914,5.82727-1.419,8.54449-.98231A10.0334,10.0334,0,0,0,39.975,44.47254Zm9.79944-5.9182a10.02736,10.02736,0,0,0-5.02548-1.96382c.87829-2.60818,1.82723-6.518,4.84673-7.10509,3.0403.46767,4.14256,4.337,5.12295,6.90859A10.03327,10.03327,0,0,0,49.77441,38.55434Zm18.77594-8.076a10.01339,10.01339,0,0,0-.30662-3.01242A7.05356,7.05356,0,0,1,68.55035,30.47839ZM42.369,24.17412a10.01307,10.01307,0,0,0-2.76214-1.24067A7.05357,7.05357,0,0,1,42.369,24.17412ZM23.81861,43.69573a10.01335,10.01335,0,0,0-2.45552,1.77175A7.05363,7.05363,0,0,1,23.81861,43.69573Zm7.631,25.82588a10.01339,10.01339,0,0,0,.30662,3.01242A7.05356,7.05356,0,0,1,31.44965,69.52161ZM57.631,75.82588a10.01307,10.01307,0,0,0,2.76214,1.24067A7.05357,7.05357,0,0,1,57.631,75.82588ZM76.18139,56.30427a10.01335,10.01335,0,0,0,2.45552-1.77175A7.05363,7.05363,0,0,1,76.18139,56.30427Zm2.25468-11.96168A10.01321,10.01321,0,0,0,75.91264,42.669,7.05347,7.05347,0,0,1,78.43607,44.34259ZM59.31857,22.54494a10.01293,10.01293,0,0,0-2.7111,1.34855A7.05346,7.05346,0,0,1,59.31857,22.54494ZM30.8825,28.20235a10.01328,10.01328,0,0,0-.18767,3.02216A7.05365,7.05365,0,0,1,30.8825,28.20235ZM21.56393,55.65741A10.01321,10.01321,0,0,0,24.08736,57.331,7.05347,7.05347,0,0,1,21.56393,55.65741Zm19.1175,21.79765a10.01293,10.01293,0,0,0,2.7111-1.34855A7.05346,7.05346,0,0,1,40.68143,77.45506ZM69.1175,71.79765a10.01328,10.01328,0,0,0,.18767-3.02216A7.05365,7.05365,0,0,1,69.1175,71.79765ZM62.114,37.21791a7.49839,7.49839,0,0,0,1.15861-10.47042,25.02282,25.02282,0,0,0,1.97818-2.4643c2.32071,3.09187,3.18806,6.77035,1.02376,10.33276-.26113.42982.21758.83377.626.7524a4.02523,4.02523,0,0,1,3.9163,6.48467c-.26212.32355-.12743.93527.37454.90423,4.16038-.25727,7.0123,2.22266,8.66852,5.71584a20.56554,20.56554,0,0,0-3.09505.63175,7.49711,7.49711,0,0,0-9.813-3.87646C70.61066,39.91717,68.60786,36.44109,62.114,37.21791Zm5.01263,16.882a7.4984,7.4984,0,0,0,9.647-4.23182,25.02045,25.02045,0,0,0,3.12324.481c-1.51729,3.55573-4.26927,6.14612-8.43656,6.053-.5028-.01123-.61328.60532-.33862.91829a4.02523,4.02523,0,0,1-3.65774,6.63395c-.41126-.06522-.87368.35728-.59582.77649,2.303,3.47435,1.58127,7.18415-.61581,10.36507a20.565,20.565,0,0,0-2.09463-2.36452,7.49711,7.49711,0,0,0-1.5494-10.43656C69.03731,62.80794,71.04629,59.33542,67.12658,54.09994ZM55.01264,66.882a7.4984,7.4984,0,0,0,8.48835,6.2386,25.02322,25.02322,0,0,0,1.145,2.94531c-3.838.46385-7.45732-.62424-9.46031-4.27979-.24167-.44105-.83086-.22846-.96457.16589a4.02523,4.02523,0,0,1-7.574.14928c-.14915-.38877-.74626-.578-.97036-.12775-1.85739,3.73164-5.431,4.9615-9.28433,4.64924a20.5648,20.5648,0,0,0,1.00042-2.99627,7.49711,7.49711,0,0,0,8.26363-6.5601C48.42665,72.89077,52.43843,72.89434,55.01264,66.882ZM37.88605,62.78209a7.49839,7.49839,0,0,0-1.15861,10.47042,25.02282,25.02282,0,0,0-1.97818,2.4643c-2.32071-3.09187-3.18806-6.77035-1.02376-10.33276.26113-.42982-.21758-.83377-.62595-.7524a4.02523,4.02523,0,0,1-3.9163-6.48467c.26212-.32355.12743-.93527-.37454-.90423-4.16038.25727-7.0123-2.22266-8.66852-5.71584a20.56554,20.56554,0,0,0,3.09505-.63175,7.49711,7.49711,0,0,0,9.813,3.87646C29.38934,60.08283,31.39214,63.55891,37.88605,62.78209Zm-5.01263-16.882a7.4984,7.4984,0,0,0-9.647,4.23182,25.02045,25.02045,0,0,0-3.12324-.481c1.51729-3.55573,4.26927-6.14612,8.43656-6.053.5028.01123.61328-.60532.33862-.91829a4.02523,4.02523,0,0,1,3.65774-6.63395c.41126.06522.87368-.35728.59582-.77649-2.303-3.47435-1.58127-7.18415.61581-10.36507a20.565,20.565,0,0,0,2.09463,2.36452,7.49711,7.49711,0,0,0,1.5494,10.43656C30.96269,37.19206,28.95371,40.66458,32.87342,45.90006ZM44.98736,33.118a7.4984,7.4984,0,0,0-8.48835-6.2386,25.02322,25.02322,0,0,0-1.145-2.94531c3.838-.46385,7.45732.62424,9.46031,4.27979.24167.44105.83086.22846.96457-.16589a4.02523,4.02523,0,0,1,7.574-.14928c.14915.38877.74626.578.97036.12775,1.85739-3.73164,5.431-4.9615,9.28433-4.64924a20.5648,20.5648,0,0,0-1.00042,2.99627,7.49711,7.49711,0,0,0-8.26363,6.5601C51.57335,27.10923,47.56157,27.10566,44.98736,33.118ZM69.30107,14.99412c.64817,1.37287,1.24552,2.7811,1.82629,4.20569,3.3839,4.02156,6.50877,8.12547,8.06868,13.16776,3.73658,3.72772,5.91419,8.40372,7.89833,13.27064.99049,1.17714,1.95879,2.36134,2.87215,3.57406-.86486,1.24777-1.78575,2.46921-2.72909,3.68446-1.79082,4.94133-3.78248,9.6995-7.36928,13.57157-1.36,5.09984-4.32074,9.32369-7.54354,13.47547-.52419,1.44636-1.06559,2.877-1.65916,4.27439-1.513-.12511-3.03127-.3119-4.55538-.52123-5.17472.91976-10.29125,1.574-15.438.4038-5.09659,1.37211-10.23493.92-15.44187.20483-1.51468.26922-3.02438.5157-4.53131.70032-.64817-1.37287-1.24552-2.7811-1.82629-4.20569-3.3839-4.02156-6.50877-8.12547-8.06868-13.16776-3.73658-3.72772-5.91419-8.40372-7.89833-13.27064-.99049-1.17714-1.95879-2.36134-2.87215-3.57406.86486-1.24777,1.78575-2.46921,2.72909-3.68446,1.79082-4.94133,3.78248-9.6995,7.36928-13.57157,1.36-5.09984,4.32074-9.32369,7.54354-13.47547.52419-1.44636,1.06559-2.877,1.65916-4.27439,1.513.12511,3.03127.3119,4.55538.52123,5.17472-.91976,10.29125-1.574,15.438-.4038,5.09659-1.37211,10.23493-.92,15.44187-.20483C66.28444,15.42522,67.79414,15.17874,69.30107,14.99412ZM73.483,35.81786a8.41919,8.41919,0,0,0-4.75569-1.88824,8.39056,8.39056,0,0,0-2.41317-11.30474q.23079-.39107.44943-.78963c-1.11716.02014-.86835.175-.97832-.46457-.60063.24883-.33578.37612-.915-.57936q-.22011.39764-.42788.80152a8.39055,8.39055,0,0,0-10.84785,3.99305,8.41915,8.41915,0,0,0-4.13509-3.01383,8.41923,8.41923,0,0,0-4.01311,3.17443A8.39055,8.39055,0,0,0,34.44952,22.184q-.22329-.3954-.45913-.784c-.54114.97757-.28259.83954-.89149.615-.08482.64458.15784.47886-.95925.50275q.23431.38945.4802.77132A8.39056,8.39056,0,0,0,30.654,34.68a8.41911,8.41911,0,0,0-4.67759,2.07417,8.41923,8.41923,0,0,0,.74258,5.06267,8.39056,8.39056,0,0,0-8.5836,7.74224q-.45408-.00433-.90856.0056c.576.95742.58576.66449.08683,1.07953.51581.39575.49362.10273-.04423,1.08211q.45443-.00819.90808-.03021a8.39056,8.39056,0,0,0,8.882,7.398,8.41912,8.41912,0,0,0-.54251,5.088,8.41919,8.41919,0,0,0,4.75569,1.88824,8.39056,8.39056,0,0,0,2.41317,11.30474q-.23079.39107-.44943.78963c1.11716-.02014.86835-.175.97832.46457.60063-.24883.33578-.37612.915.57936q.22011-.39763.42788-.80152a8.39055,8.39055,0,0,0,10.84785-3.99305,8.41915,8.41915,0,0,0,4.13509,3.01383,8.41923,8.41923,0,0,0,4.01311-3.17443A8.39055,8.39055,0,0,0,65.55048,77.816q.22329.3954.45913.784c.54114-.97757.28259-.83954.89149-.615.08482-.64458-.15784-.47886.95925-.50275q-.23431-.38945-.4802-.77132A8.39056,8.39056,0,0,0,69.346,65.32a8.41911,8.41911,0,0,0,4.67759-2.07417,8.41923,8.41923,0,0,0-.74258-5.06267,8.39056,8.39056,0,0,0,8.5836-7.74224q.45408.00433.90856-.0056c-.576-.95742-.58576-.66449-.08683-1.07953-.51581-.39575-.49362-.10273.04423-1.08211q-.45442.00819-.90808.03021a8.39056,8.39056,0,0,0-8.882-7.398A8.41912,8.41912,0,0,0,73.483,35.81786ZM71.37291,11.23647a35.289,35.289,0,0,1,1.46681,6.92919c4.33717,3.11372,8.14137,6.358,10.021,11.9887,4.11523,4.29155,5.21333,9.192,5.946,14.4497a35.29587,35.29587,0,0,1,5.44993,4.52366,35.28949,35.28949,0,0,1-5.26745,4.73489c-.528,5.313-1.43553,10.22965-5.372,14.67277-1.659,5.70967-5.3538,9.11086-9.54078,12.37426a35.29639,35.29639,0,0,1-1.19264,6.98161,35.28917,35.28917,0,0,1-6.73426-2.1943c-4.86514,2.19924-9.5769,3.87162-15.393,2.68406-5.77421,1.41813-10.56714-.0811-15.48682-2.07542a35.29642,35.29642,0,0,1-6.64257,2.45794,35.289,35.289,0,0,1-1.46681-6.92919c-4.33717-3.11372-8.14137-6.358-10.021-11.9887-4.11523-4.29155-5.21333-9.192-5.946-14.4497a35.29587,35.29587,0,0,1-5.44993-4.52366,35.28949,35.28949,0,0,1,5.26745-4.73489c.528-5.313,1.43553-10.22965,5.372-14.67277,1.659-5.70967,5.3538-9.11086,9.54078-12.37426a35.29639,35.29639,0,0,1,1.19264-6.98161,35.28917,35.28917,0,0,1,6.73426,2.1943c4.86514-2.19924,9.5769-3.87162,15.393-2.68406,5.77421-1.41813,10.56714.0811,15.48682,2.07542A35.29642,35.29642,0,0,1,71.37291,11.23647Zm8.7333,20.58141a37.82053,37.82053,0,0,0-7.86388-13.29144,52.26174,52.26174,0,0,0-2.19969-4.8773,52.26346,52.26346,0,0,0-5.29855.743,37.82056,37.82056,0,0,0-15.43716.444,37.8207,37.8207,0,0,0-15.44267.16459,52.266,52.266,0,0,0-5.32371-.53366,52.26437,52.26437,0,0,0-2.0058,4.96019,37.82079,37.82079,0,0,0-7.334,13.591,37.82077,37.82077,0,0,0-7.57879,13.456,52.26574,52.26574,0,0,0-3.124,4.34364,52.26382,52.26382,0,0,0,3.29275,4.21717,37.82066,37.82066,0,0,0,8.10313,13.147,37.82053,37.82053,0,0,0,7.86388,13.29144,52.26174,52.26174,0,0,0,2.19969,4.8773,52.26346,52.26346,0,0,0,5.29855-.743,37.82056,37.82056,0,0,0,15.43716-.444,37.8207,37.8207,0,0,0,15.44267-.16459,52.266,52.266,0,0,0,5.32371.53366,52.26437,52.26437,0,0,0,2.0058-4.96019,37.82079,37.82079,0,0,0,7.334-13.591,37.82077,37.82077,0,0,0,7.57879-13.456,52.26574,52.26574,0,0,0,3.124-4.34364,52.26382,52.26382,0,0,0-3.29275-4.21717A37.82066,37.82066,0,0,0,80.10621,31.81788ZM50.90861,49.45126c-.47483-.14207-.38644-.08046-.47673-.23455-.17861.00589-.07917.04779-.4528-.278-.36045.34018-.2629.29444-.44149.29559-.0842.15762.00181.09246-.46712.25315.11438.48225.12354.3749.03524.53014.09441.15173.081.04467-.01432.53111.47483.14207.38644.08046.47673.23455.17861-.00589.07917-.04779.4528.278.36045-.34018.2629-.29444.44149-.29559.0842-.15762-.00181-.09246.46712-.25315-.11438-.48225-.12354-.3749-.03524-.53014C50.79988,49.83064,50.81331,49.9377,50.90861,49.45126Zm-.12523-.87206a3.12237,3.12237,0,0,1,.83876,1.38883,3.12237,3.12237,0,0,1-.78338,1.4208,3.12236,3.12236,0,0,1-1.62214.032,3.12226,3.12226,0,0,1-.83876-1.38883,3.12234,3.12234,0,0,1,.78338-1.4208A3.12236,3.12236,0,0,1,50.78338,48.5792Z"></path></svg>