<svg width="98" height="119" viewBox="0 0 98 119" fill="none" xmlns="http://www.w3.org/2000/svg">
<path fill-rule="evenodd" clip-rule="evenodd" d="M96.0964 30.6353C99.2672 36.1272 96.7645 41.6537 92.3437 44.2061C84.3133 49.5118 76.233 54.8174 68.1806 60.1162C70.1252 60.6918 71.8537 61.6972 73.2157 63.0087C75.9467 65.7399 76.6986 68.6621 76.2144 72.0967C79.2202 72.4498 81.694 73.7741 83.5038 76.2754C85.9347 79.6348 86.1661 84.2464 81.9184 88.494L62.1428 108.945C61.891 109.206 61.5791 109.408 61.2386 109.531L37.8878 117.991C37.47 118.142 37.0097 118.174 36.5752 118.081C36.1406 117.988 35.7333 117.771 35.4136 117.463L1.41431 84.6465C1.19765 84.4373 1.02097 84.1868 0.896736 83.9125C0.772506 83.6381 0.700864 83.3401 0.686643 83.0393C0.672422 82.7385 0.715751 82.435 0.813553 82.15C0.911354 81.8653 1.06363 81.5992 1.25963 81.3706L4.9565 77.0589L10.5749 54.4444C10.5919 54.376 10.6119 54.3077 10.635 54.2408C10.635 54.2408 12.3202 49.1247 16.4763 45.3083C18.5544 43.4001 21.3665 41.7745 24.8338 41.5029C27.652 41.2822 30.7955 41.969 34.1821 43.8061L50.6332 8.69149C53.1673 2.76552 56.9151 -1.91836 64.1697 0.92924C72.2636 5.35234 69.0058 10.7966 66.8052 17.1506L54.2311 46.6685L83.1873 28.799C83.2411 28.7657 83.2962 28.7348 83.3526 28.7059C88.0349 26.0025 93.1715 26.5726 96.0964 30.6349V30.6353ZM85.5986 32.929L50.3379 54.6887C49.0956 55.3565 48.2164 55.1576 47.5248 54.466C46.6965 53.6652 46.393 52.88 46.8838 51.7179L62.451 15.1748C63.6691 11.6506 65.861 7.07087 63.0637 5.58048C58.5896 2.99738 56.2844 7.83004 54.9745 10.6943L37.3791 48.2516C36.6816 49.4596 35.1185 50.1746 33.8688 49.2132C30.22 46.7282 27.4149 46.0966 25.207 46.2696C22.999 46.4424 21.2247 47.4392 19.71 48.8303C16.826 51.4785 15.3213 55.3584 15.1816 55.7297L9.45912 78.7624C9.36977 79.1221 9.19536 79.4604 8.95414 79.7417L6.3559 82.772L37.6608 112.988L59.0908 105.224L78.4904 85.1616C78.5194 85.1308 78.5502 85.1013 78.5809 85.0731C81.2311 82.4229 80.8544 80.7698 79.6305 79.0785C78.5441 77.577 76.423 76.4873 73.9192 76.8751C72.3827 77.3834 71.6074 77.374 70.5112 76.3625C69.5978 75.449 69.7584 74.439 70.4342 73.2685C72.0236 70.5157 72.0108 68.534 69.8996 66.4526C67.5912 64.1441 64.3219 63.4158 60.2394 65.3112C59.2383 65.7837 57.7633 65.3675 57.1492 64.3042C56.4411 63.078 57.2031 61.5597 57.9187 61.1466L89.4545 40.3951C92.2668 38.7714 94.0829 36.5777 92.4088 33.6778C90.8727 31.0173 87.4817 31.8423 85.5986 32.9294V32.929Z" fill="black"/>
</svg>
