<svg width="215" height="222" viewBox="0 0 215 222" fill="none" xmlns="http://www.w3.org/2000/svg">
<path d="M215 107.5C215 166.871 166.871 215 107.5 215C48.1294 215 0 166.871 0 107.5C0 48.1294 48.1294 0 107.5 0C166.871 0 215 48.1294 215 107.5Z" fill="#F9F5F1"/>
<path fill-rule="evenodd" clip-rule="evenodd" d="M157.362 79.7417C162.515 88.6658 158.448 97.6461 151.264 101.794C138.215 110.415 125.086 119.036 112.001 127.647C115.161 128.582 117.969 130.216 120.182 132.347C124.62 136.785 125.842 141.533 125.055 147.114C129.94 147.688 133.959 149.84 136.9 153.904C140.85 159.363 141.226 166.857 134.324 173.759L102.19 206.991C101.78 207.414 101.274 207.743 100.72 207.943L62.7765 221.69C62.0977 221.936 61.3497 221.987 60.6436 221.836C59.9375 221.685 59.2757 221.333 58.7562 220.832L3.50909 167.507C3.15702 167.167 2.86993 166.76 2.66806 166.314C2.46619 165.869 2.34978 165.384 2.32668 164.895C2.30357 164.407 2.37398 163.913 2.5329 163.45C2.69182 162.988 2.93925 162.555 3.25775 162.184L9.26497 155.178L18.3946 118.43C18.4223 118.319 18.4548 118.208 18.4922 118.099C18.4922 118.099 21.2305 109.786 27.984 103.585C31.3608 100.484 35.9303 97.8423 41.5645 97.401C46.144 97.0424 51.252 98.1584 56.7549 101.144L83.4872 44.0843C87.605 34.4549 93.6948 26.8438 105.483 31.471C118.635 38.6583 113.342 47.505 109.766 57.8299L89.3335 105.795L136.386 76.7579C136.473 76.7039 136.563 76.6535 136.654 76.6066C144.263 72.2137 152.61 73.1407 157.362 79.7417ZM140.304 83.4689L83.0074 118.827C80.9887 119.912 79.5599 119.589 78.4361 118.465C77.0902 117.164 76.5971 115.888 77.3945 114L102.69 54.6193C104.67 48.8927 108.232 41.4509 103.686 39.029C96.4159 34.8317 92.67 42.6845 90.5415 47.3387L61.9499 108.367C60.8165 110.33 58.2766 111.492 56.2459 109.93C50.3168 105.892 45.7586 104.866 42.171 105.147C38.5831 105.428 35.6999 107.047 33.2386 109.308C28.5523 113.611 26.1072 119.916 25.8802 120.519L16.5815 157.946C16.4363 158.53 16.1529 159.08 15.7609 159.537L11.5389 164.461L62.4077 213.56L97.2304 200.945L128.754 168.344C128.801 168.294 128.851 168.246 128.901 168.2C133.207 163.894 132.595 161.208 130.606 158.459C128.841 156.019 125.394 154.249 121.326 154.879C118.829 155.705 117.569 155.69 115.788 154.046C114.304 152.562 114.565 150.921 115.663 149.018C118.245 144.545 118.225 141.325 114.794 137.943C111.043 134.192 105.731 133.008 99.0967 136.088C97.4699 136.856 95.0732 136.18 94.0752 134.452C92.9246 132.459 94.1629 129.992 95.3257 129.321L146.57 95.6009C151.14 92.9625 154.091 89.3979 151.37 84.6857C148.874 80.3625 143.364 81.7024 140.304 83.4689Z" fill="white"/>
</svg>
