<svg width="197" height="85" viewBox="0 0 197 85" fill="none" xmlns="http://www.w3.org/2000/svg">
<path d="M195.577 40.2234L193.224 42.5763M156.425 3.92379L158.813 1.53613M195.577 33.9475L186.949 42.5748M156.425 10.291L165.18 1.53624M195.577 27.6741L180.675 42.5759M156.425 16.6591L171.547 1.53733M195.577 21.3999L174.401 42.576M156.425 23.0254L177.914 1.53646M195.577 15.1249L168.126 42.5754M156.425 29.3925L184.281 1.53656M195.577 8.85067L161.852 42.5756M156.425 35.7597L190.648 1.53667M195.577 2.57628L155.839 42.3142" stroke="#FFFFFE" stroke-width="2"/>
<path d="M5.02594 64.0639C5.00727 63.9053 4.97927 63.7186 4.94194 63.5039C4.91394 63.2986 4.8766 63.0979 4.82994 62.9019C4.78327 62.6966 4.73194 62.5286 4.67594 62.3979H5.83794C6.03394 62.3979 6.17394 62.3699 6.25794 62.3139C6.34194 62.2486 6.38394 62.1226 6.38394 61.9359V55.3419H2.53394V53.8019H7.97994V55.0619C8.0546 55.3139 8.1386 55.5706 8.23194 55.8319C8.3346 56.0839 8.4466 56.3313 8.56794 56.5739C8.90394 56.3033 9.2586 55.9906 9.63194 55.6359C10.0146 55.2813 10.3786 54.9173 10.7239 54.5439C11.0786 54.1706 11.3773 53.8206 11.6199 53.4939L12.9219 54.4879C12.5859 54.8706 12.2126 55.2673 11.8019 55.6779C11.4006 56.0793 10.9899 56.4713 10.5699 56.8539C10.1499 57.2366 9.7346 57.5819 9.32394 57.8899C9.8746 58.7206 10.5279 59.4906 11.2839 60.1999C12.0399 60.9093 12.8286 61.5113 13.6499 62.0059C13.4446 62.1833 13.2206 62.4073 12.9779 62.6779C12.7446 62.9393 12.5626 63.1679 12.4319 63.3639C11.8533 62.9719 11.2839 62.5053 10.7239 61.9639C10.1639 61.4133 9.64594 60.8159 9.16994 60.1719C8.70327 59.5279 8.3066 58.8746 7.97994 58.2119V62.5519C7.97994 63.5599 7.3826 64.0639 6.18794 64.0639H5.02594ZM1.49794 63.5879C1.35794 63.4013 1.17594 63.1959 0.951938 62.9719C0.727938 62.7386 0.522604 62.5566 0.335938 62.4259C1.3066 61.8473 2.10927 61.1379 2.74394 60.2979C3.3786 59.4579 3.80794 58.5946 4.03194 57.7079H0.811938V56.2239H5.82394C5.76794 57.3533 5.5486 58.3753 5.16594 59.2899C4.7926 60.2046 4.29327 61.0166 3.66794 61.7259C3.0426 62.4353 2.31927 63.0559 1.49794 63.5879ZM8.48394 53.6899C8.2506 53.5966 7.95194 53.4893 7.58794 53.3679C7.22394 53.2466 6.8366 53.1299 6.42594 53.0179C6.01527 52.8966 5.62327 52.7939 5.24994 52.7099C4.88594 52.6166 4.5826 52.5513 4.33994 52.5139L4.91394 51.0439C5.16594 51.0906 5.4786 51.1606 5.85194 51.2539C6.22527 51.3473 6.6126 51.4546 7.01394 51.5759C7.41527 51.6973 7.79794 51.8186 8.16194 51.9399C8.52594 52.0613 8.83394 52.1686 9.08594 52.2619C8.98327 52.4673 8.87127 52.7099 8.74994 52.9899C8.63794 53.2606 8.54927 53.4939 8.48394 53.6899Z" fill="white"/>
<path d="M21.7279 62.0759V59.6539C21.2613 60.0179 20.7666 60.3586 20.2439 60.6759C19.7213 60.9933 19.2453 61.2453 18.8159 61.4319C18.7413 61.2733 18.6106 61.0726 18.4239 60.8299C18.2466 60.5779 18.0879 60.3819 17.9479 60.2419C18.2093 60.1579 18.5219 60.0319 18.8859 59.8639C19.2499 59.6866 19.6233 59.4859 20.0059 59.2619C20.3979 59.0286 20.7619 58.7906 21.0979 58.5479H19.0819V55.5519H25.8019V58.1139L26.8659 58.9539C26.7539 59.0753 26.5953 59.2433 26.3899 59.4579C26.1846 59.6633 25.9746 59.8639 25.7599 60.0599C26.0586 60.2093 26.3386 60.3446 26.5999 60.4659C26.8613 60.5873 27.0946 60.6806 27.2999 60.7459C27.2159 60.8113 27.1133 60.9186 26.9919 61.0679C26.8799 61.2173 26.7679 61.3713 26.6559 61.5299C26.5533 61.6793 26.4739 61.8053 26.4179 61.9079C26.1473 61.7959 25.8299 61.6466 25.4659 61.4599C25.1113 61.2639 24.7379 61.0446 24.3459 60.8019C23.9633 60.5593 23.5899 60.3073 23.2259 60.0459V62.0759H21.7279ZM22.3719 63.8399C21.3826 63.8399 20.5566 63.7886 19.8939 63.6859C19.2313 63.5926 18.6853 63.4433 18.2559 63.2379C17.8266 63.0419 17.4626 62.7946 17.1639 62.4959C16.9959 62.6266 16.7813 62.7759 16.5199 62.9439C16.2586 63.1026 15.9926 63.2613 15.7219 63.4199C15.4606 63.5786 15.2319 63.7139 15.0359 63.8259L14.3919 62.2439C14.5506 62.1879 14.7513 62.1086 14.9939 62.0059C15.2459 61.9033 15.4933 61.7959 15.7359 61.6839C15.9879 61.5626 16.1793 61.4553 16.3099 61.3619V57.8199H14.6999V56.3639H17.8499V61.1519C18.0179 61.6093 18.4613 61.9313 19.1799 62.1179C19.8986 62.2953 20.9626 62.3839 22.3719 62.3839C23.5666 62.3839 24.5933 62.3653 25.4519 62.3279C26.3106 62.2906 27.0059 62.2346 27.5379 62.1599C27.4913 62.2626 27.4399 62.4213 27.3839 62.6359C27.3279 62.8413 27.2813 63.0513 27.2439 63.2659C27.2066 63.4899 27.1833 63.6719 27.1739 63.8119C26.9126 63.8119 26.5719 63.8119 26.1519 63.8119C25.7319 63.8213 25.2839 63.8259 24.8079 63.8259C24.3413 63.8353 23.8933 63.8399 23.4639 63.8399C23.0346 63.8399 22.6706 63.8399 22.3719 63.8399ZM18.0599 55.0339V53.8859H21.7559V53.2279H18.8859V52.0519H21.7559V51.1699H23.3379V52.0519H26.2219V53.2279H23.3379V53.8859H27.2299V55.0339H18.0599ZM16.9679 54.6279C16.8093 54.4133 16.6086 54.1753 16.3659 53.9139C16.1233 53.6526 15.8666 53.3959 15.5959 53.1439C15.3253 52.8826 15.0686 52.6633 14.8259 52.4859L15.9179 51.5059C16.1326 51.6553 16.3799 51.8559 16.6599 52.1079C16.9493 52.3506 17.2246 52.6073 17.4859 52.8779C17.7566 53.1393 17.9713 53.3726 18.1299 53.5779C18.0366 53.6433 17.9106 53.7413 17.7519 53.8719C17.5933 54.0026 17.4393 54.1379 17.2899 54.2779C17.1499 54.4086 17.0426 54.5253 16.9679 54.6279ZM20.6219 57.4839H24.2479V56.6159H20.6219V57.4839ZM24.5699 59.3739C24.7006 59.2526 24.8359 59.1173 24.9759 58.9679C25.1253 58.8186 25.2606 58.6786 25.3819 58.5479H23.3519C23.5293 58.6786 23.7206 58.8186 23.9259 58.9679C24.1313 59.1079 24.3459 59.2433 24.5699 59.3739Z" fill="white"/>
<path d="M30.1279 63.5599C29.9879 62.8226 29.8853 61.9126 29.8199 60.8299C29.7546 59.7473 29.7219 58.5993 29.7219 57.3859C29.7219 56.7606 29.7453 56.1166 29.7919 55.4539C29.8479 54.7819 29.9133 54.1473 29.9879 53.5499C30.0626 52.9433 30.1373 52.4346 30.2119 52.0239C30.4266 52.0799 30.7113 52.1313 31.0659 52.1779C31.4206 52.2246 31.7239 52.2573 31.9759 52.2759C31.8546 52.7613 31.7426 53.3119 31.6399 53.9279C31.5466 54.5346 31.4673 55.1459 31.4019 55.7619C31.3459 56.3779 31.3179 56.9379 31.3179 57.4419C31.3179 58.1886 31.3366 58.9306 31.3739 59.6679C31.4206 60.3959 31.4813 61.0633 31.5559 61.6699C31.6306 62.2766 31.7099 62.7759 31.7939 63.1679C31.5606 63.1959 31.2759 63.2473 30.9399 63.3219C30.6039 63.4059 30.3333 63.4853 30.1279 63.5599ZM36.3019 62.8039C35.0979 62.7946 34.2486 62.5099 33.7539 61.9499C33.2686 61.3899 33.2219 60.5313 33.6139 59.3739L35.0699 59.7239C34.9113 60.1439 34.9299 60.4893 35.1259 60.7599C35.3313 61.0213 35.8259 61.1566 36.6099 61.1659C37.3193 61.1753 38.0379 61.1426 38.7659 61.0679C39.4939 60.9839 40.1426 60.8766 40.7119 60.7459C40.6933 60.8766 40.6699 61.0539 40.6419 61.2779C40.6233 61.5019 40.6093 61.7259 40.5999 61.9499C40.5906 62.1739 40.5906 62.3606 40.5999 62.5099C40.1893 62.5753 39.7273 62.6313 39.2139 62.6779C38.7006 62.7246 38.1873 62.7573 37.6739 62.7759C37.1699 62.7946 36.7126 62.8039 36.3019 62.8039ZM33.8799 54.8519C33.8893 54.6653 33.8893 54.4646 33.8799 54.2499C33.8706 54.0259 33.8566 53.8113 33.8379 53.6059C33.8286 53.4006 33.8146 53.2419 33.7959 53.1299C34.0946 53.1766 34.4539 53.2093 34.8739 53.2279C35.2939 53.2466 35.7419 53.2559 36.2179 53.2559C36.6939 53.2559 37.1699 53.2419 37.6459 53.2139C38.1313 53.1859 38.5793 53.1486 38.9899 53.1019C39.4006 53.0459 39.7459 52.9806 40.0259 52.9059C40.0166 53.0459 40.0026 53.2233 39.9839 53.4379C39.9746 53.6433 39.9653 53.8533 39.9559 54.0679C39.9559 54.2733 39.9559 54.4506 39.9559 54.5999C39.5639 54.6653 39.0973 54.7213 38.5559 54.7679C38.0146 54.8146 37.4546 54.8519 36.8759 54.8799C36.2973 54.8986 35.7419 54.9079 35.2099 54.9079C34.6873 54.8986 34.2439 54.8799 33.8799 54.8519Z" fill="white"/>
<path d="M45.1359 64.0079V59.2059C44.8746 59.6539 44.6039 60.0739 44.3239 60.4659C44.0533 60.8579 43.8059 61.1753 43.5819 61.4179C43.5166 61.3246 43.4093 61.2126 43.2599 61.0819C43.1106 60.9419 42.9519 60.8113 42.7839 60.6899C42.6253 60.5593 42.4853 60.4613 42.3639 60.3959C42.5879 60.1813 42.8306 59.9106 43.0919 59.5839C43.3533 59.2573 43.6053 58.9026 43.8479 58.5199C44.0999 58.1279 44.3286 57.7359 44.5339 57.3439C44.7486 56.9519 44.9213 56.5879 45.0519 56.2519H42.7559V54.7679H45.1359V53.6339C44.4173 53.7739 43.7873 53.8673 43.2459 53.9139C43.2366 53.8019 43.1993 53.6573 43.1339 53.4799C43.0779 53.2933 43.0079 53.1113 42.9239 52.9339C42.8493 52.7566 42.7793 52.6213 42.7139 52.5279C43.0219 52.5186 43.4139 52.4766 43.8899 52.4019C44.3753 52.3273 44.8793 52.2293 45.4019 52.1079C45.9246 51.9866 46.4146 51.8513 46.8719 51.7019C47.3293 51.5526 47.6933 51.4033 47.9639 51.2539L48.7899 52.5699C48.5286 52.6913 48.2206 52.8126 47.8659 52.9339C47.5113 53.0459 47.1379 53.1533 46.7459 53.2559V54.7679H48.9019V56.2519H46.7459V56.7559C46.9046 56.9426 47.1146 57.1666 47.3759 57.4279C47.6373 57.6893 47.9079 57.9413 48.1879 58.1839C48.4773 58.4266 48.7246 58.6273 48.9299 58.7859C48.8366 58.8699 48.7246 58.9866 48.5939 59.1359C48.4633 59.2759 48.3373 59.4253 48.2159 59.5839C48.0946 59.7333 48.0013 59.8686 47.9359 59.9899C47.7773 59.8406 47.5906 59.6539 47.3759 59.4299C47.1613 59.2059 46.9513 58.9726 46.7459 58.7299V64.0079H45.1359ZM54.0259 63.6859C53.9793 63.4713 53.9186 63.2473 53.8439 63.0139C53.7786 62.7806 53.7086 62.5333 53.6339 62.2719C53.2233 62.3559 52.7426 62.4539 52.1919 62.5659C51.6413 62.6686 51.0766 62.7713 50.4979 62.8739C49.9286 62.9766 49.3919 63.0699 48.8879 63.1539C48.3933 63.2379 47.9873 63.3033 47.6699 63.3499L47.3339 61.6979C47.4926 61.6793 47.6746 61.6606 47.8799 61.6419C48.0946 61.6233 48.3279 61.5999 48.5799 61.5719C48.7479 61.0399 48.9113 60.4333 49.0699 59.7519C49.2379 59.0613 49.4013 58.3379 49.5599 57.5819C49.7186 56.8259 49.8586 56.0793 49.9799 55.3419C50.1106 54.5953 50.2226 53.8953 50.3159 53.2419C50.4093 52.5886 50.4746 52.0193 50.5119 51.5339L52.2759 51.8559C52.1733 52.5093 52.0426 53.2513 51.8839 54.0819C51.7346 54.9033 51.5666 55.7526 51.3799 56.6299C51.1933 57.4979 51.0019 58.3426 50.8059 59.1639C50.6193 59.9853 50.4373 60.7179 50.2599 61.3619C50.7733 61.2873 51.2819 61.2126 51.7859 61.1379C52.2899 61.0539 52.7426 60.9746 53.1439 60.8999C52.9013 60.2559 52.6399 59.6353 52.3599 59.0379C52.0893 58.4406 51.8326 57.9506 51.5899 57.5679L53.1159 57.0779C53.3399 57.4326 53.5779 57.8713 53.8299 58.3939C54.0819 58.9073 54.3293 59.4486 54.5719 60.0179C54.8146 60.5873 55.0293 61.1379 55.2159 61.6699C55.4119 62.1926 55.5613 62.6499 55.6639 63.0419L54.0259 63.6859Z" fill="white"/>
<path d="M63.6439 63.7139C62.7759 63.7139 62.0993 63.5226 61.6139 63.1399C61.1286 62.7573 60.8859 62.2253 60.8859 61.5439C60.8859 60.8533 61.1146 60.3213 61.5719 59.9479C62.0386 59.5746 62.7386 59.3879 63.6719 59.3879C63.8119 59.3879 63.9566 59.3973 64.1059 59.4159C64.2553 59.4253 64.4046 59.4393 64.5539 59.4579C64.5446 58.9446 64.5306 58.3799 64.5119 57.7639C64.4933 57.1479 64.4746 56.5273 64.4559 55.9019C63.6999 55.9206 62.9719 55.9393 62.2719 55.9579C61.5813 55.9766 61.0259 55.9953 60.6059 56.0139C60.6153 55.8739 60.6153 55.6966 60.6059 55.4819C60.5966 55.2673 60.5873 55.0573 60.5779 54.8519C60.5686 54.6466 60.5593 54.4926 60.5499 54.3899C60.9606 54.3993 61.5113 54.4039 62.2019 54.4039C62.9019 54.4039 63.6346 54.3946 64.3999 54.3759C64.3813 53.7413 64.3579 53.1859 64.3299 52.7099C64.3113 52.2339 64.2879 51.9073 64.2599 51.7299C64.4093 51.7393 64.6006 51.7533 64.8339 51.7719C65.0673 51.7813 65.2959 51.7859 65.5199 51.7859C65.7533 51.7859 65.9399 51.7859 66.0799 51.7859C66.0706 51.9446 66.0613 52.2573 66.0519 52.7239C66.0426 53.1813 66.0426 53.7179 66.0519 54.3339C66.7333 54.3059 67.3539 54.2779 67.9139 54.2499C68.4739 54.2219 68.8846 54.1939 69.1459 54.1659C69.1273 54.3059 69.1133 54.4833 69.1039 54.6979C69.0946 54.9033 69.0899 55.1086 69.0899 55.3139C69.0899 55.5193 69.0946 55.6873 69.1039 55.8179C68.8333 55.8273 68.4273 55.8366 67.8859 55.8459C67.3446 55.8459 66.7426 55.8553 66.0799 55.8739C66.0986 56.5833 66.1173 57.2926 66.1359 58.0019C66.1639 58.7113 66.1826 59.3273 66.1919 59.8499C67.3773 60.2233 68.4973 60.7366 69.5519 61.3899C69.3933 61.5859 69.2206 61.8286 69.0339 62.1179C68.8566 62.4073 68.7166 62.6593 68.6139 62.8739C68.2499 62.5939 67.8673 62.3419 67.4659 62.1179C67.0646 61.8846 66.6586 61.6793 66.2479 61.5019C66.2479 62.9766 65.3799 63.7139 63.6439 63.7139ZM57.7219 63.7979C57.6473 63.3313 57.5773 62.7666 57.5119 62.1039C57.4559 61.4413 57.4139 60.7086 57.3859 59.9059C57.3579 59.0939 57.3486 58.2493 57.3579 57.3719C57.3673 56.6719 57.4046 55.9719 57.4699 55.2719C57.5353 54.5719 57.6099 53.9186 57.6939 53.3119C57.7873 52.6959 57.8666 52.1686 57.9319 51.7299C58.0813 51.7579 58.2633 51.7953 58.4779 51.8419C58.6926 51.8793 58.9073 51.9119 59.1219 51.9399C59.3459 51.9679 59.5373 51.9913 59.6959 52.0099C59.5839 52.4486 59.4719 52.9713 59.3599 53.5779C59.2479 54.1753 59.1546 54.8099 59.0799 55.4819C59.0053 56.1539 58.9633 56.8119 58.9539 57.4559C58.9446 58.2679 58.9539 59.0613 58.9819 59.8359C59.0193 60.6013 59.0706 61.3013 59.1359 61.9359C59.2013 62.5613 59.2759 63.0746 59.3599 63.4759C59.2199 63.4853 59.0426 63.5039 58.8279 63.5319C58.6226 63.5693 58.4173 63.6113 58.2119 63.6579C58.0159 63.7046 57.8526 63.7513 57.7219 63.7979ZM63.5179 62.2299C63.9753 62.2299 64.2786 62.1599 64.4279 62.0199C64.5773 61.8706 64.6426 61.6373 64.6239 61.3199C64.6146 61.2826 64.6099 61.2359 64.6099 61.1799C64.6099 61.1146 64.6099 61.0399 64.6099 60.9559C64.2459 60.8719 63.9099 60.8299 63.6019 60.8299C63.2006 60.8299 62.9113 60.8906 62.7339 61.0119C62.5566 61.1239 62.4679 61.3013 62.4679 61.5439C62.4679 61.7493 62.5613 61.9173 62.7479 62.0479C62.9439 62.1693 63.2006 62.2299 63.5179 62.2299Z" fill="white"/>
<path d="M72.3239 63.5739V53.0879H75.1099C75.1939 52.8733 75.2779 52.6353 75.3619 52.3739C75.4553 52.1126 75.5346 51.8699 75.5999 51.6459C75.6746 51.4219 75.7166 51.2679 75.7259 51.1839L77.7699 51.3799C77.7139 51.5573 77.6066 51.8139 77.4479 52.1499C77.2986 52.4766 77.1493 52.7893 76.9999 53.0879H81.6899V63.5739H72.3239ZM74.0739 62.0899H79.9399V60.5499H74.0739V62.0899ZM74.0739 59.0939H79.9399V57.5539H74.0739V59.0939ZM74.0739 56.1119H79.9399V54.5719H74.0739V56.1119Z" fill="white"/>
<path d="M86.1419 64.0219C86.0766 63.8353 85.9553 63.5926 85.7779 63.2939C85.6099 63.0046 85.4326 62.7713 85.2459 62.5939C86.4593 62.2579 87.4019 61.7026 88.0739 60.9279C88.7459 60.1439 89.1426 59.2293 89.2639 58.1839H87.1499V56.9379C86.8513 57.2179 86.5479 57.4793 86.2399 57.7219C85.9413 57.9553 85.6426 58.1653 85.3439 58.3519C85.2226 58.1653 85.0406 57.9413 84.7979 57.6799C84.5646 57.4186 84.3406 57.1993 84.1259 57.0219C84.6579 56.7326 85.1899 56.3546 85.7219 55.8879C86.2633 55.4119 86.7533 54.8846 87.1919 54.3059C87.6399 53.7273 87.9853 53.1439 88.2279 52.5559L89.8239 53.3539C89.5626 53.9233 89.2359 54.4786 88.8439 55.0199C88.4519 55.5613 88.0226 56.0653 87.5559 56.5319H94.3739C93.8699 56.0559 93.4266 55.5333 93.0439 54.9639C92.6706 54.3946 92.3999 53.7926 92.2319 53.1579H89.9219V51.5759H93.6039C93.7346 52.6306 94.1779 53.5919 94.9339 54.4599C95.6899 55.3186 96.6793 56.0419 97.9019 56.6299C97.7713 56.7513 97.6266 56.9053 97.4679 57.0919C97.3186 57.2786 97.1739 57.4699 97.0339 57.6659C96.9033 57.8526 96.7959 58.0206 96.7119 58.1699C96.4226 58.0206 96.1379 57.8573 95.8579 57.6799C95.5873 57.5026 95.3166 57.3113 95.0459 57.1059C95.0366 57.6939 95.0086 58.3146 94.9619 58.9679C94.9246 59.6119 94.8686 60.2233 94.7939 60.8019C94.7286 61.3713 94.6446 61.8333 94.5419 62.1879C94.3646 62.8506 94.0659 63.3033 93.6459 63.5459C93.2353 63.7979 92.6706 63.9239 91.9519 63.9239H90.8319C90.8133 63.7653 90.7853 63.5739 90.7479 63.3499C90.7106 63.1353 90.6639 62.9253 90.6079 62.7199C90.5613 62.5053 90.5099 62.3326 90.4539 62.2019H91.6999C92.0733 62.2019 92.3439 62.1459 92.5119 62.0339C92.6893 61.9219 92.8293 61.7073 92.9319 61.3899C93.0066 61.1566 93.0673 60.8486 93.1139 60.4659C93.1699 60.0739 93.2119 59.6726 93.2399 59.2619C93.2679 58.8419 93.2819 58.4826 93.2819 58.1839H90.9579C90.8366 59.5373 90.3793 60.7319 89.5859 61.7679C88.8019 62.7946 87.6539 63.5459 86.1419 64.0219Z" fill="white"/>
<path d="M100.324 63.5739V53.0879H103.11C103.194 52.8733 103.278 52.6353 103.362 52.3739C103.455 52.1126 103.535 51.8699 103.6 51.6459C103.675 51.4219 103.717 51.2679 103.726 51.1839L105.77 51.3799C105.714 51.5573 105.607 51.8139 105.448 52.1499C105.299 52.4766 105.149 52.7893 105 53.0879H109.69V63.5739H100.324ZM102.074 62.0899H107.94V60.5499H102.074V62.0899ZM102.074 59.0939H107.94V57.5539H102.074V59.0939ZM102.074 56.1119H107.94V54.5719H102.074V56.1119Z" fill="white"/>
<path d="M113.456 64.2459C113.4 64.0406 113.297 63.7886 113.148 63.4899C113.008 63.2006 112.868 62.9626 112.728 62.7759C113.895 62.4773 115.071 62.0619 116.256 61.5299C117.451 60.9979 118.585 60.3633 119.658 59.6259C119.107 59.7006 118.519 59.7799 117.894 59.8639C117.278 59.9386 116.671 60.0133 116.074 60.0879C115.486 60.1533 114.949 60.2139 114.464 60.2699C113.979 60.3166 113.596 60.3539 113.316 60.3819L112.994 58.8979C113.274 58.8793 113.629 58.8559 114.058 58.8279C114.497 58.7999 114.968 58.7673 115.472 58.7299V52.4999H117.614C117.707 52.2759 117.796 52.0193 117.88 51.7299C117.973 51.4313 118.043 51.2026 118.09 51.0439L119.924 51.1839C119.859 51.3799 119.775 51.6086 119.672 51.8699C119.579 52.1219 119.499 52.3319 119.434 52.4999H122.864V56.8259C123.461 56.1633 123.979 55.4539 124.418 54.6979L125.804 55.5939C125.393 56.2473 124.936 56.8633 124.432 57.4419C123.937 58.0113 123.415 58.5479 122.864 59.0519V62.6499C122.864 63.1633 122.724 63.5413 122.444 63.7839C122.164 64.0266 121.721 64.1479 121.114 64.1479H119.938C119.929 63.9893 119.901 63.8073 119.854 63.6019C119.817 63.3966 119.775 63.1959 119.728 62.9999C119.681 62.7946 119.63 62.6313 119.574 62.5099H120.666C120.853 62.5099 120.988 62.4773 121.072 62.4119C121.165 62.3466 121.212 62.2206 121.212 62.0339V60.4099C120.027 61.2873 118.771 62.0433 117.446 62.6779C116.121 63.3033 114.791 63.8259 113.456 64.2459ZM117.18 58.6039C117.955 58.5386 118.701 58.4733 119.42 58.4079C120.139 58.3426 120.736 58.2773 121.212 58.2119V57.5679H117.18V58.6039ZM117.18 56.4339H121.212V55.6919H117.18V56.4339ZM117.18 54.5579H121.212V53.8159H117.18V54.5579Z" fill="white"/>
<path d="M128.128 63.5599C127.988 62.8226 127.885 61.9126 127.82 60.8299C127.755 59.7473 127.722 58.5993 127.722 57.3859C127.722 56.7606 127.745 56.1166 127.792 55.4539C127.848 54.7819 127.913 54.1473 127.988 53.5499C128.063 52.9433 128.137 52.4346 128.212 52.0239C128.427 52.0799 128.711 52.1313 129.066 52.1779C129.421 52.2246 129.724 52.2573 129.976 52.2759C129.855 52.7613 129.743 53.3119 129.64 53.9279C129.547 54.5346 129.467 55.1459 129.402 55.7619C129.346 56.3779 129.318 56.9379 129.318 57.4419C129.318 58.1886 129.337 58.9306 129.374 59.6679C129.421 60.3959 129.481 61.0633 129.556 61.6699C129.631 62.2766 129.71 62.7759 129.794 63.1679C129.561 63.1959 129.276 63.2473 128.94 63.3219C128.604 63.4059 128.333 63.4853 128.128 63.5599ZM134.302 62.8039C133.098 62.7946 132.249 62.5099 131.754 61.9499C131.269 61.3899 131.222 60.5313 131.614 59.3739L133.07 59.7239C132.911 60.1439 132.93 60.4893 133.126 60.7599C133.331 61.0213 133.826 61.1566 134.61 61.1659C135.319 61.1753 136.038 61.1426 136.766 61.0679C137.494 60.9839 138.143 60.8766 138.712 60.7459C138.693 60.8766 138.67 61.0539 138.642 61.2779C138.623 61.5019 138.609 61.7259 138.6 61.9499C138.591 62.1739 138.591 62.3606 138.6 62.5099C138.189 62.5753 137.727 62.6313 137.214 62.6779C136.701 62.7246 136.187 62.7573 135.674 62.7759C135.17 62.7946 134.713 62.8039 134.302 62.8039ZM131.88 54.8519C131.889 54.6653 131.889 54.4646 131.88 54.2499C131.871 54.0259 131.857 53.8113 131.838 53.6059C131.829 53.4006 131.815 53.2419 131.796 53.1299C132.095 53.1766 132.454 53.2093 132.874 53.2279C133.294 53.2466 133.742 53.2559 134.218 53.2559C134.694 53.2559 135.17 53.2419 135.646 53.2139C136.131 53.1859 136.579 53.1486 136.99 53.1019C137.401 53.0459 137.746 52.9806 138.026 52.9059C138.017 53.0459 138.003 53.2233 137.984 53.4379C137.975 53.6433 137.965 53.8533 137.956 54.0679C137.956 54.2733 137.956 54.4506 137.956 54.5999C137.564 54.6653 137.097 54.7213 136.556 54.7679C136.015 54.8146 135.455 54.8519 134.876 54.8799C134.297 54.8986 133.742 54.9079 133.21 54.9079C132.687 54.8986 132.244 54.8799 131.88 54.8519Z" fill="white"/>
<path d="M147.224 63.6579C146.113 63.6579 145.222 63.5413 144.55 63.3079C143.878 63.0839 143.393 62.7433 143.094 62.2859C142.805 61.8193 142.66 61.2359 142.66 60.5359C142.66 59.7613 142.903 59.0846 143.388 58.5059C143.873 57.9179 144.573 57.4093 145.488 56.9799C145.441 56.6066 145.399 56.1679 145.362 55.6639C145.325 55.1506 145.292 54.6279 145.264 54.0959C145.245 53.5546 145.231 53.0553 145.222 52.5979C145.213 52.1313 145.213 51.7533 145.222 51.4639C145.39 51.4733 145.6 51.4826 145.852 51.4919C146.104 51.5013 146.347 51.5059 146.58 51.5059C146.823 51.4966 147.009 51.4919 147.14 51.4919C147.112 51.7626 147.093 52.1033 147.084 52.5139C147.075 52.9246 147.07 53.3633 147.07 53.8299C147.079 54.2966 147.093 54.7493 147.112 55.1879C147.14 55.6266 147.168 56.0093 147.196 56.3359C147.728 56.1679 148.302 56.0186 148.918 55.8879C149.534 55.7479 150.187 55.6266 150.878 55.5239C150.887 55.6826 150.897 55.8693 150.906 56.0839C150.925 56.2986 150.948 56.5133 150.976 56.7279C151.004 56.9333 151.032 57.1059 151.06 57.2459C148.857 57.4979 147.191 57.8993 146.062 58.4499C144.942 58.9913 144.382 59.6633 144.382 60.4659C144.382 60.8206 144.471 61.1146 144.648 61.3479C144.825 61.5719 145.138 61.7399 145.586 61.8519C146.043 61.9639 146.683 62.0199 147.504 62.0199C147.765 62.0199 148.092 62.0059 148.484 61.9779C148.876 61.9499 149.282 61.9173 149.702 61.8799C150.131 61.8426 150.523 61.8053 150.878 61.7679C151.233 61.7306 151.499 61.7026 151.676 61.6839C151.629 61.8426 151.583 62.0386 151.536 62.2719C151.499 62.5053 151.471 62.7293 151.452 62.9439C151.433 63.1586 151.424 63.3266 151.424 63.4479C151.172 63.4759 150.869 63.4993 150.514 63.5179C150.159 63.5459 149.781 63.5693 149.38 63.5879C148.988 63.6066 148.601 63.6206 148.218 63.6299C147.845 63.6486 147.513 63.6579 147.224 63.6579Z" fill="white"/>
<path d="M159.418 63.1959C159.343 62.9719 159.236 62.7199 159.096 62.4399C158.965 62.1506 158.835 61.9266 158.704 61.7679C159.049 61.7213 159.427 61.6653 159.838 61.5999C160.258 61.5346 160.673 61.4599 161.084 61.3759C161.504 61.2919 161.882 61.2126 162.218 61.1379C162.965 60.9606 163.492 60.6853 163.8 60.3119C164.108 59.9386 164.211 59.5093 164.108 59.0239C164.015 58.5386 163.786 58.1979 163.422 58.0019C163.058 57.7966 162.568 57.7173 161.952 57.7639C161.588 57.7919 161.177 57.8479 160.72 57.9319C160.272 58.0159 159.815 58.1186 159.348 58.2399C158.891 58.3519 158.452 58.4686 158.032 58.5899C157.612 58.7019 157.253 58.8093 156.954 58.9119C156.926 58.7906 156.87 58.6413 156.786 58.4639C156.711 58.2773 156.623 58.0906 156.52 57.9039C156.427 57.7079 156.333 57.5446 156.24 57.4139C156.464 57.3673 156.823 57.2926 157.318 57.1899C157.822 57.0873 158.41 56.9753 159.082 56.8539C159.754 56.7233 160.454 56.6113 161.182 56.5179C162.517 56.3406 163.539 56.4479 164.248 56.8399C164.967 57.2319 165.405 57.8853 165.564 58.7999C165.667 59.3599 165.639 59.8873 165.48 60.3819C165.331 60.8673 165.023 61.2919 164.556 61.6559C164.099 62.0199 163.459 62.3093 162.638 62.5239C162.125 62.6546 161.574 62.7806 160.986 62.9019C160.407 63.0233 159.885 63.1213 159.418 63.1959Z" fill="white"/>
<path d="M179.242 63.4619C177.739 63.3873 176.517 63.1306 175.574 62.6919C174.641 62.2533 173.955 61.6606 173.516 60.9139C173.087 60.1673 172.872 59.3039 172.872 58.3239C172.872 57.4653 173.049 56.7046 173.404 56.0419C173.768 55.3793 174.277 54.8053 174.93 54.3199C174.165 54.4226 173.404 54.5253 172.648 54.6279C171.901 54.7306 171.22 54.8286 170.604 54.9219C169.997 55.0059 169.507 55.0806 169.134 55.1459C169.134 55.0059 169.115 54.8286 169.078 54.6139C169.05 54.3899 169.017 54.1706 168.98 53.9559C168.943 53.7319 168.905 53.5546 168.868 53.4239C169.307 53.3959 169.834 53.3586 170.45 53.3119C171.075 53.2559 171.752 53.1906 172.48 53.1159C173.208 53.0413 173.95 52.9573 174.706 52.8639C175.471 52.7706 176.204 52.6773 176.904 52.5839C177.613 52.4906 178.257 52.3973 178.836 52.3039C179.424 52.2013 179.9 52.1079 180.264 52.0239C180.311 52.1639 180.367 52.3366 180.432 52.5419C180.507 52.7473 180.581 52.9526 180.656 53.1579C180.731 53.3633 180.801 53.5359 180.866 53.6759C180.661 53.6853 180.437 53.6946 180.194 53.7039C179.961 53.7133 179.681 53.7413 179.354 53.7879C178.486 53.8906 177.688 54.1379 176.96 54.5299C176.232 54.9126 175.649 55.4259 175.21 56.0699C174.781 56.7139 174.566 57.4653 174.566 58.3239C174.566 59.3879 174.972 60.2186 175.784 60.8159C176.596 61.4039 177.935 61.7399 179.802 61.8239C179.662 62.0573 179.541 62.3279 179.438 62.6359C179.345 62.9346 179.279 63.2099 179.242 63.4619Z" fill="white"/>
<path d="M183.134 64.1619C183.069 63.9379 182.957 63.6719 182.798 63.3639C182.649 63.0653 182.504 62.8273 182.364 62.6499C183.157 62.5939 183.867 62.4213 184.492 62.1319C185.117 61.8426 185.626 61.4739 186.018 61.0259C186.419 60.5686 186.662 60.0599 186.746 59.4999H184.646V51.5899H193.256V59.4999H191.226V61.8799C191.226 62.0293 191.259 62.1319 191.324 62.1879C191.399 62.2439 191.539 62.2719 191.744 62.2719H193.046C193.298 62.2719 193.489 62.2253 193.62 62.1319C193.76 62.0386 193.863 61.8753 193.928 61.6419C194.003 61.4086 194.059 61.0773 194.096 60.6479C194.283 60.7506 194.539 60.8579 194.866 60.9699C195.202 61.0819 195.487 61.1706 195.72 61.2359C195.608 61.9733 195.468 62.5333 195.3 62.9159C195.141 63.2986 194.922 63.5553 194.642 63.6859C194.362 63.8166 193.984 63.8819 193.508 63.8819H191.072C190.484 63.8819 190.069 63.7933 189.826 63.6159C189.593 63.4386 189.476 63.1446 189.476 62.7339V59.4999H188.454C188.361 60.6573 187.88 61.6513 187.012 62.4819C186.144 63.3033 184.851 63.8633 183.134 64.1619ZM186.41 58.0439H191.492V57.1339H186.41V58.0439ZM186.41 55.9999H191.492V55.0899H186.41V55.9999ZM186.41 53.9419H191.492V53.0319H186.41V53.9419Z" fill="white"/>
<path d="M49.7839 82.6079V72.9759H54.9779V82.6079H49.7839ZM43.3299 84.0079C43.2833 83.8959 43.1993 83.7513 43.0779 83.5739C42.9566 83.4059 42.8259 83.2379 42.6859 83.0699C42.5459 82.9113 42.4199 82.7899 42.3079 82.7059C43.2506 82.3046 43.9973 81.7633 44.5479 81.0819C45.1079 80.4006 45.4393 79.5139 45.5419 78.4219H42.9939V76.8539H45.5699V74.7539H44.8419C44.6459 75.0806 44.4453 75.3933 44.2399 75.6919C44.0346 75.9813 43.8293 76.2379 43.6239 76.4619C43.4186 76.2939 43.1946 76.1353 42.9519 75.9859C42.7093 75.8273 42.4806 75.7059 42.2659 75.6219C42.6299 75.2673 42.9706 74.8426 43.2879 74.3479C43.6053 73.8439 43.8853 73.3166 44.1279 72.7659C44.3706 72.2153 44.5526 71.6926 44.6739 71.1979L46.2419 71.6039C46.1019 72.0986 45.9013 72.6353 45.6399 73.2139H48.9719V74.7539H47.1659V76.8539H49.3779V78.4219H47.1379C47.1379 78.4499 47.1333 78.4779 47.1239 78.5059C47.1239 78.5246 47.1239 78.5433 47.1239 78.5619C47.2359 78.8326 47.3946 79.1313 47.5999 79.4579C47.8146 79.7753 48.0479 80.0926 48.2999 80.4099C48.5613 80.7273 48.8179 81.0213 49.0699 81.2919C49.3219 81.5533 49.5459 81.7633 49.7419 81.9219C49.6206 82.0059 49.4666 82.1226 49.2799 82.2719C49.0933 82.4119 48.9159 82.5566 48.7479 82.7059C48.5799 82.8553 48.4493 82.9859 48.3559 83.0979C48.0853 82.7993 47.7913 82.4399 47.4739 82.0199C47.1566 81.5999 46.8626 81.1613 46.5919 80.7039C46.2746 81.4226 45.8359 82.0573 45.2759 82.6079C44.7253 83.1586 44.0766 83.6253 43.3299 84.0079ZM51.4219 81.0819H53.3819V74.5439H51.4219V81.0819Z" fill="white"/>
<path d="M61.7819 83.9519C61.7353 83.8119 61.6653 83.6439 61.5719 83.4479C61.4786 83.2519 61.3806 83.0606 61.2779 82.8739C61.1846 82.6779 61.0913 82.5286 60.9979 82.4259C62.6406 82.4073 63.9099 82.1973 64.8059 81.7959C65.7019 81.3853 66.1499 80.8299 66.1499 80.1299C66.1499 79.5979 65.9493 79.1873 65.5479 78.8979C65.1466 78.6086 64.6146 78.4639 63.9519 78.4639C63.5786 78.4639 63.1819 78.5153 62.7619 78.6179C62.3513 78.7206 61.9546 78.8699 61.5719 79.0659C61.1893 79.2619 60.8533 79.5093 60.5639 79.8079C60.2839 80.0973 60.0786 80.4333 59.9479 80.8159L59.9339 80.8019C59.7193 80.7179 59.4486 80.6386 59.1219 80.5639C58.8046 80.4893 58.5526 80.4333 58.3659 80.3959C58.4593 80.1533 58.5526 79.8313 58.6459 79.4299C58.7393 79.0193 58.8326 78.5713 58.9259 78.0859C59.0193 77.5913 59.1033 77.1013 59.1779 76.6159C59.2619 76.1213 59.3319 75.6686 59.3879 75.2579C59.4533 74.8379 59.4953 74.4973 59.5139 74.2359C59.7286 74.2919 60.0133 74.3479 60.3679 74.4039C60.7226 74.4599 61.0166 74.5066 61.2499 74.5439C61.1846 74.9546 61.0866 75.4959 60.9559 76.1679C60.8253 76.8306 60.6899 77.4979 60.5499 78.1699C61.0446 77.8153 61.5999 77.5353 62.2159 77.3299C62.8319 77.1246 63.4433 77.0219 64.0499 77.0219C64.8993 77.0219 65.6086 77.1573 66.1779 77.4279C66.7473 77.6893 67.1766 78.0533 67.4659 78.5199C67.7646 78.9866 67.9139 79.5233 67.9139 80.1299C67.9139 81.2406 67.4193 82.1319 66.4299 82.8039C65.4499 83.4666 63.9006 83.8493 61.7819 83.9519ZM64.0359 74.7119C63.7933 74.4879 63.4806 74.2313 63.0979 73.9419C62.7153 73.6526 62.3186 73.3773 61.9079 73.1159C61.4973 72.8546 61.1286 72.6493 60.8019 72.4999C60.9606 72.3413 61.1473 72.1499 61.3619 71.9259C61.5859 71.6926 61.7866 71.4826 61.9639 71.2959C62.3093 71.4453 62.6779 71.6459 63.0699 71.8979C63.4619 72.1499 63.8446 72.4159 64.2179 72.6959C64.5913 72.9666 64.9133 73.2233 65.1839 73.4659C65.0719 73.5686 64.9413 73.6993 64.7919 73.8579C64.6426 74.0166 64.4979 74.1753 64.3579 74.3339C64.2273 74.4833 64.1199 74.6093 64.0359 74.7119Z" fill="white"/>
<path d="M79.2819 83.3919C78.5726 83.3919 78.0033 83.2333 77.5739 82.9159C77.1539 82.5893 76.9439 82.1273 76.9439 81.5299C76.9439 81.0166 77.1586 80.5826 77.5879 80.2279C78.0173 79.8639 78.6426 79.6959 79.4639 79.7239C79.7346 79.7333 80.0146 79.7753 80.3039 79.8499C80.5933 79.9153 80.8919 80.0133 81.1999 80.1439C81.2466 79.9199 81.2839 79.6773 81.3119 79.4159C81.3399 79.1453 81.3446 78.8513 81.3259 78.5339C81.2886 77.6753 81.0226 76.9939 80.5279 76.4899C80.0333 75.9766 79.2773 75.7199 78.2599 75.7199C78.2226 75.7199 78.1806 75.7199 78.1339 75.7199C78.0873 75.7199 78.0406 75.7246 77.9939 75.7339C77.5459 77.6659 76.9299 79.2386 76.1459 80.4519C76.3699 80.7413 76.5986 81.0119 76.8319 81.2639C76.7199 81.3386 76.5846 81.4459 76.4259 81.5859C76.2766 81.7259 76.1273 81.8706 75.9779 82.0199C75.8379 82.1599 75.7259 82.2906 75.6419 82.4119C75.4553 82.1879 75.2779 81.9686 75.1099 81.7539C74.2793 82.5846 73.4019 82.9999 72.4779 82.9999C72.0113 82.9999 71.6239 82.7993 71.3159 82.3979C71.0173 81.9873 70.8679 81.4693 70.8679 80.8439C70.8679 80.0693 71.0359 79.3366 71.3719 78.6459C71.7173 77.9459 72.1699 77.3113 72.7299 76.7419C72.5246 76.0326 72.3566 75.3279 72.2259 74.6279C72.0953 73.9186 72.0066 73.2373 71.9599 72.5839C72.0999 72.5839 72.2726 72.5793 72.4779 72.5699C72.6833 72.5513 72.8886 72.5279 73.0939 72.4999C73.2993 72.4719 73.4673 72.4486 73.5979 72.4299C73.5979 73.5313 73.7239 74.6279 73.9759 75.7199C74.3866 75.4399 74.8159 75.1973 75.2639 74.9919C75.7213 74.7866 76.1833 74.6279 76.6499 74.5159C76.7059 74.0773 76.7479 73.6386 76.7759 73.1999C76.8039 72.7519 76.8133 72.2993 76.8039 71.8419C77.0466 71.8979 77.3359 71.9446 77.6719 71.9819C78.0079 72.0193 78.2926 72.0426 78.5259 72.0519C78.4886 72.4533 78.4466 72.8406 78.3999 73.2139C78.3626 73.5873 78.3159 73.9513 78.2599 74.3059C79.7066 74.2593 80.8219 74.6093 81.6059 75.3559C82.3993 76.1026 82.8239 77.1433 82.8799 78.4779C82.9079 79.4113 82.8193 80.1999 82.6139 80.8439C82.8006 80.9466 82.9873 81.0586 83.1739 81.1799C83.3699 81.2919 83.5613 81.4086 83.7479 81.5299C83.6453 81.7073 83.5193 81.9219 83.3699 82.1739C83.2206 82.4259 83.0899 82.6919 82.9779 82.9719C82.6606 82.6639 82.3199 82.3933 81.9559 82.1599C81.6293 82.5799 81.2326 82.8879 80.7659 83.0839C80.3086 83.2893 79.8139 83.3919 79.2819 83.3919ZM73.3319 81.2639C73.4999 81.1613 73.6633 81.0493 73.8219 80.9279C73.9806 80.7973 74.1346 80.6526 74.2839 80.4939C73.8919 79.8033 73.5466 79.0706 73.2479 78.2959C72.9493 78.6693 72.7113 79.0659 72.5339 79.4859C72.3659 79.9059 72.2819 80.3213 72.2819 80.7319C72.2819 81.0866 72.3706 81.3153 72.5479 81.4179C72.7253 81.5206 72.9866 81.4693 73.3319 81.2639ZM75.2779 79.0939C75.5113 78.6646 75.7166 78.1979 75.8939 77.6939C76.0806 77.1806 76.2393 76.6439 76.3699 76.0839C75.6513 76.3453 74.9933 76.7093 74.3959 77.1759C74.6386 77.8479 74.9326 78.4873 75.2779 79.0939ZM79.2119 82.0759C79.7999 82.0759 80.2759 81.8519 80.6399 81.4039C80.3879 81.2919 80.1453 81.2033 79.9119 81.1379C79.6786 81.0726 79.4639 81.0399 79.2679 81.0399C78.6893 81.0399 78.3999 81.2079 78.3999 81.5439C78.3999 81.7213 78.4699 81.8566 78.6099 81.9499C78.7593 82.0339 78.9599 82.0759 79.2119 82.0759Z" fill="white"/>
<path d="M85.7079 83.9379C85.5773 83.7046 85.4139 83.4526 85.2179 83.1819C85.0219 82.9206 84.8213 82.7013 84.6159 82.5239C85.6519 82.0199 86.5853 81.4039 87.4159 80.6759C88.2466 79.9386 88.8999 79.0893 89.3759 78.1279C89.8613 77.1666 90.1039 76.1073 90.1039 74.9499V71.5199H91.8399V74.4739C91.8399 75.4073 91.9939 76.2799 92.3019 77.0919C92.6099 77.9039 93.0299 78.6459 93.5619 79.3179C94.0939 79.9899 94.6959 80.5826 95.3679 81.0959C96.0399 81.5999 96.7446 82.0153 97.4819 82.3419C97.3046 82.5379 97.1086 82.7899 96.8939 83.0979C96.6886 83.4059 96.5253 83.6766 96.4039 83.9099C95.6106 83.4993 94.8639 82.9953 94.1639 82.3979C93.4639 81.8006 92.8479 81.1333 92.3159 80.3959C91.7933 79.6586 91.3779 78.8839 91.0699 78.0719C90.7993 78.9119 90.3933 79.7006 89.8519 80.4379C89.3106 81.1659 88.6853 81.8286 87.9759 82.4259C87.2666 83.0139 86.5106 83.5179 85.7079 83.9379Z" fill="white"/>
<path d="M100.128 83.5599C99.9879 82.8226 99.8853 81.9126 99.8199 80.8299C99.7546 79.7473 99.7219 78.5993 99.7219 77.3859C99.7219 76.7606 99.7453 76.1166 99.7919 75.4539C99.8479 74.7819 99.9133 74.1473 99.9879 73.5499C100.063 72.9433 100.137 72.4346 100.212 72.0239C100.427 72.0799 100.711 72.1313 101.066 72.1779C101.421 72.2246 101.724 72.2573 101.976 72.2759C101.855 72.7613 101.743 73.3119 101.64 73.9279C101.547 74.5346 101.467 75.1459 101.402 75.7619C101.346 76.3779 101.318 76.9379 101.318 77.4419C101.318 78.1886 101.337 78.9306 101.374 79.6679C101.421 80.3959 101.481 81.0633 101.556 81.6699C101.631 82.2766 101.71 82.7759 101.794 83.1679C101.561 83.1959 101.276 83.2473 100.94 83.3219C100.604 83.4059 100.333 83.4853 100.128 83.5599ZM106.302 82.8039C105.098 82.7946 104.249 82.5099 103.754 81.9499C103.269 81.3899 103.222 80.5313 103.614 79.3739L105.07 79.7239C104.911 80.1439 104.93 80.4893 105.126 80.7599C105.331 81.0213 105.826 81.1566 106.61 81.1659C107.319 81.1753 108.038 81.1426 108.766 81.0679C109.494 80.9839 110.143 80.8766 110.712 80.7459C110.693 80.8766 110.67 81.0539 110.642 81.2779C110.623 81.5019 110.609 81.7259 110.6 81.9499C110.591 82.1739 110.591 82.3606 110.6 82.5099C110.189 82.5753 109.727 82.6313 109.214 82.6779C108.701 82.7246 108.187 82.7573 107.674 82.7759C107.17 82.7946 106.713 82.8039 106.302 82.8039ZM103.88 74.8519C103.889 74.6653 103.889 74.4646 103.88 74.2499C103.871 74.0259 103.857 73.8113 103.838 73.6059C103.829 73.4006 103.815 73.2419 103.796 73.1299C104.095 73.1766 104.454 73.2093 104.874 73.2279C105.294 73.2466 105.742 73.2559 106.218 73.2559C106.694 73.2559 107.17 73.2419 107.646 73.2139C108.131 73.1859 108.579 73.1486 108.99 73.1019C109.401 73.0459 109.746 72.9806 110.026 72.9059C110.017 73.0459 110.003 73.2233 109.984 73.4379C109.975 73.6433 109.965 73.8533 109.956 74.0679C109.956 74.2733 109.956 74.4506 109.956 74.5999C109.564 74.6653 109.097 74.7213 108.556 74.7679C108.015 74.8146 107.455 74.8519 106.876 74.8799C106.297 74.8986 105.742 74.9079 105.21 74.9079C104.687 74.8986 104.244 74.8799 103.88 74.8519Z" fill="white"/>
<path d="M119.056 83.7559C118.263 83.7559 117.614 83.5646 117.11 83.1819C116.615 82.8086 116.368 82.3046 116.368 81.6699C116.368 81.0259 116.601 80.5219 117.068 80.1579C117.544 79.7939 118.216 79.6119 119.084 79.6119C119.215 79.6119 119.341 79.6166 119.462 79.6259C119.593 79.6353 119.719 79.6493 119.84 79.6679C119.821 79.4533 119.803 79.2526 119.784 79.0659C119.765 78.8793 119.747 78.7159 119.728 78.5759C119.663 77.7266 119.826 77.0499 120.218 76.5459C120.61 76.0419 121.133 75.7199 121.786 75.5799C121.422 75.4213 121.067 75.2766 120.722 75.1459C120.377 75.0153 120.083 74.9126 119.84 74.8379C119.915 74.7353 119.999 74.6046 120.092 74.4459C120.185 74.2779 120.274 74.1146 120.358 73.9559C120.451 73.7879 120.517 73.6479 120.554 73.5359C120.862 73.6293 121.207 73.7553 121.59 73.9139C121.973 74.0633 122.365 74.2313 122.766 74.4179C123.167 74.5953 123.55 74.7773 123.914 74.9639C124.278 75.1413 124.586 75.3046 124.838 75.4539C124.717 75.6126 124.581 75.8179 124.432 76.0699C124.283 76.3219 124.161 76.5413 124.068 76.7279C123.751 76.5599 123.415 76.4666 123.06 76.4479C122.705 76.4293 122.379 76.4946 122.08 76.6439C121.781 76.7839 121.548 77.0126 121.38 77.3299C121.221 77.6473 121.175 78.0533 121.24 78.5479C121.259 78.7439 121.291 78.9773 121.338 79.2479C121.385 79.5186 121.427 79.7939 121.464 80.0739C122.089 80.2979 122.705 80.5779 123.312 80.9139C123.919 81.2406 124.507 81.5859 125.076 81.9499C124.927 82.1273 124.759 82.3559 124.572 82.6359C124.395 82.9066 124.25 83.1586 124.138 83.3919C123.755 83.0933 123.349 82.8086 122.92 82.5379C122.5 82.2579 122.071 82.0059 121.632 81.7819C121.613 82.4633 121.394 82.9626 120.974 83.2799C120.554 83.5973 119.915 83.7559 119.056 83.7559ZM114.618 82.8179C114.413 82.7059 114.151 82.5939 113.834 82.4819C113.517 82.3699 113.232 82.2859 112.98 82.2299C113.148 81.8753 113.33 81.4413 113.526 80.9279C113.731 80.4146 113.941 79.8546 114.156 79.2479C114.371 78.6413 114.581 78.0159 114.786 77.3719C115.001 76.7186 115.197 76.0839 115.374 75.4679C114.945 75.4959 114.553 75.5239 114.198 75.5519C113.843 75.5799 113.563 75.6079 113.358 75.6359C113.349 75.5053 113.33 75.3373 113.302 75.1319C113.283 74.9173 113.26 74.7026 113.232 74.4879C113.204 74.2733 113.176 74.1053 113.148 73.9839C113.456 73.9746 113.848 73.9653 114.324 73.9559C114.8 73.9373 115.295 73.9186 115.808 73.8999C115.939 73.4146 116.051 72.9619 116.144 72.5419C116.237 72.1219 116.303 71.7766 116.34 71.5059C116.555 71.5526 116.83 71.6039 117.166 71.6599C117.502 71.7159 117.787 71.7533 118.02 71.7719C117.983 71.9586 117.913 72.2339 117.81 72.5979C117.707 72.9619 117.591 73.3726 117.46 73.8299C117.796 73.8113 118.109 73.7926 118.398 73.7739C118.687 73.7459 118.935 73.7179 119.14 73.6899C119.131 73.8953 119.121 74.1613 119.112 74.4879C119.112 74.8146 119.112 75.0853 119.112 75.2999C118.907 75.2999 118.613 75.3093 118.23 75.3279C117.847 75.3373 117.437 75.3513 116.998 75.3699C116.793 76.0606 116.573 76.7746 116.34 77.5119C116.116 78.2493 115.892 78.9633 115.668 79.6539C115.453 80.3353 115.253 80.9513 115.066 81.5019C114.879 82.0526 114.73 82.4913 114.618 82.8179ZM118.93 82.3419C119.415 82.3419 119.719 82.2719 119.84 82.1319C119.971 81.9826 120.027 81.7586 120.008 81.4599C119.999 81.4133 119.994 81.3619 119.994 81.3059C119.994 81.2406 119.989 81.1753 119.98 81.1099C119.644 81.0259 119.322 80.9839 119.014 80.9839C118.613 80.9839 118.319 81.0399 118.132 81.1519C117.955 81.2546 117.866 81.4273 117.866 81.6699C117.866 81.8753 117.955 82.0386 118.132 82.1599C118.319 82.2813 118.585 82.3419 118.93 82.3419Z" fill="white"/>
<path d="M133.462 83.7279C132.678 83.7559 132.029 83.6673 131.516 83.4619C131.012 83.2659 130.643 82.9859 130.41 82.6219C130.177 82.2579 130.074 81.8566 130.102 81.4179C130.149 80.8393 130.401 80.3866 130.858 80.0599C131.315 79.7239 131.913 79.5886 132.65 79.6539C133.313 79.7099 133.826 79.9386 134.19 80.3399C134.554 80.7413 134.778 81.2546 134.862 81.8799C135.833 81.4786 136.309 80.7926 136.29 79.8219C136.281 79.0846 136.047 78.5479 135.59 78.2119C135.133 77.8759 134.526 77.7079 133.77 77.7079C133.033 77.7079 132.347 77.8386 131.712 78.0999C131.087 78.3519 130.555 78.7066 130.116 79.1639C129.845 79.4439 129.598 79.7053 129.374 79.9479C129.15 80.1813 128.982 80.3586 128.87 80.4799C128.711 80.3026 128.511 80.0973 128.268 79.8639C128.035 79.6213 127.825 79.4253 127.638 79.2759C127.89 79.0893 128.189 78.8466 128.534 78.5479C128.879 78.2399 129.253 77.8993 129.654 77.5259C130.065 77.1433 130.475 76.7559 130.886 76.3639C131.297 75.9626 131.689 75.5753 132.062 75.2019C132.445 74.8286 132.781 74.4926 133.07 74.1939C133.369 73.8953 133.597 73.6619 133.756 73.4939C133.579 73.5033 133.322 73.5313 132.986 73.5779C132.65 73.6153 132.281 73.6619 131.88 73.7179C131.488 73.7646 131.101 73.8159 130.718 73.8719C130.345 73.9186 130.027 73.9606 129.766 73.9979C129.757 73.8673 129.738 73.6993 129.71 73.4939C129.691 73.2793 129.663 73.0693 129.626 72.8639C129.598 72.6493 129.57 72.4719 129.542 72.3319C129.831 72.3319 130.195 72.3226 130.634 72.3039C131.073 72.2853 131.539 72.2619 132.034 72.2339C132.529 72.1966 133.014 72.1546 133.49 72.1079C133.966 72.0613 134.391 72.0099 134.764 71.9539C135.147 71.8979 135.436 71.8373 135.632 71.7719C135.697 71.8466 135.786 71.9493 135.898 72.0799C136.01 72.2106 136.122 72.3459 136.234 72.4859C136.355 72.6166 136.458 72.7286 136.542 72.8219C136.327 73.0086 136.019 73.2933 135.618 73.6759C135.226 74.0493 134.787 74.4786 134.302 74.9639C133.817 75.4399 133.322 75.9299 132.818 76.4339C133.051 76.3873 133.285 76.3499 133.518 76.3219C133.751 76.2939 133.989 76.2799 134.232 76.2799C134.951 76.2799 135.59 76.4153 136.15 76.6859C136.719 76.9473 137.172 77.3346 137.508 77.8479C137.844 78.3613 138.017 79.0006 138.026 79.7659C138.045 80.5406 137.853 81.2219 137.452 81.8099C137.051 82.3979 136.505 82.8553 135.814 83.1819C135.123 83.5179 134.339 83.6999 133.462 83.7279ZM132.86 82.2159C132.935 82.2159 133.014 82.2159 133.098 82.2159C133.182 82.2159 133.261 82.2113 133.336 82.2019C133.317 81.8753 133.243 81.6093 133.112 81.4039C132.981 81.1986 132.785 81.0773 132.524 81.0399C132.263 81.0026 132.053 81.0353 131.894 81.1379C131.735 81.2313 131.651 81.3573 131.642 81.5159C131.633 81.7306 131.731 81.9033 131.936 82.0339C132.141 82.1553 132.449 82.2159 132.86 82.2159Z" fill="white"/>
<path d="M151.242 83.4619C149.739 83.3873 148.517 83.1306 147.574 82.6919C146.641 82.2533 145.955 81.6606 145.516 80.9139C145.087 80.1673 144.872 79.3039 144.872 78.3239C144.872 77.4653 145.049 76.7046 145.404 76.0419C145.768 75.3793 146.277 74.8053 146.93 74.3199C146.165 74.4226 145.404 74.5253 144.648 74.6279C143.901 74.7306 143.22 74.8286 142.604 74.9219C141.997 75.0059 141.507 75.0806 141.134 75.1459C141.134 75.0059 141.115 74.8286 141.078 74.6139C141.05 74.3899 141.017 74.1706 140.98 73.9559C140.943 73.7319 140.905 73.5546 140.868 73.4239C141.307 73.3959 141.834 73.3586 142.45 73.3119C143.075 73.2559 143.752 73.1906 144.48 73.1159C145.208 73.0413 145.95 72.9573 146.706 72.8639C147.471 72.7706 148.204 72.6773 148.904 72.5839C149.613 72.4906 150.257 72.3973 150.836 72.3039C151.424 72.2013 151.9 72.1079 152.264 72.0239C152.311 72.1639 152.367 72.3366 152.432 72.5419C152.507 72.7473 152.581 72.9526 152.656 73.1579C152.731 73.3633 152.801 73.5359 152.866 73.6759C152.661 73.6853 152.437 73.6946 152.194 73.7039C151.961 73.7133 151.681 73.7413 151.354 73.7879C150.486 73.8906 149.688 74.1379 148.96 74.5299C148.232 74.9126 147.649 75.4259 147.21 76.0699C146.781 76.7139 146.566 77.4653 146.566 78.3239C146.566 79.3879 146.972 80.2186 147.784 80.8159C148.596 81.4039 149.935 81.7399 151.802 81.8239C151.662 82.0573 151.541 82.3279 151.438 82.6359C151.345 82.9346 151.279 83.2099 151.242 83.4619ZM151.48 77.7779C151.461 77.7593 151.401 77.6939 151.298 77.5819C151.195 77.4606 151.069 77.3206 150.92 77.1619C150.78 76.9939 150.635 76.8306 150.486 76.6719C150.346 76.5133 150.225 76.3779 150.122 76.2659C150.019 76.1446 149.959 76.0746 149.94 76.0559L150.64 75.4539C150.659 75.4819 150.743 75.5799 150.892 75.7479C151.041 75.9159 151.209 76.1073 151.396 76.3219C151.592 76.5273 151.765 76.7139 151.914 76.8819C152.063 77.0499 152.152 77.1479 152.18 77.1759L151.48 77.7779ZM152.712 76.7139C152.693 76.6953 152.633 76.6299 152.53 76.5179C152.427 76.3966 152.301 76.2566 152.152 76.0979C152.012 75.9299 151.867 75.7666 151.718 75.6079C151.578 75.4493 151.457 75.3139 151.354 75.2019C151.251 75.0806 151.191 75.0106 151.172 74.9919L151.872 74.3899C151.891 74.4179 151.975 74.5159 152.124 74.6839C152.273 74.8519 152.441 75.0433 152.628 75.2579C152.824 75.4633 152.997 75.6499 153.146 75.8179C153.295 75.9859 153.384 76.0839 153.412 76.1119L152.712 76.7139Z" fill="white"/>
<path d="M159.978 83.6159C159.371 83.6159 158.891 83.5646 158.536 83.4619C158.181 83.3593 157.925 83.1773 157.766 82.9159C157.617 82.6546 157.542 82.2906 157.542 81.8239C157.542 81.3853 157.547 80.8673 157.556 80.2699C157.565 79.6726 157.575 79.0519 157.584 78.4079C157.593 77.6146 157.603 76.8259 157.612 76.0419C157.621 75.2579 157.626 74.5859 157.626 74.0259C157.626 73.5219 157.617 73.0319 157.598 72.5559C157.589 72.0799 157.575 71.7253 157.556 71.4919C157.687 71.5106 157.873 71.5386 158.116 71.5759C158.359 71.6039 158.606 71.6273 158.858 71.6459C159.11 71.6646 159.311 71.6739 159.46 71.6739C159.441 71.8793 159.418 72.2059 159.39 72.6539C159.371 73.1019 159.353 73.6246 159.334 74.2219C159.315 74.8099 159.297 75.4353 159.278 76.0979C159.269 76.7513 159.255 77.4046 159.236 78.0579C159.227 78.7019 159.217 79.2993 159.208 79.8499C159.208 80.4006 159.208 80.8626 159.208 81.2359C159.208 81.5346 159.264 81.7259 159.376 81.8099C159.488 81.8939 159.731 81.9359 160.104 81.9359C160.384 81.9359 160.767 81.9033 161.252 81.8379C161.737 81.7633 162.265 81.6653 162.834 81.5439C163.403 81.4133 163.954 81.2686 164.486 81.1099C165.027 80.9513 165.485 80.7879 165.858 80.6199C165.821 80.7693 165.788 80.9653 165.76 81.2079C165.732 81.4506 165.709 81.6886 165.69 81.9219C165.671 82.1553 165.662 82.3419 165.662 82.4819C165.279 82.6313 164.831 82.7759 164.318 82.9159C163.814 83.0466 163.291 83.1633 162.75 83.2659C162.209 83.3779 161.695 83.4619 161.21 83.5179C160.725 83.5833 160.314 83.6159 159.978 83.6159Z" fill="white"/>
<path d="M173.6 84.1479C172.816 84.1479 172.2 83.9753 171.752 83.6299C171.304 83.2939 171.08 82.8179 171.08 82.2019C171.08 81.6513 171.285 81.2173 171.696 80.8999C172.116 80.5826 172.657 80.4193 173.32 80.4099C173.488 80.4099 173.661 80.4193 173.838 80.4379C174.025 80.4566 174.211 80.4846 174.398 80.5219C174.379 79.9993 174.361 79.4346 174.342 78.8279C174.323 78.2119 174.3 77.6193 174.272 77.0499C174.253 76.4713 174.235 75.9719 174.216 75.5519C174.197 75.1319 174.183 74.8519 174.174 74.7119C174.277 74.7213 174.426 74.7306 174.622 74.7399C174.818 74.7493 175.019 74.7586 175.224 74.7679C175.439 74.7679 175.602 74.7679 175.714 74.7679C175.705 74.9079 175.695 75.1693 175.686 75.5519C175.686 75.9253 175.691 76.3733 175.7 76.8959C175.989 76.8866 176.321 76.8726 176.694 76.8539C177.077 76.8353 177.45 76.8166 177.814 76.7979C178.178 76.7699 178.477 76.7466 178.71 76.7279C178.71 76.8399 178.71 76.9939 178.71 77.1899C178.71 77.3859 178.71 77.5773 178.71 77.7639C178.719 77.9413 178.724 78.0766 178.724 78.1699C178.519 78.1699 178.229 78.1746 177.856 78.1839C177.492 78.1839 177.114 78.1839 176.722 78.1839C176.33 78.1839 175.994 78.1886 175.714 78.1979C175.733 78.6366 175.747 79.0846 175.756 79.5419C175.775 79.9993 175.789 80.4473 175.798 80.8859C176.405 81.0819 177.002 81.3106 177.59 81.5719C178.178 81.8333 178.687 82.0853 179.116 82.3279C178.985 82.5053 178.845 82.7293 178.696 82.9999C178.547 83.2799 178.444 83.5179 178.388 83.7139C178.015 83.4713 177.609 83.2333 177.17 82.9999C176.731 82.7666 176.293 82.5613 175.854 82.3839C175.817 82.9906 175.616 83.4339 175.252 83.7139C174.888 84.0033 174.337 84.1479 173.6 84.1479ZM173.544 82.9159C173.843 82.9159 174.067 82.8553 174.216 82.7339C174.365 82.6126 174.435 82.4073 174.426 82.1179V81.8659C174.025 81.7539 173.675 81.6979 173.376 81.6979C172.769 81.6979 172.466 81.8939 172.466 82.2859C172.466 82.4913 172.55 82.6499 172.718 82.7619C172.886 82.8646 173.161 82.9159 173.544 82.9159Z" fill="white"/>
<path d="M187.852 84.3719C187.787 84.2506 187.679 84.1013 187.53 83.9239C187.39 83.7466 187.236 83.5646 187.068 83.3779C186.9 83.2006 186.737 83.0559 186.578 82.9439C188.053 82.5613 189.145 81.9826 189.854 81.2079C190.563 80.4333 190.904 79.5466 190.876 78.5479C190.857 77.8013 190.685 77.2879 190.358 77.0079C190.041 76.7186 189.639 76.5739 189.154 76.5739C188.827 76.5739 188.473 76.6299 188.09 76.7419C187.707 76.8539 187.315 77.0033 186.914 77.1899C186.522 77.3766 186.149 77.5819 185.794 77.8059C185.738 77.6566 185.649 77.4746 185.528 77.2599C185.407 77.0453 185.276 76.8353 185.136 76.6299C185.005 76.4246 184.893 76.2706 184.8 76.1679C185.285 76.0373 185.785 75.8786 186.298 75.6919C186.821 75.4959 187.334 75.3279 187.838 75.1879C188.351 75.0386 188.832 74.9639 189.28 74.9639C189.924 74.9639 190.493 75.0853 190.988 75.3279C191.483 75.5706 191.875 75.9533 192.164 76.4759C192.463 76.9893 192.621 77.6613 192.64 78.4919C192.677 79.9293 192.281 81.1379 191.45 82.1179C190.619 83.0979 189.42 83.8493 187.852 84.3719ZM190.988 73.8999C190.633 73.8346 190.237 73.7459 189.798 73.6339C189.369 73.5126 188.93 73.3819 188.482 73.2419C188.043 73.1019 187.633 72.9619 187.25 72.8219C186.867 72.6726 186.55 72.5419 186.298 72.4299C186.382 72.3179 186.471 72.1733 186.564 71.9959C186.667 71.8093 186.76 71.6226 186.844 71.4359C186.937 71.2493 187.007 71.0906 187.054 70.9599C187.427 71.1373 187.88 71.3193 188.412 71.5059C188.944 71.6926 189.49 71.8559 190.05 71.9959C190.61 72.1359 191.123 72.2339 191.59 72.2899C191.515 72.4206 191.436 72.5886 191.352 72.7939C191.277 72.9993 191.207 73.2046 191.142 73.4099C191.077 73.6059 191.025 73.7693 190.988 73.8999Z" fill="white"/>
</svg>
