<svg width="1549" height="4365" viewBox="0 0 1549 4365" fill="none" xmlns="http://www.w3.org/2000/svg">
<mask id="path-1-inside-1_378_11856" fill="white">
<path d="M1 2424.01V2427L679 2113.99V2111L1 2424.01Z"/>
</mask>
<path d="M1 2427H-2V2431.69L2.25746 2429.72L1 2427ZM1 2424.01L-0.257461 2421.29L-2 2422.09V2424.01H1ZM679 2111H682V2106.31L677.743 2108.28L679 2111ZM679 2113.99L680.257 2116.71L682 2115.91V2113.99H679ZM4 2427V2424.01H-2V2427H4ZM2.25746 2426.73L680.257 2113.72L677.743 2108.28L-0.257461 2421.29L2.25746 2426.73ZM676 2111V2113.99H682V2111H676ZM677.743 2111.27L-0.257461 2424.28L2.25746 2429.72L680.257 2116.71L677.743 2111.27Z" fill="#FFFFFE" mask="url(#path-1-inside-1_378_11856)"/>
<mask id="path-3-inside-2_378_11856" fill="white">
<path d="M1 2734.01V2737L722 2138V2135L1 2734.01Z"/>
</mask>
<path d="M1 2737H-2V2743.39L2.91709 2739.31L1 2737ZM1 2734.01L-0.917106 2731.7L-2 2732.6V2734.01H1ZM722 2135H725V2128.61L720.083 2132.69L722 2135ZM722 2138L723.917 2140.31L725 2139.41V2138H722ZM4 2737V2734.01H-2V2737H4ZM2.91711 2736.32L723.917 2137.31L720.083 2132.69L-0.917106 2731.7L2.91711 2736.32ZM719 2135V2138H725V2135H719ZM720.083 2135.69L-0.917088 2734.69L2.91709 2739.31L723.917 2140.31L720.083 2135.69Z" fill="#FFFFFE" mask="url(#path-3-inside-2_378_11856)"/>
<mask id="path-5-inside-3_378_11856" fill="white">
<path d="M1546 2734.01V2737L825 2138V2135L1546 2734.01Z"/>
</mask>
<path d="M1546 2737H1549V2743.39L1544.08 2739.31L1546 2737ZM1546 2734.01L1547.92 2731.7L1549 2732.6V2734.01H1546ZM825 2135H822V2128.61L826.917 2132.69L825 2135ZM825 2138L823.083 2140.31L822 2139.41V2138H825ZM1543 2737V2734.01H1549V2737H1543ZM1544.08 2736.32L823.083 2137.31L826.917 2132.69L1547.92 2731.7L1544.08 2736.32ZM828 2135V2138H822V2135H828ZM826.917 2135.69L1547.92 2734.69L1544.08 2739.31L823.083 2140.31L826.917 2135.69Z" fill="#FFFFFE" mask="url(#path-5-inside-3_378_11856)"/>
<mask id="path-7-inside-4_378_11856" fill="white">
<path d="M1546 2424.01V2427L868 2113.99V2111L1546 2424.01Z"/>
</mask>
<path d="M1546 2427H1549V2431.69L1544.74 2429.72L1546 2427ZM1546 2424.01L1547.26 2421.29L1549 2422.09V2424.01H1546ZM868 2111H865V2106.31L869.257 2108.28L868 2111ZM868 2113.99L866.743 2116.71L865 2115.91V2113.99H868ZM1543 2427V2424.01H1549V2427H1543ZM1544.74 2426.73L866.743 2113.72L869.257 2108.28L1547.26 2421.29L1544.74 2426.73ZM871 2111V2113.99H865V2111H871ZM869.257 2111.27L1547.26 2424.28L1544.74 2429.72L866.743 2116.71L869.257 2111.27Z" fill="#FFFFFE" mask="url(#path-7-inside-4_378_11856)"/>
<path d="M774 2141L774 4365" stroke="#FFFFFE" stroke-width="3"/>
<path d="M1455.75 736.703C1448.28 835.259 1419.46 931.018 1371.3 1017.37C1323.14 1103.71 1256.79 1178.59 1176.82 1236.82C1096.85 1295.05 1005.18 1335.25 908.133 1354.64C811.088 1374.03 710.983 1372.15 614.737 1349.13C518.491 1326.1 428.397 1282.49 350.681 1221.29C272.964 1160.09 209.478 1082.77 164.608 994.678C119.737 906.582 94.5527 809.807 90.7938 711.04C87.0348 612.273 104.791 513.869 142.836 422.625" stroke="#222222" stroke-width="4.60088"/>
<path d="M1547 1001.55L1454.41 919.428L1414.15 887.963L1379.13 859.993L1414.15 830.262L1443.91 839.013L1480.67 859.993L1547 868.255" stroke="#222222" stroke-width="4.60088"/>
<path d="M1457.71 2248.01C1457.71 1870.91 1151.61 1565.21 774.005 1565.21C396.402 1565.21 90.3004 1870.91 90.3004 2248.01C90.3004 2625.12 396.402 2930.82 774.005 2930.82C1151.61 2930.82 1457.71 2625.12 1457.71 2248.01Z" stroke="#222222" stroke-width="4.60088"/>
<path d="M1.92188 1570.84C56.2859 1580.37 153.782 1563.13 149.204 1583.71C143.481 1609.43 86.7318 1625.01 109.622 1665.02C132.512 1705.02 153.691 1751.38 196.61 1751.38C239.529 1751.38 321.003 1698.06 332.448 1672.34C343.893 1646.62 378.228 1572.33 421.147 1600.9C464.066 1629.47 412.563 1740.92 515.569 1732.34C597.973 1725.49 647.137 1699.84 672.938 1692.35C688.356 1687.86 714.14 1685.48 695.828 1635.19C672.938 1572.32 767.36 1500.88 810.279 1495.17C853.198 1489.45 950.481 1529.46 893.255 1375.15C848.782 1255.23 862.6 1203.8 857.077 1184.5C846.031 1137.19 844.857 1126.95 893.255 1008.55C938.546 897.758 893.255 926.578 870.753 910.5C833.283 876.728 776.479 807.122 849.025 798.878C903.51 781.169 1015.36 741.857 1026.9 726.282C1041.32 706.813 1040.04 689.038 1061.25 683.113C1082.45 677.187 1111.5 676 1116.8 671.26C1120.49 667.955 1122 663.5 1122 657.5" stroke="#222222" stroke-width="4.60088"/>
<path d="M1.92188 1469.78L79.7051 1476.21C101.641 1476.21 129.56 1518.01 157.028 1518.01C184.496 1518.01 217.616 1495.77 222.384 1527.2L240.887 1586.61C237.072 1603.76 235.165 1636.33 258.055 1629.48C286.668 1620.9 292.39 1586.6 321.003 1546.6C343.893 1514.6 418.286 1533.27 452.621 1546.6C471.696 1567.55 514.424 1608.89 532.736 1606.61C555.626 1603.75 547.043 1652.33 572.794 1649.47C593.395 1647.18 631.998 1620.83 626.301 1606.61C612.949 1573.27 586.528 1503.17 618.574 1489.45C658.632 1472.31 718.719 1418.02 770.221 1432.3C811.423 1443.73 831.303 1383.41 816.115 1374.23C799.901 1365.65 770.221 1332.86 770.221 1289.43C753.52 1134.43 777.161 1028.45 803.688 1009.94C833.144 987.885 802.986 958.791 769.52 960.615C716.144 963.522 710.187 973.895 700.981 957.816C683.655 923.044 654.802 849.9 678.002 835.5C707.002 817.5 726.484 781.5 748.002 776C769.52 770.5 885.002 740.5 911.002 715C937.002 689.5 912.002 671 934.502 655.5C957.002 640 985.502 629.5 986.002 624.5" stroke="#222222" stroke-width="4.60088"/>
<path d="M840 590C839.5 591.5 829.476 606.471 834 619C840.5 637 854.499 619 841.499 665.5C828.499 712 735.499 732.5 713.999 747C692.499 761.5 677.999 821.5 661.999 801.5C645.999 781.5 682.999 759 597.95 759C529.911 759 594.985 903.833 636.027 976.25C637.5 998.724 660.285 983.391 657.323 1010.86C652.838 1052.44 652.625 1121.41 660.366 1134.94C666.559 1145.77 675.733 1181.29 674.353 1192.77C672.417 1202.43 666.559 1237.94 660.366 1248.76C652.625 1262.29 678.873 1289.3 653.641 1323.7C646.318 1333.68 640.528 1322.21 597.95 1351.2C563.888 1374.4 573.666 1391.66 558.828 1404.55C543.991 1417.43 545.532 1420.64 530.292 1365.5C518.085 1321.33 544.466 1309.61 546.401 1278.68C547.95 1253.93 541.339 1230.9 516.024 1192.77C494.853 1158.78 498.385 1087.47 496.836 1062.72C494.901 1031.79 487.823 1055.78 472.635 1022.7C467.09 1005.63 442.499 964.7 388.499 937.5C320.999 903.5 361.499 856 353.499 825C345.499 794 348.999 739.5 360.499 707C371.999 674.5 471.999 657.5 454.499 597.5C440.499 549.5 450.5 506 452 497.5" stroke="#222222" stroke-width="4.60088"/>
<path d="M2.38077 2888.82C10.2051 2888.82 29.9961 2881.93 46.5653 2890.19C114.683 2920.05 156.106 2787.75 246.316 2821.29C336.527 2854.82 192.927 3017.44 394.519 2961.4C555.792 2916.56 614.323 2804.34 623.43 2753.83C624.913 2750.56 632.535 2731.4 651.159 2680.91C674.438 2617.8 735.108 2660.04 758.121 2595.73C787.117 2522.23 835.173 2498.25 840.716 2458.39C820.762 2413 776.2 2315.58 757.577 2289.01C734.298 2255.8 757.577 2103.02 691.065 2093.06C624.554 2083.09 518.136 1950.24 481.555 1943.6C444.974 1936.96 341.881 1950.24 242.114 2019.99C142.347 2089.74 218.835 2149.52 242.114 2199.34C265.393 2249.15 345.207 2162.8 388.439 2269.08C423.025 2354.1 402.85 2355.43 388.439 2345.47C366.269 2337.72 318.602 2340.16 305.3 2411.89C288.672 2501.57 301.975 2481.64 285.347 2558.03C272.044 2619.14 254.601 2693.12 132.371 2744.02C81.5448 2762.49 151.836 2673.71 93.5114 2638.45C12.9667 2589.76 67.7371 2675.2 41.9628 2688.98C12.5829 2704.69 6.67649 2706.29 1 2704.6" stroke="#222222" stroke-width="4.60088"/>
<path d="M1547 1652C1491.5 1652 1364.71 1706.78 1295.7 1694.79C1209.43 1679.8 1273.2 1769.7 1231.94 1792.17C1190.68 1814.65 1134.42 1837.12 1111.92 1792.17C1093.91 1756.21 1026.9 1752.22 995.645 1754.71C975.642 1759.71 947.636 1781.68 995.645 1829.63C1055.66 1889.56 1078.16 1923.28 995.645 1930.77C913.13 1938.26 901.878 1998.19 935.635 2039.39C969.391 2080.6 1051.91 2174.23 1059.41 2279.11C1066.91 2384 1243.19 2301.6 1295.7 2324.08C1348.21 2346.55 1419.47 2369.04 1415.72 2324.08C1411.97 2279.11 1408.22 2204.2 1351.96 2159.25C1295.7 2114.31 1321.96 2039.39 1351.96 2039.39C1381.97 2039.39 1404.47 2039.39 1456.98 2039.39C1509.49 2039.39 1524 2172 1546.5 2172" stroke="#222222" stroke-width="4.60088"/>
<path d="M787.135 1981.42C766.219 1989.26 719.16 1957.91 659.029 1921.36C643.342 1917.88 608.309 1909.87 593.668 1905.69C575.366 1900.47 604.126 1850.86 611.969 1824.75C619.812 1798.64 659.029 1832.58 719.16 1850.86C779.291 1869.14 808.05 1832.58 810.664 1850.86C813.278 1869.14 849.88 1921.36 828.965 1921.36C808.05 1921.36 808.05 1973.58 787.135 1981.42Z" stroke="#222222" stroke-width="4.60088"/>
<path d="M1547 797.469C1525.35 790.024 1484.22 768.222 1441.5 757.5C1394.87 745.796 1339.86 758.529 1339 740.5C1338 719.5 1317.5 709 1318.5 704.5M1547 1589.5C1503.5 1589.5 1394.82 1631.19 1366.31 1625.85C1330.68 1619.17 1295.05 1594.69 1263.87 1610.27C1232.7 1625.85 1192.61 1599.15 1177.02 1648.08C1161.43 1697 1190.38 1719.25 1177.02 1723.7C1163.66 1728.14 1145.84 1741.49 1136.94 1723.7C1128.03 1705.91 1087.94 1672.55 1045.63 1665.88C1003.32 1659.2 963.233 1701.46 952.098 1683.67C940.963 1665.88 867.474 1685.9 909.786 1625.85C952.098 1565.79 1070.13 1503.52 1032.27 1452.37C994.411 1401.22 978.822 1390.09 981.049 1352.29C983.276 1314.48 952.098 1290.01 952.098 1261.1L947.746 1154.18L952.098 1122.6C956.951 1095.84 983.276 1069.23 981.049 1031.42C978.822 993.61 995.495 1008.53 1010.24 946.664C1023.97 889.017 1012.94 933.112 996.69 874.558C992.756 852.151 991.746 804.124 1019.18 791.272C1053.47 775.206 1081.46 759.141 1085.66 743.774C1089.86 728.407 1124.15 717.93 1144.45 710.246C1160.68 704.099 1164.5 677.5 1166.5 668" stroke="#222222" stroke-width="4.60088"/>
<path d="M1025.69 1094.3C1006.3 1118.83 1011.26 1159.7 1004.36 1177.61C996.533 1190.47 1006.3 1264.87 1025.69 1289.4C1049.93 1320.06 1049.93 1366.86 1064.47 1378.16C1079.01 1389.45 1067.7 1420.11 1090.33 1434.64C1112.95 1449.16 1121.03 1495.95 1116.18 1510.47C1111.33 1524.99 1140.42 1555.65 1151.73 1552.43C1163.04 1549.2 1196.97 1544.36 1211.51 1533.07C1226.05 1521.77 1242.21 1481.43 1266.45 1474.98C1290.69 1468.52 1303.61 1474.98 1329.46 1474.98C1350.15 1474.98 1377.94 1421.19 1389.25 1394.29C1393.02 1375.46 1404.11 1334.91 1418.33 1323.29C1436.11 1308.76 1458.73 1292.63 1458.73 1270.04C1458.73 1251.96 1506.96 1237.79 1500.05 1218.04L1497.75 1207.47L1492.66 1170.14C1488.09 1154.64 1458.73 1131.74 1458.73 1113.67C1458.73 1091.08 1436.11 1074.94 1418.33 1060.42C1404.11 1048.8 1393.02 1008.24 1389.25 989.415C1377.94 962.521 1350.15 908.731 1329.46 908.731C1303.61 908.731 1290.69 915.186 1266.45 908.731C1242.21 902.276 1221.42 903.641 1206.88 892.346C1192.34 881.05 1168.74 866.618 1157.43 863.39C1146.12 860.163 1115 894.208 1119.85 908.731C1124.7 923.254 1112.95 934.547 1090.33 949.07C1067.7 963.594 1079.01 994.255 1064.47 1005.55C1049.93 1016.85 1049.93 1063.64 1025.69 1094.3Z" stroke="#222222" stroke-width="4.60088"/>
<path d="M1095.17 1124.98C1079.66 1132.72 1075.78 1171.58 1075.78 1190.95C1075.78 1210.31 1079.66 1250.99 1095.17 1258.73C1114.56 1268.41 1132.33 1311.98 1133.95 1324.89C1135.24 1335.22 1134.49 1367.92 1133.95 1382.98L1159.8 1412.02L1198.58 1429.78L1235.75 1421.71C1240.59 1414.18 1253.52 1399.12 1266.45 1399.12C1279.37 1399.12 1299.84 1361.46 1308.46 1342.64L1335.93 1316.82L1365.01 1268.41L1391.89 1229.98L1399.72 1186.34L1386.37 1147.29L1365.01 1115.3L1335.93 1066.89L1308.46 1041.07C1299.84 1022.24 1279.37 984.589 1266.45 984.589C1253.52 984.589 1240.59 969.528 1235.75 961.998L1198.58 953.926L1159.8 971.682L1133.95 1000.73C1134.49 1015.79 1135.24 1048.49 1133.95 1058.82C1132.33 1071.73 1114.56 1115.3 1095.17 1124.98Z" stroke="#222222" stroke-width="4.60088"/>
<path d="M1547 1384.33L1496.5 1396L1454.41 1464.28L1414.15 1495.74L1379.13 1523.71L1414.15 1553.44L1443.91 1544.69L1480.67 1523.71L1547 1515" stroke="#222222" stroke-width="4.60088"/>
<path d="M1163.57 1132.25C1148.67 1147.12 1155.92 1180.91 1152.1 1190.93C1148.45 1200.5 1148.67 1236.58 1163.57 1251.45C1178.47 1266.33 1186.97 1294.85 1189.36 1307.25C1195.57 1314.4 1222.56 1344.36 1226 1345.5C1230.3 1346.93 1252.5 1314 1248.1 1282.93C1247.16 1276.32 1249.53 1253.83 1248.1 1242.86L1258.5 1190.93L1252.5 1141C1250.41 1125.66 1251.54 1106.49 1248.1 1100.77C1243.8 1093.62 1221.8 1066.07 1217.5 1067.5C1214.06 1068.65 1195.57 1069.3 1189.36 1076.45C1186.97 1088.85 1178.47 1117.37 1163.57 1132.25Z" stroke="#222222" stroke-width="4.60088"/>
<path d="M1546.89 2563.5C1534 2563.5 1482.59 2494.44 1447.21 2499.15C1402.98 2505.04 1373.49 2446.15 1311.57 2434.37C1249.65 2422.59 1199.52 2410.81 1172.99 2413.75C1146.45 2416.7 1116.96 2449.09 1099.27 2466.76C1085.12 2480.89 1185.08 2492.37 1191.1 2522.43C1192.08 2538.13 1224.02 2613.5 1155.61 2622.93C1087.2 2632.36 902.951 2703.63 870.516 2754.67C824.154 2818.07 964.319 2769.83 985.03 2908.57C1025.53 3179.88 1208.71 2882.84 1355.54 2895.24C1502.36 2907.65 1422.73 2750.54 1472.9 2769.83C1529.97 2787.75 1511 2766 1546.5 2766" stroke="#222222" stroke-width="4.60088"/>
<path d="M612.035 2510.84C571.023 2542.35 484.228 2503.21 493.73 2471.46L517.077 2406.61C520.423 2381.4 525.107 2324.78 517.077 2299.99C507.04 2269.01 480.578 2271.74 462.328 2260.81C447.729 2252.06 445.296 2212.82 445.904 2194.29L472.366 2154.19C492.136 2146.29 534.962 2132.14 548.101 2138.7C564.526 2146.9 601.937 2185.17 612.035 2233.47C622.132 2281.77 692.272 2341 695.922 2382.01C699.572 2423.02 698.659 2422.11 687.71 2433.95C676.76 2445.8 663.3 2471.46 612.035 2510.84Z" stroke="#222222" stroke-width="4.60088"/>
<path d="M1.46094 1393.98C36.5981 1401.77 86.2667 1373.91 158.103 1389.49C229.94 1405.08 241.715 1448.65 288.514 1469.91C360.516 1486.71 494.855 1479.25 456.194 1314.97C449.904 1277.92 412.009 1267.65 419.834 1219.42C427.658 1171.18 434.562 1022.8 387.155 1073.8C346.193 1143.16 159.145 1180.83 224.685 1224.93C290.225 1269.03 172.564 1334.83 135.856 1259.85L70.1486 1135.34C61.554 1072.25 50.396 939.735 74.5209 914.388C98.6459 889.042 92.5089 854.191 86.4247 839.934C74.1474 815.26 55.0492 801.697 3.57351 801.695" stroke="#222222" stroke-width="4.60088"/>
<path d="M445.836 996.373L444.915 998.173L443.703 997.509L445.836 996.373Z" fill="#222222"/>
<g filter="url(#filter0_f_378_11856)">
<circle cx="774" cy="1991" r="138.958" stroke="#222222" stroke-width="22.0842"/>
</g>
<path d="M912.958 1991C912.958 2067.74 850.744 2129.96 774 2129.96C697.256 2129.96 635.042 2067.74 635.042 1991C635.042 1914.26 697.256 1852.04 774 1852.04C850.744 1852.04 912.958 1914.26 912.958 1991Z" fill="#344753" fill-opacity="0.3" stroke="#BC0B07" stroke-width="22.0842"/>
<g filter="url(#filter1_f_378_11856)">
<circle cx="774" cy="1991" r="142.639" stroke="#222222" stroke-width="14.7228"/>
</g>
<circle cx="774" cy="1991" r="142.639" stroke="#D7130F" stroke-width="14.7228"/>
<g filter="url(#filter2_f_378_11856)">
<circle cx="774" cy="1991" r="146.319" stroke="#222222" stroke-width="7.36141"/>
</g>
<circle cx="774" cy="1991" r="146.319" stroke="#EE0500" stroke-width="7.36141"/>
<circle cx="774" cy="1991" r="153.681" stroke="#EE0500" stroke-width="7.36141"/>
<g filter="url(#filter3_f_378_11856)">
<circle cx="1028.5" cy="1898.5" r="73.6477" stroke="#222222" stroke-width="11.7046"/>
</g>
<path d="M1102.15 1898.5C1102.15 1939.17 1069.17 1972.15 1028.5 1972.15C987.826 1972.15 954.852 1939.17 954.852 1898.5C954.852 1857.83 987.826 1824.85 1028.5 1824.85C1069.17 1824.85 1102.15 1857.83 1102.15 1898.5Z" fill="#344753" fill-opacity="0.3" stroke="#BC0B07" stroke-width="11.7046"/>
<g filter="url(#filter4_f_378_11856)">
<circle cx="1028.5" cy="1898.5" r="75.5984" stroke="#222222" stroke-width="7.8031"/>
</g>
<circle cx="1028.5" cy="1898.5" r="75.5984" stroke="#D7130F" stroke-width="7.8031"/>
<g filter="url(#filter5_f_378_11856)">
<circle cx="1028.5" cy="1898.5" r="77.5492" stroke="#222222" stroke-width="3.90155"/>
</g>
<circle cx="1028.5" cy="1898.5" r="77.5492" stroke="#EE0500" stroke-width="3.90155"/>
<circle cx="1028.5" cy="1898.5" r="81.4508" stroke="#EE0500" stroke-width="3.90155"/>
<line x1="1" y1="2710.5" x2="1546" y2="2710.5" stroke="#FFFFFE" stroke-width="3"/>
<line x1="1" y1="2558.5" x2="1546" y2="2558.5" stroke="#FFFFFE" stroke-width="3"/>
<line x1="1" y1="2454.5" x2="1546" y2="2454.5" stroke="#FFFFFE" stroke-width="3"/>
<mask id="path-45-inside-5_378_11856" fill="white">
<path d="M544 2175H545V2176H544V2175Z"/>
</mask>
<path d="M545 2175H548V2172H545V2175ZM544 2175V2172H541V2175H544ZM544 2176H541V2179H544V2176ZM545 2176V2179H548V2176H545ZM545 2172H544V2178H545V2172ZM541 2175V2176H547V2175H541ZM544 2179H545V2173H544V2179ZM548 2176V2175H542V2176H548Z" fill="#FFFFFE" mask="url(#path-45-inside-5_378_11856)"/>
<mask id="path-47-inside-6_378_11856" fill="white">
<path d="M1002 2175H1003V2176H1002V2175Z"/>
</mask>
<path d="M1003 2175H1006V2172H1003V2175ZM1002 2175V2172H999V2175H1002ZM1002 2176H999V2179H1002V2176ZM1003 2176V2179H1006V2176H1003ZM1003 2172H1002V2178H1003V2172ZM999 2175V2176H1005V2175H999ZM1002 2179H1003V2173H1002V2179ZM1006 2176V2175H1000V2176H1006Z" fill="#FFFFFE" mask="url(#path-47-inside-6_378_11856)"/>
<line x1="545" y1="2174.5" x2="1002" y2="2174.5" stroke="#FFFFFE" stroke-width="3"/>
<line x1="493" y1="2198.5" x2="1054" y2="2198.5" stroke="#FFFFFE" stroke-width="3"/>
<mask id="path-51-inside-7_378_11856" fill="white">
<path d="M492 2199H493V2200H492V2199Z"/>
</mask>
<path d="M493 2199H496V2196H493V2199ZM492 2199V2196H489V2199H492ZM492 2200H489V2203H492V2200ZM493 2200V2203H496V2200H493ZM493 2196H492V2202H493V2196ZM489 2199V2200H495V2199H489ZM492 2203H493V2197H492V2203ZM496 2200V2199H490V2200H496Z" fill="#FFFFFE" mask="url(#path-51-inside-7_378_11856)"/>
<mask id="path-53-inside-8_378_11856" fill="white">
<path d="M1054 2199H1055V2200H1054V2199Z"/>
</mask>
<path d="M1055 2199H1058V2196H1055V2199ZM1054 2199V2196H1051V2199H1054ZM1054 2200H1051V2203H1054V2200ZM1055 2200V2203H1058V2200H1055ZM1055 2196H1054V2202H1055V2196ZM1051 2199V2200H1057V2199H1051ZM1054 2203H1055V2197H1054V2203ZM1058 2200V2199H1052V2200H1058Z" fill="#FFFFFE" mask="url(#path-53-inside-8_378_11856)"/>
<line x1="407" y1="2238.5" x2="1140" y2="2238.5" stroke="#FFFFFE" stroke-width="3"/>
<line x1="285" y1="2294.5" x2="1262" y2="2294.5" stroke="#FFFFFE" stroke-width="3"/>
<line x1="129" y1="2366.5" x2="1418" y2="2366.5" stroke="#FFFFFE" stroke-width="3"/>
<mask id="path-58-inside-9_378_11856" fill="white">
<path d="M128 2367H129V2368H128V2367Z"/>
</mask>
<path d="M129 2367H132V2364H129V2367ZM128 2367V2364H125V2367H128ZM128 2368H125V2371H128V2368ZM129 2368V2371H132V2368H129ZM129 2364H128V2370H129V2364ZM125 2367V2368H131V2367H125ZM128 2371H129V2365H128V2371ZM132 2368V2367H126V2368H132Z" fill="#FFFFFE" mask="url(#path-58-inside-9_378_11856)"/>
<mask id="path-60-inside-10_378_11856" fill="white">
<path d="M1418 2367H1419V2368H1418V2367Z"/>
</mask>
<path d="M1419 2367H1422V2364H1419V2367ZM1418 2367V2364H1415V2367H1418ZM1418 2368H1415V2371H1418V2368ZM1419 2368V2371H1422V2368H1419ZM1419 2364H1418V2370H1419V2364ZM1415 2367V2368H1421V2367H1415ZM1418 2371H1419V2365H1418V2371ZM1422 2368V2367H1416V2368H1422Z" fill="#FFFFFE" mask="url(#path-60-inside-10_378_11856)"/>
<mask id="path-62-inside-11_378_11856" fill="white">
<path d="M406 2239H407V2240H406V2239Z"/>
</mask>
<path d="M407 2239H410V2236H407V2239ZM406 2239V2236H403V2239H406ZM406 2240H403V2243H406V2240ZM407 2240V2243H410V2240H407ZM407 2236H406V2242H407V2236ZM403 2239V2240H409V2239H403ZM406 2243H407V2237H406V2243ZM410 2240V2239H404V2240H410Z" fill="#FFFFFE" mask="url(#path-62-inside-11_378_11856)"/>
<mask id="path-64-inside-12_378_11856" fill="white">
<path d="M1140 2239H1141V2240H1140V2239Z"/>
</mask>
<path d="M1141 2239H1144V2236H1141V2239ZM1140 2239V2236H1137V2239H1140ZM1140 2240H1137V2243H1140V2240ZM1141 2240V2243H1144V2240H1141ZM1141 2236H1140V2242H1141V2236ZM1137 2239V2240H1143V2239H1137ZM1140 2243H1141V2237H1140V2243ZM1144 2240V2239H1138V2240H1144Z" fill="#FFFFFE" mask="url(#path-64-inside-12_378_11856)"/>
<mask id="path-66-inside-13_378_11856" fill="white">
<path d="M284 2295H285V2296H284V2295Z"/>
</mask>
<path d="M285 2295H288V2292H285V2295ZM284 2295V2292H281V2295H284ZM284 2296H281V2299H284V2296ZM285 2296V2299H288V2296H285ZM285 2292H284V2298H285V2292ZM281 2295V2296H287V2295H281ZM284 2299H285V2293H284V2299ZM288 2296V2295H282V2296H288Z" fill="#FFFFFE" mask="url(#path-66-inside-13_378_11856)"/>
<mask id="path-68-inside-14_378_11856" fill="white">
<path d="M1262 2295H1263V2296H1262V2295Z"/>
</mask>
<path d="M1263 2295H1266V2292H1263V2295ZM1262 2295V2292H1259V2295H1262ZM1262 2296H1259V2299H1262V2296ZM1263 2296V2299H1266V2296H1263ZM1263 2292H1262V2298H1263V2292ZM1259 2295V2296H1265V2295H1259ZM1262 2299H1263V2293H1262V2299ZM1266 2296V2295H1260V2296H1266Z" fill="#FFFFFE" mask="url(#path-68-inside-14_378_11856)"/>
<defs>
<filter id="filter0_f_378_11856" x="616.639" y="1833.64" width="314.723" height="314.723" filterUnits="userSpaceOnUse" color-interpolation-filters="sRGB">
<feFlood flood-opacity="0" result="BackgroundImageFix"/>
<feBlend mode="normal" in="SourceGraphic" in2="BackgroundImageFix" result="shape"/>
<feGaussianBlur stdDeviation="3.68071" result="effect1_foregroundBlur_378_11856"/>
</filter>
<filter id="filter1_f_378_11856" x="616.639" y="1833.64" width="314.723" height="314.723" filterUnits="userSpaceOnUse" color-interpolation-filters="sRGB">
<feFlood flood-opacity="0" result="BackgroundImageFix"/>
<feBlend mode="normal" in="SourceGraphic" in2="BackgroundImageFix" result="shape"/>
<feGaussianBlur stdDeviation="3.68071" result="effect1_foregroundBlur_378_11856"/>
</filter>
<filter id="filter2_f_378_11856" x="616.639" y="1833.64" width="314.723" height="314.723" filterUnits="userSpaceOnUse" color-interpolation-filters="sRGB">
<feFlood flood-opacity="0" result="BackgroundImageFix"/>
<feBlend mode="normal" in="SourceGraphic" in2="BackgroundImageFix" result="shape"/>
<feGaussianBlur stdDeviation="3.68071" result="effect1_foregroundBlur_378_11856"/>
</filter>
<filter id="filter3_f_378_11856" x="945.098" y="1815.1" width="166.803" height="166.803" filterUnits="userSpaceOnUse" color-interpolation-filters="sRGB">
<feFlood flood-opacity="0" result="BackgroundImageFix"/>
<feBlend mode="normal" in="SourceGraphic" in2="BackgroundImageFix" result="shape"/>
<feGaussianBlur stdDeviation="1.95077" result="effect1_foregroundBlur_378_11856"/>
</filter>
<filter id="filter4_f_378_11856" x="945.098" y="1815.1" width="166.803" height="166.803" filterUnits="userSpaceOnUse" color-interpolation-filters="sRGB">
<feFlood flood-opacity="0" result="BackgroundImageFix"/>
<feBlend mode="normal" in="SourceGraphic" in2="BackgroundImageFix" result="shape"/>
<feGaussianBlur stdDeviation="1.95077" result="effect1_foregroundBlur_378_11856"/>
</filter>
<filter id="filter5_f_378_11856" x="945.098" y="1815.1" width="166.803" height="166.803" filterUnits="userSpaceOnUse" color-interpolation-filters="sRGB">
<feFlood flood-opacity="0" result="BackgroundImageFix"/>
<feBlend mode="normal" in="SourceGraphic" in2="BackgroundImageFix" result="shape"/>
<feGaussianBlur stdDeviation="1.95077" result="effect1_foregroundBlur_378_11856"/>
</filter>
</defs>
</svg>
