<svg width="102" height="101" viewBox="0 0 102 101" fill="none" xmlns="http://www.w3.org/2000/svg">
<rect x="2.22327" y="1.54395" width="97.3613" height="97.3613" stroke="#222222" stroke-width="3"/>
<path d="M6.2561 99.0133C7.23693 84.5686 17.4346 58.8674 49.5902 55.6793C88.4622 51.8253 96.4901 22.5499 99.5663 6.00978" stroke="#222222" stroke-width="3"/>
<path d="M2.38123 87.7241C2.92883 73.5957 17.3081 53.9342 48.5726 48.0257C75.2332 42.9873 80.7124 18.3372 82.4298 2.15918" stroke="#222222" stroke-width="3"/>
<path d="M99.9905 74.1604L27.2467 1.41699" stroke="#222222" stroke-width="3"/>
<path d="M27.2467 99.0137L40.2863 15.1104" stroke="#222222" stroke-width="3"/>
<rect x="36.0521" y="20.291" width="4.57131" height="12.8052" rx="1" transform="rotate(-120 36.0521 20.291)" fill="#222222"/>
<path d="M14.8943 98.5889C15.5148 86.846 23.5274 63.3604 50.6134 63.3604C77.6995 63.3604 86.2401 86.846 87.1247 98.5889" stroke="#222222" stroke-width="3"/>
</svg>
