<svg width="92" height="153" viewBox="0 0 92 153" fill="none" xmlns="http://www.w3.org/2000/svg">
<g opacity="0.3">
<g clip-path="url(#clip0_4_1539)">
<path d="M52.9929 40.3H39.5071V142.707L46.25 154.929L52.9929 142.707V40.3Z" stroke="black" stroke-width="1.5"/>
<path d="M46.25 41L46.25 141" stroke="black" stroke-width="1.5"/>
<path d="M51.3072 8.27142H41.1929V36.0857H51.3072V8.27142Z" stroke="black" stroke-width="1.5"/>
<path d="M65.6357 36.0858H26.8643V40.3H65.6357V36.0858Z" stroke="black" stroke-width="1.5"/>
<circle cx="23.25" cy="38.25" r="3.5" stroke="black" stroke-width="1.5"/>
<circle cx="69.25" cy="38.25" r="3.5" stroke="black" stroke-width="1.5"/>
<mask id="path-7-inside-1_4_1539" fill="white">
<path d="M51.25 4.5C51.25 3.90905 51.1207 3.32389 50.8694 2.77792C50.6181 2.23196 50.2498 1.73588 49.7855 1.31802C49.3212 0.900156 48.77 0.568688 48.1634 0.342542C47.5568 0.116396 46.9066 -2.58312e-08 46.25 0C45.5934 2.58312e-08 44.9432 0.116396 44.3366 0.342542C43.73 0.568688 43.1788 0.900156 42.7145 1.31802C42.2502 1.73588 41.8819 2.23196 41.6306 2.77792C41.3793 3.32389 41.25 3.90905 41.25 4.5L46.25 4.5H51.25Z"/>
</mask>
<path d="M51.25 4.5C51.25 3.90905 51.1207 3.32389 50.8694 2.77792C50.6181 2.23196 50.2498 1.73588 49.7855 1.31802C49.3212 0.900156 48.77 0.568688 48.1634 0.342542C47.5568 0.116396 46.9066 -2.58312e-08 46.25 0C45.5934 2.58312e-08 44.9432 0.116396 44.3366 0.342542C43.73 0.568688 43.1788 0.900156 42.7145 1.31802C42.2502 1.73588 41.8819 2.23196 41.6306 2.77792C41.3793 3.32389 41.25 3.90905 41.25 4.5L46.25 4.5H51.25Z" stroke="black" stroke-width="3" mask="url(#path-7-inside-1_4_1539)"/>
<path d="M54.6786 8.27143H37.8214L38.75 4.5H53.75L54.6786 8.27143Z" stroke="black" stroke-width="1.5"/>
<path d="M51.3072 9.53571L41.1929 19.65" stroke="black" stroke-width="1.5"/>
<path d="M51.3072 14.5929L41.1929 24.7072" stroke="black" stroke-width="1.5"/>
<path d="M51.3072 19.65L41.1929 29.7643" stroke="black" stroke-width="1.5"/>
<path d="M51.3072 24.7072L41.1929 34.8214" stroke="black" stroke-width="1.5"/>
</g>
<g clip-path="url(#clip1_4_1539)">
<path d="M52.9929 35.3H39.5071V137.707L46.25 149.929L52.9929 137.707V35.3Z" stroke="black" stroke-width="1.5"/>
<path d="M46.25 125L46.25 136" stroke="black" stroke-width="1.5"/>
</g>
<path d="M20.1134 79.6808L4 87.5178L46.046 108.923L88.0919 87.5178L72.482 79.6808" stroke="black" stroke-width="3.02127"/>
<path d="M20.1134 95.6808L4 103.518L46.046 124.923L88.0919 103.518L72.482 95.6808" stroke="black" stroke-width="3.02127"/>
<path d="M39.4929 54L5 71.8255L46.2815 93.2307L88.3274 71.8255L53 54" stroke="black" stroke-width="3.02127"/>
<circle cx="19.25" cy="83.5" r="0.5" fill="black"/>
<circle cx="19.25" cy="99.5" r="0.5" fill="black"/>
<circle cx="21.25" cy="84.5" r="0.5" fill="black"/>
<circle cx="21.25" cy="100.5" r="0.5" fill="black"/>
<circle cx="23.25" cy="85.5" r="0.5" fill="black"/>
<circle cx="23.25" cy="101.5" r="0.5" fill="black"/>
<circle cx="25.25" cy="86.5" r="0.5" fill="black"/>
<circle cx="25.25" cy="102.5" r="0.5" fill="black"/>
<circle cx="27.25" cy="87.5" r="0.5" fill="black"/>
<circle cx="27.25" cy="103.5" r="0.5" fill="black"/>
<circle cx="29.25" cy="88.5" r="0.5" fill="black"/>
<circle cx="29.25" cy="104.5" r="0.5" fill="black"/>
<circle cx="31.25" cy="89.5" r="0.5" fill="black"/>
<circle cx="31.25" cy="105.5" r="0.5" fill="black"/>
<circle cx="33.25" cy="90.5" r="0.5" fill="black"/>
<circle cx="33.25" cy="106.5" r="0.5" fill="black"/>
<circle cx="35.25" cy="91.5" r="0.5" fill="black"/>
<circle cx="35.25" cy="107.5" r="0.5" fill="black"/>
<circle cx="37.25" cy="92.5" r="0.5" fill="black"/>
<circle cx="37.25" cy="108.5" r="0.5" fill="black"/>
<circle cx="39.25" cy="93.5" r="0.5" fill="black"/>
<circle cx="39.25" cy="109.5" r="0.5" fill="black"/>
<circle cx="41.25" cy="94.5" r="0.5" fill="black"/>
<circle cx="41.25" cy="110.5" r="0.5" fill="black"/>
<circle cx="43.25" cy="95.5" r="0.5" fill="black"/>
<circle cx="43.25" cy="111.5" r="0.5" fill="black"/>
<circle cx="45.25" cy="96.5" r="0.5" fill="black"/>
<circle cx="45.25" cy="112.5" r="0.5" fill="black"/>
<circle cx="47.25" cy="96.5" r="0.5" fill="black"/>
<circle cx="47.25" cy="112.5" r="0.5" fill="black"/>
<circle cx="49.25" cy="95.5" r="0.5" fill="black"/>
<circle cx="49.25" cy="111.5" r="0.5" fill="black"/>
<circle cx="51.25" cy="94.5" r="0.5" fill="black"/>
<circle cx="51.25" cy="110.5" r="0.5" fill="black"/>
<circle cx="53.25" cy="93.5" r="0.5" fill="black"/>
<circle cx="53.25" cy="109.5" r="0.5" fill="black"/>
<circle cx="55.25" cy="92.5" r="0.5" fill="black"/>
<circle cx="55.25" cy="108.5" r="0.5" fill="black"/>
<circle cx="57.25" cy="91.5" r="0.5" fill="black"/>
<circle cx="57.25" cy="107.5" r="0.5" fill="black"/>
<circle cx="59.25" cy="90.5" r="0.5" fill="black"/>
<circle cx="59.25" cy="106.5" r="0.5" fill="black"/>
<circle cx="61.25" cy="89.5" r="0.5" fill="black"/>
<circle cx="61.25" cy="105.5" r="0.5" fill="black"/>
<circle cx="63.25" cy="88.5" r="0.5" fill="black"/>
<circle cx="63.25" cy="104.5" r="0.5" fill="black"/>
<circle cx="65.25" cy="87.5" r="0.5" fill="black"/>
<circle cx="65.25" cy="103.5" r="0.5" fill="black"/>
<circle cx="67.25" cy="86.5" r="0.5" fill="black"/>
<circle cx="67.25" cy="102.5" r="0.5" fill="black"/>
<circle cx="69.25" cy="85.5" r="0.5" fill="black"/>
<circle cx="69.25" cy="101.5" r="0.5" fill="black"/>
<circle cx="71.25" cy="84.5" r="0.5" fill="black"/>
<circle cx="71.25" cy="100.5" r="0.5" fill="black"/>
<circle cx="73.25" cy="83.5" r="0.5" fill="black"/>
<circle cx="73.25" cy="99.5" r="0.5" fill="black"/>
<circle cx="19.25" cy="85.5" r="0.5" fill="black"/>
<circle cx="19.25" cy="101.5" r="0.5" fill="black"/>
<circle cx="17.25" cy="84.5" r="0.5" fill="black"/>
<circle cx="17.25" cy="100.5" r="0.5" fill="black"/>
<circle cx="21.25" cy="86.5" r="0.5" fill="black"/>
<circle cx="21.25" cy="102.5" r="0.5" fill="black"/>
<circle cx="23.25" cy="87.5" r="0.5" fill="black"/>
<circle cx="23.25" cy="103.5" r="0.5" fill="black"/>
<circle cx="25.25" cy="88.5" r="0.5" fill="black"/>
<circle cx="25.25" cy="104.5" r="0.5" fill="black"/>
<circle cx="27.25" cy="89.5" r="0.5" fill="black"/>
<circle cx="27.25" cy="105.5" r="0.5" fill="black"/>
<circle cx="29.25" cy="90.5" r="0.5" fill="black"/>
<circle cx="29.25" cy="106.5" r="0.5" fill="black"/>
<circle cx="31.25" cy="91.5" r="0.5" fill="black"/>
<circle cx="31.25" cy="107.5" r="0.5" fill="black"/>
<circle cx="33.25" cy="92.5" r="0.5" fill="black"/>
<circle cx="33.25" cy="108.5" r="0.5" fill="black"/>
<circle cx="35.25" cy="93.5" r="0.5" fill="black"/>
<circle cx="35.25" cy="109.5" r="0.5" fill="black"/>
<circle cx="37.25" cy="94.5" r="0.5" fill="black"/>
<circle cx="37.25" cy="110.5" r="0.5" fill="black"/>
<circle cx="39.25" cy="95.5" r="0.5" fill="black"/>
<circle cx="39.25" cy="111.5" r="0.5" fill="black"/>
<circle cx="41.25" cy="96.5" r="0.5" fill="black"/>
<circle cx="41.25" cy="112.5" r="0.5" fill="black"/>
<circle cx="43.25" cy="97.5" r="0.5" fill="black"/>
<circle cx="43.25" cy="113.5" r="0.5" fill="black"/>
<circle cx="45.25" cy="98.5" r="0.5" fill="black"/>
<circle cx="45.25" cy="114.5" r="0.5" fill="black"/>
<circle cx="47.25" cy="98.5" r="0.5" fill="black"/>
<circle cx="47.25" cy="114.5" r="0.5" fill="black"/>
<circle cx="49.25" cy="97.5" r="0.5" fill="black"/>
<circle cx="49.25" cy="113.5" r="0.5" fill="black"/>
<circle cx="51.25" cy="96.5" r="0.5" fill="black"/>
<circle cx="51.25" cy="112.5" r="0.5" fill="black"/>
<circle cx="53.25" cy="95.5" r="0.5" fill="black"/>
<circle cx="53.25" cy="111.5" r="0.5" fill="black"/>
<circle cx="55.25" cy="94.5" r="0.5" fill="black"/>
<circle cx="55.25" cy="110.5" r="0.5" fill="black"/>
<circle cx="57.25" cy="93.5" r="0.5" fill="black"/>
<circle cx="57.25" cy="109.5" r="0.5" fill="black"/>
<circle cx="59.25" cy="92.5" r="0.5" fill="black"/>
<circle cx="59.25" cy="108.5" r="0.5" fill="black"/>
<circle cx="61.25" cy="91.5" r="0.5" fill="black"/>
<circle cx="61.25" cy="107.5" r="0.5" fill="black"/>
<circle cx="63.25" cy="90.5" r="0.5" fill="black"/>
<circle cx="63.25" cy="106.5" r="0.5" fill="black"/>
<circle cx="65.25" cy="89.5" r="0.5" fill="black"/>
<circle cx="65.25" cy="105.5" r="0.5" fill="black"/>
<circle cx="67.25" cy="88.5" r="0.5" fill="black"/>
<circle cx="67.25" cy="104.5" r="0.5" fill="black"/>
<circle cx="69.25" cy="87.5" r="0.5" fill="black"/>
<circle cx="69.25" cy="103.5" r="0.5" fill="black"/>
<circle cx="71.25" cy="86.5" r="0.5" fill="black"/>
<circle cx="71.25" cy="102.5" r="0.5" fill="black"/>
<circle cx="73.25" cy="85.5" r="0.5" fill="black"/>
<circle cx="73.25" cy="101.5" r="0.5" fill="black"/>
<circle cx="75.25" cy="84.5" r="0.5" fill="black"/>
<circle cx="75.25" cy="100.5" r="0.5" fill="black"/>
<circle cx="19.25" cy="87.5" r="0.5" fill="black"/>
<circle cx="19.25" cy="103.5" r="0.5" fill="black"/>
<circle cx="17.25" cy="86.5" r="0.5" fill="black"/>
<circle cx="17.25" cy="102.5" r="0.5" fill="black"/>
<circle cx="15.25" cy="85.5" r="0.5" fill="black"/>
<circle cx="15.25" cy="101.5" r="0.5" fill="black"/>
<circle cx="13.25" cy="86.5" r="0.5" fill="black"/>
<circle cx="13.25" cy="102.5" r="0.5" fill="black"/>
<circle cx="21.25" cy="88.5" r="0.5" fill="black"/>
<circle cx="21.25" cy="104.5" r="0.5" fill="black"/>
<circle cx="23.25" cy="89.5" r="0.5" fill="black"/>
<circle cx="23.25" cy="105.5" r="0.5" fill="black"/>
<circle cx="25.25" cy="90.5" r="0.5" fill="black"/>
<circle cx="25.25" cy="106.5" r="0.5" fill="black"/>
<circle cx="27.25" cy="91.5" r="0.5" fill="black"/>
<circle cx="27.25" cy="107.5" r="0.5" fill="black"/>
<circle cx="29.25" cy="92.5" r="0.5" fill="black"/>
<circle cx="29.25" cy="108.5" r="0.5" fill="black"/>
<circle cx="31.25" cy="93.5" r="0.5" fill="black"/>
<circle cx="31.25" cy="109.5" r="0.5" fill="black"/>
<circle cx="33.25" cy="94.5" r="0.5" fill="black"/>
<circle cx="33.25" cy="110.5" r="0.5" fill="black"/>
<circle cx="35.25" cy="95.5" r="0.5" fill="black"/>
<circle cx="35.25" cy="111.5" r="0.5" fill="black"/>
<circle cx="37.25" cy="96.5" r="0.5" fill="black"/>
<circle cx="37.25" cy="112.5" r="0.5" fill="black"/>
<circle cx="39.25" cy="97.5" r="0.5" fill="black"/>
<circle cx="39.25" cy="113.5" r="0.5" fill="black"/>
<circle cx="41.25" cy="98.5" r="0.5" fill="black"/>
<circle cx="41.25" cy="114.5" r="0.5" fill="black"/>
<circle cx="43.25" cy="99.5" r="0.5" fill="black"/>
<circle cx="43.25" cy="115.5" r="0.5" fill="black"/>
<circle cx="45.25" cy="100.5" r="0.5" fill="black"/>
<circle cx="45.25" cy="116.5" r="0.5" fill="black"/>
<circle cx="47.25" cy="100.5" r="0.5" fill="black"/>
<circle cx="47.25" cy="116.5" r="0.5" fill="black"/>
<circle cx="49.25" cy="99.5" r="0.5" fill="black"/>
<circle cx="49.25" cy="115.5" r="0.5" fill="black"/>
<circle cx="51.25" cy="98.5" r="0.5" fill="black"/>
<circle cx="51.25" cy="114.5" r="0.5" fill="black"/>
<circle cx="53.25" cy="97.5" r="0.5" fill="black"/>
<circle cx="53.25" cy="113.5" r="0.5" fill="black"/>
<circle cx="55.25" cy="96.5" r="0.5" fill="black"/>
<circle cx="55.25" cy="112.5" r="0.5" fill="black"/>
<circle cx="57.25" cy="95.5" r="0.5" fill="black"/>
<circle cx="57.25" cy="111.5" r="0.5" fill="black"/>
<circle cx="59.25" cy="94.5" r="0.5" fill="black"/>
<circle cx="59.25" cy="110.5" r="0.5" fill="black"/>
<circle cx="61.25" cy="93.5" r="0.5" fill="black"/>
<circle cx="61.25" cy="109.5" r="0.5" fill="black"/>
<circle cx="63.25" cy="92.5" r="0.5" fill="black"/>
<circle cx="63.25" cy="108.5" r="0.5" fill="black"/>
<circle cx="65.25" cy="91.5" r="0.5" fill="black"/>
<circle cx="65.25" cy="107.5" r="0.5" fill="black"/>
<circle cx="67.25" cy="90.5" r="0.5" fill="black"/>
<circle cx="67.25" cy="106.5" r="0.5" fill="black"/>
<circle cx="69.25" cy="89.5" r="0.5" fill="black"/>
<circle cx="69.25" cy="105.5" r="0.5" fill="black"/>
<circle cx="71.25" cy="88.5" r="0.5" fill="black"/>
<circle cx="71.25" cy="104.5" r="0.5" fill="black"/>
<circle cx="73.25" cy="87.5" r="0.5" fill="black"/>
<circle cx="73.25" cy="103.5" r="0.5" fill="black"/>
<circle cx="75.25" cy="86.5" r="0.5" fill="black"/>
<circle cx="75.25" cy="102.5" r="0.5" fill="black"/>
<circle cx="77.25" cy="85.5" r="0.5" fill="black"/>
<circle cx="77.25" cy="101.5" r="0.5" fill="black"/>
<circle cx="19.25" cy="89.5" r="0.5" fill="black"/>
<circle cx="19.25" cy="105.5" r="0.5" fill="black"/>
<circle cx="17.25" cy="88.5" r="0.5" fill="black"/>
<circle cx="17.25" cy="104.5" r="0.5" fill="black"/>
<circle cx="15.25" cy="87.5" r="0.5" fill="black"/>
<circle cx="15.25" cy="103.5" r="0.5" fill="black"/>
<circle cx="13.25" cy="88.5" r="0.5" fill="black"/>
<circle cx="13.25" cy="104.5" r="0.5" fill="black"/>
<circle cx="11.25" cy="87.5" r="0.5" fill="black"/>
<circle cx="11.25" cy="103.5" r="0.5" fill="black"/>
<circle cx="21.25" cy="90.5" r="0.5" fill="black"/>
<circle cx="21.25" cy="106.5" r="0.5" fill="black"/>
<circle cx="23.25" cy="91.5" r="0.5" fill="black"/>
<circle cx="23.25" cy="107.5" r="0.5" fill="black"/>
<circle cx="25.25" cy="92.5" r="0.5" fill="black"/>
<circle cx="25.25" cy="108.5" r="0.5" fill="black"/>
<circle cx="27.25" cy="93.5" r="0.5" fill="black"/>
<circle cx="27.25" cy="109.5" r="0.5" fill="black"/>
<circle cx="29.25" cy="94.5" r="0.5" fill="black"/>
<circle cx="29.25" cy="110.5" r="0.5" fill="black"/>
<circle cx="31.25" cy="95.5" r="0.5" fill="black"/>
<circle cx="31.25" cy="111.5" r="0.5" fill="black"/>
<circle cx="33.25" cy="96.5" r="0.5" fill="black"/>
<circle cx="33.25" cy="112.5" r="0.5" fill="black"/>
<circle cx="35.25" cy="97.5" r="0.5" fill="black"/>
<circle cx="35.25" cy="113.5" r="0.5" fill="black"/>
<circle cx="37.25" cy="98.5" r="0.5" fill="black"/>
<circle cx="37.25" cy="114.5" r="0.5" fill="black"/>
<circle cx="39.25" cy="99.5" r="0.5" fill="black"/>
<circle cx="39.25" cy="115.5" r="0.5" fill="black"/>
<circle cx="41.25" cy="100.5" r="0.5" fill="black"/>
<circle cx="41.25" cy="116.5" r="0.5" fill="black"/>
<circle cx="43.25" cy="101.5" r="0.5" fill="black"/>
<circle cx="43.25" cy="117.5" r="0.5" fill="black"/>
<circle cx="45.25" cy="102.5" r="0.5" fill="black"/>
<circle cx="45.25" cy="118.5" r="0.5" fill="black"/>
<circle cx="47.25" cy="102.5" r="0.5" fill="black"/>
<circle cx="47.25" cy="118.5" r="0.5" fill="black"/>
<circle cx="49.25" cy="101.5" r="0.5" fill="black"/>
<circle cx="49.25" cy="117.5" r="0.5" fill="black"/>
<circle cx="51.25" cy="100.5" r="0.5" fill="black"/>
<circle cx="51.25" cy="116.5" r="0.5" fill="black"/>
<circle cx="53.25" cy="99.5" r="0.5" fill="black"/>
<circle cx="53.25" cy="115.5" r="0.5" fill="black"/>
<circle cx="55.25" cy="98.5" r="0.5" fill="black"/>
<circle cx="55.25" cy="114.5" r="0.5" fill="black"/>
<circle cx="57.25" cy="97.5" r="0.5" fill="black"/>
<circle cx="57.25" cy="113.5" r="0.5" fill="black"/>
<circle cx="59.25" cy="96.5" r="0.5" fill="black"/>
<circle cx="59.25" cy="112.5" r="0.5" fill="black"/>
<circle cx="61.25" cy="95.5" r="0.5" fill="black"/>
<circle cx="61.25" cy="111.5" r="0.5" fill="black"/>
<circle cx="63.25" cy="94.5" r="0.5" fill="black"/>
<circle cx="63.25" cy="110.5" r="0.5" fill="black"/>
<circle cx="65.25" cy="93.5" r="0.5" fill="black"/>
<circle cx="65.25" cy="109.5" r="0.5" fill="black"/>
<circle cx="67.25" cy="92.5" r="0.5" fill="black"/>
<circle cx="67.25" cy="108.5" r="0.5" fill="black"/>
<circle cx="69.25" cy="91.5" r="0.5" fill="black"/>
<circle cx="69.25" cy="107.5" r="0.5" fill="black"/>
<circle cx="71.25" cy="90.5" r="0.5" fill="black"/>
<circle cx="71.25" cy="106.5" r="0.5" fill="black"/>
<circle cx="73.25" cy="89.5" r="0.5" fill="black"/>
<circle cx="73.25" cy="105.5" r="0.5" fill="black"/>
<circle cx="75.25" cy="88.5" r="0.5" fill="black"/>
<circle cx="75.25" cy="104.5" r="0.5" fill="black"/>
<circle cx="77.25" cy="87.5" r="0.5" fill="black"/>
<circle cx="77.25" cy="103.5" r="0.5" fill="black"/>
<circle cx="79.25" cy="86.5" r="0.5" fill="black"/>
<circle cx="79.25" cy="102.5" r="0.5" fill="black"/>
<circle cx="19.25" cy="91.5" r="0.5" fill="black"/>
<circle cx="19.25" cy="107.5" r="0.5" fill="black"/>
<circle cx="17.25" cy="90.5" r="0.5" fill="black"/>
<circle cx="17.25" cy="106.5" r="0.5" fill="black"/>
<circle cx="15.25" cy="89.5" r="0.5" fill="black"/>
<circle cx="15.25" cy="105.5" r="0.5" fill="black"/>
<circle cx="21.25" cy="92.5" r="0.5" fill="black"/>
<circle cx="21.25" cy="108.5" r="0.5" fill="black"/>
<circle cx="23.25" cy="93.5" r="0.5" fill="black"/>
<circle cx="23.25" cy="109.5" r="0.5" fill="black"/>
<circle cx="25.25" cy="94.5" r="0.5" fill="black"/>
<circle cx="25.25" cy="110.5" r="0.5" fill="black"/>
<circle cx="27.25" cy="95.5" r="0.5" fill="black"/>
<circle cx="27.25" cy="111.5" r="0.5" fill="black"/>
<circle cx="29.25" cy="96.5" r="0.5" fill="black"/>
<circle cx="29.25" cy="112.5" r="0.5" fill="black"/>
<circle cx="31.25" cy="97.5" r="0.5" fill="black"/>
<circle cx="31.25" cy="113.5" r="0.5" fill="black"/>
<circle cx="33.25" cy="98.5" r="0.5" fill="black"/>
<circle cx="33.25" cy="114.5" r="0.5" fill="black"/>
<circle cx="35.25" cy="99.5" r="0.5" fill="black"/>
<circle cx="35.25" cy="115.5" r="0.5" fill="black"/>
<circle cx="37.25" cy="100.5" r="0.5" fill="black"/>
<circle cx="37.25" cy="116.5" r="0.5" fill="black"/>
<circle cx="39.25" cy="101.5" r="0.5" fill="black"/>
<circle cx="39.25" cy="117.5" r="0.5" fill="black"/>
<circle cx="41.25" cy="102.5" r="0.5" fill="black"/>
<circle cx="41.25" cy="118.5" r="0.5" fill="black"/>
<circle cx="43.25" cy="103.5" r="0.5" fill="black"/>
<circle cx="43.25" cy="119.5" r="0.5" fill="black"/>
<circle cx="45.25" cy="104.5" r="0.5" fill="black"/>
<circle cx="45.25" cy="120.5" r="0.5" fill="black"/>
<circle cx="47.25" cy="104.5" r="0.5" fill="black"/>
<circle cx="47.25" cy="120.5" r="0.5" fill="black"/>
<circle cx="49.25" cy="103.5" r="0.5" fill="black"/>
<circle cx="49.25" cy="119.5" r="0.5" fill="black"/>
<circle cx="51.25" cy="102.5" r="0.5" fill="black"/>
<circle cx="51.25" cy="118.5" r="0.5" fill="black"/>
<circle cx="53.25" cy="101.5" r="0.5" fill="black"/>
<circle cx="53.25" cy="117.5" r="0.5" fill="black"/>
<circle cx="55.25" cy="100.5" r="0.5" fill="black"/>
<circle cx="55.25" cy="116.5" r="0.5" fill="black"/>
<circle cx="57.25" cy="99.5" r="0.5" fill="black"/>
<circle cx="57.25" cy="115.5" r="0.5" fill="black"/>
<circle cx="59.25" cy="98.5" r="0.5" fill="black"/>
<circle cx="59.25" cy="114.5" r="0.5" fill="black"/>
<circle cx="61.25" cy="97.5" r="0.5" fill="black"/>
<circle cx="61.25" cy="113.5" r="0.5" fill="black"/>
<circle cx="63.25" cy="96.5" r="0.5" fill="black"/>
<circle cx="63.25" cy="112.5" r="0.5" fill="black"/>
<circle cx="65.25" cy="95.5" r="0.5" fill="black"/>
<circle cx="65.25" cy="111.5" r="0.5" fill="black"/>
<circle cx="67.25" cy="94.5" r="0.5" fill="black"/>
<circle cx="67.25" cy="110.5" r="0.5" fill="black"/>
<circle cx="69.25" cy="93.5" r="0.5" fill="black"/>
<circle cx="69.25" cy="109.5" r="0.5" fill="black"/>
<circle cx="71.25" cy="92.5" r="0.5" fill="black"/>
<circle cx="71.25" cy="108.5" r="0.5" fill="black"/>
<circle cx="73.25" cy="91.5" r="0.5" fill="black"/>
<circle cx="73.25" cy="107.5" r="0.5" fill="black"/>
<circle cx="75.25" cy="90.5" r="0.5" fill="black"/>
<circle cx="75.25" cy="106.5" r="0.5" fill="black"/>
<circle cx="77.25" cy="89.5" r="0.5" fill="black"/>
<circle cx="77.25" cy="105.5" r="0.5" fill="black"/>
<circle cx="79.25" cy="88.5" r="0.5" fill="black"/>
<circle cx="79.25" cy="104.5" r="0.5" fill="black"/>
<circle cx="81.25" cy="87.5" r="0.5" fill="black"/>
<circle cx="81.25" cy="103.5" r="0.5" fill="black"/>
<path d="M34 74H58" stroke="black" stroke-width="1.5"/>
</g>
<defs>
<clipPath id="clip0_4_1539">
<rect width="61" height="74" fill="white" transform="translate(15)"/>
</clipPath>
<clipPath id="clip1_4_1539">
<rect width="59" height="31" fill="white" transform="translate(17.25 122)"/>
</clipPath>
</defs>
</svg>
