<svg width="449" height="449" viewBox="0 0 449 449" fill="none" xmlns="http://www.w3.org/2000/svg">
<line x1="151.897" y1="0.791016" x2="151.897" y2="148.843" stroke="#FFFFFE" stroke-width="3.05989"/>
<line x1="151.897" y1="300.74" x2="151.897" y2="448.792" stroke="#FFFFFE" stroke-width="3.05989"/>
<line x1="148.445" y1="152.298" x2="0.393082" y2="152.298" stroke="#FFFFFE" stroke-width="3.05989"/>
<line x1="448.395" y1="152.298" x2="300.342" y2="152.298" stroke="#FFFFFE" stroke-width="3.05989"/>
<line x1="298.03" y1="0.791016" x2="298.03" y2="148.843" stroke="#FFFFFE" stroke-width="3.05989"/>
<line x1="298.03" y1="300.74" x2="298.03" y2="448.792" stroke="#FFFFFE" stroke-width="3.05989"/>
<line x1="148.445" y1="298.424" x2="0.393082" y2="298.424" stroke="#FFFFFE" stroke-width="3.05989"/>
<line x1="448.395" y1="298.424" x2="300.342" y2="298.424" stroke="#FFFFFE" stroke-width="3.05989"/>
<line x1="151.211" y1="159.295" x2="159.864" y2="150.643" stroke="#FFFFFE" stroke-width="3.05989"/>
<line x1="299.52" y1="289.758" x2="290.74" y2="298.538" stroke="#FFFFFE" stroke-width="3.10509"/>
<line x1="151.211" y1="166.987" x2="167.555" y2="150.643" stroke="#FFFFFE" stroke-width="3.05989"/>
<line x1="299.52" y1="281.955" x2="282.935" y2="298.54" stroke="#FFFFFE" stroke-width="3.10509"/>
<line x1="151.211" y1="174.682" x2="175.246" y2="150.647" stroke="#FFFFFE" stroke-width="3.05989"/>
<line x1="299.52" y1="274.149" x2="275.13" y2="298.538" stroke="#FFFFFE" stroke-width="3.10509"/>
<line x1="151.211" y1="182.373" x2="182.937" y2="150.648" stroke="#FFFFFE" stroke-width="3.05989"/>
<line x1="299.52" y1="266.344" x2="267.326" y2="298.538" stroke="#FFFFFE" stroke-width="3.10509"/>
<line x1="151.211" y1="190.065" x2="190.628" y2="150.648" stroke="#FFFFFE" stroke-width="3.05989"/>
<line x1="299.52" y1="258.539" x2="259.521" y2="298.538" stroke="#FFFFFE" stroke-width="3.10509"/>
<line x1="151.211" y1="197.752" x2="198.319" y2="150.645" stroke="#FFFFFE" stroke-width="3.05989"/>
<line x1="299.52" y1="250.735" x2="251.716" y2="298.538" stroke="#FFFFFE" stroke-width="3.10509"/>
<line x1="151.211" y1="205.444" x2="206.01" y2="150.645" stroke="#FFFFFE" stroke-width="3.05989"/>
<line x1="299.52" y1="242.93" x2="243.912" y2="298.538" stroke="#FFFFFE" stroke-width="3.10509"/>
<line x1="151.211" y1="213.135" x2="213.701" y2="150.645" stroke="#FFFFFE" stroke-width="3.05989"/>
<line x1="299.52" y1="235.123" x2="236.107" y2="298.536" stroke="#FFFFFE" stroke-width="3.10509"/>
<line x1="151.211" y1="220.826" x2="221.392" y2="150.646" stroke="#FFFFFE" stroke-width="3.05989"/>
<line x1="299.52" y1="227.319" x2="228.303" y2="298.536" stroke="#FFFFFE" stroke-width="3.10509"/>
<line x1="151.211" y1="228.518" x2="229.083" y2="150.646" stroke="#FFFFFE" stroke-width="3.05989"/>
<line x1="299.52" y1="219.518" x2="220.498" y2="298.54" stroke="#FFFFFE" stroke-width="3.10509"/>
<line x1="151.211" y1="236.209" x2="236.774" y2="150.647" stroke="#FFFFFE" stroke-width="3.05989"/>
<line x1="299.52" y1="211.713" x2="212.693" y2="298.539" stroke="#FFFFFE" stroke-width="3.10509"/>
<line x1="151.211" y1="243.901" x2="244.465" y2="150.647" stroke="#FFFFFE" stroke-width="3.05989"/>
<line x1="299.52" y1="203.906" x2="204.889" y2="298.537" stroke="#FFFFFE" stroke-width="3.10509"/>
<line x1="151.211" y1="251.59" x2="252.156" y2="150.645" stroke="#FFFFFE" stroke-width="3.05989"/>
<line x1="299.52" y1="196.106" x2="197.084" y2="298.541" stroke="#FFFFFE" stroke-width="3.10509"/>
<line x1="151.211" y1="259.283" x2="259.847" y2="150.648" stroke="#FFFFFE" stroke-width="3.05989"/>
<line x1="299.52" y1="188.297" x2="189.279" y2="298.537" stroke="#FFFFFE" stroke-width="3.10509"/>
<line x1="151.211" y1="266.975" x2="267.538" y2="150.648" stroke="#FFFFFE" stroke-width="3.05989"/>
<line x1="299.52" y1="180.496" x2="181.475" y2="298.541" stroke="#FFFFFE" stroke-width="3.10509"/>
<line x1="151.211" y1="274.664" x2="275.229" y2="150.646" stroke="#FFFFFE" stroke-width="3.05989"/>
<line x1="299.52" y1="172.692" x2="173.67" y2="298.541" stroke="#FFFFFE" stroke-width="3.10509"/>
<line x1="151.211" y1="282.352" x2="282.92" y2="150.643" stroke="#FFFFFE" stroke-width="3.05989"/>
<line x1="299.52" y1="164.885" x2="165.866" y2="298.539" stroke="#FFFFFE" stroke-width="3.10509"/>
<line x1="151.211" y1="290.045" x2="290.611" y2="150.645" stroke="#FFFFFE" stroke-width="3.05989"/>
<line x1="299.52" y1="157.078" x2="158.061" y2="298.537" stroke="#FFFFFE" stroke-width="3.10509"/>
<line x1="151.211" y1="297.737" x2="297.341" y2="151.607" stroke="#FFFFFE" stroke-width="3.05989"/>
</svg>
