<svg width="466" height="466" viewBox="0 0 466 466" fill="none" xmlns="http://www.w3.org/2000/svg">
<line x1="157" y1="4.37114e-08" x2="157" y2="154" stroke="black" stroke-width="2"/>
<line x1="157" y1="312" x2="157" y2="466" stroke="black" stroke-width="2"/>
<line x1="154" y1="157" y2="157" stroke="black" stroke-width="2"/>
<line x1="466" y1="157" x2="312" y2="157" stroke="black" stroke-width="2"/>
<line x1="309" y1="4.37114e-08" x2="309" y2="154" stroke="black" stroke-width="2"/>
<line x1="309" y1="312" x2="309" y2="466" stroke="black" stroke-width="2"/>
<line x1="154" y1="309" y2="309" stroke="black" stroke-width="2"/>
<line x1="466" y1="309" x2="312" y2="309" stroke="black" stroke-width="2"/>
<line x1="157.293" y1="165.293" x2="166.293" y2="156.293" stroke="#222222" stroke-width="2"/>
<line x1="310.707" y1="299.707" x2="301.707" y2="308.707" stroke="#222222" stroke-width="2"/>
<line x1="157.293" y1="173.293" x2="174.293" y2="156.293" stroke="#222222" stroke-width="2"/>
<line x1="310.707" y1="291.707" x2="293.707" y2="308.707" stroke="#222222" stroke-width="2"/>
<line x1="157.293" y1="181.293" x2="182.293" y2="156.293" stroke="#222222" stroke-width="2"/>
<line x1="310.707" y1="283.707" x2="285.707" y2="308.707" stroke="#222222" stroke-width="2"/>
<line x1="157.293" y1="189.293" x2="190.293" y2="156.293" stroke="#222222" stroke-width="2"/>
<line x1="310.707" y1="275.707" x2="277.707" y2="308.707" stroke="#222222" stroke-width="2"/>
<line x1="157.293" y1="197.293" x2="198.293" y2="156.293" stroke="#222222" stroke-width="2"/>
<line x1="310.707" y1="267.707" x2="269.707" y2="308.707" stroke="#222222" stroke-width="2"/>
<line x1="157.293" y1="205.293" x2="206.293" y2="156.293" stroke="#222222" stroke-width="2"/>
<line x1="310.707" y1="259.707" x2="261.707" y2="308.707" stroke="#222222" stroke-width="2"/>
<line x1="157.293" y1="213.293" x2="214.293" y2="156.293" stroke="#222222" stroke-width="2"/>
<line x1="310.707" y1="251.707" x2="253.707" y2="308.707" stroke="#222222" stroke-width="2"/>
<line x1="157.293" y1="221.293" x2="222.293" y2="156.293" stroke="#222222" stroke-width="2"/>
<line x1="310.707" y1="243.707" x2="245.707" y2="308.707" stroke="#222222" stroke-width="2"/>
<line x1="157.293" y1="229.293" x2="230.293" y2="156.293" stroke="#222222" stroke-width="2"/>
<line x1="310.707" y1="235.707" x2="237.707" y2="308.707" stroke="#222222" stroke-width="2"/>
<line x1="157.293" y1="237.293" x2="238.293" y2="156.293" stroke="#222222" stroke-width="2"/>
<line x1="310.707" y1="227.707" x2="229.707" y2="308.707" stroke="#222222" stroke-width="2"/>
<line x1="157.293" y1="245.293" x2="246.293" y2="156.293" stroke="#222222" stroke-width="2"/>
<line x1="310.707" y1="219.707" x2="221.707" y2="308.707" stroke="#222222" stroke-width="2"/>
<line x1="157.293" y1="253.293" x2="254.293" y2="156.293" stroke="#222222" stroke-width="2"/>
<line x1="310.707" y1="211.707" x2="213.707" y2="308.707" stroke="#222222" stroke-width="2"/>
<line x1="157.293" y1="261.293" x2="262.293" y2="156.293" stroke="#222222" stroke-width="2"/>
<line x1="310.707" y1="203.707" x2="205.707" y2="308.707" stroke="#222222" stroke-width="2"/>
<line x1="157.293" y1="269.293" x2="270.293" y2="156.293" stroke="#222222" stroke-width="2"/>
<line x1="310.707" y1="195.707" x2="197.707" y2="308.707" stroke="#222222" stroke-width="2"/>
<line x1="157.293" y1="277.293" x2="278.293" y2="156.293" stroke="#222222" stroke-width="2"/>
<line x1="310.707" y1="187.707" x2="189.707" y2="308.707" stroke="#222222" stroke-width="2"/>
<line x1="157.293" y1="285.293" x2="286.293" y2="156.293" stroke="#222222" stroke-width="2"/>
<line x1="310.707" y1="179.707" x2="181.707" y2="308.707" stroke="#222222" stroke-width="2"/>
<line x1="157.293" y1="293.293" x2="294.293" y2="156.293" stroke="#222222" stroke-width="2"/>
<line x1="310.707" y1="171.707" x2="173.707" y2="308.707" stroke="#222222" stroke-width="2"/>
<line x1="157.293" y1="301.293" x2="302.293" y2="156.293" stroke="#222222" stroke-width="2"/>
<line x1="310.707" y1="163.707" x2="165.707" y2="308.707" stroke="#222222" stroke-width="2"/>
<line x1="157.293" y1="309.293" x2="309.293" y2="157.293" stroke="#222222" stroke-width="2"/>
</svg>
