<svg width="131" height="1736" viewBox="0 0 131 1736" fill="none" xmlns="http://www.w3.org/2000/svg">
<rect x="70.6719" y="1226.94" width="147.848" height="68.4131" transform="rotate(90 70.6719 1226.94)" stroke="#FFFFFE" stroke-width="4"/>
<rect x="128.223" y="1184" width="120.566" height="10.9811" transform="rotate(90 128.223 1184)" stroke="#FFFFFE" stroke-width="4"/>
<rect x="106.086" y="1613.47" width="111.561" height="10.9811" transform="rotate(90 106.086 1613.47)" stroke="#FFFFFE" stroke-width="4"/>
<rect x="128.223" y="1320.23" width="45.0268" height="10.9811" transform="rotate(90 128.223 1320.23)" stroke="#FFFFFE" stroke-width="4"/>
<rect x="128.223" y="1548.4" width="45.0268" height="10.9811" transform="rotate(90 128.223 1548.4)" stroke="#FFFFFE" stroke-width="4"/>
<rect x="12.9844" y="1484.41" width="45.0268" height="10.9811" transform="rotate(90 12.9844 1484.41)" stroke="#FFFFFE" stroke-width="4"/>
<rect x="127.93" y="1675.75" width="57.778" height="10.9811" transform="rotate(90 127.93 1675.75)" stroke="#FFFFFE" stroke-width="4"/>
<rect x="106.086" y="1296.38" width="81.2639" height="10.9811" transform="rotate(90 106.086 1296.38)" stroke="#FFFFFE" stroke-width="4"/>
<rect x="2" y="1636.06" width="81.2639" height="10.9811" transform="rotate(-90 2 1636.06)" stroke="#FFFFFE" stroke-width="4"/>
<rect x="128.223" y="1456.45" width="19.5268" height="10.9811" transform="rotate(90 128.223 1456.45)" stroke="#FFFFFE" stroke-width="4"/>
<rect x="46.4492" y="1604.77" width="19.5268" height="10.9811" transform="rotate(90 46.4492 1604.77)" stroke="#FFFFFE" stroke-width="4"/>
<rect x="62.1562" y="1434.37" width="30.0564" height="30.0564" transform="rotate(90 62.1562 1434.37)" stroke="#FFFFFE" stroke-width="4"/>
<rect x="70.6172" y="1184" width="32.1372" height="68.4131" transform="rotate(90 70.6172 1184)" stroke="#FFFFFE" stroke-width="4"/>
<rect x="106.086" y="1388.78" width="19.5268" height="10.9811" transform="rotate(90 106.086 1388.78)" stroke="#FFFFFE" stroke-width="4"/>
<rect x="106.086" y="1235.08" width="19.5268" height="10.9811" transform="rotate(90 106.086 1235.08)" stroke="#FFFFFE" stroke-width="4"/>
<rect x="2" y="1697.37" width="19.5268" height="10.9811" transform="rotate(-90 2 1697.37)" stroke="#FFFFFE" stroke-width="4"/>
<rect x="128.223" y="1487.1" width="19.5268" height="10.9811" transform="rotate(90 128.223 1487.1)" stroke="#FFFFFE" stroke-width="4"/>
<rect x="46.4492" y="1635.42" width="19.5268" height="10.9811" transform="rotate(90 46.4492 1635.42)" stroke="#FFFFFE" stroke-width="4"/>
<rect x="62.1562" y="1480.13" width="30.0564" height="30.0564" transform="rotate(90 62.1562 1480.13)" stroke="#FFFFFE" stroke-width="4"/>
<rect x="106.086" y="1265.73" width="19.5268" height="10.9811" transform="rotate(90 106.086 1265.73)" stroke="#FFFFFE" stroke-width="4"/>
<rect x="2" y="1666.71" width="19.5268" height="10.9811" transform="rotate(-90 2 1666.71)" stroke="#FFFFFE" stroke-width="4"/>
<rect x="128.223" y="1517.75" width="19.5268" height="10.9811" transform="rotate(90 128.223 1517.75)" stroke="#FFFFFE" stroke-width="4"/>
<rect x="46.4492" y="1666.07" width="19.5268" height="10.9811" transform="rotate(90 46.4492 1666.07)" stroke="#FFFFFE" stroke-width="4"/>
<rect x="12.9844" y="1453.76" width="19.5268" height="10.9811" transform="rotate(90 12.9844 1453.76)" stroke="#FFFFFE" stroke-width="4"/>
<rect x="62.1562" y="1525.88" width="30.0564" height="30.0564" transform="rotate(90 62.1562 1525.88)" stroke="#FFFFFE" stroke-width="4"/>
<path d="M38 325V330.417M38 216.667L38 276.25M38 108.333L38 167.917M38 81.25V86.6667M38 27.0833V32.5M38 0V5.41667M38 352.083L38 384.583M38 406.25L38 438.75M38 460.417V465.833M38 487.5V492.917M38 514.583V520M38 568.75V574.167M38 622.917V628.333M38 650L38 682.5M38 731.25L38 790.833M38 812.5V817.917M92 297.917V303.333V270.833M92 325V330.417M92 243.75V249.167M92 189.583V222.083M92 162.5V167.917M92 81.25V113.75M92 54.1667V59.5833M119 216.667V222.083M119 189.583V195M119 54.1667L119 167.917M119 27.0833V32.5M92 352.083V357.5M92 379.167V384.583M92 406.25V438.75M92 460.417V492.917M92 541.667V547.083M92 568.75L92 655.417M92 677.083V682.5M92 704.167V709.583M92 785.417V845M11 325L11 330.417M11 216.667L11 303.333M11 189.583L11 195M11 81.25L11 167.917M11 0L11 5.41667M11 352.083L11 411.667M11 433.333L11 438.75M11 487.5L11 492.917M11 541.667L11 601.25M11 622.917L11 655.417M11 677.083L11 790.833M11 812.5L11 817.917M65 270.833V276.25M65 297.917V303.333M65 216.667V249.167M65 189.583V195M65 135.417V140.833M65 108.333V113.75M65 54.1667V86.6667M65 27.0833V32.5M65 0V5.41667M65 352.083V357.5M65 406.25V411.667M65 487.5V492.917M65 514.583V520M65 541.667V547.083M65 568.75V574.167M65 595.833V682.5M65 704.167V709.583M65 758.333L65 845M119 297.917V303.333V243.75M119 352.083V357.5M119 379.167V384.583M119 406.25V411.667M119 433.333V492.917M119 514.583V520M119 541.667L119 628.333M119 650V655.417M119 704.167V736.667M119 758.333V763.75M119 785.417V817.917M92 758.333V763.75" stroke="#FFFFFE" stroke-width="6"/>
<path d="M18.793 1032.73L22.1811 1030.79L30.3127 1035.45L40.1384 1030.02" stroke="#FFFFFE" stroke-width="1.35526"/>
<path d="M31.3281 1040.11L38.4433 1036.23M38.4433 1036.23L48.2689 1042.05L54.3676 1045.54L47.2525 1049.81M38.4433 1036.23L44.8808 1032.73" stroke="#FFFFFE" stroke-width="1.35526"/>
<path d="M36.75 1042.83L40.1382 1040.88L46.5757 1044.77L43.1875 1046.71" stroke="#FFFFFE" stroke-width="1.35526"/>
<path d="M53.0148 1035.06L47.5938 1038.17L66.2286 1048.9L56.0641 1054.86L85.8799 1037.39L95.7056 1042.83" stroke="#FFFFFE" stroke-width="1.35526"/>
<path d="M71.9875 1056.8L66.5664 1053.69L85.8789 1042.44L91.3 1045.54" stroke="#FFFFFE" stroke-width="1.35526"/>
<path d="M85.1992 1031.18L96.719 1037.78L110.61 1029.63L104.512 1026.13L96.3801 1031.18L90.2815 1027.69" stroke="#FFFFFE" stroke-width="1.35526"/>
<path d="M21.5039 1024.58L28.619 1028.85L33.7013 1026.13" stroke="#FFFFFE" stroke-width="1.35526"/>
<path d="M64.8711 1080.09V1109.59" stroke="#FFFFFE" stroke-width="4.06579"/>
<path d="M56.5 1075.43V1113.5L64.8719 1129L73.0035 1113.5V1075.43" stroke="#FFFFFE" stroke-width="4.06579"/>
<path d="M27.2632 1039.34L11 1048.26L64.8717 1079.32L118.743 1048.26L103.836 1039.34" stroke="#FFFFFE" stroke-width="4.06579"/>
<path d="M27.2632 1020.71L11 1029.63L64.8717 1060.69L118.743 1029.63L103.836 1020.71" stroke="#FFFFFE" stroke-width="4.06579"/>
<path d="M56.7401 985.383L11 1011.78L64.8717 1042.83L118.743 1011.78L73.6809 985.383" stroke="#FFFFFE" stroke-width="4.06579"/>
<path d="M64.8711 973.74L64.8711 1013.33" stroke="#FFFFFE" stroke-width="4.06579"/>
<path d="M57 964L57 1013" stroke="#FFFFFE" stroke-width="4.06579"/>
<path d="M73.0039 964.422L73 1013" stroke="#FFFFFE" stroke-width="4.06579"/>
<path fill-rule="evenodd" clip-rule="evenodd" d="M53.3522 951.223L31.668 954.716V965.196H64.5331H97.3982V954.716L77.0693 951.223H64.5331H53.3522ZM53.2549 955L37 957.917V961.5H64.5H92V957.917L77.0933 955H64.5H53.2549Z" fill="#FFFFFE"/>
<circle cx="65" cy="906" r="10.9671" stroke="#FFFFFE" stroke-width="4.06579"/>
<path d="M59.4492 916.287V951.221" stroke="#FFFFFE" stroke-width="4.06579"/>
<path d="M70.293 916.287V951.221" stroke="#FFFFFE" stroke-width="4.06579"/>
<circle cx="64.9414" cy="1065.32" r="0.75" fill="#FFFFFE"/>
<circle cx="67.6523" cy="1063.77" r="0.75" fill="#FFFFFE"/>
<circle cx="70.3633" cy="1062.21" r="0.75" fill="#FFFFFE"/>
<circle cx="73.0742" cy="1060.66" r="0.75" fill="#FFFFFE"/>
<circle cx="75.7852" cy="1059.11" r="0.75" fill="#FFFFFE"/>
<circle cx="78.4922" cy="1057.55" r="0.75" fill="#FFFFFE"/>
<circle cx="81.2031" cy="1056" r="0.75" fill="#FFFFFE"/>
<circle cx="83.9141" cy="1054.45" r="0.75" fill="#FFFFFE"/>
<circle cx="86.625" cy="1052.89" r="0.75" fill="#FFFFFE"/>
<circle cx="89.3359" cy="1051.34" r="0.75" fill="#FFFFFE"/>
<circle cx="92.0469" cy="1049.79" r="0.75" fill="#FFFFFE"/>
<circle cx="94.7578" cy="1048.24" r="0.75" fill="#FFFFFE"/>
<circle cx="97.4688" cy="1046.69" r="0.75" fill="#FFFFFE"/>
<circle cx="100.18" cy="1045.13" r="0.75" fill="#FFFFFE"/>
<circle cx="102.891" cy="1043.58" r="0.75" fill="#FFFFFE"/>
<circle cx="64.9414" cy="1068.42" r="0.75" fill="#FFFFFE"/>
<circle cx="67.6523" cy="1066.87" r="0.75" fill="#FFFFFE"/>
<circle cx="70.3633" cy="1065.32" r="0.75" fill="#FFFFFE"/>
<circle cx="73.0742" cy="1063.77" r="0.75" fill="#FFFFFE"/>
<circle cx="75.7852" cy="1062.21" r="0.75" fill="#FFFFFE"/>
<circle cx="78.4922" cy="1060.66" r="0.75" fill="#FFFFFE"/>
<circle cx="81.2031" cy="1059.11" r="0.75" fill="#FFFFFE"/>
<circle cx="83.9141" cy="1057.55" r="0.75" fill="#FFFFFE"/>
<circle cx="86.625" cy="1056" r="0.75" fill="#FFFFFE"/>
<circle cx="89.3359" cy="1054.45" r="0.75" fill="#FFFFFE"/>
<circle cx="92.0469" cy="1052.89" r="0.75" fill="#FFFFFE"/>
<circle cx="94.7578" cy="1051.34" r="0.75" fill="#FFFFFE"/>
<circle cx="97.4688" cy="1049.79" r="0.75" fill="#FFFFFE"/>
<circle cx="100.18" cy="1048.24" r="0.75" fill="#FFFFFE"/>
<circle cx="102.891" cy="1046.69" r="0.75" fill="#FFFFFE"/>
<circle cx="105.598" cy="1045.13" r="0.75" fill="#FFFFFE"/>
<circle cx="64.9414" cy="1071.53" r="0.75" fill="#FFFFFE"/>
<circle cx="67.6523" cy="1069.97" r="0.75" fill="#FFFFFE"/>
<circle cx="70.3633" cy="1068.42" r="0.75" fill="#FFFFFE"/>
<circle cx="73.0742" cy="1066.87" r="0.75" fill="#FFFFFE"/>
<circle cx="75.7852" cy="1065.32" r="0.75" fill="#FFFFFE"/>
<circle cx="78.4922" cy="1063.77" r="0.75" fill="#FFFFFE"/>
<circle cx="81.2031" cy="1062.21" r="0.75" fill="#FFFFFE"/>
<circle cx="83.9141" cy="1060.66" r="0.75" fill="#FFFFFE"/>
<circle cx="86.625" cy="1059.11" r="0.75" fill="#FFFFFE"/>
<circle cx="89.3359" cy="1057.55" r="0.75" fill="#FFFFFE"/>
<circle cx="92.0469" cy="1056" r="0.75" fill="#FFFFFE"/>
<circle cx="94.7578" cy="1054.45" r="0.75" fill="#FFFFFE"/>
<circle cx="97.4688" cy="1052.89" r="0.75" fill="#FFFFFE"/>
<circle cx="100.18" cy="1051.34" r="0.75" fill="#FFFFFE"/>
<circle cx="102.891" cy="1049.79" r="0.75" fill="#FFFFFE"/>
<circle cx="105.598" cy="1048.24" r="0.75" fill="#FFFFFE"/>
<circle cx="108.309" cy="1046.69" r="0.75" fill="#FFFFFE"/>
<circle cx="64.9414" cy="1074.63" r="0.75" fill="#FFFFFE"/>
<circle cx="67.6523" cy="1073.08" r="0.75" fill="#FFFFFE"/>
<circle cx="70.3633" cy="1071.53" r="0.75" fill="#FFFFFE"/>
<circle cx="73.0742" cy="1069.97" r="0.75" fill="#FFFFFE"/>
<circle cx="75.7852" cy="1068.42" r="0.75" fill="#FFFFFE"/>
<circle cx="78.4922" cy="1066.87" r="0.75" fill="#FFFFFE"/>
<circle cx="81.2031" cy="1065.32" r="0.75" fill="#FFFFFE"/>
<circle cx="83.9141" cy="1063.77" r="0.75" fill="#FFFFFE"/>
<circle cx="86.625" cy="1062.21" r="0.75" fill="#FFFFFE"/>
<circle cx="89.3359" cy="1060.66" r="0.75" fill="#FFFFFE"/>
<circle cx="92.0469" cy="1059.11" r="0.75" fill="#FFFFFE"/>
<circle cx="94.7578" cy="1057.55" r="0.75" fill="#FFFFFE"/>
<circle cx="97.4688" cy="1056" r="0.75" fill="#FFFFFE"/>
<circle cx="100.18" cy="1054.45" r="0.75" fill="#FFFFFE"/>
<circle cx="102.891" cy="1052.89" r="0.75" fill="#FFFFFE"/>
<circle cx="105.598" cy="1051.34" r="0.75" fill="#FFFFFE"/>
<circle cx="108.309" cy="1049.79" r="0.75" fill="#FFFFFE"/>
<circle cx="111.02" cy="1048.24" r="0.75" fill="#FFFFFE"/>
<circle r="0.75" transform="matrix(-1 0 0 1 62.0859 1063.77)" fill="#FFFFFE"/>
<circle r="0.75" transform="matrix(-1 0 0 1 59.375 1062.21)" fill="#FFFFFE"/>
<circle r="0.75" transform="matrix(-1 0 0 1 56.6641 1060.66)" fill="#FFFFFE"/>
<circle r="0.75" transform="matrix(-1 0 0 1 53.9531 1059.11)" fill="#FFFFFE"/>
<circle r="0.75" transform="matrix(-1 0 0 1 51.2422 1057.55)" fill="#FFFFFE"/>
<circle r="0.75" transform="matrix(-1 0 0 1 48.5352 1056)" fill="#FFFFFE"/>
<circle r="0.75" transform="matrix(-1 0 0 1 45.8242 1054.45)" fill="#FFFFFE"/>
<circle r="0.75" transform="matrix(-1 0 0 1 43.1133 1052.89)" fill="#FFFFFE"/>
<circle r="0.75" transform="matrix(-1 0 0 1 40.4023 1051.34)" fill="#FFFFFE"/>
<circle r="0.75" transform="matrix(-1 0 0 1 37.6914 1049.79)" fill="#FFFFFE"/>
<circle r="0.75" transform="matrix(-1 0 0 1 34.9805 1048.24)" fill="#FFFFFE"/>
<circle r="0.75" transform="matrix(-1 0 0 1 32.2695 1046.69)" fill="#FFFFFE"/>
<circle r="0.75" transform="matrix(-1 0 0 1 29.5586 1045.13)" fill="#FFFFFE"/>
<circle r="0.75" transform="matrix(-1 0 0 1 26.8477 1043.58)" fill="#FFFFFE"/>
<circle r="0.75" transform="matrix(-1 0 0 1 62.0859 1066.87)" fill="#FFFFFE"/>
<circle r="0.75" transform="matrix(-1 0 0 1 59.375 1065.32)" fill="#FFFFFE"/>
<circle r="0.75" transform="matrix(-1 0 0 1 56.6641 1063.77)" fill="#FFFFFE"/>
<circle r="0.75" transform="matrix(-1 0 0 1 53.9531 1062.21)" fill="#FFFFFE"/>
<circle r="0.75" transform="matrix(-1 0 0 1 51.2422 1060.66)" fill="#FFFFFE"/>
<circle r="0.75" transform="matrix(-1 0 0 1 48.5352 1059.11)" fill="#FFFFFE"/>
<circle r="0.75" transform="matrix(-1 0 0 1 45.8242 1057.55)" fill="#FFFFFE"/>
<circle r="0.75" transform="matrix(-1 0 0 1 43.1133 1056)" fill="#FFFFFE"/>
<circle r="0.75" transform="matrix(-1 0 0 1 40.4023 1054.45)" fill="#FFFFFE"/>
<circle r="0.75" transform="matrix(-1 0 0 1 37.6914 1052.89)" fill="#FFFFFE"/>
<circle r="0.75" transform="matrix(-1 0 0 1 34.9805 1051.34)" fill="#FFFFFE"/>
<circle r="0.75" transform="matrix(-1 0 0 1 32.2695 1049.79)" fill="#FFFFFE"/>
<circle r="0.75" transform="matrix(-1 0 0 1 29.5586 1048.24)" fill="#FFFFFE"/>
<circle r="0.75" transform="matrix(-1 0 0 1 26.8477 1046.69)" fill="#FFFFFE"/>
<circle r="0.75" transform="matrix(-1 0 0 1 24.1367 1045.13)" fill="#FFFFFE"/>
<circle r="0.75" transform="matrix(-1 0 0 1 62.0859 1069.97)" fill="#FFFFFE"/>
<circle r="0.75" transform="matrix(-1 0 0 1 59.375 1068.42)" fill="#FFFFFE"/>
<circle r="0.75" transform="matrix(-1 0 0 1 56.6641 1066.87)" fill="#FFFFFE"/>
<circle r="0.75" transform="matrix(-1 0 0 1 53.9531 1065.32)" fill="#FFFFFE"/>
<circle r="0.75" transform="matrix(-1 0 0 1 51.2422 1063.77)" fill="#FFFFFE"/>
<circle r="0.75" transform="matrix(-1 0 0 1 48.5352 1062.21)" fill="#FFFFFE"/>
<circle r="0.75" transform="matrix(-1 0 0 1 45.8242 1060.66)" fill="#FFFFFE"/>
<circle r="0.75" transform="matrix(-1 0 0 1 43.1133 1059.11)" fill="#FFFFFE"/>
<circle r="0.75" transform="matrix(-1 0 0 1 40.4023 1057.55)" fill="#FFFFFE"/>
<circle r="0.75" transform="matrix(-1 0 0 1 37.6914 1056)" fill="#FFFFFE"/>
<circle r="0.75" transform="matrix(-1 0 0 1 34.9805 1054.45)" fill="#FFFFFE"/>
<circle r="0.75" transform="matrix(-1 0 0 1 32.2695 1052.89)" fill="#FFFFFE"/>
<circle r="0.75" transform="matrix(-1 0 0 1 29.5586 1051.34)" fill="#FFFFFE"/>
<circle r="0.75" transform="matrix(-1 0 0 1 26.8477 1049.79)" fill="#FFFFFE"/>
<circle r="0.75" transform="matrix(-1 0 0 1 24.1367 1048.24)" fill="#FFFFFE"/>
<circle r="0.75" transform="matrix(-1 0 0 1 21.4297 1046.69)" fill="#FFFFFE"/>
<circle r="0.75" transform="matrix(-1 0 0 1 62.0859 1073.08)" fill="#FFFFFE"/>
<circle r="0.75" transform="matrix(-1 0 0 1 59.375 1071.53)" fill="#FFFFFE"/>
<circle r="0.75" transform="matrix(-1 0 0 1 56.6641 1069.97)" fill="#FFFFFE"/>
<circle r="0.75" transform="matrix(-1 0 0 1 53.9531 1068.42)" fill="#FFFFFE"/>
<circle r="0.75" transform="matrix(-1 0 0 1 51.2422 1066.87)" fill="#FFFFFE"/>
<circle r="0.75" transform="matrix(-1 0 0 1 48.5352 1065.32)" fill="#FFFFFE"/>
<circle r="0.75" transform="matrix(-1 0 0 1 45.8242 1063.77)" fill="#FFFFFE"/>
<circle r="0.75" transform="matrix(-1 0 0 1 43.1133 1062.21)" fill="#FFFFFE"/>
<circle r="0.75" transform="matrix(-1 0 0 1 40.4023 1060.66)" fill="#FFFFFE"/>
<circle r="0.75" transform="matrix(-1 0 0 1 37.6914 1059.11)" fill="#FFFFFE"/>
<circle r="0.75" transform="matrix(-1 0 0 1 34.9805 1057.55)" fill="#FFFFFE"/>
<circle r="0.75" transform="matrix(-1 0 0 1 32.2695 1056)" fill="#FFFFFE"/>
<circle r="0.75" transform="matrix(-1 0 0 1 29.5586 1054.45)" fill="#FFFFFE"/>
<circle r="0.75" transform="matrix(-1 0 0 1 26.8477 1052.89)" fill="#FFFFFE"/>
<circle r="0.75" transform="matrix(-1 0 0 1 24.1367 1051.34)" fill="#FFFFFE"/>
<circle r="0.75" transform="matrix(-1 0 0 1 21.4297 1049.79)" fill="#FFFFFE"/>
<circle r="0.75" transform="matrix(-1 0 0 1 18.7188 1048.24)" fill="#FFFFFE"/>
</svg>
