<svg width="247" height="1126" viewBox="0 0 247 1126" fill="none" xmlns="http://www.w3.org/2000/svg">
<path d="M55 325V330.417M55 216.667L55 276.25M55 108.333L55 167.917M55 81.25V86.6667M55 27.0833V32.5M55 0V5.41667M55 352.083L55 384.583M55 406.25L55 438.75M55 460.417V465.833M55 487.5V492.917M55 514.583V520M55 568.75V574.167M55 622.917V628.333M55 650L55 682.5M55 731.25L55 790.833M55 812.5V817.917M109 297.917V303.333V270.833M109 325V330.417M109 243.75V249.167M109 189.583V222.083M109 162.5V167.917M109 81.25V113.75M109 54.1667V59.5833M136 216.667V222.083M136 189.583V195M136 54.1667L136 167.917M136 27.0833V32.5M109 352.083V357.5M109 379.167V384.583M109 406.25V438.75M109 460.417V492.917M109 541.667V547.083M109 568.75L109 655.417M109 677.083V682.5M109 704.167V709.583M109 785.417V845M28 325L28 330.417M28 216.667L28 303.333M28 189.583L28 195M28 81.25L28 167.917M28 0L28 5.41667M28 352.083L28 411.667M28 433.333L28 438.75M28 487.5L28 492.917M28 541.667L28 601.25M28 622.917L28 655.417M28 677.083L28 790.833M28 812.5L28 817.917M82 270.833V276.25M82 297.917V303.333M82 216.667V249.167M82 189.583V195M82 135.417V140.833M82 108.333V113.75M82 54.1667V86.6667M82 27.0833V32.5M82 0V5.41667M82 352.083V357.5M82 406.25V411.667M82 487.5V492.917M82 514.583V520M82 541.667V547.083M82 568.75V574.167M82 595.833V682.5M82 704.167V709.583M82 758.333L82 845M136 297.917V303.333V243.75M136 352.083V357.5M136 379.167V384.583M136 406.25V411.667M136 433.333V492.917M136 514.583V520M136 541.667L136 628.333M136 650V655.417M136 704.167V736.667M136 758.333V763.75M136 785.417V817.917M109 758.333V763.75" stroke="#FFFFFE" stroke-width="6"/>
<g filter="url(#filter0_f_427_41748)">
<path d="M119.572 696.6H63.393L21.5 654.707V458.393L63.393 416.5H119.572L225.5 522.428V590.672L119.572 696.6Z" stroke="#222222" stroke-width="23"/>
</g>
<g filter="url(#filter1_f_427_41748)">
<path d="M58.6296 708.1L10 659.471V453.63L58.6296 405H124.335L237 517.665V595.435L124.335 708.1H58.6296Z" fill="#344753" fill-opacity="0.3"/>
</g>
<path d="M119.572 696.6H63.393L21.5 654.707V458.393L63.393 416.5H119.572L225.5 522.428V590.672L119.572 696.6Z" stroke="#BC0B07" stroke-width="23"/>
<g filter="url(#filter2_f_427_41748)">
<path d="M121.539 701.35H61.4255L16.75 656.675V456.426L61.4255 411.75H121.539L230.25 520.461V592.639L121.539 701.35Z" stroke="#222222" stroke-width="13.5"/>
</g>
<path d="M121.539 701.35H61.4255L16.75 656.675V456.426L61.4255 411.75H121.539L230.25 520.461V592.639L121.539 701.35Z" stroke="#D7130F" stroke-width="13.5"/>
<g filter="url(#filter3_f_427_41748)">
<path d="M59.5823 705.8L12.3 658.518V454.582L59.5823 407.3H123.382L234.7 518.618V594.483L123.382 705.8H59.5823Z" stroke="#222222" stroke-width="4.6"/>
</g>
<path d="M58.6296 708.1L10 659.471V453.63L58.6296 405H124.335L237 517.665V595.435L124.335 708.1H58.6296Z" stroke="#EE0500" stroke-width="9.2"/>
<path d="M5.4 659.471V661.376L6.74731 662.723L55.3769 711.353L56.7242 712.7H58.6296H124.335H126.24L127.588 711.353L240.253 598.688L241.6 597.341V595.435V517.665V515.76L240.253 514.412L127.588 401.747L126.24 400.4H124.335H58.6296H56.7242L55.3769 401.747L6.74731 450.377L5.4 451.724V453.63V659.471Z" stroke="#EE0500" stroke-width="9.2"/>
<path d="M35.793 1024.73L39.1811 1022.79L47.3127 1027.45L57.1384 1022.02" stroke="#FFFFFE" stroke-width="1.35526"/>
<path d="M48.3281 1032.11L55.4433 1028.23M55.4433 1028.23L65.2689 1034.05L71.3676 1037.54L64.2525 1041.81M55.4433 1028.23L61.8808 1024.73" stroke="#FFFFFE" stroke-width="1.35526"/>
<path d="M53.75 1034.83L57.1382 1032.88L63.5757 1036.77L60.1875 1038.71" stroke="#FFFFFE" stroke-width="1.35526"/>
<path d="M70.0148 1027.06L64.5938 1030.17L83.2286 1040.9L73.0641 1046.86L102.88 1029.39L112.706 1034.83" stroke="#FFFFFE" stroke-width="1.35526"/>
<path d="M88.9875 1048.8L83.5664 1045.69L102.879 1034.44L108.3 1037.54" stroke="#FFFFFE" stroke-width="1.35526"/>
<path d="M102.199 1023.18L113.719 1029.78L127.61 1021.63L121.512 1018.13L113.38 1023.18L107.281 1019.69" stroke="#FFFFFE" stroke-width="1.35526"/>
<path d="M38.5039 1016.58L45.619 1020.85L50.7013 1018.13" stroke="#FFFFFE" stroke-width="1.35526"/>
<path d="M81.8711 1072.09V1101.59" stroke="#FFFFFE" stroke-width="4.06579"/>
<path d="M73.5 1067.43V1105.5L81.8719 1121L90.0035 1105.5V1067.43" stroke="#FFFFFE" stroke-width="4.06579"/>
<path d="M44.2632 1031.34L28 1040.26L81.8717 1071.32L135.743 1040.26L120.836 1031.34" stroke="#FFFFFE" stroke-width="4.06579"/>
<path d="M44.2632 1012.71L28 1021.63L81.8717 1052.69L135.743 1021.63L120.836 1012.71" stroke="#FFFFFE" stroke-width="4.06579"/>
<path d="M73.7401 977.383L28 1003.78L81.8717 1034.83L135.743 1003.78L90.6809 977.383" stroke="#FFFFFE" stroke-width="4.06579"/>
<path d="M81.8711 965.74L81.8711 1005.33" stroke="#FFFFFE" stroke-width="4.06579"/>
<path d="M74 956L74 1005" stroke="#FFFFFE" stroke-width="4.06579"/>
<path d="M90.0039 956.422L90 1005" stroke="#FFFFFE" stroke-width="4.06579"/>
<path fill-rule="evenodd" clip-rule="evenodd" d="M70.3522 943.223L48.668 946.716V957.196H81.5331H114.398V946.716L94.0693 943.223H81.5331H70.3522ZM70.2549 947L54 949.917V953.5H81.5H109V949.917L94.0933 947H81.5H70.2549Z" fill="#FFFFFE"/>
<circle cx="82" cy="898" r="10.9671" stroke="#FFFFFE" stroke-width="4.06579"/>
<path d="M76.4492 908.287V943.221" stroke="#FFFFFE" stroke-width="4.06579"/>
<path d="M87.293 908.287V943.221" stroke="#FFFFFE" stroke-width="4.06579"/>
<circle cx="81.9414" cy="1057.32" r="0.75" fill="#FFFFFE"/>
<circle cx="84.6523" cy="1055.77" r="0.75" fill="#FFFFFE"/>
<circle cx="87.3633" cy="1054.21" r="0.75" fill="#FFFFFE"/>
<circle cx="90.0742" cy="1052.66" r="0.75" fill="#FFFFFE"/>
<circle cx="92.7852" cy="1051.11" r="0.75" fill="#FFFFFE"/>
<circle cx="95.4922" cy="1049.55" r="0.75" fill="#FFFFFE"/>
<circle cx="98.2031" cy="1048" r="0.75" fill="#FFFFFE"/>
<circle cx="100.914" cy="1046.45" r="0.75" fill="#FFFFFE"/>
<circle cx="103.625" cy="1044.89" r="0.75" fill="#FFFFFE"/>
<circle cx="106.336" cy="1043.34" r="0.75" fill="#FFFFFE"/>
<circle cx="109.047" cy="1041.79" r="0.75" fill="#FFFFFE"/>
<circle cx="111.758" cy="1040.24" r="0.75" fill="#FFFFFE"/>
<circle cx="114.469" cy="1038.69" r="0.75" fill="#FFFFFE"/>
<circle cx="117.18" cy="1037.13" r="0.75" fill="#FFFFFE"/>
<circle cx="119.891" cy="1035.58" r="0.75" fill="#FFFFFE"/>
<circle cx="81.9414" cy="1060.42" r="0.75" fill="#FFFFFE"/>
<circle cx="84.6523" cy="1058.87" r="0.75" fill="#FFFFFE"/>
<circle cx="87.3633" cy="1057.32" r="0.75" fill="#FFFFFE"/>
<circle cx="90.0742" cy="1055.77" r="0.75" fill="#FFFFFE"/>
<circle cx="92.7852" cy="1054.21" r="0.75" fill="#FFFFFE"/>
<circle cx="95.4922" cy="1052.66" r="0.75" fill="#FFFFFE"/>
<circle cx="98.2031" cy="1051.11" r="0.75" fill="#FFFFFE"/>
<circle cx="100.914" cy="1049.55" r="0.75" fill="#FFFFFE"/>
<circle cx="103.625" cy="1048" r="0.75" fill="#FFFFFE"/>
<circle cx="106.336" cy="1046.45" r="0.75" fill="#FFFFFE"/>
<circle cx="109.047" cy="1044.89" r="0.75" fill="#FFFFFE"/>
<circle cx="111.758" cy="1043.34" r="0.75" fill="#FFFFFE"/>
<circle cx="114.469" cy="1041.79" r="0.75" fill="#FFFFFE"/>
<circle cx="117.18" cy="1040.24" r="0.75" fill="#FFFFFE"/>
<circle cx="119.891" cy="1038.69" r="0.75" fill="#FFFFFE"/>
<circle cx="122.598" cy="1037.13" r="0.75" fill="#FFFFFE"/>
<circle cx="81.9414" cy="1063.53" r="0.75" fill="#FFFFFE"/>
<circle cx="84.6523" cy="1061.97" r="0.75" fill="#FFFFFE"/>
<circle cx="87.3633" cy="1060.42" r="0.75" fill="#FFFFFE"/>
<circle cx="90.0742" cy="1058.87" r="0.75" fill="#FFFFFE"/>
<circle cx="92.7852" cy="1057.32" r="0.75" fill="#FFFFFE"/>
<circle cx="95.4922" cy="1055.77" r="0.75" fill="#FFFFFE"/>
<circle cx="98.2031" cy="1054.21" r="0.75" fill="#FFFFFE"/>
<circle cx="100.914" cy="1052.66" r="0.75" fill="#FFFFFE"/>
<circle cx="103.625" cy="1051.11" r="0.75" fill="#FFFFFE"/>
<circle cx="106.336" cy="1049.55" r="0.75" fill="#FFFFFE"/>
<circle cx="109.047" cy="1048" r="0.75" fill="#FFFFFE"/>
<circle cx="111.758" cy="1046.45" r="0.75" fill="#FFFFFE"/>
<circle cx="114.469" cy="1044.89" r="0.75" fill="#FFFFFE"/>
<circle cx="117.18" cy="1043.34" r="0.75" fill="#FFFFFE"/>
<circle cx="119.891" cy="1041.79" r="0.75" fill="#FFFFFE"/>
<circle cx="122.598" cy="1040.24" r="0.75" fill="#FFFFFE"/>
<circle cx="125.309" cy="1038.69" r="0.75" fill="#FFFFFE"/>
<circle cx="81.9414" cy="1066.63" r="0.75" fill="#FFFFFE"/>
<circle cx="84.6523" cy="1065.08" r="0.75" fill="#FFFFFE"/>
<circle cx="87.3633" cy="1063.53" r="0.75" fill="#FFFFFE"/>
<circle cx="90.0742" cy="1061.97" r="0.75" fill="#FFFFFE"/>
<circle cx="92.7852" cy="1060.42" r="0.75" fill="#FFFFFE"/>
<circle cx="95.4922" cy="1058.87" r="0.75" fill="#FFFFFE"/>
<circle cx="98.2031" cy="1057.32" r="0.75" fill="#FFFFFE"/>
<circle cx="100.914" cy="1055.77" r="0.75" fill="#FFFFFE"/>
<circle cx="103.625" cy="1054.21" r="0.75" fill="#FFFFFE"/>
<circle cx="106.336" cy="1052.66" r="0.75" fill="#FFFFFE"/>
<circle cx="109.047" cy="1051.11" r="0.75" fill="#FFFFFE"/>
<circle cx="111.758" cy="1049.55" r="0.75" fill="#FFFFFE"/>
<circle cx="114.469" cy="1048" r="0.75" fill="#FFFFFE"/>
<circle cx="117.18" cy="1046.45" r="0.75" fill="#FFFFFE"/>
<circle cx="119.891" cy="1044.89" r="0.75" fill="#FFFFFE"/>
<circle cx="122.598" cy="1043.34" r="0.75" fill="#FFFFFE"/>
<circle cx="125.309" cy="1041.79" r="0.75" fill="#FFFFFE"/>
<circle cx="128.02" cy="1040.24" r="0.75" fill="#FFFFFE"/>
<circle r="0.75" transform="matrix(-1 0 0 1 79.0859 1055.77)" fill="#FFFFFE"/>
<circle r="0.75" transform="matrix(-1 0 0 1 76.375 1054.21)" fill="#FFFFFE"/>
<circle r="0.75" transform="matrix(-1 0 0 1 73.6641 1052.66)" fill="#FFFFFE"/>
<circle r="0.75" transform="matrix(-1 0 0 1 70.9531 1051.11)" fill="#FFFFFE"/>
<circle r="0.75" transform="matrix(-1 0 0 1 68.2422 1049.55)" fill="#FFFFFE"/>
<circle r="0.75" transform="matrix(-1 0 0 1 65.5352 1048)" fill="#FFFFFE"/>
<circle r="0.75" transform="matrix(-1 0 0 1 62.8242 1046.45)" fill="#FFFFFE"/>
<circle r="0.75" transform="matrix(-1 0 0 1 60.1133 1044.89)" fill="#FFFFFE"/>
<circle r="0.75" transform="matrix(-1 0 0 1 57.4023 1043.34)" fill="#FFFFFE"/>
<circle r="0.75" transform="matrix(-1 0 0 1 54.6914 1041.79)" fill="#FFFFFE"/>
<circle r="0.75" transform="matrix(-1 0 0 1 51.9805 1040.24)" fill="#FFFFFE"/>
<circle r="0.75" transform="matrix(-1 0 0 1 49.2695 1038.69)" fill="#FFFFFE"/>
<circle r="0.75" transform="matrix(-1 0 0 1 46.5586 1037.13)" fill="#FFFFFE"/>
<circle r="0.75" transform="matrix(-1 0 0 1 43.8477 1035.58)" fill="#FFFFFE"/>
<circle r="0.75" transform="matrix(-1 0 0 1 79.0859 1058.87)" fill="#FFFFFE"/>
<circle r="0.75" transform="matrix(-1 0 0 1 76.375 1057.32)" fill="#FFFFFE"/>
<circle r="0.75" transform="matrix(-1 0 0 1 73.6641 1055.77)" fill="#FFFFFE"/>
<circle r="0.75" transform="matrix(-1 0 0 1 70.9531 1054.21)" fill="#FFFFFE"/>
<circle r="0.75" transform="matrix(-1 0 0 1 68.2422 1052.66)" fill="#FFFFFE"/>
<circle r="0.75" transform="matrix(-1 0 0 1 65.5352 1051.11)" fill="#FFFFFE"/>
<circle r="0.75" transform="matrix(-1 0 0 1 62.8242 1049.55)" fill="#FFFFFE"/>
<circle r="0.75" transform="matrix(-1 0 0 1 60.1133 1048)" fill="#FFFFFE"/>
<circle r="0.75" transform="matrix(-1 0 0 1 57.4023 1046.45)" fill="#FFFFFE"/>
<circle r="0.75" transform="matrix(-1 0 0 1 54.6914 1044.89)" fill="#FFFFFE"/>
<circle r="0.75" transform="matrix(-1 0 0 1 51.9805 1043.34)" fill="#FFFFFE"/>
<circle r="0.75" transform="matrix(-1 0 0 1 49.2695 1041.79)" fill="#FFFFFE"/>
<circle r="0.75" transform="matrix(-1 0 0 1 46.5586 1040.24)" fill="#FFFFFE"/>
<circle r="0.75" transform="matrix(-1 0 0 1 43.8477 1038.69)" fill="#FFFFFE"/>
<circle r="0.75" transform="matrix(-1 0 0 1 41.1367 1037.13)" fill="#FFFFFE"/>
<circle r="0.75" transform="matrix(-1 0 0 1 79.0859 1061.97)" fill="#FFFFFE"/>
<circle r="0.75" transform="matrix(-1 0 0 1 76.375 1060.42)" fill="#FFFFFE"/>
<circle r="0.75" transform="matrix(-1 0 0 1 73.6641 1058.87)" fill="#FFFFFE"/>
<circle r="0.75" transform="matrix(-1 0 0 1 70.9531 1057.32)" fill="#FFFFFE"/>
<circle r="0.75" transform="matrix(-1 0 0 1 68.2422 1055.77)" fill="#FFFFFE"/>
<circle r="0.75" transform="matrix(-1 0 0 1 65.5352 1054.21)" fill="#FFFFFE"/>
<circle r="0.75" transform="matrix(-1 0 0 1 62.8242 1052.66)" fill="#FFFFFE"/>
<circle r="0.75" transform="matrix(-1 0 0 1 60.1133 1051.11)" fill="#FFFFFE"/>
<circle r="0.75" transform="matrix(-1 0 0 1 57.4023 1049.55)" fill="#FFFFFE"/>
<circle r="0.75" transform="matrix(-1 0 0 1 54.6914 1048)" fill="#FFFFFE"/>
<circle r="0.75" transform="matrix(-1 0 0 1 51.9805 1046.45)" fill="#FFFFFE"/>
<circle r="0.75" transform="matrix(-1 0 0 1 49.2695 1044.89)" fill="#FFFFFE"/>
<circle r="0.75" transform="matrix(-1 0 0 1 46.5586 1043.34)" fill="#FFFFFE"/>
<circle r="0.75" transform="matrix(-1 0 0 1 43.8477 1041.79)" fill="#FFFFFE"/>
<circle r="0.75" transform="matrix(-1 0 0 1 41.1367 1040.24)" fill="#FFFFFE"/>
<circle r="0.75" transform="matrix(-1 0 0 1 38.4297 1038.69)" fill="#FFFFFE"/>
<circle r="0.75" transform="matrix(-1 0 0 1 79.0859 1065.08)" fill="#FFFFFE"/>
<circle r="0.75" transform="matrix(-1 0 0 1 76.375 1063.53)" fill="#FFFFFE"/>
<circle r="0.75" transform="matrix(-1 0 0 1 73.6641 1061.97)" fill="#FFFFFE"/>
<circle r="0.75" transform="matrix(-1 0 0 1 70.9531 1060.42)" fill="#FFFFFE"/>
<circle r="0.75" transform="matrix(-1 0 0 1 68.2422 1058.87)" fill="#FFFFFE"/>
<circle r="0.75" transform="matrix(-1 0 0 1 65.5352 1057.32)" fill="#FFFFFE"/>
<circle r="0.75" transform="matrix(-1 0 0 1 62.8242 1055.77)" fill="#FFFFFE"/>
<circle r="0.75" transform="matrix(-1 0 0 1 60.1133 1054.21)" fill="#FFFFFE"/>
<circle r="0.75" transform="matrix(-1 0 0 1 57.4023 1052.66)" fill="#FFFFFE"/>
<circle r="0.75" transform="matrix(-1 0 0 1 54.6914 1051.11)" fill="#FFFFFE"/>
<circle r="0.75" transform="matrix(-1 0 0 1 51.9805 1049.55)" fill="#FFFFFE"/>
<circle r="0.75" transform="matrix(-1 0 0 1 49.2695 1048)" fill="#FFFFFE"/>
<circle r="0.75" transform="matrix(-1 0 0 1 46.5586 1046.45)" fill="#FFFFFE"/>
<circle r="0.75" transform="matrix(-1 0 0 1 43.8477 1044.89)" fill="#FFFFFE"/>
<circle r="0.75" transform="matrix(-1 0 0 1 41.1367 1043.34)" fill="#FFFFFE"/>
<circle r="0.75" transform="matrix(-1 0 0 1 38.4297 1041.79)" fill="#FFFFFE"/>
<circle r="0.75" transform="matrix(-1 0 0 1 35.7188 1040.24)" fill="#FFFFFE"/>
<defs>
<filter id="filter0_f_427_41748" x="2.63859" y="397.639" width="241.723" height="317.822" filterUnits="userSpaceOnUse" color-interpolation-filters="sRGB">
<feFlood flood-opacity="0" result="BackgroundImageFix"/>
<feBlend mode="normal" in="SourceGraphic" in2="BackgroundImageFix" result="shape"/>
<feGaussianBlur stdDeviation="3.68071" result="effect1_foregroundBlur_427_41748"/>
</filter>
<filter id="filter1_f_427_41748" x="2.63859" y="397.639" width="241.723" height="317.822" filterUnits="userSpaceOnUse" color-interpolation-filters="sRGB">
<feFlood flood-opacity="0" result="BackgroundImageFix"/>
<feBlend mode="normal" in="SourceGraphic" in2="BackgroundImageFix" result="shape"/>
<feGaussianBlur stdDeviation="3.68071" result="effect1_foregroundBlur_427_41748"/>
</filter>
<filter id="filter2_f_427_41748" x="2.63859" y="397.639" width="241.723" height="317.822" filterUnits="userSpaceOnUse" color-interpolation-filters="sRGB">
<feFlood flood-opacity="0" result="BackgroundImageFix"/>
<feBlend mode="normal" in="SourceGraphic" in2="BackgroundImageFix" result="shape"/>
<feGaussianBlur stdDeviation="3.68071" result="effect1_foregroundBlur_427_41748"/>
</filter>
<filter id="filter3_f_427_41748" x="2.63859" y="397.639" width="241.723" height="317.822" filterUnits="userSpaceOnUse" color-interpolation-filters="sRGB">
<feFlood flood-opacity="0" result="BackgroundImageFix"/>
<feBlend mode="normal" in="SourceGraphic" in2="BackgroundImageFix" result="shape"/>
<feGaussianBlur stdDeviation="3.68071" result="effect1_foregroundBlur_427_41748"/>
</filter>
</defs>
</svg>
