<svg width="331" height="634" viewBox="0 0 331 634" fill="none" xmlns="http://www.w3.org/2000/svg">
<path d="M9.54297 136.83V55.0417L26.0536 38.5312H46.8139L58.0981 49.8154H122.862L144.551 28.1269L163.422 9.25586H291.989L321.265 38.5312V329.27L284.342 366.193H158.847L125.784 333.129V291.333L158.847 258.269V221.255L105.197 167.606H40.3188L9.54297 136.83Z" fill="#344753" fill-opacity="0.3"/>
<g filter="url(#filter0_f_417_35101)">
<path d="M113.331 159.472L109.962 156.103H105.197H45.0832L21.0452 132.065V59.8061L30.8179 50.0334H42.0495L49.9648 57.9487L53.3337 61.3176H58.0981H122.862H127.627L130.996 57.9487L152.684 36.2602L168.186 20.7581H287.225L309.762 43.2955V324.505L279.577 354.69H163.612L137.286 328.365V296.097L166.98 266.403L170.349 263.034V258.269V221.255V216.491L166.98 213.122L113.331 159.472Z" stroke="#222222" stroke-width="23.0044"/>
</g>
<path d="M113.331 159.472L109.962 156.103H105.197H45.0832L21.0452 132.065V59.8061L30.8179 50.0334H42.0495L49.9648 57.9487L53.3337 61.3176H58.0981H122.862H127.627L130.996 57.9487L152.684 36.2602L168.186 20.7581H287.225L309.762 43.2955V324.505L279.577 354.69H163.612L137.286 328.365V296.097L166.98 266.403L170.349 263.034V258.269V221.255V216.491L166.98 213.122L113.331 159.472Z" stroke="#BC0B07" stroke-width="23.0044"/>
<g filter="url(#filter1_f_417_35101)">
<path d="M110.077 162.726L108.056 160.704H105.197H43.1775L16.4443 133.971V57.9004L28.9122 45.4325H43.9552L53.2181 54.6953L55.2395 56.7167H58.0981H122.862H125.721L127.742 54.6953L149.431 33.0068L166.281 16.1572H289.131L314.363 41.3898V326.411L281.483 359.291H161.706L132.685 330.271V294.191L163.727 263.149L165.748 261.128V258.269V221.255V218.397L163.727 216.375L110.077 162.726Z" stroke="#222222" stroke-width="13.8027"/>
</g>
<path d="M110.077 162.726L108.056 160.704H105.197H43.1775L16.4443 133.971V57.9004L28.9122 45.4325H43.9552L53.2181 54.6953L55.2395 56.7167H58.0981H122.862H125.721L127.742 54.6953L149.431 33.0068L166.281 16.1572H289.131L314.363 41.3898V326.411L281.483 359.291H161.706L132.685 330.271V294.191L163.727 263.149L165.748 261.128V258.269V221.255V218.397L163.727 216.375L110.077 162.726Z" stroke="#D7130F" stroke-width="13.8027"/>
<g filter="url(#filter2_f_417_35101)">
<path d="M106.824 165.979L106.15 165.305H105.197H41.2717L11.8434 135.877V55.9946L27.0064 40.8316H45.861L56.4714 51.442L57.1452 52.1158H58.0981H122.862H123.815L124.489 51.442L146.178 29.7535L164.375 11.5563H291.037L318.964 39.484V328.317L283.389 363.892H159.8L128.084 332.177V292.285L160.474 259.896L161.148 259.222V258.269V221.255V220.302L160.474 219.629L106.824 165.979Z" stroke="#222222" stroke-width="4.60088"/>
</g>
<path d="M9.54297 136.83V55.0417L26.0536 38.5312H46.8139L58.0981 49.8154H122.862L144.551 28.1269L163.422 9.25586H291.989L321.265 38.5312V329.27L284.342 366.193H158.847L125.784 333.129V291.333L158.847 258.269V221.255L105.197 167.606H40.3188L9.54297 136.83Z" stroke="#EE0500" stroke-width="9.20177"/>
<path d="M6.28965 51.7884L4.94209 53.136V55.0417V136.83V138.735L6.28965 140.083L37.0655 170.859L38.4131 172.206H40.3188H103.292L154.246 223.161V256.364L122.531 288.079L121.183 289.427V291.333V333.129V335.035L122.531 336.383L155.594 369.446L156.941 370.794H158.847H284.342H286.247L287.595 369.446L324.518 332.523L325.866 331.175V329.27V38.5312V36.6254L324.518 35.2778L295.243 6.00254L293.895 4.65498H291.989H163.422H161.516L160.169 6.00254L141.298 24.8735L120.957 45.2145H60.0038L50.0672 35.2778L48.7196 33.9303H46.8139H26.0536H24.1478L22.8002 35.2778L6.28965 51.7884Z" stroke="#EE0500" stroke-width="9.20177"/>
<path d="M284.313 371.577L313.101 401.796L313.102 595.76L275.997 624.074L243.644 624.074L202.831 624.074L122.552 543.795L122.552 492.311L122.552 415.77L159.049 371.577L284.313 371.577Z" fill="#344753" fill-opacity="0.3"/>
<g filter="url(#filter3_f_417_35101)">
<path d="M301.599 590.069L301.599 406.398L279.384 383.079L164.467 383.079L134.054 419.906L134.054 492.311L134.054 539.03L207.596 612.572L243.644 612.572L272.109 612.572L301.599 590.069Z" stroke="#222222" stroke-width="23.0044"/>
</g>
<path d="M301.599 590.069L301.599 406.398L279.384 383.079L164.467 383.079L134.054 419.906L134.054 492.311L134.054 539.03L207.596 612.572L243.644 612.572L272.109 612.572L301.599 590.069Z" stroke="#BC0B07" stroke-width="23.0044"/>
<g filter="url(#filter4_f_417_35101)">
<path d="M306.2 592.345L306.2 404.557L281.356 378.478L162.3 378.478L129.453 418.251L129.453 492.311L129.453 540.936L205.69 617.173L243.644 617.173L273.664 617.173L306.2 592.345Z" stroke="#222222" stroke-width="13.8027"/>
</g>
<path d="M306.2 592.345L306.2 404.557L281.356 378.478L162.3 378.478L129.453 418.251L129.453 492.311L129.453 540.936L205.69 617.173L243.644 617.173L273.664 617.173L306.2 592.345Z" stroke="#D7130F" stroke-width="13.8027"/>
<g filter="url(#filter5_f_417_35101)">
<path d="M310.801 594.622L310.801 402.717L283.327 373.877L160.132 373.877L124.852 416.597L124.852 492.311L124.852 542.842L203.784 621.774L243.644 621.774L275.219 621.774L310.801 594.622Z" stroke="#222222" stroke-width="4.60088"/>
</g>
<path d="M284.313 371.577L313.101 401.796L313.102 595.76L275.997 624.074L243.644 624.074L202.831 624.074L122.552 543.795L122.552 492.311L122.552 415.77L159.049 371.577L284.313 371.577Z" stroke="#EE0500" stroke-width="9.20177"/>
<path d="M316.433 398.623L317.702 399.956L317.702 401.796L317.702 595.76L317.702 598.037L315.893 599.418L278.788 627.732L277.552 628.675L275.997 628.675L243.644 628.675L202.831 628.675L200.926 628.675L199.578 627.328L119.299 547.048L117.951 545.7L117.951 543.795L117.951 492.311L117.951 415.77L117.951 414.116L119.004 412.84L155.501 368.647L156.881 366.976L159.049 366.976L284.313 366.976L286.284 366.976L287.644 368.403L316.433 398.623Z" stroke="#EE0500" stroke-width="9.20177"/>
<defs>
<filter id="filter0_f_417_35101" x="2.18155" y="1.89445" width="326.445" height="371.66" filterUnits="userSpaceOnUse" color-interpolation-filters="sRGB">
<feFlood flood-opacity="0" result="BackgroundImageFix"/>
<feBlend mode="normal" in="SourceGraphic" in2="BackgroundImageFix" result="shape"/>
<feGaussianBlur stdDeviation="3.68071" result="effect1_foregroundBlur_417_35101"/>
</filter>
<filter id="filter1_f_417_35101" x="2.18155" y="1.89445" width="326.445" height="371.66" filterUnits="userSpaceOnUse" color-interpolation-filters="sRGB">
<feFlood flood-opacity="0" result="BackgroundImageFix"/>
<feBlend mode="normal" in="SourceGraphic" in2="BackgroundImageFix" result="shape"/>
<feGaussianBlur stdDeviation="3.68071" result="effect1_foregroundBlur_417_35101"/>
</filter>
<filter id="filter2_f_417_35101" x="2.18155" y="1.89445" width="326.445" height="371.66" filterUnits="userSpaceOnUse" color-interpolation-filters="sRGB">
<feFlood flood-opacity="0" result="BackgroundImageFix"/>
<feBlend mode="normal" in="SourceGraphic" in2="BackgroundImageFix" result="shape"/>
<feGaussianBlur stdDeviation="3.68071" result="effect1_foregroundBlur_417_35101"/>
</filter>
<filter id="filter3_f_417_35101" x="115.189" y="364.215" width="205.274" height="267.221" filterUnits="userSpaceOnUse" color-interpolation-filters="sRGB">
<feFlood flood-opacity="0" result="BackgroundImageFix"/>
<feBlend mode="normal" in="SourceGraphic" in2="BackgroundImageFix" result="shape"/>
<feGaussianBlur stdDeviation="3.68071" result="effect1_foregroundBlur_417_35101"/>
</filter>
<filter id="filter4_f_417_35101" x="115.189" y="364.215" width="205.274" height="267.221" filterUnits="userSpaceOnUse" color-interpolation-filters="sRGB">
<feFlood flood-opacity="0" result="BackgroundImageFix"/>
<feBlend mode="normal" in="SourceGraphic" in2="BackgroundImageFix" result="shape"/>
<feGaussianBlur stdDeviation="3.68071" result="effect1_foregroundBlur_417_35101"/>
</filter>
<filter id="filter5_f_417_35101" x="115.189" y="364.215" width="205.274" height="267.221" filterUnits="userSpaceOnUse" color-interpolation-filters="sRGB">
<feFlood flood-opacity="0" result="BackgroundImageFix"/>
<feBlend mode="normal" in="SourceGraphic" in2="BackgroundImageFix" result="shape"/>
<feGaussianBlur stdDeviation="3.68071" result="effect1_foregroundBlur_417_35101"/>
</filter>
</defs>
</svg>
