<svg width="1683" height="2468" viewBox="0 0 1683 2468" fill="none" xmlns="http://www.w3.org/2000/svg">
<path d="M1573.24 1621.55C1573.24 1211.1 1240.7 878.365 830.494 878.365C420.29 878.365 87.751 1211.1 87.751 1621.55C87.751 2031.99 420.29 2364.73 830.494 2364.73C1240.7 2364.73 1573.24 2031.99 1573.24 1621.55Z" stroke="#222222" stroke-width="5"/>
<path d="M945.784 165.771C953.651 188.782 1019.43 151.903 970.23 272.493C917.652 401.357 918.928 412.499 930.928 463.999C936.928 484.999 921.917 540.985 970.23 671.508C1032.4 839.457 926.713 795.914 880.088 802.134C833.463 808.355 730.888 886.109 755.755 954.533C775.648 1009.27 747.637 1011.87 730.888 1016.74C702.859 1024.91 649.449 1052.82 559.929 1060.28C448.029 1069.61 503.979 948.314 457.354 917.216C410.729 886.117 373.429 966.98 360.995 994.971C348.562 1022.96 260.053 1081 213.428 1081C166.803 1081 143.794 1030.54 118.928 987.001C94.0611 943.459 155.711 926.493 161.928 898.501C166.901 876.107 60.9862 894.867 1.92773 884.501" stroke="#222222" stroke-width="5"/>
<path d="M761.353 217.273C771.353 234.773 777.824 223.484 835.809 220.319C872.165 218.335 904.928 250.001 872.928 274.001C844.11 294.153 818.428 409.501 836.571 578.204C836.571 625.478 868.814 661.169 886.428 670.501C902.928 680.501 881.331 746.153 836.571 733.712C780.621 718.161 715.346 777.254 671.829 795.915C637.016 810.844 665.718 887.144 680.224 923.428C686.412 938.907 644.476 967.592 622.096 970.08C594.121 973.191 603.446 920.318 578.579 923.428C558.686 925.916 512.268 880.922 491.546 858.114C454.246 843.602 373.429 823.284 348.562 858.114C317.479 901.652 311.262 938.988 280.179 948.318C255.312 955.783 257.384 920.326 261.528 901.664L241.428 837.002C236.247 802.789 200.268 827.002 170.428 827.002C140.588 827.002 110.258 781.502 86.4277 781.502L1.92773 774.502" stroke="#222222" stroke-width="5"/>
<path d="M513.291 287.892C529.791 323.892 537.48 297.787 539.582 331.451C541.264 358.383 537.428 435.999 560.428 472.999C587.928 514.499 595.11 539.567 593.428 566.499C591.325 600.163 562.666 612.925 575.928 660.999C592.483 721.015 590.809 717.521 606.928 703.499C623.046 689.472 612.424 670.682 649.428 645.438C695.682 613.883 701.972 626.365 709.928 615.499C737.339 578.06 708.824 548.668 717.233 533.942C723.961 522.161 730.325 483.516 732.428 472.999C733.928 460.5 723.961 421.838 717.233 410.057C708.824 395.331 709.055 320.263 713.928 275C717.146 245.107 692.392 261.795 690.792 237.334" stroke="#222222" stroke-width="5"/>
<path d="M2.42773 2319C10.9277 2319 32.4277 2311.5 50.4277 2320.5C124.428 2353 169.428 2209 267.428 2245.5C365.428 2282 209.428 2459 428.428 2398C603.628 2349.2 667.213 2227.05 677.105 2172.08C678.717 2168.52 686.998 2147.66 707.229 2092.71C732.518 2024.02 798.428 2070 823.428 2000C854.928 1920 907.134 1893.9 913.155 1850.52C891.478 1801.11 843.068 1695.08 822.836 1666.16C797.547 1630.01 822.836 1463.73 750.582 1452.88C678.327 1442.04 562.72 1297.44 522.979 1290.21C483.239 1282.98 371.245 1297.44 262.863 1373.36C154.481 1449.27 237.573 1514.34 262.863 1568.56C288.152 1622.78 374.857 1528.79 421.823 1644.47C459.395 1737.01 437.478 1738.46 421.823 1727.61C397.738 1719.18 345.956 1721.83 331.505 1799.91C313.441 1897.51 327.892 1875.82 309.829 1958.96C295.377 2025.48 276.428 2106 143.643 2161.4C88.4277 2181.5 164.789 2084.88 101.428 2046.5C13.9277 1993.5 73.4277 2086.5 45.4277 2101.5C13.5109 2118.6 7.0944 2120.33 0.927734 2118.5" stroke="#222222" stroke-width="5"/>
<path d="M1679.43 972.996C1619.67 993.384 1482.4 1032.45 1407.43 1019.4C1313.72 1003.09 1382.98 1100.93 1338.16 1125.4C1293.34 1149.86 1232.22 1174.32 1207.78 1125.4C1188.22 1086.26 1115.42 1081.91 1081.47 1084.62C1059.74 1090.06 1029.31 1113.98 1081.47 1166.16C1146.66 1231.4 1171.11 1268.1 1081.47 1276.25C991.826 1284.41 979.602 1349.63 1016.27 1394.48C1052.94 1439.32 1142.59 1541.24 1150.73 1655.39C1158.88 1769.55 1350.39 1679.87 1407.43 1704.33C1464.48 1728.79 1541.89 1753.27 1537.82 1704.33C1533.74 1655.39 1529.67 1573.86 1468.55 1524.94C1407.43 1476.01 1435.95 1394.48 1468.55 1394.48C1501.15 1394.48 1525.59 1394.48 1582.64 1394.48C1639.68 1394.48 1654.48 1539 1678.93 1539" stroke="#222222" stroke-width="5"/>
<path d="M854.947 1331.38C832.226 1339.91 781.103 1305.79 715.779 1266.01C698.738 1262.22 660.679 1253.5 644.774 1248.95C624.892 1243.27 656.135 1189.27 664.656 1160.85C673.176 1132.44 715.779 1169.38 781.103 1189.27C846.426 1209.17 877.668 1169.38 880.508 1189.27C883.349 1209.17 923.111 1266.01 900.39 1266.01C877.668 1266.01 877.668 1322.84 854.947 1331.38Z" stroke="#222222" stroke-width="5"/>
<path d="M1680.43 42.7475C1631.24 25.799 1534.3 17.949 1529.36 1.4043M1082.6 126.652C1100.25 190.383 1112.23 142.389 1097.31 205.133C1081.3 272.475 1063.19 256.23 1065.61 297.382C1068.03 338.533 1039.43 367.5 1034.16 396.63L1029.43 431L1034.16 547.371C1034.16 578.84 1068.03 605.467 1065.61 646.619C1063.19 687.77 1080.12 699.874 1121.25 755.55C1162.38 811.225 1034.16 879.004 988.19 944.367C942.224 1009.73 1022.06 987.935 1034.16 1007.3C1046.25 1026.67 1089.8 980.673 1135.76 987.935C1181.73 995.197 1225.28 1031.51 1234.95 1050.87C1244.63 1070.23 1263.99 1055.71 1278.5 1050.87C1293.02 1046.03 1261.57 1021.82 1278.5 968.56C1295.44 915.305 1338.98 944.367 1372.85 927.409C1406.72 910.451 1445.43 937.098 1484.14 944.367C1515.1 950.182 1630.24 919.948 1679.43 903" stroke="#222222" stroke-width="5"/>
<path d="M1114.11 365.825C1093.04 392.521 1098.43 436.998 1090.93 456.498C1082.43 470.498 1093.04 551.477 1114.11 578.173C1140.44 611.544 1140.44 662.479 1156.23 674.773C1172.03 687.068 1159.75 720.44 1184.32 736.248C1208.89 752.055 1217.67 802.982 1212.41 818.789C1207.14 834.596 1238.74 867.967 1251.02 864.454C1263.31 860.941 1300.17 855.677 1315.97 843.383C1331.77 831.088 1349.32 787.179 1375.65 780.154C1401.98 773.128 1416.02 780.154 1444.11 780.154C1466.58 780.154 1496.77 721.608 1509.06 692.335C1513.15 671.845 1525.21 627.701 1540.65 615.055C1559.96 599.248 1584.54 581.684 1584.54 557.095C1584.54 537.424 1636.93 521.998 1629.43 500.498L1626.93 488.998L1621.4 448.367C1616.43 431.498 1584.54 406.574 1584.54 386.903C1584.54 362.314 1559.96 344.75 1540.65 328.943C1525.21 316.297 1513.15 272.154 1509.06 251.663C1496.77 222.39 1466.58 163.845 1444.11 163.845C1416.02 163.845 1401.98 170.87 1375.65 163.845C1349.32 156.819 1326.74 158.305 1310.94 146.011C1295.14 133.716 1269.51 118.008 1257.22 114.495C1244.93 110.982 1211.13 148.037 1216.4 163.845C1221.66 179.652 1208.89 191.944 1184.32 207.751C1159.75 223.558 1172.03 256.931 1156.23 269.225C1140.44 281.52 1140.44 332.454 1114.11 365.825Z" stroke="#222222" stroke-width="5"/>
<path d="M1189.59 399.208C1172.73 407.637 1168.52 449.933 1168.52 471.013C1168.52 492.093 1172.73 536.359 1189.59 544.788C1210.65 555.325 1229.96 602.747 1231.71 616.797C1233.12 628.038 1232.3 663.632 1231.71 680.024L1259.8 711.636L1301.93 730.962L1342.3 722.176C1347.57 713.98 1361.61 697.587 1375.65 697.587C1389.69 697.587 1411.93 656.605 1421.29 636.114L1451.13 608.012L1482.73 555.321L1511.93 513.498L1520.43 465.998L1505.93 423.498L1482.73 388.675L1451.13 335.984L1421.29 307.883C1411.93 287.392 1389.69 246.41 1375.65 246.41C1361.61 246.41 1347.57 230.017 1342.3 221.821L1301.93 213.035L1259.8 232.361L1231.71 263.973C1232.3 280.365 1233.12 315.959 1231.71 327.199C1229.96 341.25 1210.65 388.672 1189.59 399.208Z" stroke="#222222" stroke-width="5"/>
<path d="M1680.43 681.5L1579.85 768.511L1536.1 802.757L1498.07 833.201L1536.1 865.561L1568.44 856.036L1608.38 833.201L1678.43 824.5" stroke="#222222" stroke-width="5"/>
<path d="M1251.43 470.999C1255.58 481.904 1247.7 520.681 1263.89 536.872C1280.08 553.062 1289.31 584.103 1291.9 597.599C1298.65 605.383 1313.07 621.262 1316.81 622.508C1321.48 624.065 1351.05 578.92 1355.72 571.134C1359.45 564.905 1357.27 539.461 1355.72 527.518L1333.43 470.999" stroke="#222222" stroke-width="5"/>
<path d="M1677.43 1965.5C1663.43 1965.5 1610.46 1889.76 1572.02 1894.88C1523.97 1901.29 1491.94 1837.19 1424.67 1824.37C1357.4 1811.55 1302.94 1798.73 1274.11 1801.94C1245.29 1805.14 1213.25 1840.4 1194.03 1859.63C1178.66 1875.01 1287.26 1887.51 1293.79 1920.22C1294.86 1937.31 1329.55 2019.35 1255.23 2029.61C1180.92 2039.87 980.76 2117.45 945.524 2173C895.159 2242 1047.43 2189.5 1069.93 2340.5C1113.93 2635.8 1312.93 2312.5 1472.43 2326C1631.93 2339.5 1545.43 2168.5 1599.93 2189.5C1661.93 2209 1639.93 2181 1679.43 2185.5" stroke="#222222" stroke-width="5"/>
<path d="M664.728 1907.61C620.174 1941.9 525.884 1899.31 536.207 1864.74L561.57 1794.16C565.205 1766.72 570.293 1705.1 561.57 1678.12C550.666 1644.39 521.919 1647.37 502.094 1635.47C486.233 1625.95 483.59 1583.23 484.251 1563.06L512.998 1519.42C534.476 1510.83 580.999 1495.42 595.273 1502.56C613.116 1511.49 653.758 1553.14 664.728 1605.71C675.697 1658.28 751.894 1722.75 755.859 1767.38C759.824 1812.02 758.832 1811.03 746.937 1823.92C735.042 1836.81 720.42 1864.74 664.728 1907.61Z" stroke="#222222" stroke-width="5"/>
<path d="M1.42773 692C39.5991 700.482 93.5567 670.149 171.597 687.114C249.636 704.078 262.428 751.505 313.269 774.641C391.488 792.929 537.428 784.805 495.428 606.005C488.594 565.672 447.428 554.504 455.928 502.002C464.428 449.5 471.928 288 420.428 343.505C375.928 419 172.728 460.005 243.928 508.005C315.128 556.005 187.306 627.624 147.428 546.005L76.0467 410.494" stroke="#222222" stroke-width="5"/>
<path d="M484.175 259.236L483.174 261.195L481.857 260.473L484.175 259.236Z" fill="#222222"/>
</svg>
