<svg width="415" height="417" viewBox="0 0 415 417" fill="none" xmlns="http://www.w3.org/2000/svg">
<path d="M105.732 10.1438C105.093 8.07946 104.276 6.69136 103.281 5.97951C102.358 5.19648 100.688 4.80496 98.2731 4.80496V1.28133H129.067V4.80496H124.805C123.668 4.80496 122.851 4.98293 122.354 5.33885C121.928 5.62359 121.715 6.19306 121.715 7.04728C121.715 7.61676 121.821 8.3286 122.035 9.18282L133.329 51.1462H133.649L147.607 2.7762H158.263L172.328 50.719H172.648L182.983 9.82348C183.267 8.89808 183.409 8.00827 183.409 7.15406C183.409 6.37102 183.125 5.80155 182.557 5.44562C182.06 5.01852 181.172 4.80496 179.893 4.80496H175.205V1.28133H195.876V4.80496C194.1 4.80496 192.715 5.05411 191.721 5.55241C190.726 5.97951 189.874 6.83373 189.163 8.11505C188.524 9.32519 187.885 11.176 187.245 13.6674L171.475 71.7541H162.525L147.075 20.1808H146.862L131.518 71.7541H122.994L105.732 10.1438Z" fill="#E86258"/>
<path d="M231.423 72.9286C219.915 72.9286 211.177 69.7253 205.21 63.3187C199.243 56.9121 196.26 47.9428 196.26 36.4109C196.26 24.879 199.243 15.9454 205.21 9.60993C211.177 3.20331 219.915 0 231.423 0C242.93 0 251.668 3.20331 257.635 9.60993C263.673 15.9454 266.692 24.879 266.692 36.4109C266.692 47.9428 263.673 56.9121 257.635 63.3187C251.668 69.7253 242.93 72.9286 231.423 72.9286ZM231.529 69.0847C237.78 69.0847 242.291 66.3797 245.062 60.9696C247.903 55.5596 249.324 47.3734 249.324 36.4109C249.324 14.6996 243.392 3.84397 231.529 3.84397C225.278 3.84397 220.732 6.54899 217.89 11.959C215.12 17.2979 213.735 25.4485 213.735 36.4109C213.735 47.3734 215.12 55.5596 217.89 60.9696C220.732 66.3797 225.278 69.0847 231.529 69.0847Z" fill="#E86258"/>
<path d="M270.551 68.2305C273.037 68.2305 274.778 68.0881 275.772 67.8034C276.838 67.5186 277.513 66.9847 277.797 66.2017C278.152 65.4187 278.33 64.1018 278.33 62.251V10.8912C278.33 9.04045 278.152 7.72353 277.797 6.9405C277.442 6.08629 276.731 5.51681 275.666 5.23207C274.671 4.94733 272.966 4.80496 270.551 4.80496V1.28133H303.37C320.631 1.28133 329.262 7.04728 329.262 18.5792C329.262 23.6333 327.664 27.6552 324.467 30.645C321.271 33.5636 317.044 35.4499 311.787 36.3042V36.5177C316.192 37.3719 319.317 39.0092 321.164 41.4295C323.082 43.7785 324.503 47.4446 325.426 52.4275L326.385 56.9121C327.238 60.9696 328.303 63.8882 329.582 65.6678C330.932 67.3762 333.098 68.2305 336.082 68.2305V71.7541H316.476C315.481 70.9711 314.558 69.6897 313.705 67.9101C312.853 66.1305 312.178 64.1373 311.681 61.9306L308.484 47.1954C307.916 44.4904 306.921 42.4616 305.501 41.1091C304.151 39.7566 302.162 39.0804 299.534 39.0804H294.526V62.251C294.526 64.0306 294.668 65.3475 294.952 66.2017C295.307 66.9847 295.982 67.5186 296.976 67.8034C298.042 68.0881 299.711 68.2305 301.984 68.2305V71.7541H270.551V68.2305ZM298.894 34.8093C303.725 34.8093 307.277 33.6347 309.55 31.2856C311.823 28.8654 312.959 25.0926 312.959 19.9673C312.959 14.9844 311.858 11.3184 309.656 8.96927C307.525 6.54899 304.116 5.33885 299.427 5.33885C297.438 5.33885 296.124 5.62359 295.485 6.19306C294.845 6.69136 294.526 7.72353 294.526 9.28959V34.8093H298.894Z" fill="#E86258"/>
<path d="M397.047 52.7478C400.244 57.446 402.552 60.7205 403.973 62.5713C405.394 64.4221 406.85 65.8458 408.342 66.8424C409.833 67.7678 411.574 68.2305 413.563 68.2305V71.7541H381.17V68.2305H383.941C385.646 68.2305 386.498 67.6966 386.498 66.6288C386.498 65.7034 385.93 64.3509 384.793 62.5713L368.064 37.799L364.868 40.8956V62.251C364.868 64.1729 365.01 65.5254 365.294 66.3085C365.578 67.0203 366.217 67.5186 367.212 67.8034C368.277 68.0881 370.053 68.2305 372.54 68.2305V71.7541H340.893V68.2305C343.379 68.2305 345.12 68.0881 346.114 67.8034C347.18 67.5186 347.855 66.9847 348.139 66.2017C348.494 65.4187 348.672 64.1018 348.672 62.251V10.998C348.672 9.07604 348.494 7.72353 348.139 6.9405C347.855 6.08629 347.18 5.51681 346.114 5.23207C345.12 4.94733 343.379 4.80496 340.893 4.80496V1.28133H372.54V4.80496C370.124 4.80496 368.384 4.94733 367.318 5.23207C366.324 5.51681 365.649 6.08629 365.294 6.9405C365.01 7.72353 364.868 9.07604 364.868 10.998V35.3432L389.588 9.60993C390.583 8.47097 391.08 7.47439 391.08 6.62017C391.08 6.0507 390.867 5.62359 390.441 5.33885C390.014 4.98293 389.375 4.80496 388.523 4.80496H385.326V1.28133H408.128V4.80496C405.074 4.80496 402.304 5.65918 399.817 7.36761C397.331 9.07604 393.921 12.1014 389.588 16.4437L379.146 26.801L397.047 52.7478Z" fill="#E86258"/>
<path d="M404.877 107.526C406.937 106.886 408.323 106.067 409.033 105.07C409.814 104.145 410.205 102.472 410.205 100.052H413.721V130.91H410.205V126.639C410.205 125.5 410.028 124.682 409.672 124.183C409.388 123.756 408.82 123.543 407.967 123.543C407.399 123.543 406.689 123.65 405.836 123.863L363.961 135.181V135.502L412.23 149.49V160.167L364.387 174.262V174.582L405.197 184.939C406.121 185.224 407.008 185.367 407.861 185.367C408.642 185.367 409.211 185.082 409.566 184.512C409.992 184.014 410.205 183.124 410.205 181.843V177.145H413.721V197.859H410.205C410.205 196.08 409.956 194.692 409.459 193.695C409.033 192.699 408.181 191.844 406.902 191.133C405.694 190.492 403.847 189.851 401.361 189.211L343.396 173.408V164.438L394.861 148.956V148.742L343.396 133.366V124.824L404.877 107.526Z" fill="#E86258"/>
<path d="M342.224 233.48C342.224 221.949 345.421 213.193 351.814 207.213C358.207 201.234 367.157 198.244 378.665 198.244C390.173 198.244 399.088 201.234 405.41 207.213C411.803 213.193 415 221.949 415 233.48C415 245.012 411.803 253.768 405.41 259.748C399.088 265.798 390.173 268.824 378.665 268.824C367.157 268.824 358.207 265.798 351.814 259.748C345.421 253.768 342.224 245.012 342.224 233.48ZM346.06 233.587C346.06 239.851 348.759 244.372 354.158 247.148C359.557 249.995 367.726 251.419 378.665 251.419C400.331 251.419 411.164 245.475 411.164 233.587C411.164 227.323 408.465 222.767 403.066 219.92C397.738 217.144 389.605 215.755 378.665 215.755C367.726 215.755 359.557 217.144 354.158 219.92C348.759 222.767 346.06 227.323 346.06 233.587Z" fill="#E86258"/>
<path d="M346.912 272.691C346.912 275.182 347.054 276.926 347.338 277.923C347.623 278.991 348.155 279.667 348.937 279.952C349.718 280.308 351.032 280.486 352.879 280.486H404.132C405.978 280.486 407.293 280.308 408.074 279.952C408.926 279.596 409.495 278.884 409.779 277.816C410.063 276.82 410.205 275.111 410.205 272.691H413.721V305.578C413.721 322.876 407.967 331.525 396.46 331.525C391.416 331.525 387.403 329.923 384.419 326.72C381.507 323.517 379.624 319.281 378.772 314.014H378.559C377.706 318.427 376.072 321.559 373.657 323.41C371.313 325.332 367.655 326.756 362.682 327.681L358.207 328.642C354.158 329.496 351.245 330.564 349.47 331.845C347.765 333.198 346.912 335.369 346.912 338.359H343.396V318.712C344.177 317.715 345.456 316.79 347.232 315.936C349.008 315.081 350.997 314.405 353.199 313.907L367.903 310.703C370.603 310.134 372.627 309.137 373.977 307.714C375.327 306.361 376.001 304.368 376.001 301.734V296.716H352.879C351.103 296.716 349.789 296.858 348.937 297.143C348.155 297.499 347.623 298.175 347.338 299.172C347.054 300.239 346.912 301.912 346.912 304.19H343.396V272.691H346.912ZM380.264 301.094C380.264 305.934 381.436 309.493 383.78 311.771C386.195 314.049 389.96 315.188 395.074 315.188C400.047 315.188 403.705 314.085 406.049 311.878C408.465 309.743 409.672 306.326 409.672 301.627C409.672 299.634 409.388 298.317 408.82 297.677C408.323 297.036 407.293 296.716 405.73 296.716H380.264V301.094Z" fill="#E86258"/>
<path d="M362.363 399.452C357.674 402.655 354.407 404.969 352.56 406.392C350.713 407.816 349.292 409.275 348.297 410.77C347.374 412.265 346.912 414.009 346.912 416.002H343.396V383.542H346.912V386.318C346.912 388.027 347.445 388.881 348.511 388.881C349.434 388.881 350.784 388.311 352.56 387.172L377.28 370.408L374.19 367.205H352.879C350.961 367.205 349.612 367.348 348.83 367.632C348.12 367.917 347.623 368.558 347.338 369.554C347.054 370.622 346.912 372.402 346.912 374.893H343.396V343.18H346.912C346.912 345.672 347.054 347.416 347.338 348.412C347.623 349.48 348.155 350.156 348.937 350.441C349.718 350.797 351.032 350.975 352.879 350.975H404.025C405.943 350.975 407.293 350.797 408.074 350.441C408.926 350.156 409.495 349.48 409.779 348.412C410.063 347.416 410.205 345.672 410.205 343.18H413.721V374.893H410.205C410.205 372.473 410.063 370.729 409.779 369.661C409.495 368.664 408.926 367.988 408.074 367.632C407.293 367.348 405.943 367.205 404.025 367.205H379.731L405.41 391.977C406.547 392.974 407.541 393.472 408.394 393.472C408.962 393.472 409.388 393.259 409.672 392.832C410.028 392.405 410.205 391.764 410.205 390.91V387.706H413.721V410.557H410.205C410.205 407.496 409.353 404.719 407.648 402.228C405.943 399.737 402.924 396.32 398.591 391.977L388.255 381.513L362.363 399.452Z" fill="#E86258"/>
<path d="M308.827 406.856C309.466 408.921 310.283 410.309 311.277 411.02C312.201 411.804 313.87 412.195 316.285 412.195V415.719H285.491V412.195H289.753C290.89 412.195 291.707 412.017 292.204 411.661C292.63 411.376 292.843 410.807 292.843 409.953C292.843 409.383 292.737 408.671 292.524 407.817L281.229 365.854H280.909L266.951 414.224H256.296L242.231 366.281H241.911L231.575 407.177C231.291 408.102 231.149 408.992 231.149 409.846C231.149 410.629 231.433 411.198 232.001 411.554C232.499 411.981 233.387 412.195 234.665 412.195H239.354V415.719H218.682V412.195C220.458 412.195 221.843 411.946 222.838 411.448C223.832 411.02 224.685 410.166 225.395 408.885C226.034 407.675 226.674 405.824 227.313 403.333L243.083 345.246H252.033L267.484 396.819H267.697L283.041 345.246H291.565L308.827 406.856Z" fill="#E86258"/>
<path d="M183.136 344.071C194.644 344.071 203.381 347.275 209.348 353.681C215.315 360.088 218.298 369.057 218.298 380.589C218.298 392.121 215.315 401.055 209.348 407.39C203.381 413.797 194.644 417 183.136 417C171.628 417 162.891 413.797 156.924 407.39C150.886 401.055 147.866 392.121 147.866 380.589C147.866 369.057 150.886 360.088 156.924 353.681C162.891 347.275 171.628 344.071 183.136 344.071ZM183.029 347.915C176.778 347.915 172.267 350.62 169.497 356.03C166.655 361.44 165.235 369.627 165.235 380.589C165.235 402.3 171.166 413.156 183.029 413.156C189.28 413.156 193.827 410.451 196.668 405.041C199.438 399.702 200.824 391.551 200.824 380.589C200.824 369.627 199.438 361.44 196.668 356.03C193.827 350.62 189.28 347.915 183.029 347.915Z" fill="#E86258"/>
<path d="M144.007 348.77C141.521 348.77 139.781 348.912 138.786 349.197C137.721 349.481 137.046 350.015 136.762 350.798C136.406 351.581 136.229 352.898 136.229 354.749V406.109C136.229 407.96 136.406 409.276 136.762 410.059C137.117 410.914 137.827 411.483 138.893 411.768C139.887 412.053 141.592 412.195 144.007 412.195V415.719H111.189C93.9271 415.719 85.2962 409.953 85.2962 398.421C85.2962 393.367 86.8945 389.345 90.0911 386.355C93.2877 383.436 97.5144 381.55 102.771 380.696V380.482C98.3668 379.628 95.2412 377.991 93.3943 375.571C91.4763 373.221 90.0556 369.555 89.1322 364.572L88.1732 360.088C87.3207 356.03 86.2552 353.112 84.9766 351.332C83.6269 349.624 81.4603 348.77 78.4768 348.77V345.246L98.0827 345.246C99.0772 346.029 100.001 347.31 100.853 349.09C101.705 350.869 102.38 352.863 102.878 355.069L106.074 369.805C106.642 372.51 107.637 374.538 109.058 375.891C110.407 377.243 112.396 377.92 115.025 377.92H120.033V354.749C120.033 352.969 119.891 351.653 119.606 350.798C119.251 350.015 118.576 349.481 117.582 349.197C116.516 348.912 114.847 348.77 112.574 348.77V345.246H144.007V348.77ZM115.664 382.191C110.834 382.191 107.282 383.365 105.009 385.714C102.735 388.135 101.599 391.907 101.599 397.033C101.599 402.016 102.7 405.682 104.902 408.031C107.033 410.451 110.443 411.661 115.131 411.661C117.12 411.661 118.434 411.376 119.074 410.807C119.713 410.309 120.033 409.276 120.033 407.71V382.191H115.664Z" fill="#E86258"/>
<path d="M17.5115 364.252C14.3149 359.554 12.0062 356.279 10.5855 354.429C9.16479 352.578 7.70856 351.154 6.21681 350.158C4.72506 349.232 2.98468 348.77 0.995683 348.77L0.995684 345.246H33.388V348.77H30.6176C28.9127 348.77 28.0603 349.303 28.0603 350.371C28.0603 351.297 28.6286 352.649 29.7652 354.429L46.4941 379.201L49.6907 376.104V354.749C49.6907 352.827 49.5486 351.475 49.2645 350.691C48.9803 349.98 48.341 349.481 47.3465 349.197C46.281 348.912 44.5051 348.77 42.0188 348.77V345.246H73.6652V348.77C71.179 348.77 69.4386 348.912 68.4441 349.197C67.3786 349.481 66.7037 350.015 66.4196 350.798C66.0644 351.581 65.8868 352.898 65.8868 354.749L65.8868 406.002C65.8868 407.924 66.0644 409.276 66.4196 410.059C66.7037 410.914 67.3786 411.483 68.4441 411.768C69.4386 412.053 71.179 412.195 73.6652 412.195V415.719H42.0188V412.195C44.434 412.195 46.1744 412.053 47.2399 411.768C48.2344 411.483 48.9093 410.914 49.2645 410.059C49.5486 409.276 49.6907 407.924 49.6907 406.002L49.6907 381.657L24.9702 407.39C23.9757 408.529 23.4785 409.526 23.4785 410.38C23.4785 410.949 23.6916 411.376 24.1178 411.661C24.544 412.017 25.1833 412.195 26.0358 412.195H29.2324V415.719L6.42991 415.719V412.195C9.48445 412.195 12.2548 411.341 14.7411 409.632C17.2273 407.924 20.6371 404.899 24.9702 400.556L35.4125 390.199L17.5115 364.252Z" fill="#E86258"/>
<path d="M10.1226 310.055C8.06256 310.696 6.67737 311.515 5.96701 312.511C5.18561 313.437 4.79492 315.11 4.79492 317.53H1.27865L1.27865 286.671H4.79492V290.942C4.79492 292.081 4.97251 292.9 5.32769 293.398C5.61183 293.825 6.18012 294.039 7.03255 294.039C7.60083 294.039 8.31119 293.932 9.16362 293.719L51.0392 282.4V282.08L2.7704 268.092L2.7704 257.414L50.613 243.32V243L9.80293 232.642C8.87947 232.357 7.99152 232.215 7.1391 232.215C6.3577 232.215 5.78941 232.5 5.43424 233.069C5.00802 233.568 4.79492 234.457 4.79492 235.739V240.437H1.27865L1.27865 219.722H4.79491C4.79491 221.502 5.04354 222.89 5.54079 223.886C5.96701 224.883 6.81944 225.737 8.09808 226.449C9.30568 227.09 11.1526 227.73 13.6389 228.371L71.604 244.174V253.143L20.1386 268.626V268.84L71.604 284.215L71.604 292.758L10.1226 310.055Z" fill="#E86258"/>
<path d="M72.7761 184.101C72.7761 195.633 69.5795 204.389 63.1863 210.368C56.7931 216.348 47.8426 219.338 36.3348 219.338C24.827 219.338 15.912 216.348 9.58983 210.368C3.19661 204.389 5.03022e-07 195.633 0 184.101C-5.03021e-07 172.569 3.19661 163.814 9.58983 157.834C15.912 151.783 24.827 148.758 36.3348 148.758C47.8426 148.758 56.7931 151.783 63.1863 157.834C69.5795 163.814 72.7761 172.569 72.7761 184.101ZM68.9402 183.994C68.9402 177.73 66.2408 173.21 60.8421 170.434C55.4434 167.586 47.2743 166.163 36.3348 166.163C14.6689 166.163 3.83593 172.107 3.83593 183.994C3.83593 190.259 6.53529 194.814 11.934 197.662C17.2617 200.438 25.3953 201.826 36.3348 201.826C47.2743 201.826 55.4434 200.438 60.8421 197.662C66.2408 194.814 68.9402 190.259 68.9402 183.994Z" fill="#E86258"/>
<path d="M68.0877 144.891C68.0877 142.399 67.9457 140.655 67.6615 139.659C67.3774 138.591 66.8446 137.915 66.0632 137.63C65.2818 137.274 63.9677 137.096 62.1207 137.096H10.8685C9.02154 137.096 7.70738 137.274 6.92598 137.63C6.07355 137.986 5.50527 138.698 5.22113 139.765C4.93698 140.762 4.79491 142.47 4.79491 144.891H1.27864L1.27864 112.003C1.27864 94.7056 7.03253 86.0566 18.5403 86.0566C23.5839 86.0566 27.5974 87.6583 30.5809 90.8616C33.4933 94.0649 35.3758 98.3004 36.2282 103.568H36.4413C37.2938 99.1546 38.9276 96.0225 41.3428 94.1717C43.687 92.2497 47.3453 90.826 52.3178 89.9006L56.7931 88.9396C60.8421 88.0854 63.7546 87.0176 65.5305 85.7363C67.2353 84.3838 68.0877 82.2127 68.0877 79.2229H71.604L71.604 98.8698C70.8226 99.8664 69.544 100.792 67.7681 101.646C65.9922 102.5 64.0032 103.177 61.8011 103.675L47.0967 106.878C44.3973 107.448 42.3728 108.444 41.0231 109.868C39.6735 111.22 38.9986 113.214 38.9986 115.847V120.866L62.1207 120.866C63.8966 120.866 65.2108 120.724 66.0632 120.439C66.8446 120.083 67.3774 119.407 67.6615 118.41C67.9457 117.342 68.0877 115.669 68.0877 113.392H71.604V144.891H68.0877ZM34.7365 116.488C34.7365 111.647 33.5644 108.088 31.2202 105.81C28.805 103.532 25.0401 102.393 19.9255 102.393C14.953 102.393 11.2947 103.497 8.9505 105.704C6.53529 107.839 5.32768 111.256 5.32768 115.954C5.32768 117.947 5.61182 119.264 6.18011 119.905C6.67736 120.546 7.70737 120.866 9.27016 120.866H34.7365L34.7365 116.488Z" fill="#E86258"/>
<path d="M52.6375 18.1298C57.3258 14.9265 60.5935 12.613 62.4404 11.1893C64.2873 9.76561 65.708 8.30632 66.7025 6.81145C67.626 5.31657 68.0877 3.57255 68.0877 1.57938L71.604 1.57938V34.0396H68.0877V31.2634C68.0877 29.5549 67.555 28.7007 66.4894 28.7007C65.566 28.7007 64.2163 29.2702 62.4404 30.4091L37.72 47.1731L40.81 50.3764H62.1207C64.0387 50.3764 65.3884 50.2341 66.1698 49.9493C66.8801 49.6646 67.3774 49.0239 67.6615 48.0273C67.9457 46.9596 68.0877 45.18 68.0877 42.6885H71.604V74.4012H68.0877C68.0877 71.9098 67.9457 70.1658 67.6615 69.1692C67.3774 68.1014 66.8446 67.4252 66.0632 67.1404C65.2818 66.7845 63.9677 66.6065 62.1207 66.6065H10.975C9.05705 66.6065 7.70737 66.7845 6.92598 67.1404C6.07355 67.4252 5.50527 68.1014 5.22112 69.1692C4.93698 70.1658 4.79491 71.9098 4.79491 74.4012H1.27864L1.27864 42.6885H4.79491C4.79491 45.1088 4.93698 46.8528 5.22112 47.9206C5.50527 48.9172 6.07355 49.5934 6.92598 49.9493C7.70737 50.2341 9.05705 50.3764 10.975 50.3764L35.2692 50.3764L9.58982 25.6042C8.45325 24.6076 7.45875 24.1093 6.60632 24.1093C6.03803 24.1093 5.61182 24.3229 5.32767 24.75C4.9725 25.1771 4.79491 25.8177 4.79491 26.672V29.8753H1.27864L1.27864 7.025H4.79491C4.79491 10.0859 5.64733 12.8621 7.35219 15.3536C9.05705 17.8451 12.0761 21.2619 16.4093 25.6042L26.7449 36.0683L52.6375 18.1298Z" fill="#E86258"/>
</svg>
