<svg width="104" height="104" viewBox="0 0 104 104" fill="none" xmlns="http://www.w3.org/2000/svg">
<rect y="4" width="3.9856" height="100" fill="#222222"/>
<rect x="99.9998" y="100" width="4" height="96.0066" transform="rotate(90 99.9998 100)" fill="#222222"/>
<rect x="5.49304" y="1.5" width="97.0069" height="97" fill="#FFFFFE" fill-opacity="0.8" stroke="#222222" stroke-width="3"/>
<rect width="4.55486" height="12.7591" rx="0.9964" transform="matrix(0.803168 -0.595753 0.595806 0.803128 62.4489 30.252)" fill="#222222"/>
<path d="M52.5481 98.873L77.3564 1.94165" stroke="#222222" stroke-width="3"/>
<path d="M90.3282 57.0743C90.3282 63.5911 85.0449 68.8742 78.5274 68.8742C72.0099 68.8742 66.7266 63.5911 66.7266 57.0743C66.7266 50.5575 72.0099 45.2744 78.5274 45.2744C85.0449 45.2744 90.3282 50.5575 90.3282 57.0743Z" stroke="#222222" stroke-width="3"/>
<path d="M96.1483 46.0741C96.1483 59.9243 84.9197 71.1522 71.0684 71.1522C57.2171 71.1522 45.9885 59.9243 45.9885 46.0741C45.9885 32.224 57.2171 20.9961 71.0684 20.9961C84.9197 20.9961 96.1483 32.224 96.1483 46.0741Z" stroke="#222222" stroke-width="3"/>
<path d="M99.525 38.9045C99.525 57.8942 84.1297 73.2886 65.1385 73.2886C46.1472 73.2886 30.752 57.8942 30.752 38.9045C30.752 19.9149 46.1472 4.52051 65.1385 4.52051C84.1297 4.52051 99.525 19.9149 99.525 38.9045Z" stroke="#222222" stroke-width="3"/>
<line y1="-1.5" x2="79.7871" y2="-1.5" transform="matrix(0.810658 -0.58552 0.585573 0.810619 6.13086 80.7354)" stroke="#222222" stroke-width="3"/>
</svg>
