<svg width="974" height="974" viewBox="0 0 974 974" fill="none" xmlns="http://www.w3.org/2000/svg">
<circle cx="486.974" cy="486.979" r="423.859" stroke="#222222" stroke-width="1.96687"/>
<path d="M970.613 523.65C965.8 587.159 948.526 649.098 919.775 705.931C891.025 762.763 851.362 813.377 803.051 854.881C754.74 896.386 698.727 927.968 638.211 947.826C577.694 967.683 513.859 975.426 450.35 970.613C386.841 965.8 324.902 948.526 268.069 919.775C211.237 891.025 160.623 851.362 119.119 803.051C77.6142 754.74 46.0317 698.727 26.1744 638.211C6.31708 577.694 -1.42618 513.859 3.38672 450.35C8.19962 386.841 25.4744 324.902 54.2248 268.069C82.9752 211.237 122.638 160.623 170.949 119.119C219.26 77.6141 275.273 46.0317 335.789 26.1744C396.306 6.31707 460.141 -1.42618 523.65 3.38672C587.159 8.19962 649.098 25.4744 705.931 54.2248C762.764 82.9752 813.377 122.638 854.881 170.949C896.386 219.26 927.968 275.273 947.826 335.789C967.683 396.306 975.426 460.141 970.613 523.65L970.613 523.65Z" stroke="#222222" stroke-width="4"/>
<mask id="path-3-inside-1_420_36630" fill="white">
<path d="M524.723 171.182C564.806 175.801 603.65 187.979 639.196 207.071L610.15 261.149C581.442 245.73 550.07 235.894 517.696 232.164L524.723 171.182Z"/>
</mask>
<path d="M524.723 171.182C564.806 175.801 603.65 187.979 639.196 207.071L610.15 261.149C581.442 245.73 550.07 235.894 517.696 232.164L524.723 171.182Z" stroke="#222222" stroke-width="3.93373" mask="url(#path-3-inside-1_420_36630)"/>
<mask id="path-4-inside-2_420_36630" fill="white">
<path d="M524.723 171.182C564.806 175.801 603.65 187.979 639.196 207.071L630.116 223.976C596.708 206.032 560.199 194.586 522.526 190.246L524.723 171.182Z"/>
</mask>
<path d="M524.723 171.182C564.806 175.801 603.65 187.979 639.196 207.071L630.116 223.976C596.708 206.032 560.199 194.586 522.526 190.246L524.723 171.182Z" stroke="#222222" stroke-width="3.93373" mask="url(#path-4-inside-2_420_36630)"/>
<mask id="path-5-inside-3_420_36630" fill="white">
<path d="M648.764 212.423C661.7 219.955 674.091 228.388 685.843 237.659L647.825 285.854C638.333 278.366 628.326 271.555 617.878 265.472L648.764 212.423Z"/>
</mask>
<path d="M648.764 212.423C661.7 219.955 674.091 228.388 685.843 237.659L647.825 285.854C638.333 278.366 628.326 271.555 617.878 265.472L648.764 212.423Z" stroke="#222222" stroke-width="3.93373" mask="url(#path-5-inside-3_420_36630)"/>
<mask id="path-6-inside-4_420_36630" fill="white">
<path d="M648.764 212.423C661.7 219.955 674.091 228.388 685.843 237.659L663.477 266.011C653.055 257.789 642.066 250.311 630.594 243.631L648.764 212.423Z"/>
</mask>
<path d="M648.764 212.423C661.7 219.955 674.091 228.388 685.843 237.659L663.477 266.011C653.055 257.789 642.066 250.311 630.594 243.631L648.764 212.423Z" stroke="#222222" stroke-width="3.93373" mask="url(#path-6-inside-4_420_36630)"/>
<path d="M763.176 641.165C739.355 683.809 705.991 720.363 665.696 747.971" stroke="#222222" stroke-width="1.96687"/>
<path d="M726.944 668.571C723.484 673.026 719.901 677.384 716.199 681.638" stroke="#222222" stroke-width="1.96687"/>
<path d="M703.853 694.994C701.148 697.749 698.39 700.453 695.582 703.103" stroke="#222222" stroke-width="1.96687"/>
<path d="M681.844 714.317C678.88 716.792 675.869 719.21 672.812 721.57" stroke="#222222" stroke-width="1.96687"/>
<mask id="path-11-inside-5_420_36630" fill="white">
<path d="M764.415 640.962C756.834 654.612 748.256 667.685 738.753 680.073L714.22 661.253C722.798 650.071 730.54 638.271 737.383 625.95L764.415 640.962Z"/>
</mask>
<path d="M764.415 640.962C756.834 654.612 748.256 667.685 738.753 680.073L714.22 661.253C722.798 650.071 730.54 638.271 737.383 625.95L764.415 640.962Z" stroke="#222222" stroke-width="3.93373" mask="url(#path-11-inside-5_420_36630)"/>
<mask id="path-12-inside-6_420_36630" fill="white">
<path d="M730.107 690.85C725.135 696.779 719.949 702.523 714.558 708.072L692.38 686.527C697.246 681.518 701.928 676.333 706.415 670.982L730.107 690.85Z"/>
</mask>
<path d="M730.107 690.85C725.135 696.779 719.949 702.523 714.558 708.072L692.38 686.527C697.246 681.518 701.928 676.333 706.415 670.982L730.107 690.85Z" stroke="#222222" stroke-width="3.93373" mask="url(#path-12-inside-6_420_36630)"/>
<mask id="path-13-inside-7_420_36630" fill="white">
<path d="M730.107 690.85C725.135 696.779 719.949 702.523 714.558 708.072L707.346 701.067C712.567 695.693 717.589 690.131 722.403 684.39L730.107 690.85Z"/>
</mask>
<path d="M730.107 690.85C725.135 696.779 719.949 702.523 714.558 708.072L707.346 701.067C712.567 695.693 717.589 690.131 722.403 684.39L730.107 690.85Z" fill="#222222" stroke="#222222" stroke-width="3.93373" mask="url(#path-13-inside-7_420_36630)"/>
<mask id="path-14-inside-8_420_36630" fill="white">
<path d="M708.756 713.892C703.223 719.3 697.494 724.504 691.581 729.494L685.098 721.81C690.823 716.979 696.37 711.939 701.728 706.702L708.756 713.892Z"/>
</mask>
<path d="M708.756 713.892C703.223 719.3 697.494 724.504 691.581 729.494L685.098 721.81C690.823 716.979 696.37 711.939 701.728 706.702L708.756 713.892Z" fill="#222222" stroke="#222222" stroke-width="3.93373" mask="url(#path-14-inside-8_420_36630)"/>
<mask id="path-15-inside-9_420_36630" fill="white">
<path d="M684.885 734.99C678.839 739.817 672.618 744.421 666.235 748.793L660.553 740.499C666.734 736.265 672.758 731.806 678.613 727.133L684.885 734.99Z"/>
</mask>
<path d="M684.885 734.99C678.839 739.817 672.618 744.421 666.235 748.793L660.553 740.499C666.734 736.265 672.758 731.806 678.613 727.133L684.885 734.99Z" fill="#222222" stroke="#222222" stroke-width="3.93373" mask="url(#path-15-inside-9_420_36630)"/>
<mask id="path-16-inside-10_420_36630" fill="white">
<path d="M708.726 713.921C703.192 719.328 697.463 724.532 691.55 729.521L671.611 705.888C676.949 701.384 682.121 696.687 687.116 691.806L708.726 713.921Z"/>
</mask>
<path d="M708.726 713.921C703.192 719.328 697.463 724.532 691.55 729.521L671.611 705.888C676.949 701.384 682.121 696.687 687.116 691.806L708.726 713.921Z" stroke="#222222" stroke-width="3.93373" mask="url(#path-16-inside-10_420_36630)"/>
<mask id="path-17-inside-11_420_36630" fill="white">
<path d="M684.902 734.977C678.856 739.804 672.635 744.408 666.252 748.781L648.776 723.273C654.538 719.326 660.153 715.17 665.611 710.813L684.902 734.977Z"/>
</mask>
<path d="M684.902 734.977C678.856 739.804 672.635 744.408 666.252 748.781L648.776 723.273C654.538 719.326 660.153 715.17 665.611 710.813L684.902 734.977Z" stroke="#222222" stroke-width="3.93373" mask="url(#path-17-inside-11_420_36630)"/>
<path d="M596.132 486.985C596.132 503.626 592.327 520.046 585.01 534.99C577.692 549.935 567.054 563.009 553.91 573.213C540.765 583.417 525.462 590.481 509.169 593.865C492.877 597.249 476.026 596.864 459.905 592.738C443.785 588.612 428.821 580.855 416.157 570.061C403.493 559.266 393.465 545.719 386.838 530.455C380.212 515.191 377.163 498.614 377.924 481.991C378.685 465.368 383.237 449.139 391.231 434.545" stroke="#222222" stroke-width="1.96687"/>
<path d="M452.087 598.525C429.537 591.539 409.626 577.896 394.971 559.388C380.315 540.88 371.6 518.372 369.97 494.82" stroke="#222222" stroke-width="1.96687"/>
<path d="M435.209 599.435C425.36 594.933 416.144 589.16 407.796 582.263" stroke="#222222" stroke-width="1.96687"/>
<path d="M388.512 575.465C386.329 572.969 384.24 570.391 382.252 567.738" stroke="#222222" stroke-width="1.96687"/>
<path d="M379.61 564.08C378.874 563.025 378.153 561.959 377.449 560.882" stroke="#222222" stroke-width="1.96687"/>
<path d="M376.038 558.683C375.355 557.593 374.688 556.492 374.037 555.383" stroke="#222222" stroke-width="1.96687"/>
<path d="M345.945 415.004C355.397 396.485 368.405 380.009 384.226 366.516C400.046 353.024 418.369 342.78 438.149 336.369C457.928 329.958 478.777 327.505 499.504 329.151C520.231 330.798 540.431 336.51 558.951 345.963" stroke="#222222" stroke-width="1.96687"/>
<path d="M446.489 325.79C466.441 320.78 487.149 319.517 507.561 322.066" stroke="#222222" stroke-width="1.96687"/>
<mask id="path-26-inside-12_420_36630" fill="white">
<path fill-rule="evenodd" clip-rule="evenodd" d="M695.549 429.371C701.015 450.487 703.226 472.314 702.106 494.098L661.399 492.005C662.306 474.363 660.515 456.686 656.089 439.585L695.549 429.371ZM694.118 431.689C698.984 451.393 701.028 471.688 700.187 491.967L686.463 491.399C687.249 472.419 685.337 453.424 680.782 434.983L694.118 431.689Z"/>
</mask>
<path fill-rule="evenodd" clip-rule="evenodd" d="M695.549 429.371C701.015 450.487 703.226 472.314 702.106 494.098L661.399 492.005C662.306 474.363 660.515 456.686 656.089 439.585L695.549 429.371ZM694.118 431.689C698.984 451.393 701.028 471.688 700.187 491.967L686.463 491.399C687.249 472.419 685.337 453.424 680.782 434.983L694.118 431.689Z" fill="#222222"/>
<path d="M702.106 494.098L702.005 496.062L703.969 496.163L704.07 494.199L702.106 494.098ZM695.549 429.371L697.453 428.878L696.961 426.974L695.057 427.467L695.549 429.371ZM661.399 492.005L659.435 491.904L659.334 493.868L661.298 493.969L661.399 492.005ZM656.089 439.585L655.596 437.681L653.692 438.173L654.185 440.077L656.089 439.585ZM700.187 491.967L700.106 493.932L702.071 494.014L702.153 492.049L700.187 491.967ZM694.118 431.689L696.027 431.217L695.556 429.308L693.646 429.78L694.118 431.689ZM686.463 491.399L684.498 491.317L684.416 493.282L686.381 493.364L686.463 491.399ZM680.782 434.983L680.31 433.073L678.401 433.545L678.873 435.454L680.782 434.983ZM704.07 494.199C705.2 472.215 702.969 450.188 697.453 428.878L693.645 429.864C699.061 450.787 701.251 472.413 700.142 493.997L704.07 494.199ZM661.298 493.969L702.005 496.062L702.207 492.133L661.5 490.041L661.298 493.969ZM654.185 440.077C658.561 456.985 660.331 474.462 659.435 491.904L663.363 492.106C664.28 474.264 662.47 456.387 657.993 439.092L654.185 440.077ZM695.057 427.467L655.596 437.681L656.582 441.489L696.042 431.275L695.057 427.467ZM702.153 492.049C703.001 471.584 700.938 451.102 696.027 431.217L692.208 432.161C697.03 451.684 699.055 471.793 698.222 491.886L702.153 492.049ZM686.381 493.364L700.106 493.932L700.269 490.002L686.544 489.433L686.381 493.364ZM678.873 435.454C683.382 453.715 685.276 472.524 684.498 491.317L688.428 491.48C689.222 472.314 687.291 453.133 682.692 434.511L678.873 435.454ZM693.646 429.78L680.31 433.073L681.254 436.892L694.589 433.599L693.646 429.78Z" fill="#222222" mask="url(#path-26-inside-12_420_36630)"/>
<mask id="path-28-inside-13_420_36630" fill="white">
<path d="M533.431 569.173C522.638 575.275 510.749 579.191 498.443 580.697C486.137 582.204 473.655 581.272 461.709 577.955C449.763 574.638 438.587 569 428.82 561.364C419.052 553.727 410.885 544.242 404.784 533.449L421.221 524.157C426.102 532.791 432.636 540.379 440.45 546.489C448.263 552.598 457.204 557.108 466.761 559.762C476.317 562.415 486.303 563.161 496.148 561.955C505.993 560.75 515.504 557.617 524.138 552.736L533.431 569.173Z"/>
</mask>
<path d="M533.431 569.173C522.638 575.275 510.749 579.191 498.443 580.697C486.137 582.204 473.655 581.272 461.709 577.955C449.763 574.638 438.587 569 428.82 561.364C419.052 553.727 410.885 544.242 404.784 533.449L421.221 524.157C426.102 532.791 432.636 540.379 440.45 546.489C448.263 552.598 457.204 557.108 466.761 559.762C476.317 562.415 486.303 563.161 496.148 561.955C505.993 560.75 515.504 557.617 524.138 552.736L533.431 569.173Z" stroke="#222222" stroke-width="3.93373" mask="url(#path-28-inside-13_420_36630)"/>
<mask id="path-29-inside-14_420_36630" fill="white">
<path d="M400.626 525.155C396.486 515.789 393.897 505.811 392.961 495.613L411.764 493.888C412.513 502.046 414.584 510.028 417.896 517.521L400.626 525.155Z"/>
</mask>
<path d="M400.626 525.155C396.486 515.789 393.897 505.811 392.961 495.613L411.764 493.888C412.513 502.046 414.584 510.028 417.896 517.521L400.626 525.155Z" stroke="#222222" stroke-width="3.93373" mask="url(#path-29-inside-14_420_36630)"/>
<mask id="path-30-inside-15_420_36630" fill="white">
<path d="M392.587 484.977C392.804 474.738 394.685 464.603 398.157 454.969L415.921 461.371C413.143 469.078 411.638 477.186 411.464 485.377L392.587 484.977Z"/>
</mask>
<path d="M392.587 484.977C392.804 474.738 394.685 464.603 398.157 454.969L415.921 461.371C413.143 469.078 411.638 477.186 411.464 485.377L392.587 484.977Z" stroke="#222222" stroke-width="3.93373" mask="url(#path-30-inside-15_420_36630)"/>
<mask id="path-31-inside-16_420_36630" fill="white">
<path d="M471.666 393.814C474.516 393.346 477.387 393.009 480.268 392.804L481.609 411.638C479.304 411.802 477.008 412.072 474.728 412.446L471.666 393.814Z"/>
</mask>
<path d="M471.666 393.814C474.516 393.346 477.387 393.009 480.268 392.804L481.609 411.638C479.304 411.802 477.008 412.072 474.728 412.446L471.666 393.814Z" stroke="#222222" stroke-width="3.93373" mask="url(#path-31-inside-16_420_36630)"/>
<mask id="path-32-inside-17_420_36630" fill="white">
<path d="M523.436 399.888C526.1 401.004 528.711 402.241 531.262 403.596L522.405 420.272C520.364 419.188 518.275 418.198 516.143 417.305L523.436 399.888Z"/>
</mask>
<path d="M523.436 399.888C526.1 401.004 528.711 402.241 531.262 403.596L522.405 420.272C520.364 419.188 518.275 418.198 516.143 417.305L523.436 399.888Z" stroke="#222222" stroke-width="3.93373" mask="url(#path-32-inside-17_420_36630)"/>
<mask id="path-33-inside-18_420_36630" fill="white">
<path d="M497.778 393.184C500.647 393.514 503.5 393.976 506.327 394.568L502.456 413.049C500.195 412.576 497.912 412.206 495.617 411.941L497.778 393.184Z"/>
</mask>
<path d="M497.778 393.184C500.647 393.514 503.5 393.976 506.327 394.568L502.456 413.049C500.195 412.576 497.912 412.206 495.617 411.941L497.778 393.184Z" fill="#222222" stroke="#222222" stroke-width="3.93373" mask="url(#path-33-inside-18_420_36630)"/>
<mask id="path-34-inside-19_420_36630" fill="white">
<path d="M545.902 413.214C548.158 415.017 550.331 416.922 552.413 418.924L539.325 432.534C537.66 430.933 535.922 429.408 534.116 427.966L545.902 413.214Z"/>
</mask>
<path d="M545.902 413.214C548.158 415.017 550.331 416.922 552.413 418.924L539.325 432.534C537.66 430.933 535.922 429.408 534.116 427.966L545.902 413.214Z" stroke="#222222" stroke-width="3.93373" mask="url(#path-34-inside-19_420_36630)"/>
<mask id="path-35-inside-20_420_36630" fill="white">
<path d="M579.66 504.895C579.111 507.731 578.433 510.541 577.628 513.314L559.495 508.047C560.14 505.828 560.682 503.58 561.121 501.312L579.66 504.895Z"/>
</mask>
<path d="M579.66 504.895C579.111 507.731 578.433 510.541 577.628 513.314L559.495 508.047C560.14 505.828 560.682 503.58 561.121 501.312L579.66 504.895Z" fill="#222222" stroke="#222222" stroke-width="3.93373" mask="url(#path-35-inside-20_420_36630)"/>
<mask id="path-36-inside-21_420_36630" fill="white">
<path d="M484.579 392.596C487.467 392.523 490.356 392.582 493.238 392.774L491.985 411.614C489.68 411.46 487.368 411.413 485.058 411.472L484.579 392.596Z"/>
</mask>
<path d="M484.579 392.596C487.467 392.523 490.356 392.582 493.238 392.774L491.985 411.614C489.68 411.46 487.368 411.413 485.058 411.472L484.579 392.596Z" stroke="#222222" stroke-width="3.93373" mask="url(#path-36-inside-21_420_36630)"/>
<mask id="path-37-inside-22_420_36630" fill="white">
<path d="M535.025 405.709C537.511 407.18 539.928 408.763 542.269 410.455L531.21 425.759C529.337 424.405 527.403 423.139 525.414 421.963L535.025 405.709Z"/>
</mask>
<path d="M535.025 405.709C537.511 407.18 539.928 408.763 542.269 410.455L531.21 425.759C529.337 424.405 527.403 423.139 525.414 421.963L535.025 405.709Z" stroke="#222222" stroke-width="3.93373" mask="url(#path-37-inside-22_420_36630)"/>
<mask id="path-38-inside-23_420_36630" fill="white">
<path d="M510.53 395.552C513.327 396.272 516.09 397.121 518.809 398.095L512.442 415.871C510.266 415.092 508.056 414.413 505.819 413.836L510.53 395.552Z"/>
</mask>
<path d="M510.53 395.552C513.327 396.272 516.09 397.121 518.809 398.095L512.442 415.871C510.266 415.092 508.056 414.413 505.819 413.836L510.53 395.552Z" fill="#222222" stroke="#222222" stroke-width="3.93373" mask="url(#path-38-inside-23_420_36630)"/>
<mask id="path-39-inside-24_420_36630" fill="white">
<path d="M555.454 421.985C557.442 424.081 559.333 426.266 561.121 428.534L546.291 440.222C544.861 438.408 543.348 436.659 541.757 434.983L555.454 421.985Z"/>
</mask>
<path d="M555.454 421.985C557.442 424.081 559.333 426.266 561.121 428.534L546.291 440.222C544.861 438.408 543.348 436.659 541.757 434.983L555.454 421.985Z" fill="#222222" stroke="#222222" stroke-width="3.93373" mask="url(#path-39-inside-24_420_36630)"/>
<mask id="path-40-inside-25_420_36630" fill="white">
<path d="M576.331 517.431C575.399 520.165 574.342 522.855 573.164 525.492L555.925 517.789C556.868 515.679 557.713 513.527 558.458 511.34L576.331 517.431Z"/>
</mask>
<path d="M576.331 517.431C575.399 520.165 574.342 522.855 573.164 525.492L555.925 517.789C556.868 515.679 557.713 513.527 558.458 511.34L576.331 517.431Z" fill="#222222" stroke="#222222" stroke-width="3.93373" mask="url(#path-40-inside-25_420_36630)"/>
<path d="M186.157 796.656C116.713 729.199 71.9579 640.357 59.081 544.403C46.204 448.449 65.9529 350.952 115.155 267.572" stroke="#222222" stroke-width="1.96687"/>
<path d="M900.106 361.468C912.41 401.965 918.692 444.052 918.751 486.377" stroke="#222222" stroke-width="1.96687"/>
<path d="M361.524 73.8957C377.013 69.1897 392.755 65.3587 408.674 62.4207" stroke="#222222" stroke-width="1.96687"/>
<path d="M612.529 900.057C604.948 902.361 597.305 904.455 589.608 906.338" stroke="#222222" stroke-width="1.96687"/>
<path d="M71.7015 462.499C76.9696 373.142 110.92 287.867 168.51 219.341" stroke="#222222" stroke-width="1.96687"/>
<path d="M902.248 511.448C896.98 600.805 863.029 686.08 805.439 754.606" stroke="#222222" stroke-width="1.96687"/>
<path d="M511.462 71.6966C526.4 72.5773 541.279 74.2633 556.035 76.7473" stroke="#222222" stroke-width="1.96687"/>
<path d="M562.759 77.9362C584.746 82.0099 606.369 87.8499 627.417 95.3993" stroke="#222222" stroke-width="1.96687"/>
<path d="M462.484 902.235C384.558 897.641 309.496 871.213 245.881 825.973" stroke="#222222" stroke-width="1.96687"/>
<path d="M895.097 486.984C895.097 559.614 875.715 630.928 838.951 693.567" stroke="#222222" stroke-width="1.96687"/>
<path d="M486.973 895.109C451.029 895.109 415.242 890.361 380.541 880.987" stroke="#222222" stroke-width="1.96687"/>
<path d="M800.913 226.2C823.881 253.85 843.095 284.412 858.057 317.095" stroke="#222222" stroke-width="1.96687"/>
<path d="M673.129 123.78C705.117 140.175 734.798 160.724 761.403 184.894" stroke="#222222" stroke-width="1.96687"/>
<path d="M486.967 78.8495C522.912 78.8495 558.699 83.598 593.399 92.9717" stroke="#222222" stroke-width="1.96687"/>
<path d="M152.938 721.464C145.866 711.391 139.253 701.002 133.121 690.331" stroke="#222222" stroke-width="1.96687"/>
<path d="M400.277 88.1443C412.304 85.5298 424.443 83.4607 436.658 81.9433" stroke="#222222" stroke-width="1.96687"/>
<path d="M351.491 101.988C360.478 98.8257 369.573 95.9787 378.759 93.4526" stroke="#222222" stroke-width="1.96687"/>
<path d="M78.9013 486.977C78.9013 423.822 93.5582 361.528 121.719 304.998C149.879 248.469 190.774 199.246 241.186 161.203" stroke="#222222" stroke-width="1.96687"/>
<path d="M86.7159 486.984C86.7159 425.869 100.711 365.566 127.628 310.698C154.545 255.83 193.669 207.854 242 170.449C290.331 133.045 346.586 107.204 406.451 94.9097C466.317 82.6149 528.202 84.1923 587.364 99.5209" stroke="#222222" stroke-width="1.96687"/>
<path d="M884.505 440.359C888.06 470.682 888.134 501.311 884.726 531.65" stroke="#222222" stroke-width="1.96687"/>
<path d="M486.971 887.211C414.223 887.211 342.851 867.384 280.527 829.863" stroke="#222222" stroke-width="1.96687"/>
<path d="M150.906 689.536C97.1847 600.406 81.071 493.585 106.109 392.574C131.148 291.563 195.287 204.635 284.417 150.914C373.548 97.1935 480.368 81.0798 581.38 106.118C682.391 131.156 769.318 195.296 823.039 284.426" stroke="#222222" stroke-width="1.96687"/>
<path d="M171.265 683.381C168.38 678.594 165.601 673.742 162.931 668.831" stroke="#222222" stroke-width="1.96687"/>
<path d="M688.293 811.526C683.506 814.411 678.655 817.19 673.743 819.86" stroke="#222222" stroke-width="1.96687"/>
<path d="M854.598 597.273C851.319 608.19 847.547 618.953 843.292 629.528" stroke="#222222" stroke-width="1.96687"/>
<path d="M802.683 273.31C809.209 282.656 815.307 292.294 820.958 302.193" stroke="#222222" stroke-width="1.96687"/>
<path d="M818.017 297.135C820.813 301.86 823.505 306.646 826.092 311.489" stroke="#222222" stroke-width="1.96687"/>
<path d="M838.351 336.648C840.571 341.669 842.681 346.739 844.679 351.853" stroke="#222222" stroke-width="1.96687"/>
<path d="M158.708 660.839C156.157 655.865 153.717 650.835 151.39 645.753" stroke="#222222" stroke-width="1.96687"/>
<path d="M299.429 166.36C304.217 163.474 309.068 160.696 313.979 158.026" stroke="#222222" stroke-width="1.96687"/>
<path d="M786.028 251.235C789.555 255.571 792.986 259.985 796.318 264.474" stroke="#222222" stroke-width="1.96687"/>
<circle cx="559.751" cy="347.339" r="3.93373" fill="#222222"/>
<circle cx="345.355" cy="417.158" r="3.93373" fill="#222222"/>
<circle cx="444.689" cy="326.689" r="3.93373" fill="#222222"/>
<circle cx="526.108" cy="225.794" r="2.9503" transform="rotate(3.89187 526.108 225.794)" fill="#222222"/>
<circle cx="535.853" cy="227.445" r="2.9503" transform="rotate(3.89187 535.853 227.445)" fill="#222222"/>
<path d="M448.042 318.977C446.724 318.371 445.271 318.115 443.825 318.233C442.379 318.351 440.987 318.84 439.785 319.653C438.583 320.465 437.61 321.574 436.961 322.871C436.311 324.169 436.008 325.612 436.078 327.062L439.829 326.878C439.79 326.074 439.958 325.272 440.319 324.551C440.68 323.831 441.22 323.215 441.887 322.764C442.555 322.313 443.328 322.041 444.131 321.976C444.934 321.91 445.741 322.052 446.473 322.389L448.042 318.977Z" fill="#222222"/>
<path d="M559.815 355.378C560.87 355.37 561.913 355.155 562.885 354.744C563.857 354.333 564.738 353.735 565.478 352.984C566.219 352.232 566.804 351.343 567.201 350.365C567.597 349.387 567.798 348.341 567.79 347.286C567.782 346.231 567.567 345.188 567.156 344.216C566.745 343.245 566.147 342.363 565.396 341.623C564.644 340.882 563.754 340.297 562.777 339.9C561.799 339.504 560.753 339.304 559.698 339.311L559.722 342.639C560.34 342.634 560.953 342.752 561.526 342.984C562.098 343.216 562.62 343.559 563.06 343.993C563.5 344.427 563.85 344.943 564.091 345.512C564.332 346.081 564.458 346.692 564.462 347.31C564.467 347.928 564.35 348.541 564.117 349.114C563.885 349.687 563.542 350.208 563.108 350.648C562.674 351.088 562.158 351.439 561.589 351.679C561.02 351.92 560.409 352.046 559.791 352.051L559.815 355.378Z" fill="#222222"/>
<path d="M338.374 413.195C337.853 414.113 337.518 415.124 337.388 416.171C337.258 417.218 337.336 418.28 337.616 419.297C337.897 420.314 338.375 421.266 339.023 422.098C339.671 422.93 340.477 423.627 341.395 424.148C342.312 424.668 343.323 425.003 344.37 425.134C345.417 425.264 346.479 425.186 347.496 424.906C348.513 424.625 349.465 424.147 350.298 423.499C351.13 422.851 351.826 422.045 352.347 421.127L349.453 419.484C349.148 420.022 348.74 420.494 348.253 420.874C347.765 421.253 347.207 421.533 346.612 421.698C346.016 421.862 345.394 421.907 344.78 421.831C344.167 421.755 343.575 421.559 343.037 421.254C342.5 420.949 342.028 420.541 341.648 420.053C341.268 419.566 340.988 419.008 340.824 418.412C340.66 417.816 340.614 417.194 340.691 416.581C340.767 415.968 340.963 415.375 341.268 414.838L338.374 413.195Z" fill="#222222"/>
<path d="M506.863 322.594L513.312 331.767" stroke="#222222" stroke-width="1.96687"/>
<mask id="path-81-inside-26_420_36630" fill="white">
<path fill-rule="evenodd" clip-rule="evenodd" d="M392.314 316.85C365.518 332.221 342.737 353.94 326.07 380.253L343.242 391.13C355.146 372.338 370.539 356.168 388.465 343.422L392.314 316.85ZM394.25 315.755L390.558 341.957C400.681 334.985 411.582 329.091 423.096 324.415L415.446 305.582C408.15 308.546 401.073 311.946 394.25 315.755ZM419.111 321.769C419.111 323.398 417.79 324.719 416.16 324.719C414.531 324.719 413.21 323.398 413.21 321.769C413.21 320.139 414.531 318.818 416.16 318.818C417.79 318.818 419.111 320.139 419.111 321.769Z"/>
</mask>
<path fill-rule="evenodd" clip-rule="evenodd" d="M392.314 316.85C365.518 332.221 342.737 353.94 326.07 380.253L343.242 391.13C355.146 372.338 370.539 356.168 388.465 343.422L392.314 316.85ZM394.25 315.755L390.558 341.957C400.681 334.985 411.582 329.091 423.096 324.415L415.446 305.582C408.15 308.546 401.073 311.946 394.25 315.755ZM419.111 321.769C419.111 323.398 417.79 324.719 416.16 324.719C414.531 324.719 413.21 323.398 413.21 321.769C413.21 320.139 414.531 318.818 416.16 318.818C417.79 318.818 419.111 320.139 419.111 321.769Z" fill="#222222"/>
<path d="M326.07 380.253L324.409 379.201L323.356 380.862L325.018 381.915L326.07 380.253ZM392.314 316.85L394.261 317.132L394.84 313.134L391.336 315.144L392.314 316.85ZM343.242 391.13L342.19 392.792L343.851 393.844L344.904 392.183L343.242 391.13ZM388.465 343.422L389.605 345.025L390.291 344.537L390.412 343.704L388.465 343.422ZM394.25 315.755L393.291 314.038L392.439 314.514L392.303 315.481L394.25 315.755ZM390.558 341.957L388.611 341.683L387.986 346.117L391.674 343.577L390.558 341.957ZM423.096 324.415L423.836 326.237L425.658 325.497L424.918 323.675L423.096 324.415ZM415.446 305.582L417.268 304.842L416.528 303.02L414.706 303.76L415.446 305.582ZM327.732 381.306C344.227 355.264 366.773 333.769 393.293 318.556L391.336 315.144C364.264 330.673 341.248 352.616 324.409 379.201L327.732 381.306ZM344.295 389.469L327.123 378.592L325.018 381.915L342.19 392.792L344.295 389.469ZM387.325 341.819C369.192 354.713 353.621 371.069 341.581 390.078L344.904 392.183C356.67 373.607 371.886 357.624 389.605 345.025L387.325 341.819ZM390.412 343.704L394.261 317.132L390.368 316.568L386.518 343.14L390.412 343.704ZM392.303 315.481L388.611 341.683L392.506 342.232L396.198 316.029L392.303 315.481ZM422.356 322.592C410.709 327.323 399.682 333.285 389.443 340.337L391.674 343.577C401.68 336.686 412.455 330.86 423.836 326.237L422.356 322.592ZM413.624 306.322L421.273 325.155L424.918 323.675L417.268 304.842L413.624 306.322ZM395.209 317.472C401.962 313.703 408.965 310.337 416.186 307.404L414.706 303.76C407.335 306.754 400.185 310.189 393.291 314.038L395.209 317.472ZM416.16 326.686C418.876 326.686 421.077 324.484 421.077 321.769H417.144C417.144 322.312 416.703 322.752 416.16 322.752V326.686ZM411.243 321.769C411.243 324.484 413.445 326.686 416.16 326.686V322.752C415.617 322.752 415.177 322.312 415.177 321.769H411.243ZM416.16 316.851C413.445 316.851 411.243 319.053 411.243 321.769H415.177C415.177 321.225 415.617 320.785 416.16 320.785V316.851ZM421.077 321.769C421.077 319.053 418.876 316.851 416.16 316.851V320.785C416.703 320.785 417.144 321.225 417.144 321.769H421.077Z" fill="#222222" mask="url(#path-81-inside-26_420_36630)"/>
<mask id="path-83-inside-27_420_36630" fill="white">
<path fill-rule="evenodd" clip-rule="evenodd" d="M661.753 608.679C659.466 611.843 657.089 614.949 654.623 617.995L622.944 592.345C645.719 564.216 659.135 529.673 661.314 493.545L670.157 494.078C669.831 511.959 661.621 554.599 637.382 587.438L636.829 588.188L637.549 588.781C638.74 589.762 639.898 590.715 641.02 591.64C652.469 601.069 660.225 607.456 661.753 608.679ZM662.896 607.082C685.992 574.506 699.585 536.041 702.001 496L672.06 494.193C671.73 512.24 663.625 554.709 639.516 587.853C642.739 590.507 645.702 592.948 648.361 595.138C656.42 601.776 661.683 606.111 662.896 607.082ZM695.212 504.43C696.842 504.43 698.163 503.109 698.163 501.48C698.163 499.85 696.842 498.53 695.212 498.53C693.583 498.53 692.262 499.85 692.262 501.48C692.262 503.109 693.583 504.43 695.212 504.43ZM696.197 512.298C696.197 513.927 694.876 515.248 693.247 515.248C691.617 515.248 690.296 513.927 690.296 512.298C690.296 510.668 691.617 509.347 693.247 509.347C694.876 509.347 696.197 510.668 696.197 512.298Z"/>
</mask>
<path fill-rule="evenodd" clip-rule="evenodd" d="M661.753 608.679C659.466 611.843 657.089 614.949 654.623 617.995L622.944 592.345C645.719 564.216 659.135 529.673 661.314 493.545L670.157 494.078C669.831 511.959 661.621 554.599 637.382 587.438L636.829 588.188L637.549 588.781C638.74 589.762 639.898 590.715 641.02 591.64C652.469 601.069 660.225 607.456 661.753 608.679ZM662.896 607.082C685.992 574.506 699.585 536.041 702.001 496L672.06 494.193C671.73 512.24 663.625 554.709 639.516 587.853C642.739 590.507 645.702 592.948 648.361 595.138C656.42 601.776 661.683 606.111 662.896 607.082ZM695.212 504.43C696.842 504.43 698.163 503.109 698.163 501.48C698.163 499.85 696.842 498.53 695.212 498.53C693.583 498.53 692.262 499.85 692.262 501.48C692.262 503.109 693.583 504.43 695.212 504.43ZM696.197 512.298C696.197 513.927 694.876 515.248 693.247 515.248C691.617 515.248 690.296 513.927 690.296 512.298C690.296 510.668 691.617 509.347 693.247 509.347C694.876 509.347 696.197 510.668 696.197 512.298Z" fill="#222222"/>
<path d="M654.623 617.995L653.386 619.523L654.914 620.761L656.152 619.232L654.623 617.995ZM661.753 608.679L663.347 609.832L664.444 608.314L662.982 607.144L661.753 608.679ZM622.944 592.345L621.416 591.108L620.178 592.636L621.707 593.874L622.944 592.345ZM661.314 493.545L661.433 491.582L659.47 491.463L659.351 493.426L661.314 493.545ZM670.157 494.078L672.124 494.114L672.158 492.229L670.276 492.115L670.157 494.078ZM637.382 587.438L635.8 586.27L635.8 586.27L637.382 587.438ZM636.829 588.188L635.246 587.02L634.139 588.521L635.578 589.706L636.829 588.188ZM637.549 588.781L638.799 587.263L638.799 587.263L637.549 588.781ZM641.022 591.641L642.272 590.123H642.272L641.022 591.641ZM662.896 607.082L661.667 608.618L663.295 609.92L664.501 608.22L662.896 607.082ZM702.001 496L703.965 496.118L704.083 494.155L702.12 494.036L702.001 496ZM672.06 494.193L672.178 492.23L670.131 492.106L670.093 494.157L672.06 494.193ZM639.516 587.853L637.926 586.696L636.836 588.194L638.266 589.372L639.516 587.853ZM648.36 595.137L649.611 593.619L648.36 595.137ZM656.152 619.232C658.641 616.159 661.039 613.024 663.347 609.832L660.159 607.527C657.893 610.661 655.538 613.739 653.095 616.757L656.152 619.232ZM621.707 593.874L653.386 619.523L655.861 616.466L624.182 590.817L621.707 593.874ZM659.351 493.426C657.196 529.145 643.933 563.297 621.416 591.108L624.473 593.583C647.506 565.135 661.073 530.2 663.278 493.663L659.351 493.426ZM670.276 492.115L661.433 491.582L661.196 495.508L670.039 496.042L670.276 492.115ZM638.965 588.606C663.499 555.367 671.792 512.304 672.124 494.114L668.191 494.043C667.87 511.615 659.743 553.831 635.8 586.27L638.965 588.606ZM638.411 589.356L638.965 588.606L635.8 586.27L635.246 587.02L638.411 589.356ZM638.799 587.263L638.079 586.67L635.578 589.706L636.298 590.299L638.799 587.263ZM642.272 590.123C641.149 589.198 639.991 588.244 638.799 587.263L636.298 590.299C637.49 591.281 638.648 592.235 639.771 593.16L642.272 590.123ZM662.982 607.144C661.468 605.932 653.732 599.56 642.272 590.123L639.771 593.16C651.209 602.579 658.982 608.98 660.523 610.215L662.982 607.144ZM664.501 608.22C687.809 575.345 701.527 536.527 703.965 496.118L700.038 495.881C697.644 535.555 684.176 573.667 661.292 605.945L664.501 608.22ZM702.12 494.036L672.178 492.23L671.941 496.157L701.883 497.963L702.12 494.036ZM670.093 494.157C669.769 511.897 661.746 553.949 637.926 586.696L641.107 589.01C665.504 555.47 673.691 512.583 674.026 494.229L670.093 494.157ZM638.266 589.372C641.488 592.025 644.451 594.465 647.11 596.655L649.611 593.619C646.952 591.429 643.989 588.988 640.767 586.335L638.266 589.372ZM647.11 596.655C655.158 603.285 660.44 607.636 661.667 608.618L664.125 605.547C662.926 604.587 657.681 600.267 649.611 593.619L647.11 596.655ZM696.196 501.48C696.196 502.023 695.756 502.463 695.212 502.463V506.397C697.928 506.397 700.13 504.196 700.13 501.48H696.196ZM695.212 500.496C695.756 500.496 696.196 500.937 696.196 501.48H700.13C700.13 498.764 697.928 496.563 695.212 496.563V500.496ZM694.229 501.48C694.229 500.937 694.669 500.496 695.212 500.496V496.563C692.497 496.563 690.295 498.764 690.295 501.48H694.229ZM695.212 502.463C694.669 502.463 694.229 502.023 694.229 501.48H690.295C690.295 504.196 692.497 506.397 695.212 506.397V502.463ZM693.247 517.215C695.962 517.215 698.164 515.013 698.164 512.298H694.23C694.23 512.841 693.79 513.281 693.247 513.281V517.215ZM688.329 512.298C688.329 515.013 690.531 517.215 693.247 517.215V513.281C692.703 513.281 692.263 512.841 692.263 512.298H688.329ZM693.247 507.38C690.531 507.38 688.329 509.582 688.329 512.298H692.263C692.263 511.754 692.703 511.314 693.247 511.314V507.38ZM698.164 512.298C698.164 509.582 695.962 507.38 693.247 507.38V511.314C693.79 511.314 694.23 511.754 694.23 512.298H698.164Z" fill="#222222" mask="url(#path-83-inside-27_420_36630)"/>
<mask id="path-85-inside-28_420_36630" fill="white">
<path fill-rule="evenodd" clip-rule="evenodd" d="M213.216 525.04C209.509 498.309 209.723 471.181 213.852 444.512L265.959 452.579C262.615 474.177 262.441 496.148 265.444 517.797L213.216 525.04ZM214.914 522.649C211.652 497.525 211.848 472.072 215.497 447.001L220.743 447.765C217.164 472.356 216.971 497.323 220.171 521.967L214.914 522.649ZM227.089 458.207C228.719 458.207 230.04 456.886 230.04 455.256C230.04 453.627 228.719 452.306 227.089 452.306C225.46 452.306 224.139 453.627 224.139 455.256C224.139 456.886 225.46 458.207 227.089 458.207ZM229.057 467.057C229.057 468.687 227.736 470.007 226.107 470.007C224.477 470.007 223.157 468.687 223.157 467.057C223.157 465.428 224.477 464.107 226.107 464.107C227.736 464.107 229.057 465.428 229.057 467.057Z"/>
</mask>
<path fill-rule="evenodd" clip-rule="evenodd" d="M213.216 525.04C209.509 498.309 209.723 471.181 213.852 444.512L265.959 452.579C262.615 474.177 262.441 496.148 265.444 517.797L213.216 525.04ZM214.914 522.649C211.652 497.525 211.848 472.072 215.497 447.001L220.743 447.765C217.164 472.356 216.971 497.323 220.171 521.967L214.914 522.649ZM227.089 458.207C228.719 458.207 230.04 456.886 230.04 455.256C230.04 453.627 228.719 452.306 227.089 452.306C225.46 452.306 224.139 453.627 224.139 455.256C224.139 456.886 225.46 458.207 227.089 458.207ZM229.057 467.057C229.057 468.687 227.736 470.007 226.107 470.007C224.477 470.007 223.157 468.687 223.157 467.057C223.157 465.428 224.477 464.107 226.107 464.107C227.736 464.107 229.057 465.428 229.057 467.057Z" fill="#222222"/>
<path d="M213.852 444.512L214.153 442.568L212.209 442.267L211.908 444.211L213.852 444.512ZM213.216 525.04L211.268 525.31L211.538 527.258L213.486 526.988L213.216 525.04ZM265.959 452.579L267.902 452.88L268.203 450.936L266.26 450.635L265.959 452.579ZM265.444 517.797L265.714 519.745L267.662 519.475L267.392 517.526L265.444 517.797ZM215.497 447.001L215.78 445.055L213.834 444.771L213.55 446.718L215.497 447.001ZM214.914 522.649L212.963 522.902L213.216 524.853L215.167 524.6L214.914 522.649ZM220.743 447.765L222.689 448.048L222.972 446.102L221.026 445.818L220.743 447.765ZM220.171 521.967L220.424 523.917L222.374 523.664L222.121 521.713L220.171 521.967ZM211.908 444.211C207.75 471.069 207.534 498.39 211.268 525.31L215.164 524.77C211.483 498.229 211.696 471.292 215.796 444.813L211.908 444.211ZM266.26 450.635L214.153 442.568L213.551 446.455L265.658 454.523L266.26 450.635ZM267.392 517.526C264.416 496.068 264.588 474.289 267.902 452.88L264.015 452.278C260.642 474.066 260.467 496.229 263.495 518.067L267.392 517.526ZM213.486 526.988L265.714 519.745L265.173 515.848L212.946 523.092L213.486 526.988ZM213.55 446.718C209.876 471.967 209.678 497.6 212.963 522.902L216.864 522.396C213.625 497.45 213.82 472.178 217.443 447.284L213.55 446.718ZM221.026 445.818L215.78 445.055L215.214 448.947L220.459 449.711L221.026 445.818ZM222.121 521.713C218.945 497.248 219.136 472.462 222.689 448.048L218.796 447.481C215.191 472.251 214.997 497.398 218.22 522.22L222.121 521.713ZM215.167 524.6L220.424 523.917L219.917 520.016L214.66 520.699L215.167 524.6ZM228.073 455.256C228.073 455.799 227.632 456.24 227.089 456.24V460.174C229.805 460.174 232.006 457.972 232.006 455.256H228.073ZM227.089 454.273C227.632 454.273 228.073 454.713 228.073 455.256H232.006C232.006 452.541 229.805 450.339 227.089 450.339V454.273ZM226.106 455.256C226.106 454.713 226.546 454.273 227.089 454.273V450.339C224.374 450.339 222.172 452.541 222.172 455.256H226.106ZM227.089 456.24C226.546 456.24 226.106 455.799 226.106 455.256H222.172C222.172 457.972 224.374 460.174 227.089 460.174V456.24ZM226.107 471.974C228.823 471.974 231.024 469.773 231.024 467.057H227.09C227.09 467.6 226.65 468.041 226.107 468.041V471.974ZM221.19 467.057C221.19 469.773 223.391 471.974 226.107 471.974V468.041C225.564 468.041 225.123 467.6 225.123 467.057H221.19ZM226.107 462.14C223.391 462.14 221.19 464.341 221.19 467.057H225.123C225.123 466.514 225.564 466.074 226.107 466.074V462.14ZM231.024 467.057C231.024 464.341 228.823 462.14 226.107 462.14V466.074C226.65 466.074 227.09 466.514 227.09 467.057H231.024Z" fill="#222222" mask="url(#path-85-inside-28_420_36630)"/>
<mask id="path-87-inside-29_420_36630" fill="white">
<path fill-rule="evenodd" clip-rule="evenodd" d="M272.426 661.51C275.036 664.732 277.722 667.9 280.483 671.011C290.044 681.786 300.388 691.753 311.407 700.845C312.593 698.104 314.472 693.773 317.353 687.145C299.314 672.351 289.123 660.768 285.744 656.099L272.426 661.51ZM271.139 659.91L285.728 653.983L286.465 653.683L286.912 654.341C289.625 658.331 299.939 670.391 319.174 686.093L319.751 686.564L319.454 687.247C316.212 694.704 314.195 699.354 312.99 702.141C342.776 726.353 377.397 744.224 414.736 754.44L428.65 703.581C386.621 692.083 348.843 668.607 319.922 636.015C307.906 622.473 297.634 607.601 289.271 591.751C284.1 591.858 276.832 591.954 266.922 591.954H266.279L266.021 591.364C254.487 564.931 246.693 534.744 244.929 523.125L213.614 527.789C220.825 576.212 240.711 621.775 271.139 659.91ZM265.767 520.022C269.409 544.483 277.045 568.043 288.256 589.804C283.291 589.9 276.534 589.983 267.567 589.987C256.232 563.829 248.595 534.166 246.874 522.836L265.767 520.022ZM422.795 708.982C422.795 710.611 421.475 711.932 419.845 711.932C418.216 711.932 416.895 710.611 416.895 708.982C416.895 707.352 418.216 706.031 419.845 706.031C421.475 706.031 422.795 707.352 422.795 708.982ZM410.995 708.982C412.624 708.982 413.945 707.661 413.945 706.032C413.945 704.402 412.624 703.081 410.995 703.081C409.365 703.081 408.044 704.402 408.044 706.032C408.044 707.661 409.365 708.982 410.995 708.982Z"/>
</mask>
<path fill-rule="evenodd" clip-rule="evenodd" d="M272.426 661.51C275.036 664.732 277.722 667.9 280.483 671.011C290.044 681.786 300.388 691.753 311.407 700.845C312.593 698.104 314.472 693.773 317.353 687.145C299.314 672.351 289.123 660.768 285.744 656.099L272.426 661.51ZM271.139 659.91L285.728 653.983L286.465 653.683L286.912 654.341C289.625 658.331 299.939 670.391 319.174 686.093L319.751 686.564L319.454 687.247C316.212 694.704 314.195 699.354 312.99 702.141C342.776 726.353 377.397 744.224 414.736 754.44L428.65 703.581C386.621 692.083 348.843 668.607 319.922 636.015C307.906 622.473 297.634 607.601 289.271 591.751C284.1 591.858 276.832 591.954 266.922 591.954H266.279L266.021 591.364C254.487 564.931 246.693 534.744 244.929 523.125L213.614 527.789C220.825 576.212 240.711 621.775 271.139 659.91ZM265.767 520.022C269.409 544.483 277.045 568.043 288.256 589.804C283.291 589.9 276.534 589.983 267.567 589.987C256.232 563.829 248.595 534.166 246.874 522.836L265.767 520.022ZM422.795 708.982C422.795 710.611 421.475 711.932 419.845 711.932C418.216 711.932 416.895 710.611 416.895 708.982C416.895 707.352 418.216 706.031 419.845 706.031C421.475 706.031 422.795 707.352 422.795 708.982ZM410.995 708.982C412.624 708.982 413.945 707.661 413.945 706.032C413.945 704.402 412.624 703.081 410.995 703.081C409.365 703.081 408.044 704.402 408.044 706.032C408.044 707.661 409.365 708.982 410.995 708.982Z" fill="#222222"/>
<path d="M280.483 671.011L281.954 669.706L280.483 671.011ZM272.426 661.51L271.686 659.688L269.227 660.686L270.897 662.748L272.426 661.51ZM311.407 700.845L310.155 702.363L312.173 704.028L313.212 701.626L311.407 700.845ZM317.353 687.145L319.157 687.93L319.75 686.567L318.601 685.625L317.353 687.145ZM285.744 656.099L287.338 654.946L286.433 653.696L285.004 654.277L285.744 656.099ZM271.139 659.91L269.602 661.136L270.518 662.285L271.879 661.732L271.139 659.91ZM285.728 653.983L284.988 652.16H284.988L285.728 653.983ZM286.465 653.683L288.091 652.577L287.197 651.263L285.725 651.861L286.465 653.683ZM286.912 654.341L288.538 653.235L288.538 653.235L286.912 654.341ZM319.174 686.093L320.418 684.57L319.174 686.093ZM319.751 686.564L321.554 687.349L322.148 685.983L320.994 685.041L319.751 686.564ZM319.454 687.247L317.65 686.463L319.454 687.247ZM312.99 702.141L311.184 701.361L310.593 702.728L311.749 703.668L312.99 702.141ZM414.736 754.44L414.217 756.337L416.115 756.856L416.634 754.959L414.736 754.44ZM428.65 703.581L430.547 704.1L431.066 702.203L429.169 701.684L428.65 703.581ZM319.922 636.015L321.393 634.709L319.922 636.015ZM289.271 591.751L291.011 590.833L290.444 589.759L289.23 589.784L289.271 591.751ZM266.279 591.954L264.476 592.74L264.991 593.921H266.279V591.954ZM266.021 591.364L264.218 592.15L264.218 592.15L266.021 591.364ZM244.929 523.125L246.873 522.83L246.579 520.891L244.639 521.18L244.929 523.125ZM213.614 527.789L213.325 525.843L211.379 526.133L211.669 528.078L213.614 527.789ZM288.256 589.804L288.294 591.77L291.45 591.709L290.004 588.903L288.256 589.804ZM265.767 520.022L267.712 519.733L267.422 517.787L265.477 518.077L265.767 520.022ZM267.567 589.987L265.762 590.769L266.276 591.954L267.568 591.954L267.567 589.987ZM246.874 522.836L246.585 520.89L244.633 521.181L244.93 523.131L246.874 522.836ZM281.954 669.706C279.213 666.617 276.546 663.471 273.954 660.272L270.897 662.748C273.526 665.993 276.232 669.184 279.012 672.317L281.954 669.706ZM312.659 699.328C301.718 690.3 291.447 680.404 281.954 669.706L279.012 672.317C288.64 683.167 299.058 693.205 310.155 702.363L312.659 699.328ZM313.212 701.626C314.398 698.886 316.276 694.557 319.157 687.93L315.55 686.361C312.668 692.99 310.789 697.321 309.602 700.065L313.212 701.626ZM318.601 685.625C300.647 670.901 290.588 659.438 287.338 654.946L284.151 657.252C287.658 662.099 297.981 673.802 316.106 688.666L318.601 685.625ZM285.004 654.277L271.686 659.688L273.166 663.332L286.484 657.921L285.004 654.277ZM271.879 661.732L286.469 655.805L284.988 652.16L270.399 658.087L271.879 661.732ZM286.469 655.805L287.205 655.506L285.725 651.861L284.988 652.16L286.469 655.805ZM284.838 654.789L285.285 655.447L288.538 653.235L288.091 652.577L284.838 654.789ZM285.285 655.447C288.145 659.652 298.614 671.849 317.93 687.617L320.418 684.57C301.263 668.934 291.105 657.01 288.538 653.235L285.285 655.447ZM317.93 687.617L318.507 688.088L320.994 685.041L320.418 684.57L317.93 687.617ZM317.947 685.78L317.65 686.463L321.257 688.032L321.554 687.349L317.947 685.78ZM317.65 686.463C314.408 693.92 312.39 698.572 311.184 701.361L314.795 702.922C315.999 700.137 318.016 695.488 321.257 688.032L317.65 686.463ZM415.255 752.543C378.181 742.4 343.805 724.655 314.23 700.615L311.749 703.668C341.746 728.051 376.613 746.049 414.217 756.337L415.255 752.543ZM426.753 703.062L412.839 753.921L416.634 754.959L430.547 704.1L426.753 703.062ZM318.451 637.32C347.625 670.198 385.733 693.879 428.131 705.478L429.169 701.684C387.508 690.286 350.061 667.016 321.393 634.709L318.451 637.32ZM287.531 592.668C295.968 608.658 306.329 623.66 318.451 637.32L321.393 634.709C309.482 621.287 299.3 606.545 291.011 590.833L287.531 592.668ZM266.922 593.921C276.845 593.921 284.127 593.825 289.312 593.717L289.23 589.784C284.074 589.891 276.819 589.987 266.922 589.987V593.921ZM266.279 593.921H266.922V589.987H266.279V593.921ZM264.218 592.15L264.476 592.74L268.081 591.167L267.824 590.577L264.218 592.15ZM242.984 523.421C244.776 535.22 252.62 565.571 264.218 592.15L267.824 590.577C256.353 564.29 248.61 534.268 246.873 522.83L242.984 523.421ZM213.904 529.734L245.219 525.071L244.639 521.18L213.325 525.843L213.904 529.734ZM272.677 658.683C242.464 620.819 222.719 575.579 215.56 527.499L211.669 528.078C218.931 576.845 238.958 622.731 269.602 661.136L272.677 658.683ZM290.004 588.903C278.892 567.333 271.323 543.979 267.712 519.733L263.821 520.312C267.496 544.987 275.199 568.753 286.507 590.704L290.004 588.903ZM267.568 591.954C276.546 591.95 283.316 591.867 288.294 591.77L288.218 587.837C283.265 587.933 276.521 588.016 267.566 588.02L267.568 591.954ZM244.93 523.131C246.677 534.641 254.365 564.467 265.762 590.769L269.372 589.205C258.099 563.19 250.512 533.69 248.819 522.54L244.93 523.131ZM265.477 518.077L246.585 520.89L247.164 524.781L266.056 521.968L265.477 518.077ZM419.845 713.899C422.561 713.899 424.762 711.697 424.762 708.982H420.829C420.829 709.525 420.388 709.965 419.845 709.965V713.899ZM414.928 708.982C414.928 711.697 417.13 713.899 419.845 713.899V709.965C419.302 709.965 418.862 709.525 418.862 708.982H414.928ZM419.845 704.065C417.13 704.065 414.928 706.266 414.928 708.982H418.862C418.862 708.439 419.302 707.998 419.845 707.998V704.065ZM424.762 708.982C424.762 706.266 422.561 704.065 419.845 704.065V707.998C420.388 707.998 420.829 708.439 420.829 708.982H424.762ZM411.978 706.032C411.978 706.575 411.538 707.015 410.995 707.015V710.949C413.71 710.949 415.912 708.747 415.912 706.032H411.978ZM410.995 705.048C411.538 705.048 411.978 705.488 411.978 706.032H415.912C415.912 703.316 413.71 701.114 410.995 701.114V705.048ZM410.011 706.032C410.011 705.488 410.451 705.048 410.995 705.048V701.114C408.279 701.114 406.077 703.316 406.077 706.032H410.011ZM410.995 707.015C410.451 707.015 410.011 706.575 410.011 706.032H406.077C406.077 708.747 408.279 710.949 410.995 710.949V707.015Z" fill="#222222" mask="url(#path-87-inside-29_420_36630)"/>
<mask id="path-89-inside-30_420_36630" fill="white">
<path fill-rule="evenodd" clip-rule="evenodd" d="M315.221 626.864L315.173 626.903C344.552 662.934 384.489 688.845 429.364 700.99L436.753 673.688C405.446 665.215 376.893 649.065 353.599 626.864H315.221Z"/>
</mask>
<path fill-rule="evenodd" clip-rule="evenodd" d="M315.221 626.864L315.173 626.903C344.552 662.934 384.489 688.845 429.364 700.99L436.753 673.688C405.446 665.215 376.893 649.065 353.599 626.864H315.221Z" fill="#222222"/>
<path d="M315.221 626.864V624.897H314.521L313.978 625.34L315.221 626.864ZM315.173 626.903L313.93 625.379L312.406 626.622L313.648 628.146L315.173 626.903ZM429.364 700.99L428.85 702.889L430.749 703.403L431.263 701.504L429.364 700.99ZM436.753 673.688L438.652 674.202L439.165 672.304L437.267 671.79L436.753 673.688ZM353.599 626.864L354.956 625.44L354.386 624.897H353.599V626.864ZM313.978 625.34L313.93 625.379L316.416 628.428L316.464 628.389L313.978 625.34ZM313.648 628.146C343.287 664.496 383.578 690.636 428.85 702.889L429.878 699.092C385.4 687.054 345.816 661.372 316.697 625.66L313.648 628.146ZM431.263 701.504L438.652 674.202L434.854 673.175L427.465 700.477L431.263 701.504ZM437.267 671.79C406.277 663.403 378.014 647.417 354.956 625.44L352.242 628.288C375.772 650.714 404.615 667.028 436.239 675.587L437.267 671.79ZM353.599 624.897H315.221V628.831H353.599V624.897Z" fill="#222222" mask="url(#path-89-inside-30_420_36630)"/>
</svg>
