<svg width="108" height="65" viewBox="0 0 108 65" fill="none" xmlns="http://www.w3.org/2000/svg">
<path d="M20.16 64.32C16.192 64.32 13.12 63.9147 10.944 63.104C8.8107 62.2933 7.31736 61.0347 6.46403 59.328C5.6107 57.5787 5.12003 55.3813 4.99203 52.736L3.77603 21.632H12.736L13.952 48.448C14.0374 50.4107 14.2507 51.8827 14.592 52.864C14.9334 53.8453 15.5734 54.5067 16.512 54.848C17.4934 55.1893 18.9227 55.36 20.8 55.36C22.4214 55.36 23.5734 55.7867 24.256 56.64C24.9814 57.4507 25.344 58.4747 25.344 59.712C25.344 61.0347 24.896 62.144 24 63.04C23.104 63.8933 21.824 64.32 20.16 64.32ZM1.92003 17.536L0.832031 13.056C2.32536 12.8 3.4347 12.5867 4.16003 12.416C4.92803 12.2453 5.7387 12.0533 6.59203 11.84L5.95203 13.44C4.8427 13.056 3.77603 12.3093 2.75203 11.2C1.7707 10.048 1.28003 8.74666 1.28003 7.296C1.28003 5.76 1.62136 4.52266 2.30403 3.584C2.9867 2.64533 3.86136 1.96266 4.92803 1.536C5.9947 1.10933 7.10403 0.895996 8.25603 0.895996C8.89603 0.895996 9.49337 0.938663 10.048 1.024C10.6454 1.10933 11.1787 1.23733 11.648 1.408L11.136 6.016C10.7094 5.93066 10.2827 5.84533 9.85603 5.76C9.42937 5.67466 8.96003 5.632 8.44803 5.632C7.89336 5.632 7.38136 5.824 6.91203 6.208C6.48536 6.54933 6.27203 6.976 6.27203 7.488C6.27203 8.21333 6.52803 8.85333 7.04003 9.408C7.55203 9.96266 8.14937 10.4107 8.83203 10.752C9.55737 11.0507 10.1547 11.2213 10.624 11.264L7.10403 11.648C8.25603 11.3493 9.34403 11.0507 10.368 10.752C11.392 10.4107 12.352 10.0693 13.248 9.728L14.528 14.016C13.4614 14.4 12.2027 14.8267 10.752 15.296C9.34403 15.7227 7.87203 16.128 6.33603 16.512C4.8427 16.896 3.3707 17.2373 1.92003 17.536Z" fill="#222222"/>
<path d="M68.954 64.32C66.778 64.32 64.6874 64.128 62.682 63.744C60.6767 63.3173 58.8634 62.7627 57.242 62.08C55.6634 61.3973 54.362 60.6293 53.338 59.776L59.098 53.568C60.634 54.208 62.2127 54.6773 63.834 54.976C65.4554 55.232 67.3754 55.36 69.594 55.36C71.2154 55.36 72.3674 55.7867 73.05 56.64C73.7754 57.4507 74.138 58.4747 74.138 59.712C74.138 61.0347 73.69 62.144 72.794 63.04C71.898 63.8933 70.618 64.32 68.954 64.32ZM20.25 64.32L20.89 55.36H35.226C39.2367 55.36 42.5647 55.2107 45.21 54.912C47.898 54.6133 50.0314 54.1867 51.61 53.632C53.1887 53.0347 54.298 52.352 54.938 51.584C55.6207 50.816 55.962 49.984 55.962 49.088C55.962 48.2773 55.77 47.5093 55.386 46.784C55.002 46.016 54.426 45.3973 53.658 44.928C52.89 44.4587 51.8874 44.224 50.65 44.224C49.0714 44.224 47.4927 44.608 45.914 45.376C44.3354 46.1013 42.7994 47.104 41.306 48.384C39.8127 49.6213 38.3834 51.008 37.018 52.544C35.6954 54.08 34.4794 55.6373 33.37 57.216L23.706 55.872C25.498 53.0987 27.4394 50.4747 29.53 48C31.6634 45.4827 33.9034 43.2853 36.25 41.408C38.6394 39.488 41.0927 37.9947 43.61 36.928C46.17 35.8187 48.7727 35.264 51.418 35.264C54.234 35.264 56.6447 35.84 58.65 36.992C60.6554 38.144 62.1914 39.7227 63.258 41.728C64.3674 43.7333 64.922 46.0587 64.922 48.704C64.922 51.4773 64.1327 53.9733 62.554 56.192C61.018 58.4107 58.394 60.2453 54.682 61.696C53.1034 62.2933 51.3967 62.784 49.562 63.168C47.7274 63.552 45.5727 63.8293 43.098 64C40.6234 64.2133 37.658 64.32 34.202 64.32H20.25ZM26.906 57.792L25.562 17.152H34.522L35.674 47.872L26.906 57.792Z" fill="#222222"/>
<path d="M69 64.32L69.64 55.36C71.944 55.36 74.2267 55.232 76.488 54.976C78.7494 54.72 80.9467 54.336 83.08 53.824C85.2134 53.312 87.24 52.6507 89.16 51.84C91.1227 51.0293 92.9574 50.048 94.664 48.896C93.384 48.128 91.9974 47.4667 90.504 46.912C89.0107 46.3573 87.4107 45.952 85.704 45.696C84.04 45.3973 82.2694 45.248 80.392 45.248C79.7094 45.248 78.984 45.2693 78.216 45.312C77.4907 45.3547 76.744 45.44 75.976 45.568C75.208 45.6533 74.44 45.7813 73.672 45.952L72.392 37.184C73.6294 36.8427 74.9307 36.608 76.296 36.48C77.704 36.3093 78.9414 36.224 80.008 36.224C82.312 36.224 84.424 36.48 86.344 36.992C88.3067 37.504 90.0987 38.144 91.72 38.912C93.384 39.68 94.92 40.448 96.328 41.216C97.7787 41.984 99.144 42.624 100.424 43.136C101.747 43.648 103.027 43.904 104.264 43.904H106.632L107.656 52.416C105.821 52.5013 104.093 52.864 102.472 53.504C100.893 54.1013 99.3147 54.8693 97.736 55.808C96.2 56.704 94.536 57.6427 92.744 58.624C90.9947 59.6053 89.0107 60.5227 86.792 61.376C84.5734 62.2293 82.0134 62.9333 79.112 63.488C76.2107 64.0427 72.84 64.32 69 64.32ZM80.072 30.272C78.7494 30.272 77.6187 29.824 76.68 28.928C75.784 28.032 75.336 26.9227 75.336 25.6C75.336 24.2773 75.784 23.1467 76.68 22.208C77.6187 21.2693 78.7494 20.8 80.072 20.8C81.352 20.8 82.44 21.2693 83.336 22.208C84.2747 23.1467 84.744 24.2773 84.744 25.6C84.744 26.9227 84.2747 28.032 83.336 28.928C82.44 29.824 81.352 30.272 80.072 30.272Z" fill="#222222"/>
</svg>
