<svg width="508" height="122" viewBox="0 0 508 122" fill="none" xmlns="http://www.w3.org/2000/svg">
<path d="M78.1281 61.8961V113.608H93.3601V61.8961H78.1281ZM52.5281 56.3921V69.5761H119.216V56.3921H52.5281ZM47.6641 104.392V117.704H122.032V104.392H47.6641ZM55.6001 80.2001V93.1281H116.016V80.2001H55.6001ZM70.8321 17.9921H100.784V35.6561H70.8321V17.9921ZM56.6241 5.06413V48.5841H115.76V5.06413H56.6241ZM21.5521 12.2321V120.392H36.5281V12.2321H21.5521ZM3.12013 36.2961V50.6321H50.0961V36.2961H3.12013ZM22.4481 42.0561C18.3521 56.2641 9.39213 74.8241 0.432129 85.0641C2.86413 88.9041 6.19213 95.3041 7.60013 99.7841C17.4561 87.1121 26.5441 64.3281 31.4081 46.0241L22.4481 42.0561ZM41.5201 1.60812C31.6641 6.08813 15.7921 9.80013 1.58413 12.2321C3.37613 15.4321 5.29613 20.5521 5.93613 23.8801C20.9121 21.9601 38.7041 18.5041 51.7601 13.5121L41.5201 1.60812ZM36.1441 54.0881L29.4881 60.1041C33.4561 65.4801 41.1361 77.1281 44.2081 83.2721L52.9121 71.2401C50.4801 68.2961 39.3441 56.7761 36.1441 54.0881Z" fill="#222222"/>
<path d="M164.144 33.7361V45.8961H226.352V33.7361H164.144ZM158.256 66.5041V79.4321H237.36V66.5041H158.256ZM193.2 71.8801V104.648C193.2 106.312 192.432 106.696 190 106.824C187.696 106.952 178.352 106.824 170.672 106.568C172.72 110.536 175.024 116.424 175.664 120.648C186.8 120.648 195.12 120.776 200.88 118.6C206.896 116.552 208.688 112.712 208.688 104.904V71.8801H193.2ZM232.624 66.5041V68.6801C228.528 77.3841 221.872 87.7521 216.368 94.5361L228.784 100.296C235.184 92.6161 242.736 80.9681 248.752 70.3441L237.616 65.7361L235.184 66.5041H232.624ZM221.616 33.7361V36.8081C216.88 43.0801 206.128 52.4241 196.272 57.5441C198.576 59.5921 202.544 63.8161 204.336 66.5041C217.136 60.2321 229.936 50.1201 238.896 40.7761L229.04 32.9681L225.712 33.7361H221.616ZM186.032 0.328125V22.8561H202.032V0.328125H186.032ZM147.376 13.5121V27.7201H248.496V13.5121H147.376ZM140.08 13.5121V48.4561C140.08 67.2721 139.312 94.1521 128.56 112.456C132.144 114.12 138.928 118.472 141.488 121.032C153.136 101.064 155.056 69.3201 155.056 48.4561V13.5121H140.08ZM173.232 56.7761C185.52 62.0241 202.288 70.3441 210.48 75.7201L220.336 65.8641C211.504 60.4881 194.48 52.6801 182.576 47.9441L173.232 56.7761Z" fill="#222222"/>
<path d="M274.864 0.584122C271.024 11.8481 264.24 22.7281 256.432 29.8961C258.736 33.2241 262.32 41.0321 263.344 44.2321C273.456 34.6321 282.544 19.4001 287.92 4.55212L274.864 0.584122ZM274.224 14.1521L271.408 28.7441H305.584V14.1521H274.224ZM276.656 120.008C279.088 117.576 283.44 115.144 306.352 103.24C305.456 100.168 304.304 94.0241 304.048 89.9281L278.704 102.088L274.352 106.824L276.656 120.008ZM267.312 36.6801V50.3761H303.92V36.6801H267.312ZM260.912 62.9201V76.6161H306.352V62.9201H260.912ZM276.656 120.008C276.656 115.016 290.608 106.952 290.608 106.952V40.1361H276.656V96.2001C276.656 101.96 272.816 105.672 270.128 107.336C272.432 110.28 275.632 116.552 276.656 120.008ZM309.68 15.1761V28.4881H374.448V15.1761H309.68ZM306.992 40.6481V54.3441H377.52V40.6481H306.992ZM322.864 82.7601V94.7921H361.904V82.7601H322.864ZM322.864 103.496V115.656H361.008V103.496H322.864ZM314.8 61.6401V120.392H328.624V74.1841H355.888V119.752H370.224V61.6401H314.8ZM321.328 0.328125V49.9921H335.024V0.328125H321.328ZM347.568 0.328125V49.9921H361.52V0.328125H347.568Z" fill="#222222"/>
<path d="M448.688 19.1441H483.248V30.6641H448.688V19.1441ZM434.48 5.96012V43.8481H498.352V5.96012H434.48ZM431.664 51.6561V65.0961H501.168V51.6561H431.664ZM428.208 74.5681V88.0081H505.904V74.5681H428.208ZM474.16 82.7601L461.104 85.9601C467.888 102.984 479.408 115.016 497.712 120.648C499.632 116.552 504.112 110.536 507.568 107.592C491.184 103.88 479.792 95.0481 474.16 82.7601ZM458.928 61.0001C457.52 85.0641 454.704 100.168 425.136 108.232C428.208 111.176 432.048 117.064 433.456 120.776C466.864 110.152 471.728 90.4401 473.52 61.0001H458.928ZM393.008 11.7201C399.92 17.9921 409.008 26.8241 413.104 32.5841L423.856 21.5761C419.632 16.0721 410.032 7.75213 403.248 2.12012L393.008 11.7201ZM386.224 39.2401V53.9601H409.52V39.2401H386.224ZM404.272 118.984C406.448 116.296 410.288 113.224 431.024 98.7601C429.744 95.6881 428.08 89.8001 427.312 85.7041L404.912 100.424L401.328 105.288L404.272 118.984ZM404.272 118.984C404.272 113.48 417.328 104.392 417.328 104.392V39.2401H402.352V93.1281C402.352 98.7601 399.024 103.24 396.336 105.16C398.896 108.232 402.992 115.144 404.272 118.984Z" fill="#222222"/>
</svg>
