<svg width="132" height="71" viewBox="0 0 132 71" fill="none" xmlns="http://www.w3.org/2000/svg">
<path d="M8.16 28.4881V69.0001H21.792V28.4881H31.2V19.3681H21.792V16.3921C21.792 14.3441 22.176 12.9041 22.944 12.0721C23.776 11.1761 25.12 10.7281 26.976 10.7281C28.704 10.7281 30.368 10.8241 31.968 11.0161V0.840055C30.816 0.776056 29.632 0.712057 28.416 0.648058C27.2 0.520056 25.984 0.456055 24.768 0.456055C19.2 0.456055 15.04 1.86406 12.288 4.68006C9.536 7.49606 8.16 11.1121 8.16 15.5281V19.3681H0V28.4881H8.16Z" fill="#222222"/>
<path d="M70.5608 38.8561H48.3848C48.4488 37.8961 48.6408 36.8081 48.9608 35.5921C49.3448 34.3761 49.9528 33.2241 50.7848 32.1361C51.6808 31.0481 52.8327 30.1521 54.2407 29.4481C55.7128 28.6801 57.5368 28.2961 59.7127 28.2961C63.0408 28.2961 65.5048 29.1921 67.1048 30.9841C68.7688 32.7761 69.9208 35.4001 70.5608 38.8561ZM48.3848 47.4961H84.1927C84.4487 43.6561 84.1288 39.9761 83.2328 36.4561C82.3368 32.9361 80.8648 29.8001 78.8168 27.0481C76.8328 24.2961 74.2727 22.1201 71.1367 20.5201C68.0007 18.8561 64.3208 18.0241 60.0968 18.0241C56.3208 18.0241 52.8648 18.6961 49.7288 20.0401C46.6568 21.3841 44.0008 23.2401 41.7607 25.6081C39.5207 27.9121 37.7928 30.6641 36.5768 33.8641C35.3608 37.0641 34.7528 40.5201 34.7528 44.2321C34.7528 48.0721 35.3288 51.5921 36.4808 54.7921C37.6968 57.9921 39.3927 60.7441 41.5687 63.0481C43.7447 65.3521 46.4008 67.1441 49.5368 68.4241C52.6728 69.6401 56.1928 70.2481 60.0968 70.2481C65.7288 70.2481 70.5287 68.9681 74.4967 66.4081C78.4647 63.8481 81.4087 59.5921 83.3288 53.6401H71.3288C70.8808 55.1761 69.6647 56.6481 67.6807 58.0561C65.6967 59.4001 63.3288 60.0721 60.5768 60.0721C56.7368 60.0721 53.7928 59.0801 51.7448 57.0961C49.6968 55.1121 48.5768 51.9121 48.3848 47.4961Z" fill="#222222"/>
<path d="M106.294 11.6881V0.456055H92.6618V11.6881H106.294ZM92.6618 19.3681V69.0001H106.294V19.3681H92.6618Z" fill="#222222"/>
<path d="M117.412 0.456055V69.0001H131.044V0.456055H117.412Z" fill="#222222"/>
</svg>
