<svg width="307" height="56" viewBox="0 0 307 56" fill="none" xmlns="http://www.w3.org/2000/svg">
<path d="M16.8799 55.8321C12.1012 55.8321 8.49588 54.7654 6.06388 52.6321C3.63188 50.4987 2.41588 47.3841 2.41588 43.2881V40.7281C2.41588 38.9787 2.65055 37.5494 3.11988 36.4401C3.58922 35.2881 4.16522 34.2427 4.84788 33.3041C5.53055 32.3654 6.08522 31.5334 6.51188 30.8081C6.98122 30.0401 7.21588 29.2507 7.21588 28.4401C7.21588 27.6721 7.02388 27.1387 6.63988 26.8401C6.29855 26.4987 5.82922 26.3281 5.23188 26.3281C4.80522 26.3281 4.35722 26.3921 3.88788 26.5201C3.46122 26.6481 2.97055 26.8401 2.41588 27.0961L0.879883 21.0801C2.07455 20.4401 3.35455 20.0134 4.71988 19.8001C6.12788 19.5441 7.36522 19.4161 8.43188 19.4161C10.3092 19.4161 11.8026 19.7147 12.9119 20.3121C14.0639 20.9094 14.8959 21.7627 15.4079 22.8721C15.9199 23.9814 16.1759 25.3041 16.1759 26.8401C16.1759 28.1627 15.9839 29.3361 15.5999 30.3601C15.2159 31.3414 14.7252 32.3654 14.1279 33.4321C13.5732 34.4134 13.0612 35.3307 12.5919 36.1841C12.1652 37.0374 11.9519 38.2747 11.9519 39.8961V42.4561C11.9519 43.8214 12.1439 44.9521 12.5279 45.8481C12.9546 46.7014 13.5306 47.3414 14.2559 47.7681C15.0239 48.1521 15.9199 48.3441 16.9439 48.3441C18.6079 48.3441 19.8452 47.8747 20.6559 46.9361C21.4666 45.9547 21.8719 44.5681 21.8719 42.7761V19.9281H31.4079V43.0321C31.4079 47.2561 30.1706 50.4561 27.6959 52.6321C25.2212 54.7654 21.6159 55.8321 16.8799 55.8321Z" fill="#222222"/>
<path d="M12.0534 15.1281V11.9281C12.6507 11.7574 13.312 11.5227 14.0374 11.2241C14.7627 10.9254 15.4027 10.5201 15.9574 10.0081C16.512 9.49606 16.7894 8.85606 16.7894 8.08806C16.7894 7.49073 16.6187 7.0214 16.2774 6.68006C15.936 6.33873 15.5094 6.16806 14.9974 6.16806C14.656 6.16806 14.2934 6.23206 13.9094 6.36006C13.5254 6.48806 13.184 6.61606 12.8854 6.74406L11.6694 2.45606C12.5227 1.73073 13.5894 1.26139 14.8694 1.04806C16.1067 0.792062 17.152 0.664062 18.0054 0.664062C19.9254 0.664062 21.44 1.11206 22.5494 2.00806C23.616 2.90406 24.1494 4.22673 24.1494 5.97606C24.1494 6.91473 23.9147 7.7894 23.4454 8.60006C22.9334 9.41073 22.1654 10.0721 21.1414 10.5841L20.8854 8.92006H32.9814V15.1281H12.0534Z" fill="#222222"/>
<path d="M54.3069 55.8321C49.1016 55.8321 45.2402 54.5734 42.7229 52.0561C40.2056 49.4961 38.9469 45.7201 38.9469 40.7281C38.9469 39.8747 38.9682 38.8507 39.0109 37.6561C39.0962 36.4187 39.2029 35.3307 39.3309 34.3921H54.6909V40.4721H48.3549V41.3681C48.3549 43.0747 48.5682 44.4827 48.9949 45.5921C49.4216 46.6587 50.0615 47.4481 50.9149 47.9601C51.8109 48.4721 52.9202 48.7281 54.2429 48.7281C55.6935 48.7281 56.9096 48.4081 57.8909 47.7681C58.9149 47.1281 59.6829 46.0401 60.1949 44.5041C60.7496 42.9681 61.0269 40.8561 61.0269 38.1681C61.0269 35.6507 60.7282 33.5601 60.1309 31.8961C59.5762 30.1894 58.6162 28.9094 57.2509 28.0561C55.9282 27.2027 54.0935 26.7761 51.7469 26.7761C50.4669 26.7761 49.1442 26.9254 47.7789 27.2241C46.4136 27.4801 45.1122 27.8214 43.8749 28.2481C42.6802 28.6747 41.6349 29.1441 40.7389 29.6561V21.6561C41.6776 21.1441 42.8296 20.6961 44.1949 20.3121C45.6029 19.9281 47.1176 19.6294 48.7389 19.4161C50.3602 19.2027 51.9602 19.0961 53.5389 19.0961C57.6775 19.0961 61.0056 19.8641 63.5229 21.4001C66.0829 22.8934 67.9389 25.0267 69.0909 27.8001C70.2856 30.5734 70.8829 33.8587 70.8829 37.6561C70.8829 41.5387 70.3069 44.8454 69.1549 47.5761C68.0455 50.2641 66.2749 52.3121 63.8429 53.7201C61.4109 55.1281 58.2322 55.8321 54.3069 55.8321Z" fill="#222222"/>
<path d="M78.6124 55.0001V27.7361C78.6124 25.5601 78.9751 23.8534 79.7004 22.6161C80.4684 21.3787 81.5137 20.5254 82.8364 20.0561C84.159 19.5441 85.6737 19.2881 87.3804 19.2881C88.5751 19.2881 89.6417 19.4161 90.5804 19.6721C91.519 19.8854 92.2871 20.1414 92.8844 20.4401L91.6044 26.7121C91.2631 26.6267 90.9217 26.5627 90.5804 26.5201C90.239 26.4774 89.9617 26.4561 89.7484 26.4561C88.9377 26.4561 88.3617 26.6694 88.0204 27.0961C87.7217 27.5227 87.5724 28.1414 87.5724 28.9521V34.9041C87.5724 35.9707 87.5297 37.2507 87.4444 38.7441C87.359 40.1947 87.2097 42.0294 86.9964 44.2481H87.3164C88.1697 42.2427 88.9164 40.6427 89.5564 39.4481C90.239 38.2107 90.8364 37.1227 91.3484 36.1841L93.7164 31.8961H97.3004L99.6684 36.1841C100.266 37.2081 100.778 38.1467 101.204 39.0001C101.631 39.8107 102.036 40.6214 102.42 41.4321C102.804 42.2427 103.231 43.1814 103.7 44.2481H104.02C103.807 42.0294 103.658 40.1947 103.572 38.7441C103.487 37.2507 103.444 35.9707 103.444 34.9041V19.9281H112.404V55.0001H103.252L95.6364 41.0481H95.3804L87.7644 55.0001H78.6124Z" fill="#222222"/>
<path d="M83.1319 15.0641V11.0321L89.5959 8.34406H112.444V15.0641H83.1319Z" fill="#222222"/>
<path d="M134.525 55.6401C131.069 55.6401 128.317 54.8934 126.269 53.4001C124.221 51.8641 122.749 49.7734 121.853 47.1281C120.957 44.4401 120.509 41.3681 120.509 37.9121C120.509 34.2001 120.915 31.1281 121.725 28.6961C122.579 26.2214 123.773 24.3014 125.309 22.9361C126.845 21.5281 128.659 20.5467 130.749 19.9921C132.883 19.3947 135.208 19.0961 137.725 19.0961C141.565 19.0961 144.637 19.6294 146.941 20.6961C149.245 21.7627 150.909 23.2774 151.933 25.2401C153 27.2027 153.533 29.5067 153.533 32.1521V55.0001H143.933V32.9201C143.933 30.9147 143.443 29.4001 142.461 28.3761C141.523 27.3094 139.944 26.7761 137.725 26.7761C136.232 26.7761 134.909 27.0961 133.757 27.7361C132.648 28.3334 131.773 29.4214 131.133 31.0001C130.536 32.5787 130.237 34.8401 130.237 37.7841C130.237 39.7894 130.429 41.5601 130.813 43.0961C131.197 44.6321 131.816 45.8267 132.669 46.6801C133.565 47.5334 134.76 47.9601 136.253 47.9601C136.723 47.9601 137.171 47.9387 137.597 47.8961C138.067 47.8107 138.472 47.7254 138.813 47.6401L139.709 54.8081C139.027 55.1067 138.195 55.3201 137.213 55.4481C136.275 55.5761 135.379 55.6401 134.525 55.6401Z" fill="#222222"/>
<path d="M166.064 55.0001L159.984 19.9281H169.328L171.056 32.2801C171.184 33.3041 171.333 34.7121 171.504 36.5041C171.717 38.2534 171.909 40.3014 172.08 42.6481H172.272C172.656 41.0694 172.997 39.6401 173.296 38.3601C173.595 37.0374 173.872 35.8641 174.128 34.8401C174.427 33.7734 174.683 32.8561 174.896 32.0881L178.352 19.9281H184.176L187.632 32.0881C187.845 32.8561 188.08 33.7734 188.336 34.8401C188.635 35.8641 188.933 37.0374 189.232 38.3601C189.573 39.6401 189.915 41.0694 190.256 42.6481H190.448C190.661 40.3014 190.832 38.2534 190.96 36.5041C191.131 34.7121 191.301 33.3041 191.472 32.2801L193.264 19.9281H202.544L196.528 55.0001H187.12L183.088 40.7281C182.661 39.0641 182.32 37.5494 182.064 36.1841C181.851 34.7761 181.637 33.3467 181.424 31.8961H181.168C180.997 32.8774 180.827 33.8161 180.656 34.7121C180.528 35.6081 180.357 36.5467 180.144 37.5281C179.931 38.4667 179.653 39.5334 179.312 40.7281L175.216 55.0001H166.064Z" fill="#222222"/>
<path d="M228.948 55.0001V32.2161C228.948 30.1681 228.393 28.6961 227.284 27.8001C226.175 26.9041 224.468 26.4561 222.164 26.4561C219.945 26.4561 217.769 26.7974 215.636 27.4801C213.545 28.1201 211.732 28.8881 210.196 29.7841V21.8481C211.433 21.2507 213.183 20.6534 215.444 20.0561C217.705 19.4161 220.329 19.0961 223.316 19.0961C225.492 19.0961 227.476 19.3307 229.268 19.8001C231.103 20.2267 232.703 20.9734 234.068 22.0401C235.433 23.0641 236.479 24.4507 237.204 26.2001C237.972 27.9067 238.356 30.0401 238.356 32.6001V55.0001H228.948ZM218.452 55.6401C214.783 55.6401 211.945 54.7654 209.94 53.0161C207.977 51.2667 206.996 48.8134 206.996 45.6561C206.996 42.2427 208.212 39.5121 210.644 37.4641C213.119 35.4161 217.001 34.1787 222.292 33.7521L230.484 33.1121V40.0241L223.38 40.7281C220.82 40.9841 219.028 41.4961 218.004 42.2641C217.023 43.0321 216.532 44.0561 216.532 45.3361C216.532 46.6161 216.937 47.5761 217.748 48.2161C218.601 48.8561 219.689 49.1761 221.012 49.1761C221.524 49.1761 222.036 49.1334 222.548 49.0481C223.06 48.9201 223.529 48.7921 223.956 48.6641L224.788 54.6801C223.977 54.9787 223.017 55.2134 221.908 55.3841C220.799 55.5547 219.647 55.6401 218.452 55.6401Z" fill="#222222"/>
<path d="M256.572 55.0001V31.8321C256.572 30.0401 256.146 28.7387 255.292 27.9281C254.482 27.1174 253.138 26.7121 251.26 26.7121C249.852 26.7121 248.551 26.9041 247.356 27.2881C246.204 27.6721 245.116 28.1414 244.092 28.6961V21.0161C245.031 20.5894 246.354 20.1627 248.06 19.7361C249.767 19.3094 251.772 19.0961 254.076 19.0961C256.423 19.0961 258.492 19.4374 260.284 20.1201C262.119 20.8027 263.548 21.9547 264.572 23.5761C265.639 25.1547 266.172 27.3307 266.172 30.1041V55.0001H256.572Z" fill="#222222"/>
<path d="M287.713 55.6401C284.257 55.6401 281.505 54.8934 279.457 53.4001C277.409 51.8641 275.937 49.7734 275.041 47.1281C274.145 44.4401 273.697 41.3681 273.697 37.9121C273.697 34.2001 274.102 31.1281 274.913 28.6961C275.766 26.2214 276.961 24.3014 278.497 22.9361C280.033 21.5281 281.846 20.5467 283.937 19.9921C286.07 19.3947 288.396 19.0961 290.913 19.0961C294.753 19.0961 297.825 19.6294 300.129 20.6961C302.433 21.7627 304.097 23.2774 305.121 25.2401C306.188 27.2027 306.721 29.5067 306.721 32.1521V55.0001H297.121V32.9201C297.121 30.9147 296.63 29.4001 295.649 28.3761C294.71 27.3094 293.132 26.7761 290.913 26.7761C289.42 26.7761 288.097 27.0961 286.945 27.7361C285.836 28.3334 284.961 29.4214 284.321 31.0001C283.724 32.5787 283.425 34.8401 283.425 37.7841C283.425 39.7894 283.617 41.5601 284.001 43.0961C284.385 44.6321 285.004 45.8267 285.857 46.6801C286.753 47.5334 287.948 47.9601 289.441 47.9601C289.91 47.9601 290.358 47.9387 290.785 47.8961C291.254 47.8107 291.66 47.7254 292.001 47.6401L292.897 54.8081C292.214 55.1067 291.382 55.3201 290.401 55.4481C289.462 55.5761 288.566 55.6401 287.713 55.6401Z" fill="#222222"/>
</svg>
