<svg width="273" height="80" viewBox="0 0 273 80" fill="none" xmlns="http://www.w3.org/2000/svg">
<path d="M6.248 6.99216V20.2402C8.744 19.9522 12.776 19.7602 15.368 19.7602H67.688C70.472 19.7602 73.832 19.9522 76.616 20.2402V6.99216C73.928 7.37617 70.568 7.66416 67.688 7.66416H15.368C12.776 7.66416 8.744 7.37617 6.248 6.99216ZM33.992 66.1282H47.336V14.3842H33.992V66.1282ZM0.104004 58.2562V72.0802C3.272 71.7922 6.728 71.6962 9.512 71.6962H72.872C75.08 71.6962 79.112 71.7922 81.8 72.0802V58.2562C79.304 58.5442 76.232 59.0242 72.872 59.0242H9.512C6.632 59.0242 3.176 58.7362 0.104004 58.2562Z" fill="#222222"/>
<path d="M110.408 0.368164V12.8482C113.192 12.5602 117.224 12.4642 120.392 12.4642C126.056 12.4642 151.784 12.4642 157.064 12.4642C160.616 12.4642 165.128 12.6562 167.624 12.8482V0.368164C165.032 0.752165 160.328 0.944162 157.256 0.944162C151.688 0.944162 126.44 0.944162 120.392 0.944162C117.128 0.944162 113 0.752165 110.408 0.368164ZM175.784 28.3042L167.24 22.9282C165.896 23.6002 163.304 23.9842 160.136 23.9842C153.608 23.9842 119.24 23.9842 112.712 23.9842C109.64 23.9842 105.608 23.6962 101.48 23.3122V35.7922C105.512 35.5042 110.312 35.4082 112.712 35.4082C121.256 35.4082 154.184 35.4082 158.984 35.4082C157.352 40.6882 154.28 46.7362 149.192 51.9202C141.8 59.5042 130.376 65.7442 115.88 68.8162L125.48 79.6642C137.768 76.1122 150.056 69.6802 159.752 58.8322C166.856 50.9602 170.984 41.5522 173.96 32.2402C174.248 31.2802 175.112 29.5522 175.784 28.3042Z" fill="#222222"/>
<path d="M193.736 29.5522V44.7202C197.384 44.4322 203.816 44.1442 209.192 44.1442C220.52 44.1442 252.104 44.1442 260.84 44.1442C264.872 44.1442 269.768 44.6242 272.072 44.7202V29.5522C269.48 29.7442 265.256 30.2242 260.744 30.2242C252.2 30.2242 220.52 30.2242 209.192 30.2242C204.2 30.2242 197.288 29.8402 193.736 29.5522Z" fill="#222222"/>
</svg>
