<svg width="591" height="140" viewBox="0 0 591 140" fill="none" xmlns="http://www.w3.org/2000/svg">
<path d="M95.9121 55.616H36.7761C36.9467 53.056 37.4587 50.1546 38.3121 46.912C39.3361 43.6693 40.9574 40.5973 43.1761 37.696C45.5654 34.7946 48.6374 32.4053 52.3921 30.528C56.3174 28.48 61.1814 27.456 66.9841 27.456C75.8587 27.456 82.4294 29.8453 86.6961 34.624C91.1334 39.4026 94.2054 46.4 95.9121 55.616ZM36.7761 78.656H132.264C132.947 68.416 132.093 58.6026 129.704 49.216C127.315 39.8293 123.389 31.4666 117.928 24.128C112.637 16.7893 105.811 10.9866 97.4481 6.71997C89.0854 2.28263 79.2721 0.0639648 68.0081 0.0639648C57.9387 0.0639648 48.7227 1.85596 40.3601 5.43996C32.1681 9.02396 25.0854 13.9733 19.1121 20.288C13.1387 26.432 8.53074 33.7706 5.28807 42.304C2.04541 50.8373 0.424072 60.0533 0.424072 69.952C0.424072 80.192 1.96007 89.5786 5.03207 98.112C8.27474 106.645 12.7974 113.984 18.6001 120.128C24.4027 126.272 31.4854 131.051 39.8481 134.464C48.2107 137.707 57.5974 139.328 68.0081 139.328C83.0267 139.328 95.8267 135.915 106.408 129.088C116.989 122.261 124.84 110.912 129.96 95.04H97.9601C96.7654 99.136 93.5227 103.061 88.2321 106.816C82.9414 110.4 76.6267 112.192 69.2881 112.192C59.0481 112.192 51.1974 109.547 45.7361 104.256C40.2747 98.9653 37.2881 90.432 36.7761 78.656Z" fill="#222222"/>
<path d="M153.824 3.64796V136H190.176V76.352C190.176 70.3786 190.773 64.832 191.968 59.712C193.163 54.592 195.125 50.1546 197.856 46.4C200.757 42.4746 204.512 39.4026 209.12 37.184C213.728 34.9653 219.36 33.856 226.016 33.856C228.235 33.856 230.539 34.0266 232.928 34.368C235.317 34.5386 237.365 34.7946 239.072 35.136V1.34396C236.171 0.490631 233.525 0.0639648 231.136 0.0639648C226.528 0.0639648 222.091 0.746633 217.824 2.11197C213.557 3.47729 209.547 5.43996 205.792 7.99997C202.037 10.3893 198.709 13.376 195.808 16.96C192.907 20.3733 190.603 24.128 188.896 28.224H188.384V3.64796H153.824Z" fill="#222222"/>
<path d="M253.324 3.64796V136H289.676V76.352C289.676 70.3786 290.273 64.832 291.468 59.712C292.663 54.592 294.625 50.1546 297.356 46.4C300.257 42.4746 304.012 39.4026 308.62 37.184C313.228 34.9653 318.86 33.856 325.516 33.856C327.735 33.856 330.039 34.0266 332.428 34.368C334.817 34.5386 336.865 34.7946 338.572 35.136V1.34396C335.671 0.490631 333.025 0.0639648 330.636 0.0639648C326.028 0.0639648 321.591 0.746633 317.324 2.11197C313.057 3.47729 309.047 5.43996 305.292 7.99997C301.537 10.3893 298.209 13.376 295.308 16.96C292.407 20.3733 290.103 24.128 288.396 28.224H287.884V3.64796H253.324Z" fill="#222222"/>
<path d="M380.58 69.952C380.58 64.6613 381.092 59.456 382.116 54.336C383.14 49.216 384.847 44.6933 387.236 40.768C389.796 36.8426 393.124 33.6853 397.22 31.296C401.316 28.736 406.436 27.456 412.58 27.456C418.724 27.456 423.844 28.736 427.94 31.296C432.207 33.6853 435.535 36.8426 437.924 40.768C440.484 44.6933 442.276 49.216 443.3 54.336C444.324 59.456 444.836 64.6613 444.836 69.952C444.836 75.2426 444.324 80.448 443.3 85.568C442.276 90.5173 440.484 95.04 437.924 99.136C435.535 103.061 432.207 106.219 427.94 108.608C423.844 110.997 418.724 112.192 412.58 112.192C406.436 112.192 401.316 110.997 397.22 108.608C393.124 106.219 389.796 103.061 387.236 99.136C384.847 95.04 383.14 90.5173 382.116 85.568C381.092 80.448 380.58 75.2426 380.58 69.952ZM344.228 69.952C344.228 80.5333 345.849 90.0906 349.092 98.624C352.335 107.157 356.943 114.496 362.916 120.64C368.889 126.613 376.057 131.221 384.42 134.464C392.783 137.707 402.169 139.328 412.58 139.328C422.991 139.328 432.377 137.707 440.74 134.464C449.273 131.221 456.527 126.613 462.5 120.64C468.473 114.496 473.081 107.157 476.324 98.624C479.567 90.0906 481.188 80.5333 481.188 69.952C481.188 59.3706 479.567 49.8133 476.324 41.28C473.081 32.576 468.473 25.2373 462.5 19.264C456.527 13.12 449.273 8.42663 440.74 5.18396C432.377 1.77063 422.991 0.0639648 412.58 0.0639648C402.169 0.0639648 392.783 1.77063 384.42 5.18396C376.057 8.42663 368.889 13.12 362.916 19.264C356.943 25.2373 352.335 32.576 349.092 41.28C345.849 49.8133 344.228 59.3706 344.228 69.952Z" fill="#222222"/>
<path d="M504.824 3.64796V136H541.176V76.352C541.176 70.3786 541.773 64.832 542.968 59.712C544.163 54.592 546.125 50.1546 548.856 46.4C551.757 42.4746 555.512 39.4026 560.12 37.184C564.728 34.9653 570.36 33.856 577.016 33.856C579.235 33.856 581.539 34.0266 583.928 34.368C586.317 34.5386 588.365 34.7946 590.072 35.136V1.34396C587.171 0.490631 584.525 0.0639648 582.136 0.0639648C577.528 0.0639648 573.091 0.746633 568.824 2.11197C564.557 3.47729 560.547 5.43996 556.792 7.99997C553.037 10.3893 549.709 13.376 546.808 16.96C543.907 20.3733 541.603 24.128 539.896 28.224H539.384V3.64796H504.824Z" fill="#222222"/>
</svg>
