<svg width="512" height="305" viewBox="0 0 512 305" fill="none" xmlns="http://www.w3.org/2000/svg">
<path d="M2 292.116C6.83333 238.021 142.39 130.237 257 144.871C447.5 169.195 406.5 27.5207 511.5 1.52539" stroke="#222222" stroke-width="3"/>
<path d="M2.5 298.615C7.33333 244.52 142.39 145.091 257 159.725C447.5 184.05 421.5 31.9769 511.5 1.71094" stroke="#222222" stroke-width="3"/>
<path d="M3 304C7.83333 249.905 142.39 159.946 257 174.58C447.5 198.904 436.5 39.0328 511 1.71094" stroke="#222222" stroke-width="3"/>
<path d="M339.512 94C339.512 115.281 322.479 132.5 301.506 132.5C280.533 132.5 263.5 115.281 263.5 94C263.5 72.7194 280.533 55.5 301.506 55.5C322.479 55.5 339.512 72.7194 339.512 94Z" stroke="#222222" stroke-width="3"/>
<path d="M256.524 47.5C256.524 58.0277 248.202 66.5 238.012 66.5C227.822 66.5 219.5 58.0277 219.5 47.5C219.5 36.9723 227.822 28.5 238.012 28.5C248.202 28.5 256.524 36.9723 256.524 47.5Z" stroke="#222222" stroke-width="3"/>
<path fill-rule="evenodd" clip-rule="evenodd" d="M342.997 15.0011C342.996 15.0012 342.995 15.0012 342.995 15.0012C342.992 15.0015 342.989 15.0017 342.986 15.002C342.977 15.0024 342.969 15.0031 342.961 15.0042C342.888 15.0143 342.82 15.0524 342.768 15.1124C342.716 15.1724 342.684 15.2507 342.676 15.3345C341.232 23.8043 337.115 29.1519 329.297 30.6307C329.228 30.6375 329.163 30.6692 329.111 30.7212C329.059 30.7731 329.023 30.8426 329.008 30.9197C329.008 30.9209 329.007 30.9221 329.007 30.9234C329.005 30.934 329.004 30.9446 329.002 30.9554C329.002 30.9582 329.002 30.9611 329.002 30.9639C329.001 30.9725 329 30.981 329 30.9896C329 30.9953 329 31.001 329 31.0067C329 31.0128 329 31.0189 329.001 31.0249C329.001 31.0335 329.002 31.0421 329.003 31.0506C329.003 31.0535 329.003 31.0563 329.004 31.0591C329.005 31.0707 329.007 31.0821 329.01 31.0934C329.027 31.1688 329.064 31.2363 329.116 31.2865C329.168 31.3366 329.232 31.3669 329.3 31.3731C337.115 32.8524 341.231 38.198 342.675 46.6641C342.682 46.7503 342.715 46.8309 342.769 46.8922C342.822 46.9535 342.892 46.9915 342.968 46.9998C342.969 46.9998 342.97 46.9998 342.97 46.9998H342.971C342.977 47.0001 342.984 47.0001 342.99 46.9998C342.995 47 343 47 343.005 46.9998C343.008 46.9999 343.01 46.9999 343.012 46.9998C343.091 46.9966 343.165 46.9612 343.223 46.9001C343.28 46.8391 343.316 46.7564 343.324 46.6674C344.771 38.1977 348.884 32.8503 356.702 31.3712C356.771 31.3646 356.836 31.3329 356.888 31.2809C356.941 31.229 356.977 31.1593 356.992 31.0821C356.992 31.0809 356.993 31.0796 356.993 31.0784C356.995 31.0678 356.996 31.0571 356.998 31.0464C356.998 31.0435 356.998 31.0407 356.998 31.0378C356.999 31.0293 357 31.0207 357 31.0122C357 31.0065 357 31.0008 357 30.9951C357 30.989 357 30.9829 357 30.9768C356.999 30.9683 356.998 30.9597 356.997 30.9512C356.997 30.9483 356.997 30.9455 356.996 30.9426C356.995 30.9311 356.993 30.9197 356.99 30.9084C356.973 30.8331 356.937 30.7657 356.885 30.7155C356.833 30.6654 356.769 30.635 356.701 30.6287C348.885 29.1495 344.772 23.804 343.325 15.3374C343.318 15.2513 343.285 15.1707 343.231 15.1095C343.178 15.0483 343.108 15.0102 343.032 15.0019C343.031 15.0017 343.03 15.0016 343.029 15.0015H343.029C343.022 15.001 343.016 15.0008 343.01 15.0007C343.006 15.0004 343.001 15.0001 342.997 15L342.997 15.0011Z" fill="#222222"/>
<path fill-rule="evenodd" clip-rule="evenodd" d="M363.998 36.0006C363.998 36.0007 363.997 36.0007 363.997 36.0007C363.995 36.0008 363.994 36.001 363.992 36.0011C363.987 36.0013 363.982 36.0018 363.978 36.0024C363.936 36.008 363.897 36.0295 363.867 36.0632C363.838 36.097 363.819 36.141 363.815 36.1881C362.99 40.9524 360.637 43.9604 356.17 44.7923C356.13 44.7961 356.093 44.814 356.064 44.8432C356.034 44.8724 356.013 44.9115 356.004 44.9548C356.004 44.9555 356.004 44.9562 356.004 44.9569C356.003 44.9628 356.002 44.9689 356.001 44.9749C356.001 44.9765 356.001 44.9781 356.001 44.9797C356.001 44.9845 356 44.9893 356 44.9942C356 44.9974 356 45.0006 356 45.0038C356 45.0072 356 45.0106 356 45.014C356.001 45.0189 356.001 45.0237 356.002 45.0285C356.002 45.0301 356.002 45.0317 356.002 45.0333C356.003 45.0397 356.004 45.0462 356.006 45.0525C356.015 45.0949 356.036 45.1329 356.066 45.1611C356.096 45.1894 356.133 45.2064 356.171 45.2099C360.637 46.042 362.989 49.0489 363.814 53.8111C363.818 53.8595 363.837 53.9049 363.868 53.9394C363.898 53.9738 363.939 53.9952 363.982 53.9999C363.982 53.9999 363.983 53.9999 363.983 53.9999H363.983C363.987 54 363.991 54 363.994 53.9999C363.997 54 364 54 364.003 53.9999C364.004 53.9999 364.006 53.9999 364.007 53.9999C364.052 53.9981 364.094 53.9782 364.127 53.9438C364.16 53.9095 364.181 53.863 364.185 53.8129C365.012 49.0487 367.362 46.0408 371.83 45.2088C371.869 45.2051 371.906 45.1873 371.936 45.158C371.966 45.1288 371.987 45.0896 371.996 45.0462C371.996 45.0455 371.996 45.0448 371.996 45.0441C371.997 45.0381 371.998 45.0321 371.999 45.0261C371.999 45.0245 371.999 45.0229 371.999 45.0213C371.999 45.0165 372 45.0117 372 45.0068C372 45.0036 372 45.0004 372 44.9972C372 44.9938 372 44.9904 372 44.987C371.999 44.9821 371.999 44.9773 371.998 44.9725C371.998 44.9709 371.998 44.9693 371.998 44.9677C371.997 44.9612 371.996 44.9548 371.994 44.9485C371.985 44.9061 371.964 44.8682 371.934 44.84C371.905 44.8118 371.868 44.7947 371.829 44.7911C367.363 43.9591 365.013 40.9523 364.186 36.1898C364.182 36.1414 364.163 36.096 364.132 36.0616C364.102 36.0271 364.061 36.0057 364.018 36.001C364.018 36.001 364.017 36.0009 364.017 36.0008H364.016C364.013 36.0006 364.009 36.0004 364.006 36.0004C364.003 36.0002 364.001 36.0001 363.998 36L363.998 36.0006Z" fill="#222222"/>
</svg>
