<svg width="105" height="104" viewBox="0 0 105 104" fill="none" xmlns="http://www.w3.org/2000/svg">
<rect y="4" width="3.9856" height="100" fill="#222222"/>
<rect x="99.9998" y="100" width="4" height="96.0066" transform="rotate(90 99.9998 100)" fill="#222222"/>
<rect x="5.48764" y="1.4946" width="97.0177" height="97.0108" fill="white" fill-opacity="0.8" stroke="#222222" stroke-width="2.9892"/>
<path d="M5.53357 86.3993C9.46841 66.8873 19.7247 31.2445 35.2393 45.07C54.6325 62.3519 68.9666 68.4839 86.3923 40.0522C100.333 17.3068 102.432 10.3057 102.526 8.91197" stroke="#222222" stroke-width="2.9892"/>
<path d="M5.47461 88.5534C9.40945 69.0414 19.7115 44.2524 35.2261 58.0779C54.6193 75.3598 68.9534 81.4919 86.3792 53.0602C100.32 30.3148 102.391 17.7492 102.485 16.3555" stroke="#222222" stroke-width="2.9892"/>
<path d="M5.4828 90.334C9.41764 70.8221 19.7227 57.2598 35.2373 71.0853C54.6304 88.3672 68.9644 94.4992 86.3902 66.0674C100.331 43.322 102.292 28.4738 102.386 27.0801" stroke="#222222" stroke-width="2.9892"/>
<path d="M73.893 37.6635C73.893 44.3614 68.4628 49.7914 61.7642 49.7914C55.0655 49.7914 49.6353 44.3614 49.6353 37.6635C49.6353 30.9655 55.0655 25.5356 61.7642 25.5356C68.4628 25.5356 73.893 30.9655 73.893 37.6635Z" stroke="#222222" stroke-width="2.9892"/>
<circle cx="39.9951" cy="22" r="5.5054" stroke="#222222" stroke-width="2.9892"/>
<path fill-rule="evenodd" clip-rule="evenodd" d="M24.1859 74.1558C24.1855 74.1558 24.1851 74.1558 24.1847 74.1559C24.1831 74.156 24.1815 74.1561 24.1799 74.1562C24.1754 74.1564 24.1709 74.1567 24.1664 74.1573C24.127 74.162 24.0902 74.18 24.0623 74.2083C24.0344 74.2366 24.0169 74.2736 24.0127 74.3131C23.234 78.3109 21.013 80.835 16.7953 81.533C16.7582 81.5363 16.723 81.5512 16.695 81.5757C16.6669 81.6003 16.6474 81.6331 16.6392 81.6694C16.6391 81.67 16.639 81.6706 16.6389 81.6712C16.6378 81.6762 16.637 81.6812 16.6363 81.6863C16.6362 81.6876 16.636 81.689 16.6359 81.6903C16.6355 81.6943 16.6352 81.6984 16.6351 81.7024C16.635 81.7051 16.635 81.7078 16.6351 81.7105C16.6351 81.7134 16.6351 81.7162 16.6353 81.7191C16.6356 81.7232 16.636 81.7272 16.6365 81.7312C16.6367 81.7326 16.6369 81.7339 16.6371 81.7353C16.6379 81.7407 16.639 81.7461 16.6404 81.7514C16.6494 81.787 16.6693 81.8189 16.6974 81.8426C16.7254 81.8662 16.7602 81.8805 16.7968 81.8834C21.0128 82.5817 23.2333 85.1048 24.0123 89.1009C24.0161 89.1415 24.0339 89.1796 24.0628 89.2085C24.0916 89.2374 24.1296 89.2554 24.1702 89.2593C24.1707 89.2593 24.1712 89.2593 24.1717 89.2593H24.172C24.1754 89.2594 24.1788 89.2594 24.1822 89.2593C24.185 89.2594 24.1878 89.2594 24.1906 89.2593C24.1918 89.2593 24.193 89.2593 24.1943 89.2593C24.2365 89.2578 24.2767 89.2411 24.3077 89.2123C24.3386 89.1834 24.358 89.1444 24.3625 89.1024C25.1429 85.1047 27.3621 82.5807 31.5795 81.8825C31.6167 81.8794 31.6519 81.8645 31.6801 81.8399C31.7082 81.8154 31.7278 81.7825 31.736 81.7461C31.7361 81.7455 31.7362 81.7449 31.7363 81.7443C31.7374 81.7393 31.7383 81.7343 31.7389 81.7292C31.7391 81.7279 31.7392 81.7265 31.7393 81.7252C31.7397 81.7212 31.74 81.7171 31.7402 81.7131C31.7402 81.7104 31.7402 81.7077 31.7402 81.705C31.7402 81.7021 31.7401 81.6993 31.74 81.6964C31.7397 81.6924 31.7393 81.6883 31.7387 81.6843C31.7385 81.6829 31.7384 81.6816 31.7382 81.6802C31.7373 81.6748 31.7362 81.6694 31.7349 81.6641C31.7259 81.6286 31.706 81.5967 31.678 81.5731C31.6501 81.5494 31.6154 81.5351 31.5789 81.5321C27.3626 80.8339 25.1437 78.3108 24.3629 74.3146C24.3591 74.2739 24.3413 74.2359 24.3125 74.207C24.2836 74.178 24.2456 74.1601 24.205 74.1562C24.2045 74.1561 24.204 74.156 24.2035 74.156H24.2031C24.1997 74.1558 24.1964 74.1556 24.193 74.1556C24.1906 74.1555 24.1883 74.1553 24.1859 74.1553L24.1859 74.1558Z" fill="#222222"/>
<path fill-rule="evenodd" clip-rule="evenodd" d="M35.3332 83.8431C35.333 83.8431 35.3327 83.8431 35.3325 83.8431C35.3316 83.8432 35.3307 83.8432 35.3298 83.8433C35.3273 83.8434 35.3247 83.8436 35.3222 83.8439C35.2999 83.8466 35.2792 83.8567 35.2634 83.8727C35.2477 83.8887 35.2378 83.9096 35.2354 83.9319C34.7958 86.189 33.5419 87.6141 31.1608 88.0082C31.1398 88.01 31.12 88.0185 31.1042 88.0323C31.0883 88.0462 31.0773 88.0647 31.0727 88.0852C31.0726 88.0855 31.0726 88.0859 31.0725 88.0862C31.0719 88.089 31.0714 88.0919 31.0711 88.0947C31.071 88.0955 31.0709 88.0962 31.0708 88.097C31.0706 88.0993 31.0704 88.1016 31.0703 88.1038C31.0703 88.1054 31.0703 88.1069 31.0703 88.1084C31.0703 88.11 31.0704 88.1116 31.0705 88.1133C31.0706 88.1155 31.0709 88.1178 31.0712 88.1201C31.0713 88.1209 31.0714 88.1216 31.0715 88.1224C31.072 88.1254 31.0726 88.1285 31.0733 88.1315C31.0784 88.1516 31.0897 88.1696 31.1055 88.183C31.1213 88.1963 31.141 88.2044 31.1616 88.206C33.5418 88.6002 34.7954 90.0248 35.2352 92.2809C35.2373 92.3039 35.2474 92.3254 35.2637 92.3417C35.2799 92.358 35.3014 92.3682 35.3243 92.3704C35.3246 92.3704 35.3249 92.3704 35.3252 92.3704H35.3254C35.3273 92.3705 35.3292 92.3705 35.3311 92.3704C35.3327 92.3704 35.3342 92.3704 35.3358 92.3704C35.3365 92.3704 35.3372 92.3704 35.3379 92.3704C35.3617 92.3695 35.3845 92.3601 35.4019 92.3438C35.4194 92.3276 35.4304 92.3055 35.4329 92.2818C35.8735 90.0247 37.1263 88.5997 39.5072 88.2055C39.5282 88.2038 39.5481 88.1953 39.564 88.1815C39.5799 88.1676 39.591 88.1491 39.5956 88.1285C39.5957 88.1282 39.5957 88.1278 39.5958 88.1275C39.5964 88.1247 39.5969 88.1218 39.5973 88.119C39.5973 88.1182 39.5974 88.1175 39.5975 88.1167C39.5977 88.1144 39.5979 88.1121 39.598 88.1099C39.598 88.1083 39.598 88.1068 39.598 88.1053C39.598 88.1037 39.5979 88.1021 39.5979 88.1004C39.5977 88.0981 39.5975 88.0959 39.5971 88.0936C39.597 88.0928 39.5969 88.0921 39.5968 88.0913C39.5964 88.0882 39.5957 88.0852 39.595 88.0822C39.5899 88.0621 39.5787 88.0442 39.5629 88.0308C39.5471 88.0174 39.5275 88.0093 39.5069 88.0077C37.1266 87.6135 35.8739 86.1889 35.4331 83.9327C35.431 83.9098 35.4209 83.8883 35.4046 83.872C35.3884 83.8556 35.3669 83.8455 35.344 83.8433C35.3437 83.8432 35.3434 83.8432 35.3431 83.8432H35.3429C35.341 83.8431 35.3391 83.843 35.3372 83.843C35.3359 83.8429 35.3345 83.8428 35.3332 83.8428L35.3332 83.8431Z" fill="#222222"/>
<path fill-rule="evenodd" clip-rule="evenodd" d="M19.2568 22.0003C19.2565 22.0003 19.2563 22.0003 19.2561 22.0003C19.2552 22.0004 19.2543 22.0005 19.2534 22.0005C19.2509 22.0006 19.2483 22.0008 19.2458 22.0011C19.2235 22.0038 19.2028 22.014 19.187 22.03C19.1712 22.0459 19.1614 22.0668 19.159 22.0891C18.7194 24.3463 17.4655 25.7713 15.0844 26.1654C15.0634 26.1672 15.0436 26.1757 15.0278 26.1895C15.0119 26.2034 15.0009 26.2219 14.9963 26.2424C14.9962 26.2428 14.9962 26.2431 14.9961 26.2434C14.9955 26.2462 14.995 26.2491 14.9946 26.2519C14.9946 26.2527 14.9945 26.2535 14.9944 26.2542C14.9942 26.2565 14.994 26.2588 14.9939 26.2611C14.9939 26.2626 14.9939 26.2641 14.9939 26.2656C14.9939 26.2672 14.994 26.2689 14.9941 26.2705C14.9942 26.2728 14.9944 26.275 14.9948 26.2773C14.9949 26.2781 14.995 26.2788 14.9951 26.2796C14.9955 26.2827 14.9962 26.2857 14.9969 26.2887C15.002 26.3088 15.0133 26.3268 15.0291 26.3402C15.0449 26.3535 15.0646 26.3616 15.0852 26.3633C17.4654 26.7575 18.719 28.182 19.1588 30.4382C19.1609 30.4611 19.171 30.4826 19.1873 30.4989C19.2035 30.5153 19.225 30.5254 19.2479 30.5276C19.2482 30.5276 19.2485 30.5276 19.2488 30.5276H19.2489C19.2509 30.5277 19.2528 30.5277 19.2547 30.5276C19.2563 30.5277 19.2578 30.5277 19.2594 30.5276C19.2601 30.5276 19.2608 30.5276 19.2615 30.5276C19.2853 30.5268 19.3081 30.5173 19.3255 30.5011C19.343 30.4848 19.3539 30.4627 19.3565 30.439C19.797 28.1819 21.0499 26.7569 23.4308 26.3628C23.4518 26.361 23.4717 26.3526 23.4876 26.3387C23.5035 26.3248 23.5146 26.3063 23.5192 26.2857C23.5193 26.2854 23.5193 26.2851 23.5194 26.2847C23.52 26.2819 23.5205 26.2791 23.5208 26.2762C23.5209 26.2754 23.521 26.2747 23.5211 26.2739C23.5213 26.2716 23.5215 26.2694 23.5216 26.2671C23.5216 26.2656 23.5216 26.264 23.5216 26.2625C23.5216 26.2609 23.5215 26.2593 23.5214 26.2577C23.5213 26.2554 23.521 26.2531 23.5207 26.2508C23.5206 26.2501 23.5205 26.2493 23.5204 26.2485C23.5199 26.2455 23.5193 26.2424 23.5186 26.2394C23.5135 26.2194 23.5023 26.2014 23.4865 26.188C23.4707 26.1747 23.4511 26.1666 23.4305 26.1649C21.0502 25.7707 19.7975 24.3462 19.3567 22.0899C19.3546 22.067 19.3445 22.0455 19.3282 22.0292C19.3119 22.0129 19.2905 22.0027 19.2676 22.0005C19.2673 22.0005 19.267 22.0004 19.2667 22.0004H19.2665C19.2646 22.0003 19.2627 22.0002 19.2608 22.0002C19.2594 22.0001 19.2581 22 19.2568 22L19.2568 22.0003Z" fill="#222222"/>
<path fill-rule="evenodd" clip-rule="evenodd" d="M76.4362 11.3969C76.4359 11.3969 76.4356 11.3969 76.4352 11.3969C76.434 11.397 76.4328 11.3971 76.4315 11.3972C76.428 11.3974 76.4245 11.3976 76.4209 11.398C76.3899 11.4018 76.3611 11.4159 76.3392 11.4381C76.3173 11.4604 76.3036 11.4894 76.3003 11.5204C75.689 14.6589 73.9455 16.6404 70.6346 17.1884C70.6055 17.1909 70.5779 17.2027 70.5559 17.2219C70.5338 17.2412 70.5185 17.2669 70.5121 17.2955C70.512 17.2959 70.5119 17.2964 70.5118 17.2969C70.511 17.3008 70.5103 17.3047 70.5098 17.3087C70.5097 17.3098 70.5096 17.3108 70.5095 17.3119C70.5092 17.315 70.5089 17.3182 70.5088 17.3214C70.5088 17.3235 70.5088 17.3256 70.5088 17.3277C70.5088 17.33 70.5089 17.3322 70.509 17.3345C70.5092 17.3377 70.5096 17.3408 70.51 17.344C70.5101 17.3451 70.5103 17.3461 70.5104 17.3472C70.5111 17.3514 70.5119 17.3557 70.513 17.3599C70.5201 17.3878 70.5357 17.4128 70.5577 17.4314C70.5797 17.45 70.607 17.4612 70.6358 17.4635C73.9453 18.0116 75.6884 19.9925 76.2999 23.1296C76.3029 23.1615 76.3169 23.1914 76.3396 23.2141C76.3622 23.2368 76.392 23.2509 76.4239 23.254C76.4243 23.254 76.4247 23.254 76.4251 23.254H76.4253C76.428 23.254 76.4306 23.254 76.4333 23.254C76.4355 23.254 76.4377 23.254 76.4399 23.254C76.4409 23.254 76.4418 23.254 76.4428 23.254C76.4759 23.2528 76.5075 23.2396 76.5318 23.217C76.5561 23.1944 76.5713 23.1638 76.5748 23.1308C77.1875 19.9923 78.9295 18.0109 82.2401 17.4628C82.2694 17.4603 82.297 17.4486 82.3191 17.4294C82.3412 17.4101 82.3566 17.3843 82.363 17.3557C82.3631 17.3552 82.3632 17.3548 82.3633 17.3543C82.3641 17.3504 82.3648 17.3464 82.3653 17.3424C82.3654 17.3414 82.3655 17.3403 82.3656 17.3393C82.366 17.3361 82.3662 17.3329 82.3663 17.3298C82.3664 17.3276 82.3664 17.3255 82.3663 17.3234C82.3663 17.3212 82.3663 17.3189 82.3661 17.3167C82.3659 17.3135 82.3656 17.3103 82.3652 17.3072C82.365 17.3061 82.3649 17.305 82.3647 17.304C82.3641 17.2997 82.3632 17.2955 82.3621 17.2913C82.3551 17.2634 82.3395 17.2384 82.3175 17.2198C82.2956 17.2013 82.2684 17.19 82.2397 17.1877C78.9299 16.6396 77.1881 14.6588 76.5752 11.5215C76.5722 11.4896 76.5582 11.4598 76.5356 11.4371C76.5129 11.4144 76.4831 11.4003 76.4512 11.3972C76.4508 11.3971 76.4504 11.3971 76.45 11.397H76.4497C76.4471 11.3969 76.4444 11.3968 76.4418 11.3968C76.4399 11.3966 76.4381 11.3965 76.4362 11.3965L76.4362 11.3969Z" fill="#222222"/>
</svg>
